<?xml version="1.0" standalone="no"?>
<!DOCTYPE svg PUBLIC "-//W3C//DTD SVG 1.1//EN" "http://www.w3.org/Graphics/SVG/1.1/DTD/svg11.dtd" >
<svg xmlns="http://www.w3.org/2000/svg">
<metadata></metadata>
<defs>
<font id="banda_thinthin" horiz-adv-x="1247" >
<font-face units-per-em="2048" ascent="1700" descent="-348" />
<missing-glyph horiz-adv-x="614" />
<glyph unicode="&#xfb01;" horiz-adv-x="968" d="M51 1036q0 10 8 19.5t21 9.5h96v92q0 143 80.5 242.5t216.5 99.5q151 -4 299 -96q12 -9 12 -25q0 -12 -8.5 -20t-19.5 -8q-7 0 -15 4q-58 37 -113 57.5t-85 25t-70 5.5q-76 0 -132.5 -43t-82 -106.5t-25.5 -135.5v-92h461q88 0 88 -109v-845q0 -49 27 -54q27 -4 27 -28 q0 -13 -8 -20t-16 -8l-7 -1q-29 0 -54.5 26t-25.5 85v858q0 39 -33 39h-459v-897q0 -59 -25 -85t-54 -26q-3 0 -8.5 1t-14 8t-8.5 20q0 24 27 28q26 5 26 54v897h-96q-13 0 -21 9t-8 19z" />
<glyph unicode="&#xfb02;" horiz-adv-x="1007" d="M51 1036q0 11 8 20t21 9h96v106q0 157 92 246.5t221 89.5q148 0 240 -98.5t92 -278.5v-1019q0 -49 27 -54q26 -4 26 -28q0 -13 -7.5 -20t-14.5 -8l-8 -1q-29 0 -54.5 26t-25.5 85v1026q0 139 -73 226t-206 87q-114 0 -183 -80.5t-69 -200.5v-104h297q14 0 22.5 -8 t8.5 -21q0 -28 -31 -28h-297v-897q0 -59 -25 -85t-54 -26q-3 0 -8.5 1t-14 8t-8.5 20q0 24 27 28q26 5 26 54v897h-96q-13 0 -21 9t-8 19z" />
<glyph unicode="&#xfb03;" horiz-adv-x="1536" d="M51 1036q0 10 8 19.5t21 9.5h96v133q0 301 258 301q69 0 144 -22q26 -9 26 -29q0 -29 -29 -29l-12 2q-82 21 -129 21q-201 0 -201 -244v-133h510v92q0 144 83 243t229 99q137 -5 284 -96q13 -10 13 -25q0 -12 -9 -20t-20 -8q-6 0 -14 4q-129 83 -256 88q-82 0 -141 -43 t-85 -106t-26 -136v-92h467q43 0 63.5 -31t18.5 -80v-843q0 -50 28 -54q25 -4 25 -28q0 -13 -7.5 -20t-14.5 -8l-7 -1q-29 0 -55.5 26t-26.5 85v843q3 54 -30 54h-461v-897q0 -59 -26.5 -85t-55.5 -26q-3 0 -8 1t-13 8t-8 20q0 20 23 28q30 5 30 54v897h-510v-897 q0 -59 -25 -85t-54 -26q-3 0 -8.5 1t-14 8t-8.5 20q0 24 27 28q26 5 26 54v897h-96q-13 0 -21 8.5t-8 19.5z" />
<glyph unicode="&#xfb04;" horiz-adv-x="1574" d="M51 1036q0 10 8 19.5t21 9.5h96v133q0 301 258 301q69 0 144 -22q26 -9 26 -29q0 -17 -12 -23.5t-29 -3.5q-82 21 -129 21q-201 0 -201 -244v-133h510v94q0 164 91.5 256t222.5 92q89 0 167.5 -43.5t121.5 -122.5q43 -82 43 -211v-1019q0 -49 30 -54q23 -8 23 -28 q0 -13 -7 -20t-15 -8l-7 -1q-29 0 -55.5 26t-26.5 85v1026q0 98 -37 178q-35 64 -99.5 99.5t-141.5 35.5q-119 0 -185.5 -89.5t-66.5 -221.5v-74h297q12 0 20 -9.5t8 -19.5q0 -28 -28 -28h-297v-897q0 -59 -26.5 -85t-55.5 -26q-3 0 -8 1t-13 8t-8 20q0 20 23 28q30 5 30 54 v897h-510v-897q0 -59 -25 -85t-54 -26q-3 0 -8.5 1t-14 8t-8.5 20q0 24 27 28q26 5 26 54v897h-96q-13 0 -21 8.5t-8 19.5z" />
<glyph horiz-adv-x="0" />
<glyph horiz-adv-x="682" />
<glyph horiz-adv-x="0" />
<glyph horiz-adv-x="0" />
<glyph unicode="&#xd;" horiz-adv-x="573" />
<glyph unicode=" "  horiz-adv-x="614" />
<glyph unicode="&#x09;" horiz-adv-x="614" />
<glyph unicode="&#xa0;" horiz-adv-x="614" />
<glyph unicode="!" horiz-adv-x="499" d="M201 57q0 21 15 35t36 14q23 0 39 -14.5t16 -36.5q0 -23 -16 -39t-39 -16t-37 16.5t-14 40.5zM221 1421q0 13 10 20t23 7q12 0 21.5 -7.5t9.5 -19.5l-11 -1071q0 -9 -5.5 -15.5t-14.5 -6.5q-23 0 -23 22z" />
<glyph unicode="&#x22;" horiz-adv-x="684" d="M182 1044l33 426q2 14 13 22t26 7q15 -2 23.5 -12t7.5 -27q-18 -79 -43.5 -224.5t-34.5 -193.5q-4 -13 -14 -10q-11 0 -11 12zM424 1044l33 426q1 13 12 22t25 7q35 -3 32 -39q-17 -78 -42 -222.5t-35 -195.5q-5 -14 -15 -10q-10 0 -10 12z" />
<glyph unicode="#" horiz-adv-x="1478" d="M72 385q0 12 8 20.5t20 8.5h287l105 594h-291q-12 0 -21.5 9t-9.5 21t9.5 20.5t21.5 8.5h301l63 348q1 12 12 19t23 4q11 -2 18.5 -11.5t4.5 -21.5l-62 -338h483l64 348q3 12 13 19t22 4q12 -1 18.5 -11t3.5 -22l-61 -338h270q12 0 21.5 -8.5t9.5 -20.5t-9.5 -21 t-21.5 -9h-280l-105 -594h287q12 0 20.5 -8.5t8.5 -20.5t-8.5 -20.5t-20.5 -8.5h-297l-59 -331q-7 -25 -31 -25q-27 3 -27 29q0 4 6 45q7 41 24.5 131t27.5 151h-484l-59 -331q-3 -12 -13 -19t-22 -6t-19.5 12t-5.5 23l60 321h-277q-12 0 -20 8.5t-8 20.5zM446 414h484 l104 594h-483z" />
<glyph unicode="$" horiz-adv-x="1136" d="M113 1087q0 81 36.5 149t96.5 112.5t135.5 69t155.5 24.5v94q0 12 8 20.5t20 8.5t20.5 -8.5t8.5 -20.5v-92q187 0 340 -123q17 -15 14.5 -32.5t-18 -21.5t-35.5 9q-140 110 -301 110v-655q51 -17 86.5 -31t83.5 -36t81 -43t68.5 -51.5t57 -64t35.5 -77t14 -92.5 q0 -81 -37.5 -146t-100 -105t-135.5 -63.5t-153 -29.5v-96q0 -11 -8.5 -20t-20.5 -9t-20 9t-8 20v94q-220 0 -402 116q-12 7 -14.5 21t5.5 25.5t24 11.5q13 0 34 -14q135 -90 303 -101q16 -2 50 -2v643l-2 2q-67 22 -121 45t-112.5 58.5t-98 75.5t-65 96t-25.5 120z M170 1083q0 -52 20.5 -96.5t52.5 -77.5t82 -63.5t99 -51.5t113 -44v634q-155 0 -261 -84t-106 -217zM594 49q158 13 263.5 88.5t105.5 196.5q0 67 -28 120.5t-83 93.5t-114 67.5t-144 56.5v-623z" />
<glyph unicode="%" horiz-adv-x="1359" d="M92 1143q0 120 80 203q80 86 195 86t193.5 -86.5t78.5 -202.5q0 -123 -80 -203q-80 -86 -192 -86q-115 0 -195 86q-80 83 -80 203zM152 1143q0 -94 62 -162t153 -68q90 0 152.5 68.5t62.5 161.5t-62.5 161t-152.5 68q-91 0 -153 -67.5t-62 -161.5zM211 29q0 7 6 16 l834 1376q10 17 26 17q11 0 20 -9t9 -20q0 -9 -6 -18l-832 -1375q-11 -16 -26 -16q-12 0 -21.5 8.5t-9.5 20.5zM721 287q0 119 80 205q80 83 194 83q115 0 194 -85t79 -201q0 -119 -78.5 -204t-194.5 -85q-113 0 -194 84q-80 83 -80 203zM780 289q0 -93 61.5 -161.5 t153.5 -68.5q90 0 152.5 68.5t62.5 161.5q0 92 -62.5 159.5t-152.5 67.5q-91 0 -153 -67.5t-62 -159.5z" />
<glyph unicode="&#x26;" horiz-adv-x="1421" d="M80 383q0 69 18.5 127t46.5 99.5t77 82t92 67t110 62.5q-52 52 -77.5 80t-58.5 73t-47 89t-14 94q0 127 91 207t217 80q125 0 217 -77.5t92 -199.5q0 -38 -6.5 -71t-22.5 -61.5t-31 -51t-43.5 -45.5t-47.5 -37.5t-56 -34.5t-55.5 -29.5t-59.5 -29.5l412 -404l110 248 q37 88 97 88q49 0 49 -30q0 -11 -8.5 -20t-16.5 -9q-7 0 -12 1t-8 1q-24 0 -41 -39l-127 -285l280 -280q21 -21 41 -21q8 1 16 6t15 5q13 0 21 -8.5t8 -18.5q0 -19 -18 -30t-42 -11q-37 0 -84 41l-262 260q-55 -135 -172 -218t-262 -83q-77 0 -155 28.5t-141 78 t-102.5 122.5t-39.5 154zM137 383q0 -70 35.5 -132.5t92 -104t125 -65.5t134.5 -24q133 0 234 80.5t149 208.5l-440 432q-45 -23 -73.5 -39t-67.5 -40.5t-63 -45.5t-50.5 -51.5t-41 -61.5t-24.5 -71.5t-10 -85.5zM287 1157q0 -33 9.5 -65t19 -53t35 -53.5t36.5 -44.5t47 -48 l43 -43q43 20 67.5 31.5t62 32t59 37t47.5 41t40 49.5t23.5 57.5t9.5 68.5q0 97 -75 158t-176 61t-174.5 -63.5t-73.5 -165.5z" />
<glyph unicode="'" horiz-adv-x="382" d="M135 1044l33 426q2 14 13 22t26 7q15 -2 23.5 -12t7.5 -27q-18 -79 -43.5 -224.5t-34.5 -193.5q-5 -14 -15 -10q-10 0 -10 12z" />
<glyph unicode="(" horiz-adv-x="468" d="M125 713q2 193 47 383t137 336q10 16 27 16q12 0 21.5 -9t9.5 -20q0 -8 -5 -18q-147 -313 -147 -688q0 -346 135 -690q4 -12 4 -15q0 -13 -9 -22t-23 -9q-17 0 -27 17q-170 326 -170 719z" />
<glyph unicode=")" horiz-adv-x="468" d="M102 1419q0 11 9.5 20t21.5 9q17 0 27 -16q92 -146 137 -336t47 -383q0 -393 -170 -719q-10 -17 -27 -17q-14 0 -23 9t-9 22q0 3 4 15q135 344 135 690q0 373 -148 688q-4 8 -4 18z" />
<glyph unicode="*" horiz-adv-x="862" d="M135 1227q0 16 12 29.5t33 9.5l230 -88q-14 201 -17 236v1q0 13 11.5 23t25.5 10t26.5 -10t12.5 -23l-18 -233l229 80q19 6 33 -7t14 -32q0 -27 -25 -33l-235 -47l158 -197q6 -9 6 -18q0 -16 -11.5 -27.5t-29.5 -11.5t-27 12l-129 219l-133 -219q-8 -14 -29 -14 q-16 0 -28.5 10.5t-12.5 28.5q0 9 7 16l163 197l-239 53q-27 7 -27 35z" />
<glyph unicode="+" horiz-adv-x="995" d="M111 664q0 12 8 21t18 9h332v328q0 12 8.5 21.5t20.5 9.5q11 0 19.5 -8.5t8.5 -18.5v-332h328q13 0 22 -8t9 -22q0 -10 -8.5 -18.5t-18.5 -8.5h-332v-328q0 -30 -28 -30q-25 0 -29 26v332h-328q-12 0 -21 7.5t-9 19.5z" />
<glyph unicode="," horiz-adv-x="442" d="M123 -172q-5 12 10 20q59 34 97 91.5t18 113.5l-4 10l-6 -6q-19 -16 -43 -16q-21 0 -35.5 15.5t-14.5 37.5q0 25 21.5 42.5t48.5 17.5q42 0 66 -39.5t24 -85.5q0 -63 -47 -118t-113 -87q-14 -7 -22 4z" />
<glyph unicode="-" horiz-adv-x="950" d="M115 535q0 11 8 19.5t18 8.5h662q13 0 23 -6.5t10 -19.5q0 -12 -8.5 -21.5t-20.5 -9.5h-662q-12 0 -21 8.5t-9 20.5z" />
<glyph unicode="." horiz-adv-x="485" d="M172 72q0 31 20.5 51t51.5 20t51 -20t20 -51t-20 -51.5t-51 -20.5t-51.5 20.5t-20.5 51.5z" />
<glyph unicode="/" horiz-adv-x="890" d="M4 -133l850 1771q10 21 27 21q18 0 25.5 -12t0.5 -29l-850 -1778q-8 -16 -26 -16t-25.5 13.5t-1.5 29.5z" />
<glyph unicode="0" horiz-adv-x="1345" d="M113 717q0 298 159 504q76 99 179.5 156t222.5 57q116 0 218.5 -57t178.5 -156q81 -103 121.5 -233.5t40.5 -270.5q0 -138 -40.5 -269t-121.5 -235q-76 -99 -178.5 -156t-218.5 -57q-119 0 -222.5 57t-179.5 156q-159 209 -159 504zM170 717q0 -235 113 -418 q69 -109 172 -176.5t219 -67.5q120 3 221 70.5t166 173.5q113 183 113 418t-113 418q-67 107 -170 174t-217 67q-124 0 -225 -67q-131 -85 -205 -253t-74 -339z" />
<glyph unicode="1" horiz-adv-x="530" d="M41 1200q0 16 14 27l232 198q11 11 22 11t19 -8.5t8 -20.5v-1378q0 -12 -8.5 -20.5t-20.5 -8.5q-10 0 -19 9t-9 20v1314l-187 -161q-11 -8 -22 -8q-12 0 -20.5 7.5t-8.5 18.5z" />
<glyph unicode="2" horiz-adv-x="1085" d="M70 29q0 52 15 102.5t35.5 89.5t59.5 83t67.5 71t82 66.5t79.5 57t81 53.5q18 11 26 17q176 115 236 166q68 61 105 119t40 139q6 184 -102.5 284.5t-292.5 100.5q-110 0 -200.5 -47.5t-141.5 -140.5q-8 -14 -27 -14q-12 0 -20.5 8.5t-8.5 17.5q0 5 5 15 q58 109 161.5 163t231.5 54q211 0 334.5 -118.5t119.5 -322.5q-1 -61 -27.5 -119.5t-56.5 -99t-98 -95.5t-107 -82t-129 -85q-8 -5 -12 -8q-47 -31 -72.5 -48t-73 -51t-75.5 -59t-64 -62.5t-57 -70.5t-37 -74t-18 -82h825q12 0 20.5 -8t8.5 -20t-8.5 -20.5t-20.5 -8.5h-854 q-12 0 -21 8.5t-9 20.5z" />
<glyph unicode="3" horiz-adv-x="1210" d="M92 403q0 13 8 23t21 10q35 0 35 -33q0 -43 12 -84q36 -115 151 -186q113 -74 271 -74q152 0 268 74q73 47 117.5 117t44.5 153q0 85 -36.5 155t-104.5 114q-115 73 -269 73q-13 0 -24 8.5t-11 22.5q0 13 10.5 21t24.5 8q121 0 219 61q60 39 98 99t38 129q0 66 -38 125 t-98 98q-98 61 -219 61q-110 0 -200.5 -47.5t-141.5 -140.5q-8 -14 -26 -14q-12 0 -20.5 8.5t-8.5 17.5q0 7 4 15q58 109 161.5 163t231.5 54q168 0 291 -99q123 -101 123 -241q0 -107 -69.5 -191t-174.5 -123q133 -40 219 -140.5t86 -236.5q0 -169 -147 -286 q-143 -117 -348 -117q-209 0 -352 117q-146 116 -146 286z" />
<glyph unicode="4" horiz-adv-x="1216" d="M76 410q0 16 12 28l784 985q8 11 23 11q12 0 21.5 -8.5t9.5 -20.5v-967h178q12 0 20.5 -8t8.5 -20t-8.5 -20.5t-20.5 -8.5h-178v-350q0 -12 -9.5 -21.5t-21.5 -9.5t-20.5 9.5t-8.5 21.5v350h-762q-12 0 -20 9t-8 20zM164 440h702v881z" />
<glyph unicode="5" horiz-adv-x="1146" d="M107.5 265q9.5 14 25 13.5t25.5 -14.5q9 -14 35 -49q63 -75 156.5 -115.5t195.5 -40.5q147 0 252 64q88 53 139 139t51 184q0 86 -38.5 161t-100.5 125t-141.5 79t-161.5 29q-162 0 -291 -99q-6 -6 -18 -6q-13 0 -21 9.5t-8 19.5q0 2 88 645q1 10 9.5 17.5t19.5 7.5h600 q11 0 19.5 -7.5t8.5 -19.5t-8.5 -20.5t-19.5 -8.5h-574l-76 -553q126 72 271 72q94 0 184.5 -33.5t161 -91t113.5 -143.5t43 -183q0 -121 -59.5 -221t-164.5 -159q-123 -66 -276 -66q-136 2 -254 63t-184 173q-11 15 -1.5 29z" />
<glyph unicode="6" horiz-adv-x="1187" d="M111 686q0 102 16 201.5t54 196.5t93 172t139 123.5t187 54.5h29q194 0 377 -131q14 -12 7 -31t-28 -19q-7 0 -20 9q-86 56 -165 86t-175 30q-81 0 -150 -30t-118 -82.5t-86.5 -120.5t-60 -147.5t-33.5 -159.5t-11 -160q0 -45 2 -68q48 134 175.5 212.5t277.5 78.5 q194 0 320.5 -123.5t129.5 -314.5q2 -132 -63 -239.5t-170.5 -165.5t-225.5 -58q-193 0 -333 125q-56 51 -91.5 117t-51 145.5t-20.5 144t-5 154.5zM195 449q0 -97 58.5 -187.5t155.5 -146.5t203 -56q166 0 284 116.5t118 287.5q0 160 -117.5 270.5t-278.5 110.5 q-107 0 -203.5 -50t-158 -142t-61.5 -203z" />
<glyph unicode="7" horiz-adv-x="1097" d="M111 1391q0 32 28 32h844q13 0 22 -8.5t9 -19.5q0 -7 -8 -27q-165 -411 -328 -813t-215 -535q-8 -20 -33 -20q-14 0 -24 13t-3 32l531 1319h-791q-32 0 -32 27z" />
<glyph unicode="8" horiz-adv-x="1146" d="M90 397q0 136 95 240t233 145q-105 39 -175.5 124.5t-70.5 191.5q0 79 34.5 146t91 110t127 66.5t144.5 23.5q75 0 147 -24t130 -66.5t93.5 -109.5t35.5 -146q0 -106 -72 -192.5t-178 -123.5q141 -43 236.5 -145t95.5 -240q0 -95 -43 -173.5t-113.5 -128.5t-156.5 -77.5 t-175 -27.5q-69 0 -137 17t-129.5 52t-109 83t-75.5 114t-28 141zM154 397q0 -80 37 -147t97.5 -110t133.5 -67t147 -24q158 0 283.5 89t138.5 239v16q0 82 -37 150.5t-98 112.5t-135.5 68t-151.5 24q-101 0 -194 -40t-157 -122.5t-64 -188.5zM231 1098q0 -88 52 -155.5 t127.5 -100.5t158.5 -33q85 0 163 33t130.5 100.5t52.5 155.5q0 67 -30.5 123t-80.5 91t-111 54.5t-124 19.5q-84 0 -160 -32.5t-127 -100t-51 -155.5z" />
<glyph unicode="9" horiz-adv-x="1187" d="M117 971q-1 99 36.5 186.5t101 147.5t147 94.5t173.5 34.5q194 0 334 -125q56 -51 91.5 -117t51 -145.5t20.5 -144t5 -154.5q0 -102 -16 -201.5t-54 -196.5t-93 -172t-139 -123.5t-187 -54.5h-29q-194 0 -377 131q-14 12 -7 30.5t28 18.5q8 0 20 -8q86 -57 165 -87 t175 -30t175.5 43.5t131 113.5t87 163t50.5 188.5t15 192.5q0 44 -2 67q-48 -134 -175.5 -212.5t-277.5 -78.5q-194 0 -320.5 124t-129.5 315zM174 971q0 -160 117 -270.5t278 -110.5q79 0 156 30t136 81.5t95.5 126t36.5 157.5q0 97 -58.5 187t-156 146t-203.5 56 q-166 0 -283.5 -116t-117.5 -287z" />
<glyph unicode=":" horiz-adv-x="505" d="M186 66q0 29 19 48t47 19q29 0 48 -19t19 -48q0 -28 -19 -47t-48 -19q-28 0 -47 19t-19 47zM186 848q0 29 19 48t47 19q29 0 48 -19t19 -48q0 -28 -19 -47t-48 -19q-28 0 -47 19t-19 47z" />
<glyph unicode=";" horiz-adv-x="471" d="M125 -193q-9 12 10 21q57 34 94 90.5t17 110.5l-4 12l-6 -6q-19 -19 -41 -19t-36 16.5t-14 39.5q0 24 22 41.5t46 17.5q42 0 66 -40t24 -85q0 -64 -46.5 -118t-111.5 -85q-12 -6 -20 4zM143 854q0 27 20.5 46.5t47.5 19.5q29 0 49.5 -18.5t20.5 -47.5q0 -27 -21 -46.5 t-49 -19.5q-27 0 -47.5 19.5t-20.5 46.5z" />
<glyph unicode="&#x3c;" horiz-adv-x="835" d="M102 717q0 19 23 31l500 245q12 6 25 2.5t20 -16.5q4 -8 4 -16q0 -19 -15 -25l-514 -221l514 -221q15 -6 15 -27q0 -13 -9.5 -22t-23.5 -9q-8 0 -16 4l-500 244q-23 10 -23 31z" />
<glyph unicode="=" horiz-adv-x="968" d="M141 563q0 11 8.5 20t18.5 9h629q12 0 21 -7.5t9 -19.5t-8 -21t-18 -9h-629q-12 0 -21.5 8t-9.5 20zM141 866q0 11 8.5 20t18.5 9h629q12 0 21 -7.5t9 -19.5t-8 -21t-18 -9h-629q-12 0 -21.5 8t-9.5 20z" />
<glyph unicode="&#x3e;" horiz-adv-x="835" d="M162 469q0 21 14 27l514 221l-514 221q-14 6 -14 27q0 13 10.5 22.5t22.5 9.5q6 0 14 -4l502 -245q22 -11 22 -31t-22 -31l-502 -244q-8 -4 -16 -4q-17 0 -27 17q-4 8 -4 14z" />
<glyph unicode="?" horiz-adv-x="751" d="M51 1335q0 11 12 19q56 42 130 66t145 24q148 0 252 -84.5t104 -229.5q0 -56 -12 -100.5t-40.5 -85.5t-54.5 -68.5t-75 -72.5q-58 -53 -89 -87.5t-57 -91.5t-26 -122v-156q0 -18 -23 -18q-20 0 -20 18v156q0 54 12.5 100.5t39 88t54.5 73.5t72 74q47 46 65 65t47.5 58.5 t40.5 77.5t11 85q0 125 -87 199t-212 74q-140 0 -256 -80q-10 -8 -21.5 -1.5t-11.5 19.5zM266 53q0 22 14.5 37.5t36.5 15.5q23 0 38.5 -15.5t15.5 -37.5q0 -23 -16 -38t-38 -15q-20 0 -35.5 15.5t-15.5 37.5z" />
<glyph unicode="@" horiz-adv-x="2217" d="M88 573q0 207 82.5 397t220 327.5t327 219.5t394.5 82q212 0 406 -70.5t335 -211.5q138 -140 207.5 -328t69.5 -393q0 -80 -10 -157t-36.5 -158.5t-68 -142t-110 -99.5t-156.5 -39q-132 0 -215 76.5t-90 220.5q-75 -128 -199.5 -212.5t-265.5 -84.5q-179 0 -297.5 134.5 t-118.5 332.5q0 117 42 229.5t115 199.5t179.5 140.5t226.5 53.5q132 0 236.5 -72.5t153.5 -204.5l8 41q22 111 98 111q10 0 17.5 -8t7.5 -19q0 -15 -8 -21.5t-20 -10.5t-17 -9q-10 -9 -19.5 -40.5t-17.5 -82t-14 -93t-13 -103t-10 -82.5q-2 -13 -8.5 -56.5t-9.5 -73 t-3 -57.5q0 -118 66 -183t176 -65q67 0 120 26.5t87 74.5t57 103.5t34.5 124t16 125.5t4.5 118q0 172 -59 328.5t-174 281.5q-135 147 -324 220t-399 73q-195 0 -373 -76.5t-307 -205.5t-205.5 -307.5t-76.5 -373.5q0 -197 79.5 -376.5t212 -307.5t313 -204t375.5 -76 q304 6 549 182q9 6 19 6q12 0 21.5 -9t9.5 -21q0 -15 -13 -25q-270 -195 -600 -195q-205 0 -395 81.5t-328.5 219t-221.5 327.5t-83 398zM621 477q0 -175 101.5 -296.5t258.5 -121.5q149 0 272.5 102t186.5 251q45 112 45 231q0 166 -102 276.5t-263 110.5 q-140 0 -256.5 -82t-179.5 -208t-63 -263z" />
<glyph unicode="A" horiz-adv-x="1404" d="M96 31q0 26 33 26q25 0 39 43l494 1315q4 12 16 19.5t24 7.5t24.5 -7.5t16.5 -19.5l494 -1315q14 -43 39 -43q33 0 33 -26q0 -31 -35 -31q-19 0 -39 10q-34 18 -53 72l-127 336h-705l-127 -336q-19 -54 -53 -72q-20 -10 -39 -10q-35 0 -35 31zM371 475h663l-332 883z" />
<glyph unicode="B" horiz-adv-x="1349" d="M195 29q0 24 26 28q27 5 27 54v1212q0 48 -27 53q-26 4 -26 29q0 13 7.5 20t15.5 8l7 1h514q111 0 207.5 -47.5t156.5 -137t60 -200.5q0 -165 -96 -258q-35 -35 -80 -58q79 -30 143 -94q111 -118 111 -274q0 -75 -29 -144t-84 -119q-107 -102 -288 -102h-615q-3 0 -8 1 t-13.5 8t-8.5 20zM297 57h543q154 0 250 86q45 42 69.5 101t24.5 121q0 134 -94 235q-34 35 -69 55.5t-79.5 29t-74.5 10t-89 1.5h-473v-585q0 -26 -8 -54zM297 1376q8 -28 8 -53v-569h473q85 0 142.5 14t107.5 63q78 78 78 216q0 143 -109.5 236t-257.5 93h-442z" />
<glyph unicode="C" horiz-adv-x="1323" d="M123 717q0 146 58 279.5t156 230t231.5 154t279.5 57.5q183 0 342 -84q16 -6 16 -25q0 -12 -8 -21.5t-18 -9.5q-7 0 -17 5q-145 77 -311 77q-137 0 -261.5 -52.5t-214.5 -141t-143 -211.5t-53 -258q0 -133 54.5 -256.5t145 -213.5t213.5 -144t255 -54q191 0 358 107 q17 9 31 0.5t14 -27.5q0 -6 -3.5 -12t-7.5 -9l-3 -2q-175 -114 -391 -114q-146 0 -280 58.5t-231 156.5t-154.5 231.5t-57.5 278.5z" />
<glyph unicode="D" horiz-adv-x="1488" d="M195 29q0 24 26 28q27 5 27 54v1212q0 48 -27 53q-26 4 -26 29q0 13 7.5 20t15.5 8l7 1h383q181 0 316.5 -42t246.5 -147q195 -184 195 -524q0 -346 -190 -539q-82 -82 -200.5 -132t-234.5 -50h-516q-3 0 -8 1t-13.5 8t-8.5 20zM297 57h442q108 0 218 48.5t186 127.5 q166 177 166 488q0 315 -181 483q-92 87 -220.5 129.5t-254.5 42.5h-356q8 -28 8 -53v-1212q0 -26 -8 -54z" />
<glyph unicode="E" horiz-adv-x="1314" d="M195 29q0 24 26 28q27 5 27 54v1212q0 48 -27 53q-26 4 -26 29q0 13 7.5 20t15.5 8l7 1h916q12 0 20 -8.5t8 -20.5t-8 -20.5t-20 -8.5h-844q8 -28 8 -53v-598h709q18 0 26 -14.5t0.5 -28.5t-26.5 -14h-709v-557q0 -26 -8 -54h885q13 0 21.5 -7.5t8.5 -20.5 q0 -12 -9 -20.5t-21 -8.5h-957q-3 0 -8 1t-13.5 8t-8.5 20z" />
<glyph unicode="F" horiz-adv-x="1234" d="M195 29q0 24 26 28q27 5 27 54v1212q0 48 -27 53q-26 4 -26 29q0 13 7.5 20t15.5 8l7 1h887q31 0 31 -29q0 -12 -9.5 -20.5t-21.5 -8.5h-815q8 -28 8 -53v-598h674q18 0 26 -14.5t0 -28.5t-26 -14h-674v-557q0 -59 -25.5 -85t-54.5 -26q-3 0 -8 1t-13.5 8t-8.5 20z" />
<glyph unicode="G" horiz-adv-x="1591" d="M123 717q0 146 54 277.5t157 234.5q211 211 510 211q264 0 452 -156q17 -14 14 -31.5t-18 -21.5t-30 6q-173 145 -418 145q-180 0 -333 -89t-242 -242t-89 -334t89 -334t242 -242.5t333 -89.5q321 0 504 234v282q0 26 8 54h-400q-18 0 -26 14.5t-0.5 28.5t26.5 14h471 q3 0 8.5 -1t14 -8t8.5 -20q0 -24 -26 -28q-27 -5 -27 -54v-291q0 -14 -4 -20q-199 -262 -557 -262q-146 0 -279.5 58t-230 155t-154 230.5t-57.5 279.5z" />
<glyph unicode="H" horiz-adv-x="1558" d="M195 29q0 24 26 28q27 5 27 54v1212q0 48 -27 53q-26 4 -26 29q0 13 7.5 20t15.5 8l7 1q29 0 54.5 -26t25.5 -85v-596h948v596q0 59 25.5 85t54.5 26q3 0 8.5 -1t14 -8t8.5 -20q0 -25 -27 -29q-26 -5 -26 -53v-1212q0 -49 26 -54q27 -4 27 -28q0 -13 -8 -20t-16 -8l-7 -1 q-29 0 -54.5 26t-25.5 85v559h-948v-559q0 -59 -25.5 -85t-54.5 -26q-3 0 -8 1t-13.5 8t-8.5 20z" />
<glyph unicode="I" horiz-adv-x="466" d="M205 29v1376q0 12 8 20.5t20 8.5t20.5 -8.5t8.5 -20.5v-1376q0 -11 -8.5 -20t-20.5 -9t-20 9t-8 20z" />
<glyph unicode="J" horiz-adv-x="1015" d="M66 201q0 12 8 20t20 8q11 0 25 -14q60 -80 133.5 -119t173.5 -39q144 0 231 111q78 101 78 244v911q0 59 26.5 85t55.5 26q3 0 8 -1t13 -8t8 -20q0 -25 -25 -29q-28 -4 -28 -53v-909q0 -172 -99 -291q-102 -123 -272 -123q-115 0 -195 45q-70 37 -151 131q-10 11 -10 25 z" />
<glyph unicode="K" horiz-adv-x="1382" d="M195 29q0 24 24 28q29 5 29 54v1212q0 48 -29 53q-24 4 -24 29q0 13 7 20t14 8l7 1q29 0 55.5 -26t26.5 -85v-782l760 786q22 22 22 41q0 8 -7 16.5t-7 20.5t8.5 20.5t20.5 8.5q21 0 33 -17.5t12 -44.5q0 -33 -37 -80l-477 -495l557 -709q25 -31 43 -31q6 0 16 4.5 t15 4.5q10 0 18 -8t8 -19q0 -19 -19 -29t-38 -10q-46 0 -84 47l-557 709l-287 -299v-346q0 -59 -26.5 -85t-55.5 -26q-3 0 -7.5 1t-12.5 8t-8 20z" />
<glyph unicode="L" horiz-adv-x="1175" d="M193 29q0 24 26 28q27 5 27 54v1212q0 48 -29 53q-24 4 -24 29q0 13 7 20t14 8l7 1q29 0 55.5 -26t26.5 -85v-1212q0 -26 -8 -54h774q12 0 20.5 -8t8.5 -20t-8.5 -20.5t-20.5 -8.5h-846q-3 0 -8 1t-13.5 8t-8.5 20z" />
<glyph unicode="M" horiz-adv-x="1818" d="M195 29q0 24 24 28q29 5 29 54v1212q0 48 -29 53q-24 4 -24 29q0 13 7 20t14 8l7 1q43 0 74 -56l612 -1138l613 1138q31 56 73 56q3 0 8 -1t13 -8t8 -20q0 -25 -25 -29q-28 -4 -28 -53v-1212q0 -50 28 -54q25 -4 25 -28q0 -13 -7 -20t-15 -8l-7 -1q-29 0 -55.5 26 t-26.5 85v1126l-577 -1073q-10 -19 -27 -19t-26 19l-578 1073v-1126q0 -59 -26.5 -85t-55.5 -26q-3 0 -7.5 1t-12.5 8t-8 20z" />
<glyph unicode="N" horiz-adv-x="1542" d="M195 29q0 24 24 28q29 5 29 54v1212q0 48 -29 53q-24 4 -24 29q0 13 7 20t14 8l7 1q43 0 82 -52l932 -1222v1163q0 59 26.5 85t55.5 26q3 0 8 -1t13 -8t8 -20q0 -25 -25 -29q-29 -5 -29 -53v-1212q0 -49 29 -54q25 -4 25 -28q0 -13 -7 -20t-15 -8l-7 -1q-36 0 -68 41 l-946 1231v-1161q0 -59 -26.5 -85t-55.5 -26q-3 0 -7.5 1t-12.5 8t-8 20z" />
<glyph unicode="O" horiz-adv-x="1699" d="M123 715q0 148 58 283t155.5 232.5t231.5 155.5t280 58q198 0 366 -97t265.5 -264.5t97.5 -367.5q0 -197 -97 -364t-264.5 -264t-367.5 -97q-149 0 -284.5 59.5t-231.5 159t-152.5 232t-56.5 274.5zM180 715q0 -132 54 -255.5t144.5 -214t214 -144.5t255.5 -54 q182 0 337 91.5t245 245.5t90 331q0 180 -90 334.5t-245 245.5t-337 91q-177 0 -331 -91t-245.5 -246t-91.5 -334z" />
<glyph unicode="P" horiz-adv-x="1271" d="M195 29q0 24 24 28q29 5 29 54v1212q0 48 -27 53q-26 4 -26 29q0 13 7.5 20t15.5 8l7 1h578q161 0 274 -115t113 -275t-113 -274.5t-274 -114.5h-498v-544q0 -59 -26.5 -85t-55.5 -26q-3 0 -7.5 1t-12.5 8t-8 20zM297 1376q8 -28 8 -53v-610h500q135 0 231.5 97.5 t96.5 233.5q0 137 -96.5 234.5t-231.5 97.5h-508z" />
<glyph unicode="Q" horiz-adv-x="1695" d="M123 713q0 148 58 283.5t155 233.5t230.5 156t279.5 58q196 0 363.5 -98t265.5 -266.5t98 -366.5q0 -150 -60.5 -286.5t-166.5 -238.5l118 -106q23 -23 49 -23q7 0 14 3.5t13 3.5q12 0 20.5 -7t8.5 -20q0 -20 -18.5 -29.5t-43.5 -9.5q-35 0 -82 37l-122 115 q-203 -162 -457 -162q-145 0 -279 58t-231 155t-155 231t-58 279zM180 713q0 -132 54 -255.5t143.5 -213t213 -143.5t255.5 -54q222 0 411 141l-231 211q-10 10 -10 23q0 17 16 24t29 -4l239 -215q100 94 158 221.5t58 264.5q0 136 -54 260.5t-144 215t-214 144t-258 53.5 q-177 0 -330.5 -90.5t-244.5 -246t-91 -336.5z" />
<glyph unicode="R" horiz-adv-x="1445" d="M195 29q0 24 24 28q29 5 29 54v1212q0 48 -27 53q-26 4 -26 29q0 13 7.5 20t15.5 8l7 1h580q167 0 278 -114t111 -276q0 -139 -89.5 -246.5t-223.5 -133.5l333 -572q22 -35 43 -35q5 0 13 3t14 3q12 0 20.5 -6.5t8.5 -17.5q0 -35 -56 -39q-29 0 -53 16.5t-37 40.5 l-352 598h-510v-544q0 -59 -26.5 -85t-55.5 -26q-3 0 -7.5 1t-12.5 8t-8 20zM297 1376q8 -28 8 -53v-610h502q135 0 232.5 97.5t97.5 233.5t-97.5 234t-232.5 98h-510z" />
<glyph unicode="S" horiz-adv-x="1136" d="M113 1087q0 111 67 194.5t168 123t217 39.5q223 0 371 -121q15 -13 11.5 -29.5t-19 -21t-35.5 7.5q-71 52 -145.5 79t-176.5 27q-109 0 -199 -35.5t-146 -105.5t-56 -162q0 -53 23.5 -99.5t60.5 -81t93.5 -66t110.5 -54t124 -45.5q52 -18 87.5 -31t85.5 -35.5t83.5 -44 t71 -52.5t59.5 -64.5t36.5 -78.5t14.5 -95q0 -88 -44.5 -157t-117 -109t-154.5 -60t-167 -20q-220 0 -402 116q-12 7 -14.5 21t5.5 25.5t24 11.5q13 0 34 -14q150 -103 353 -103q177 0 301.5 78t124.5 209q0 50 -15 92t-47 76t-66.5 60t-89.5 50.5t-99.5 41t-110.5 38.5 q-67 22 -121 45t-112.5 58.5t-98 75.5t-65 96t-25.5 120z" />
<glyph unicode="T" horiz-adv-x="1380" d="M82 1405q0 12 8.5 20.5t20.5 8.5h1159q12 0 20 -8.5t8 -20.5t-8 -20.5t-20 -8.5h-551v-1347q0 -12 -8.5 -20.5t-20.5 -8.5q-11 0 -19.5 8.5t-8.5 20.5v1347h-551q-12 0 -20.5 8.5t-8.5 20.5z" />
<glyph unicode="U" horiz-adv-x="1474" d="M168 1405q0 13 7 20t15 8l7 1q29 0 55.5 -26t26.5 -85v-854q0 -77 40 -153t102.5 -132.5t143 -91.5t158.5 -35h33q105 0 206.5 56.5t167.5 154t66 205.5v850q0 59 26.5 85t55.5 26q3 0 8 -1t13 -8t8 -20q0 -25 -25 -29q-29 -5 -29 -53v-848q0 -125 -74 -236t-189.5 -175 t-237.5 -64h-33q-120 0 -235 63.5t-189 173.5t-74 234v852q0 49 -28 53q-25 4 -25 29z" />
<glyph unicode="V" horiz-adv-x="1415" d="M92 1403q0 31 49 31q56 0 82 -64l486 -1261l485 1261q25 64 82 64q47 0 47 -31q0 -12 -8.5 -21.5t-20.5 -9.5q-3 0 -11 2t-11 2q-15 0 -25 -26l-510 -1323q-10 -27 -28 -27q-19 0 -29 27l-510 1323q-10 26 -25 26q-3 0 -11 -2t-11 -2q-12 0 -21.5 9.5t-9.5 21.5z" />
<glyph unicode="W" horiz-adv-x="2084" d="M92 1401q0 17 15.5 25t33.5 8q64 -3 88 -74l412 -1233l373 1284q7 23 28 23q22 0 29 -23l373 -1284l411 1233q24 71 89 74q18 0 33.5 -8t15.5 -25q0 -12 -8.5 -20.5t-20.5 -8.5q-2 0 -8.5 2t-9.5 2q-23 3 -33 -26l-443 -1330q-7 -20 -26 -20q-22 0 -29 20l-373 1278 l-372 -1278q-7 -20 -29 -20q-20 0 -27 20l-442 1330q-10 29 -33 26q-3 0 -9.5 -2t-8.5 -2q-12 0 -20.5 8.5t-8.5 20.5z" />
<glyph unicode="X" horiz-adv-x="1411" d="M129 1401q0 17 15.5 25t33.5 8q49 0 90 -60l439 -610l436 608q43 62 90 62q18 0 33.5 -8t15.5 -25q0 -12 -8.5 -20.5t-20.5 -8.5q-3 0 -9 2t-9 2q-12 1 -25 -11t-20 -24l-449 -632l449 -619q22 -33 41 -33q5 0 12 2t8 2q12 0 20.5 -8t8.5 -20q0 -33 -51 -33q-45 0 -90 61 l-432 592l-428 -592q-45 -61 -91 -61q-18 0 -33.5 8t-15.5 25q0 12 8.5 20t20.5 8q4 0 10 -2t10 -2q17 0 41 33l443 619l-453 634q-22 33 -41 33q-4 0 -11 -2t-9 -2q-12 0 -20.5 8.5t-8.5 20.5z" />
<glyph unicode="Y" horiz-adv-x="1314" d="M90 1401q0 17 15.5 25t33.5 8q48 0 78 -50l440 -733l441 733q26 47 78 50q18 0 33.5 -8t15.5 -25q0 -12 -8.5 -21t-20.5 -8q-2 0 -8.5 2t-9.5 2q-20 0 -33 -22l-459 -764v-561q0 -12 -9 -20.5t-20 -8.5t-19.5 8.5t-8.5 20.5v561l-459 764q-13 22 -31 22q-5 0 -12 -2 t-8 -2q-12 0 -20.5 8.5t-8.5 20.5z" />
<glyph unicode="Z" horiz-adv-x="1353" d="M125 1458q0 12 8.5 21.5t20.5 9.5q11 0 19.5 -6.5t8.5 -18.5q0 -30 54 -30h899q33 0 45 -22t-9 -54l-960 -1301h924q53 0 53 31q0 12 9 18.5t20 6.5q12 0 20 -9.5t8 -21.5q0 -42 -34 -62t-76 -20h-971q-28 0 -35.5 18.5t8.5 38.5l975 1319h-876q-42 0 -76.5 20t-34.5 62z " />
<glyph unicode="[" horiz-adv-x="546" d="M180 -154v1602q0 12 8.5 20.5t20.5 8.5h217q12 0 20.5 -8.5t8.5 -20.5t-8.5 -21.5t-20.5 -9.5h-188v-1542h188q12 0 20.5 -8.5t8.5 -20.5t-8.5 -21t-20.5 -9h-217q-12 0 -20.5 9t-8.5 21z" />
<glyph unicode="\" horiz-adv-x="890" d="M-18.5 1630q3.5 11 14.5 17q29 11 39 -15l852 -1775q5 -11 0 -23t-15 -16q-11 -6 -22 -1.5t-16 13.5l-850 1778q-6 11 -2.5 22z" />
<glyph unicode="]" horiz-adv-x="546" d="M92 -154q0 12 8.5 20.5t20.5 8.5h188v1542h-188q-12 0 -20.5 9.5t-8.5 21.5t8.5 20.5t20.5 8.5h217q12 0 20.5 -8.5t8.5 -20.5v-1602q0 -12 -8.5 -21t-20.5 -9h-217q-12 0 -20.5 9t-8.5 21z" />
<glyph unicode="^" horiz-adv-x="1087" d="M143 983q0 4 1.5 8t3.5 7t8.5 10.5t11.5 13.5l350 395q10 10 23 10q14 0 24 -10l43 -45q104 -114 316 -352q20 -20 20 -39q0 -18 -15.5 -31.5t-33.5 -13.5q-16 0 -25 12l-327 391q-6 -7 -69.5 -82.5t-96.5 -115.5q-138 -165 -160 -193q-8 -12 -29 -12q-19 0 -32 14 t-13 33z" />
<glyph unicode="_" horiz-adv-x="659" d="M-70 -233q0 12 8.5 20t20.5 8h739q12 0 21.5 -8t9.5 -20t-9.5 -21.5t-21.5 -9.5h-739q-12 0 -20.5 9.5t-8.5 21.5z" />
<glyph unicode="`" horiz-adv-x="1056" d="M313 1421q0 25 17.5 42.5t40.5 17.5q18 0 37 -15l245 -198q19 -14 9.5 -31.5t-31.5 -7.5l-285 143q-33 16 -33 49z" />
<glyph unicode="a" horiz-adv-x="1093" d="M72 313q0 75 25 138t68 106.5t102 74t126.5 44.5t141.5 14q162 0 315 -76v80q0 102 -19 172q-15 51 -47.5 84.5t-80.5 48.5t-92 20t-107 5q-104 0 -281 -47q-13 -3 -24 4t-11 20q0 10 6 17.5t12 9.5l7 2q153 45 283 45q156 0 248 -33t128 -124q35 -80 35 -195v-612 q0 -49 27 -54q27 -4 27 -28q0 -13 -7.5 -20t-15.5 -8l-8 -1q-29 0 -54.5 26t-25.5 85v92q-58 -100 -163.5 -156.5t-231.5 -56.5q-73 0 -140 20t-122 58t-88 101.5t-33 143.5zM129 315q0 -71 29.5 -124.5t79.5 -84t107.5 -45t121.5 -14.5q90 0 175 38.5t144 115t64 172.5v178 q-154 82 -322 82q-80 0 -149.5 -18.5t-126.5 -55t-90 -99.5t-33 -145z" />
<glyph unicode="b" horiz-adv-x="1239" d="M133 29q0 24 27 28q26 5 26 54v1278q0 49 -28 53q-25 4 -25 28q0 13 7.5 20t14.5 8l7 1q29 0 55.5 -25.5t26.5 -84.5v-613q62 135 171.5 212t243.5 77q105 0 196 -43.5t152 -117t95.5 -169t34.5 -198.5q0 -100 -35.5 -197t-97.5 -172t-152.5 -121.5t-192.5 -46.5 q-135 0 -251.5 82.5t-163.5 212.5v-184q0 -59 -25.5 -85t-54.5 -26q-3 0 -8.5 1t-14 8t-8.5 20zM242 502q0 -108 56.5 -210.5t154 -168.5t206.5 -66q91 0 171 42t134 110.5t85.5 154.5t31.5 173q0 123 -50 229.5t-148.5 174t-223.5 67.5q-175 0 -296 -142t-121 -364z" />
<glyph unicode="c" horiz-adv-x="1091" d="M102 528q0 148 73 274t198 199.5t270 73.5q190 0 332 -112q10 -7 10 -23q0 -18 -16.5 -26.5t-28.5 1.5q-63 47 -141.5 75t-155.5 28q-97 0 -186.5 -39t-154.5 -105t-103.5 -156.5t-38.5 -189.5q0 -97 38.5 -186t103.5 -153.5t154.5 -103t186.5 -38.5q169 0 297 98 q10 7 18 7q24 0 28 -22q1 -5 1 -9q0 -15 -12 -23q-141 -108 -332 -108q-109 0 -209 42.5t-172.5 114.5t-116 172t-43.5 209z" />
<glyph unicode="d" horiz-adv-x="1239" d="M102 537q0 103 34.5 198.5t95.5 169t152 117t196 43.5q133 0 245.5 -80t169.5 -207v611q0 59 26.5 84.5t55.5 25.5q3 0 8 -1t13 -8t8 -20q0 -24 -25 -28q-28 -4 -28 -53v-1278q0 -49 26 -54q27 -4 27 -28q0 -13 -8 -20t-16 -8l-7 -1q-29 0 -54.5 26t-25.5 85v188 q-58 -127 -171.5 -213t-243.5 -86q-102 0 -192.5 46.5t-152.5 121.5t-97.5 172t-35.5 197zM158 537q0 -87 31.5 -173t85.5 -154.5t134 -110.5t171 -42q109 0 206.5 66t154 168.5t56.5 210.5q0 222 -121 364t-296 142q-125 0 -223.5 -67.5t-148.5 -174t-50 -229.5z" />
<glyph unicode="e" horiz-adv-x="1202" d="M102 535q0 140 62 263t177 200t257 77q107 0 202.5 -48.5t160 -125t102 -172t37.5 -190.5q0 -13 -10 -23t-23 -10h-907q0 -122 54.5 -226.5t156 -168.5t227.5 -64q118 0 207.5 29.5t159.5 101.5q16 16 33 11.5t20.5 -19.5t-8.5 -31q-137 -149 -412 -149 q-216 0 -356 154.5t-140 390.5zM160 563h880q-6 115 -65 219t-160.5 170t-218.5 66q-118 0 -217.5 -65.5t-156.5 -169t-62 -220.5z" />
<glyph unicode="f" horiz-adv-x="614" d="M54 1022q-3 7 -3 14t3 14q8 15 26 15h96v133q0 301 258 301q69 0 144 -22q26 -9 26 -29q0 -29 -29 -29l-12 2q-82 21 -129 21q-107 0 -154 -63.5t-47 -180.5v-133h297q14 0 22 -9t7.5 -19.5t-8.5 -19.5t-21 -9h-297v-897q0 -59 -25 -85t-54 -26q-3 0 -8.5 1t-14 8 t-8.5 20q0 24 27 28q26 5 26 54v897h-96q-18 0 -26 14z" />
<glyph unicode="g" horiz-adv-x="1259" d="M102 565q0 135 59 248.5t170 182.5t251 69q141 0 265 -81t169 -212v182q0 59 25.5 85t54.5 26q3 0 8 -1t13.5 -8t8.5 -20q0 -24 -26 -28q-27 -5 -27 -54v-825q0 -222 -128.5 -349.5t-340.5 -127.5q-96 0 -204 25.5t-181 74.5q-13 9 -16.5 23t4.5 24q7 10 20 11t23 -7 q52 -36 142 -65t210 -29q187 0 300.5 120.5t113.5 301.5v184q-136 -233 -430 -233q-211 0 -347.5 138t-136.5 345zM160 565q0 -116 54 -213t152.5 -154.5t219.5 -58.5q185 0 307.5 111.5t122.5 288.5q0 124 -53 230.5t-153 172.5t-226 66q-122 0 -220.5 -61.5t-151 -162.5 t-52.5 -219z" />
<glyph unicode="h" d="M133 29q0 24 27 28q26 5 26 54v1278q0 48 -26 53q-27 4 -27 28q0 13 7.5 20t15.5 8l8 1q29 0 54.5 -25.5t25.5 -84.5v-564q47 105 149 172.5t225 67.5q223 0 333 -126t110 -355v-473q0 -49 26 -54q27 -4 27 -28q0 -13 -8 -20t-16 -8l-7 -1q-29 0 -54 26t-25 85v495 q0 198 -105.5 300t-280.5 102q-148 0 -261 -111t-113 -260v-526q0 -59 -25.5 -85t-54.5 -26q-3 0 -8.5 1t-14 8t-8.5 20z" />
<glyph unicode="i" horiz-adv-x="419" d="M123 1036q0 13 7.5 20t15.5 8l8 1q29 0 54 -26t25 -85v-843q0 -49 27 -54q27 -4 27 -28q0 -13 -7.5 -20t-15.5 -8l-8 -1q-29 0 -54.5 26t-25.5 85v843q0 49 -26 54q-27 4 -27 28zM125 1438q0 26 17 43.5t42 17.5t43.5 -17.5t18.5 -41.5q0 -26 -18 -44t-44 -18 q-25 0 -42 17.5t-17 42.5z" />
<glyph unicode="j" horiz-adv-x="434" d="M-26 -336q-4 6 -4 12t4 12q7 13 24 13h18q73 0 114.5 51t41.5 135v1067q0 59 25.5 85t54.5 26q3 0 8.5 -1t14 -8t8.5 -20q0 -24 -27 -28q-27 -5 -27 -54v-1071q0 -108 -53 -169t-160 -62h-20q-16 0 -22 12zM150 1440q0 25 18 42t45 17q25 0 42 -17t17 -42q0 -26 -17 -44 t-42 -18q-27 0 -45 18t-18 44z" />
<glyph unicode="k" horiz-adv-x="1015" d="M133 29q0 24 27 28q26 5 26 54v1278q0 48 -26 53q-27 4 -27 28q0 13 7.5 20t15.5 8l8 1q29 0 54.5 -25.5t25.5 -84.5v-967l540 541q23 23 23 41q0 6 -6 16.5t-6 17.5q0 12 8.5 19.5t19.5 7.5q20 0 31.5 -17.5t11.5 -37.5q0 -47 -41 -88l-368 -367l372 -469q23 -29 41 -29 q7 0 15 4.5t14 4.5q11 0 20 -9t9 -18q0 -21 -18 -30t-38 -9q-49 0 -88 49l-368 465l-172 -172v-231q0 -59 -25.5 -85t-54.5 -26q-3 0 -8.5 1t-14 8t-8.5 20z" />
<glyph unicode="l" horiz-adv-x="419" d="M123 1470q0 13 7.5 20t14.5 8l7 1q29 0 55 -25.5t26 -84.5v-1278q0 -49 27 -54q27 -4 27 -28q0 -13 -7.5 -20t-15.5 -8l-8 -1q-29 0 -54.5 26t-25.5 85v1278q0 48 -29 53q-24 4 -24 28z" />
<glyph unicode="m" horiz-adv-x="1828" d="M133 29q0 24 27 28q26 5 26 54v843q0 50 -28 54q-25 4 -25 28q0 13 7.5 20t14.5 8l7 1q29 0 55.5 -26t26.5 -85v-98q35 100 131 154.5t205 54.5q245 0 346 -238q46 106 144 172t210 66q165 0 263.5 -97.5t98.5 -269.5v-587q0 -49 27 -54q27 -4 27 -28q0 -13 -8 -20 t-16 -8l-7 -1q-29 0 -54.5 26t-25.5 85v589q0 150 -85 230t-220 80q-139 0 -238.5 -103t-99.5 -248v-630q0 -11 -8.5 -20t-20.5 -9t-20 9t-8 20v671q0 129 -93.5 219.5t-216.5 90.5q-133 0 -232 -99t-99 -237v-563q0 -59 -25.5 -85t-54.5 -26q-3 0 -8.5 1t-14 8t-8.5 20z " />
<glyph unicode="n" d="M133 29q0 24 27 28q26 5 26 54v843q0 49 -26 54q-27 4 -27 28q0 13 7.5 20t15.5 8l8 1q29 0 54.5 -26t25.5 -85v-129q56 105 155 172.5t219 67.5q217 0 330 -127t113 -348v-479q0 -49 26 -54q27 -4 27 -28q0 -13 -8 -20t-16 -8l-7 -1q-29 0 -54 26t-25 85v495 q0 186 -105 294t-281 108q-150 0 -262 -115.5t-112 -269.5v-512q0 -59 -25.5 -85t-54.5 -26q-3 0 -8.5 1t-14 8t-8.5 20z" />
<glyph unicode="o" horiz-adv-x="1292" d="M102 530q0 148 72.5 273.5t197.5 198.5t273 73t273.5 -73t198.5 -198.5t73 -273.5q0 -147 -73 -271.5t-198.5 -196.5t-273.5 -72t-273 72t-197.5 196.5t-72.5 271.5zM160 530q0 -131 65.5 -242t177 -176t242.5 -65q98 0 188 38.5t156 103t105 154t39 187.5 q0 200 -144 343t-344 145q-131 0 -242.5 -65.5t-177 -178t-65.5 -244.5z" />
<glyph unicode="p" horiz-adv-x="1239" d="M133 -319q0 24 27 28q26 5 26 53v1192q0 49 -26 54q-27 4 -27 28q0 13 7.5 20t15.5 8l8 1q29 0 54.5 -26t25.5 -85v-168q57 124 169.5 201.5t245.5 77.5q102 0 192.5 -46.5t152.5 -121.5t97.5 -172t35.5 -197q0 -103 -34.5 -198.5t-95.5 -169t-152 -117t-196 -43.5 q-133 0 -243.5 72.5t-171.5 193.5v-504q0 -59 -25.5 -84.5t-54.5 -25.5q-3 0 -8.5 1t-14 8t-8.5 20zM242 563q0 -222 121 -364t296 -142q125 0 223.5 67.5t148.5 174t50 229.5q0 87 -31.5 173t-85.5 154.5t-134 110.5t-171 42q-109 0 -206.5 -66t-154 -168.5t-56.5 -210.5z " />
<glyph unicode="q" horiz-adv-x="1239" d="M102 528q0 100 35.5 197t97.5 172t152.5 121.5t192.5 46.5q133 0 245.5 -77.5t169.5 -201.5v168q0 59 25.5 85t54.5 26q3 0 8.5 -1t14 -8t8.5 -20q0 -24 -27 -28q-26 -5 -26 -54v-1192q0 -48 26 -53q27 -4 27 -28q0 -13 -8 -20t-16 -8l-7 -1q-29 0 -54.5 25.5t-25.5 84.5 v504q-61 -121 -171.5 -193.5t-243.5 -72.5q-105 0 -196 43.5t-152 117t-95.5 169t-34.5 198.5zM158 528q0 -123 50 -229.5t148.5 -174t223.5 -67.5q175 0 296 142t121 364q0 108 -56.5 210.5t-154 168.5t-206.5 66q-91 0 -171 -42t-134 -110.5t-85.5 -154.5t-31.5 -173z" />
<glyph unicode="r" horiz-adv-x="806" d="M133 29q0 24 27 28q26 5 26 54v843q0 49 -26 54q-27 4 -27 28q0 13 7.5 20t15.5 8l8 1q29 0 54.5 -26t25.5 -85v-65q41 76 122 126t175 50q89 0 184 -37q20 -7 20 -27q0 -16 -11.5 -24t-28.5 -2q-99 35 -162 35q-115 0 -207 -86.5t-92 -192.5v-620q0 -59 -25.5 -85 t-54.5 -26q-3 0 -8.5 1t-14 8t-8.5 20z" />
<glyph unicode="s" horiz-adv-x="884" d="M92 807q0 113 103.5 190.5t242.5 77.5q170 0 283 -96q16 -13 13 -30t-17.5 -22t-32.5 7q-101 84 -248 84q-120 0 -203 -61t-83 -154q0 -24 7.5 -46t17 -39.5t30 -35.5t34 -30t43 -27.5t43 -22.5t47.5 -20.5t43 -17t42 -15.5q139 -52 195 -88q130 -83 130 -217 q0 -53 -24 -97t-62 -73t-87.5 -49t-99.5 -28.5t-99 -8.5q-171 0 -304 96q-10 10 -10 22q0 13 9 20t20 7q9 0 22 -10q102 -80 271 -80q126 0 216.5 57.5t90.5 143.5q0 29 -8.5 55t-20.5 45.5t-34.5 38t-40 30.5t-48 26.5t-48 21.5t-51.5 19.5t-46 17.5q-52 19 -88.5 35 t-87.5 45t-82.5 59t-54.5 75t-23 95z" />
<glyph unicode="t" horiz-adv-x="681" d="M66 1050q8 14 26 15h92v197q0 48 -26 53q-27 4 -27 28q0 13 7.5 20t15.5 8l8 1q29 0 54.5 -25.5t25.5 -84.5v-197h264q17 0 24 -14.5t0 -28.5t-24 -14h-264v-668q0 -283 204 -283q53 0 127 19q15 4 26 -3.5t11 -19.5q0 -24 -22 -30q-79 -23 -142 -23q-135 0 -198.5 90.5 t-63.5 249.5v668h-92q-18 0 -26 14q-4 7 -4 15q0 6 4 13z" />
<glyph unicode="u" d="M133 1036q0 13 7.5 20t15.5 8l8 1q29 0 54.5 -26t25.5 -85v-495q0 -184 98.5 -293t286.5 -109q99 0 185.5 53t138 142t51.5 190v512q0 59 25 85t54 26q3 0 8.5 -1t14 -8t8.5 -20q0 -24 -27 -28q-26 -5 -26 -54v-843q0 -49 26 -54q27 -4 27 -28q0 -13 -8 -20t-16 -8l-7 -1 q-29 0 -54 26t-25 85v129q-63 -107 -159.5 -173.5t-215.5 -66.5q-220 0 -331.5 126.5t-111.5 354.5v473q0 49 -26 54q-27 4 -27 28z" />
<glyph unicode="v" horiz-adv-x="1126" d="M92 1032q0 17 14 25t31 8q28 0 50.5 -19.5t33.5 -48.5l342 -891l342 891q11 29 33.5 48.5t50.5 19.5q17 0 31 -8t14 -25q0 -12 -7 -20t-19 -8q-2 0 -8 1t-9 1q-21 0 -33 -29l-364 -952q-11 -25 -31 -25t-31 25l-364 952q-12 29 -33 29q-3 0 -8.5 -1t-7.5 -1 q-12 0 -19.5 8t-7.5 20z" />
<glyph unicode="w" horiz-adv-x="1724" d="M92 1032q0 17 14 25t29 8q63 0 88 -70l307 -870l301 913q8 27 31 27t31 -27l301 -913l307 870q25 70 88 70q15 0 29 -8t14 -25q0 -11 -7 -19.5t-19 -8.5q-3 0 -8 1t-10 1t-9 -2q-11 -4 -20 -27l-338 -957q-6 -21 -29 -21t-29 21l-301 922l-301 -922q-8 -21 -29.5 -21 t-27.5 21l-338 957q-9 22 -21 27q-4 2 -8.5 2t-9.5 -1t-8 -1q-12 0 -19.5 8.5t-7.5 19.5z" />
<glyph unicode="x" horiz-adv-x="1120" d="M123 1032q0 17 14 25t31 8q42 -2 88 -64l303 -419l305 419q46 62 88 64q17 0 31 -8t14 -25q0 -12 -7 -20t-19 -8q-2 0 -8 1t-9 1q-5 0 -10 -2.5t-10 -7t-8 -8.5l-7.5 -10t-5.5 -7l-319 -445l305 -432q28 -35 43 -35q3 0 8.5 1t7.5 1q12 0 19.5 -8t7.5 -20q0 -17 -14 -25 t-31 -8q-43 2 -88 63l-293 408l-293 -408q-45 -61 -88 -63q-17 0 -31 8t-14 25q0 12 7.5 20t19.5 8q2 0 7.5 -1t8.5 -1q15 0 43 35l305 434l-317 443q-1 1 -5.5 7l-7.5 10t-8 8.5t-10 7t-10 2.5q-3 0 -8.5 -1t-7.5 -1q-12 0 -19.5 8t-7.5 20z" />
<glyph unicode="y" horiz-adv-x="1146" d="M88 1032q0 17 14 25t31 8q58 0 84 -68l354 -915l359 917q11 29 33 47.5t49 18.5q20 0 33.5 -9t13.5 -26q0 -26 -31 -26q-3 0 -7.5 1t-8.5 1q-17 0 -29 -27q-280 -722 -313 -805q-127 -318 -162 -377q-43 -70 -92.5 -107.5t-122.5 -37.5q-64 0 -150 33q-20 7 -20 28 q0 18 17 25t36 -2q52 -25 113 -25q30 0 57 9.5t49 29.5t38.5 39.5t33.5 52t26.5 53t24.5 56t21 49.5l-377 977q-10 29 -29 29q-3 0 -9.5 -1t-8.5 -1q-12 0 -19.5 8t-7.5 20z" />
<glyph unicode="z" horiz-adv-x="993" d="M104 1090q0 12 8.5 21t20.5 9q29 0 29 -24q0 -31 53 -31h639q31 0 44 -24.5t-3 -47.5l-698 -936h602q53 0 53 31q0 12 9 18.5t20 6.5q12 0 20 -9.5t8 -21.5q0 -42 -34 -62t-76 -20h-645q-26 0 -35.5 19t6.5 42l713 947h-623q-42 0 -76.5 20t-34.5 62z" />
<glyph unicode="{" horiz-adv-x="618" d="M92 623q0 14 10 22t25 8q88 4 127 43q29 33 29 82q0 59 -28.5 192.5t-27.5 225.5q-4 111 54 174q62 72 217 80q14 0 23 -9t9 -20q0 -28 -28 -32q-126 -7 -176 -62q-35 -41 -35 -119q0 -81 26.5 -224t26.5 -208q0 -55 -27 -98.5t-81 -56.5q55 -11 81.5 -56t26.5 -104 q0 -63 -24.5 -202.5t-28.5 -213.5q0 -94 37 -133q43 -50 174 -59q11 0 19.5 -8.5t8.5 -20.5q0 -14 -9.5 -23.5t-22.5 -9.5q-152 8 -217 80q-54 62 -54 176q6 81 31 217.5t25 200.5q0 51 -29 80q-38 41 -127 45q-14 0 -24.5 9.5t-10.5 23.5z" />
<glyph unicode="|" horiz-adv-x="512" d="M227 -264v1874q0 12 8.5 20t20.5 8t20.5 -8t8.5 -20v-1874q0 -11 -8.5 -20t-20.5 -9t-20.5 9t-8.5 20z" />
<glyph unicode="}" horiz-adv-x="618" d="M88 -176q0 12 9 20.5t20 8.5q131 9 174 59q37 39 37 133q-4 75 -29 214t-25 202q0 59 27 104t82 56q-54 13 -81.5 56.5t-27.5 98.5q0 65 27 208t27 224q0 78 -35 119q-50 55 -176 62q-29 4 -29 32q0 11 9.5 20t23.5 9q155 -8 217 -80q57 -62 53 -174q1 -92 -27 -225.5 t-28 -192.5q0 -49 29 -82q39 -39 127 -43q14 0 24 -8t10 -22q0 -15 -10 -24t-24 -9q-89 -4 -127 -45q-29 -29 -29 -80q0 -64 24.5 -200.5t30.5 -217.5q0 -116 -53 -176q-65 -72 -217 -80q-13 0 -23 9.5t-10 23.5z" />
<glyph unicode="~" horiz-adv-x="1085" d="M154 635q0 12 4 20q25 46 47 77t60 57t81 26q75 0 197 -84q132 -86 196 -86q69 0 135 125q10 14 23 14q14 0 24.5 -8t10.5 -20q0 -13 -4 -21q-39 -72 -83 -116t-106 -44q-75 0 -190 76q-135 94 -203 94q-23 0 -44 -11t-39.5 -35t-27 -37t-24.5 -41q-11 -15 -23 -15 q-14 0 -24 8.5t-10 20.5z" />
<glyph unicode="&#xa1;" horiz-adv-x="499" d="M195 954q0 23 15.5 39.5t37.5 16.5q24 0 39.5 -17t15.5 -41q0 -20 -16.5 -35.5t-38.5 -15.5t-37.5 15.5t-15.5 37.5zM215 -416l12 1075q0 8 6 14.5t15 6.5t15.5 -6t6.5 -15l9 -1075q0 -12 -9 -19t-22 -7t-23 7.5t-10 18.5z" />
<glyph unicode="&#xa2;" horiz-adv-x="1089" d="M102 528q0 217 148.5 375t361.5 170v144q0 12 8.5 20t20.5 8t20.5 -8t8.5 -20v-144q171 -6 305 -110q10 -7 10 -23q0 -12 -8 -20.5t-21 -8.5q-8 0 -16 4q-127 92 -270 101v-969q154 9 270 98q10 7 18 7q10 0 19.5 -7.5t9.5 -19.5q0 -15 -12 -27q-127 -98 -305 -108v-172 q0 -11 -8.5 -20t-20.5 -9t-20.5 9t-8.5 20v174q-140 7 -257 80t-185 194t-68 262zM160 528q0 -190 132 -329.5t320 -151.5v969q-188 -12 -320 -153.5t-132 -334.5z" />
<glyph unicode="&#xa3;" horiz-adv-x="1142" d="M115 678q0 12 8 20.5t20 8.5h88v294q0 110 53 209.5t146.5 161.5t202.5 62q113 0 206.5 -62t145 -161t51.5 -210q0 -12 -8 -21t-20 -9t-21.5 9t-9.5 21q0 148 -99 261.5t-245 113.5q-142 0 -243 -115t-101 -260v-294h528q12 0 20.5 -8.5t8.5 -20.5t-8.5 -20.5t-20.5 -8.5 h-528v-538q0 -26 -8 -54h733q12 0 20 -8t8 -20t-8 -20.5t-20 -8.5h-805q-3 0 -8.5 1t-14 8t-8.5 20q0 24 27 28q26 5 26 54v538h-88q-12 0 -20 8.5t-8 20.5z" />
<glyph unicode="&#xa5;" horiz-adv-x="1308" d="M88 1401q0 17 15.5 25t33.5 8q23 -1 44.5 -15t33.5 -35l440 -692l441 692q12 21 33.5 35t44.5 15q18 0 33.5 -8t15.5 -25q0 -12 -8.5 -20.5t-20.5 -8.5q-2 0 -8.5 2t-9.5 2q-20 0 -33 -22l-459 -723v-99h264q12 0 20.5 -8t8.5 -20t-8.5 -21.5t-20.5 -9.5h-264v-98h264 q12 0 20.5 -8.5t8.5 -20.5t-8.5 -20.5t-20.5 -8.5h-264v-288q0 -12 -8.5 -20.5t-20.5 -8.5t-20 8.5t-8 20.5v288h-265q-12 0 -20 8.5t-8 20.5t8 20.5t20 8.5h265v98h-265q-12 0 -20 9.5t-8 21.5q0 11 8 19.5t20 8.5h265v99l-459 723q-13 22 -33 22q-3 0 -9.5 -2t-8.5 -2 q-12 0 -20.5 8.5t-8.5 20.5z" />
<glyph unicode="&#xa7;" horiz-adv-x="1200" d="M113 532q0 46 18.5 86.5t47.5 70.5t69.5 55t81.5 41.5t86 29.5l4 27q-84 26 -170 76q-132 71 -137 208q0 68 32.5 123.5t83 91t116 60t128 35t121.5 10.5q185 0 330 -80q14 -8 14 -25q0 -12 -8.5 -22t-20.5 -10q-6 0 -14 4q-129 76 -301 76q-61 0 -129.5 -14t-137 -42.5 t-113 -81.5t-44.5 -121q5 -106 109 -163q78 -43 163.5 -70t196.5 -51.5t170 -42.5q57 -17 103.5 -40.5t87.5 -56.5t64 -79t23 -101q0 -59 -29.5 -109t-80 -84t-105.5 -57t-118 -38q-10 -2 -56 -6l-47 -5l103 -12q87 -28 182 -76q142 -74 147 -211q0 -71 -44 -133t-111 -100 q-149 -88 -361 -88q-199 0 -350 80q-20 10 -20 28q0 15 15 24.5t30 0.5q138 -76 325 -76t330 80q55 31 91 78.5t36 103.5q0 96 -117 164q-42 23 -96.5 42.5t-85.5 28t-107.5 25.5t-93.5 21q-182 47 -274 102q-64 36 -100.5 94t-36.5 129zM168 526q0 -107 123 -176 q143 -78 276 -78q47 1 101.5 8.5t120.5 26.5t118 46t87.5 72.5t35.5 100.5q0 64 -48 116t-119 81t-141.5 44t-127.5 15q-166 0 -305 -82q-121 -76 -121 -174zM416 815q10 3 47.5 6.5t44.5 5.5q-68 8 -88 15z" />
<glyph unicode="&#xa8;" horiz-adv-x="1132" d="M252 1309q0 35 24.5 57.5t59.5 22.5t59.5 -22.5t24.5 -57.5q0 -33 -25 -56.5t-59 -23.5t-59 23.5t-25 56.5zM711 1309q0 34 25.5 57t60.5 23q33 0 58.5 -23t25.5 -57q0 -33 -25.5 -56.5t-58.5 -23.5q-34 0 -60 23.5t-26 56.5z" />
<glyph unicode="&#xa9;" horiz-adv-x="1626" d="M88 723q0 196 97.5 363t264.5 264.5t363 97.5t363 -97.5t264.5 -264.5t97.5 -363q0 -146 -57.5 -280t-155 -231.5t-231.5 -155.5t-281 -58q-196 0 -363 97.5t-264.5 264.5t-97.5 363zM117 723q0 -142 55 -271t148 -222t222 -148t271 -55q143 0 272 55t221.5 148 t147.5 222t55 271q0 188 -93 348.5t-253.5 254t-349.5 93.5q-188 0 -348.5 -93t-254 -253.5t-93.5 -349.5zM479 719q0 -142 101.5 -243t244.5 -101q121 0 211 69q20 15 8 29t-30 2q-88 -63 -189 -63q-127 0 -218 90.5t-91 216.5q0 129 91 221t218 92q104 0 189 -65 q9 -7 19 -2.5t11.5 13.5t-8.5 19q-90 72 -211 72q-143 0 -244.5 -102.5t-101.5 -247.5z" />
<glyph unicode="&#xaa;" horiz-adv-x="831" d="M68 973q0 86 45 146t115.5 87t158.5 27q108 0 207 -47v45q0 71 -12 112q-37 105 -215 105q-55 0 -185 -33q-14 -3 -25.5 4t-11.5 19q0 8 5.5 14.5t10.5 9.5l5 2q117 31 194 31q105 0 171 -25t92 -88q22 -51 22 -133v-415q0 -26 10 -29q25 -6 25 -25q0 -12 -7 -18.5 t-13 -7.5h-7q-22 0 -40.5 19.5t-18.5 60.5v59q-25 -66 -102 -105.5t-160 -39.5q-109 0 -186.5 57.5t-77.5 167.5zM74 627q0 -8 5.5 -13.5t12.5 -5.5h570q7 0 12.5 5.5t5.5 13.5q0 7 -5 12.5t-13 5.5h-570q-8 0 -13 -5.5t-5 -12.5zM117 975q0 -90 66 -133t157 -43 q95 0 174.5 60t79.5 153v118q-106 52 -211 52q-53 0 -99 -11.5t-84.5 -35.5t-60.5 -65t-22 -95z" />
<glyph unicode="&#xab;" horiz-adv-x="890" d="M92 532q0 13 8 21l416 475q10 10 23 10q12 0 21 -8.5t9 -19.5q0 -14 -6 -23l-399 -455l399 -454q13 -14 5 -32.5t-29 -18.5q-13 0 -23 10l-416 475q-8 8 -8 20zM293 532q0 13 8 21l416 475q10 10 22 10t21.5 -8.5t9.5 -19.5q0 -14 -6 -23l-399 -455l399 -454 q12 -12 4 -31.5t-29 -19.5q-12 0 -22 10l-416 475q-8 8 -8 20z" />
<glyph unicode="&#xad;" horiz-adv-x="950" d="M115 535q0 11 8 19.5t18 8.5h662q13 0 23 -6.5t10 -19.5q0 -12 -8.5 -21.5t-20.5 -9.5h-662q-12 0 -21 8.5t-9 20.5z" />
<glyph unicode="&#xae;" horiz-adv-x="1015" d="M49 981q0 191 134.5 325t324.5 134q189 0 324 -135t135 -324t-135 -324t-324 -135q-190 0 -324.5 134t-134.5 325zM76 981q0 -180 126 -306t306 -126q173 0 301.5 127t128.5 305q0 179 -126 304.5t-304 125.5q-179 0 -305.5 -126t-126.5 -304zM340 768q0 10 12 14 q13 3 13 19v346q0 37 -13 39q-6 1 -9.5 8t1 13.5t16.5 6.5h142q54 0 91.5 -38t37.5 -91q0 -74 -66 -114l90 -162q1 -1 4 -6t4 -6.5t4 -5t5.5 -5t6 -3t7.5 -1.5q16 0 16 -16t-22 -16q-27 0 -41 24l-102 182h-142v-165q0 -41 -35 -41q-20 0 -20 18zM391 1182q4 -7 4 -19v-176 h107q30 0 47 10q23 12 37 36t14 52q0 40 -29 68.5t-69 28.5h-111z" />
<glyph unicode="&#xaf;" horiz-adv-x="956" d="M172 1257q0 10 9 18.5t20 8.5h555q11 0 19.5 -8.5t8.5 -18.5q0 -12 -8 -20t-20 -8h-555q-12 0 -20.5 8t-8.5 20z" />
<glyph unicode="&#xb0;" horiz-adv-x="620" d="M131 1243q0 75 52.5 127.5t127.5 52.5q74 0 126 -52.5t52 -127.5q0 -73 -52.5 -125.5t-125.5 -52.5q-75 0 -127.5 52t-52.5 126zM193 1243q0 -48 34.5 -82.5t83.5 -34.5q47 0 82 35t35 82q0 49 -34.5 84t-82.5 35q-49 0 -83.5 -34.5t-34.5 -84.5z" />
<glyph unicode="&#xb1;" horiz-adv-x="886" d="M131 289q0 11 8 19.5t21 8.5h565q12 0 21.5 -8t9.5 -20t-9.5 -21.5t-21.5 -9.5h-565q-13 0 -21 8.5t-8 22.5zM131 780q0 12 8.5 20.5t20.5 8.5h252v254q0 12 9 20.5t21 8.5t20.5 -8.5t8.5 -20.5v-254h252q12 0 21.5 -8.5t9.5 -20.5t-9.5 -20t-21.5 -8h-252v-254 q0 -11 -8.5 -20t-20.5 -9t-21 9t-9 20v254h-252q-12 0 -20.5 8t-8.5 20z" />
<glyph unicode="&#xb2;" horiz-adv-x="827" d="M96 555q0 27 5 52t18 49.5t23.5 42.5t34 41t35.5 35.5t42 34.5t40 29.5t43.5 29.5t39.5 26q16 12 57 39t65 45.5t53.5 46.5t43.5 61t14 70q0 110 -63 171t-176 61q-65 0 -120 -28t-85 -83q-9 -14 -27 -14q-13 0 -19.5 12.5t-0.5 23.5q39 67 106 101.5t146 34.5 q132 0 210 -74.5t78 -204.5q0 -39 -15 -75.5t-33 -61t-54 -55t-55.5 -44t-61.5 -40.5q-74 -48 -115.5 -78t-87.5 -70t-68 -77t-26 -76h508q11 0 18 -7t7 -18t-7 -18t-18 -7h-532q-9 0 -16 7.5t-7 17.5z" />
<glyph unicode="&#xb3;" horiz-adv-x="763" d="M49 784q0 12 7 20.5t20 8.5q12 0 20 -7.5t8 -21.5q0 -18 9 -49q29 -79 97.5 -117t158.5 -38q63 0 120 21.5t97.5 69.5t40.5 113q0 97 -97 162q-73 43 -161 43q-13 0 -23 7t-10 18q0 26 33 26q73 0 131 37q80 52 80 135q0 75 -67 122.5t-144 47.5q-147 0 -209 -112 q-7 -17 -23 -17q-11 0 -18.5 7.5t-7.5 15.5l4 16q35 69 103 104.5t151 35.5q99 0 181.5 -62t82.5 -158q0 -62 -38 -114.5t-97 -79.5q81 -28 133.5 -90.5t52.5 -143.5q0 -77 -50 -138t-121 -90.5t-144 -29.5q-78 0 -149.5 28.5t-121 89t-49.5 140.5z" />
<glyph unicode="&#xb4;" horiz-adv-x="1058" d="M395.5 1235.5q-8.5 18.5 10.5 32.5l245 198q19 15 37 15q23 0 40 -17.5t17 -42.5q0 -34 -32 -49l-285 -143q-24 -12 -32.5 6.5z" />
<glyph unicode="&#xb5;" horiz-adv-x="1218" d="M123 -414q0 29 24 29q31 0 31 53v1286q0 49 -26 54q-27 4 -27 28q0 13 7.5 20t15.5 8l8 1q29 0 54.5 -26t25.5 -85v-495q0 -179 105.5 -288.5t279.5 -109.5q151 0 262.5 113.5t111.5 267.5v512q0 59 25.5 85t54.5 26q3 0 8.5 -1t14 -8t8.5 -20q0 -24 -27 -28 q-26 -5 -26 -54v-843q0 -49 26 -54q27 -4 27 -28q0 -13 -8 -20t-16 -8l-7 -1q-29 0 -54.5 26t-25.5 85v129q-64 -107 -159.5 -173.5t-214.5 -66.5q-281 0 -385 203v-535q0 -42 -20 -76t-62 -34q-12 0 -21.5 8t-9.5 20z" />
<glyph unicode="&#xb6;" horiz-adv-x="1015" d="M88 1047q0 160 112.5 273.5t272.5 113.5h340q12 0 21.5 -8.5t9.5 -20.5q0 -11 -6.5 -20t-18.5 -9q-28 0 -31 -45v-1220q0 -54 31 -54q12 0 18.5 -8.5t6.5 -19.5q0 -12 -9.5 -20.5t-21.5 -8.5q-42 0 -62 34.5t-20 76.5v548h-268q-156 0 -265.5 115t-109.5 273z" />
<glyph unicode="&#xb7;" horiz-adv-x="421" d="M147 600q0 26 19 45t45 19q25 0 43.5 -18t19.5 -44q0 -26 -18.5 -45.5t-44.5 -19.5t-45 18.5t-19 44.5z" />
<glyph unicode="&#xb8;" horiz-adv-x="1093" d="M328 -299q0 12 8.5 21.5t21.5 9.5q9 0 21 -8q21 -17 56.5 -29t62.5 -12q49 0 83.5 25.5t34.5 76.5q0 41 -39.5 66t-87.5 30q-38 6 -28 49l20 88h27q15 0 24.5 -7t8.5 -17l-11 -51q49 -5 90.5 -32.5t61.5 -70.5q25 -61 -2.5 -120t-91.5 -87q-44 -18 -92 -18q-95 0 -158 63 q-10 10 -10 23z" />
<glyph unicode="&#xb9;" horiz-adv-x="632" d="M141 555q0 10 8 17.5t19 7.5h143v780l-102 -92q-11 -10 -28 -5t-17 23q0 13 10 23l143 123q8 8 21 8q9 0 15.5 -8t6.5 -17v-835h148q11 0 19 -7.5t8 -17.5q0 -9 -8.5 -17t-18.5 -8h-340q-10 0 -18.5 8t-8.5 17z" />
<glyph unicode="&#xba;" horiz-adv-x="901" d="M76 627q0 7 5 12.5t13 5.5h713q7 0 12.5 -5.5t5.5 -12.5q0 -8 -5.5 -13.5t-12.5 -5.5h-713q-7 0 -12.5 5.5t-5.5 13.5zM76 1126q0 154 109 263.5t264 109.5q154 0 265 -110t111 -263q0 -154 -111 -265t-265 -111q-155 0 -264 111t-109 265zM129 1126q0 -134 93.5 -226.5 t226.5 -92.5q132 0 225.5 92.5t93.5 226.5q0 132 -94 225t-225 93q-132 0 -226 -93t-94 -225z" />
<glyph unicode="&#xbb;" horiz-adv-x="888" d="M120.5 45.5q-8.5 18.5 4.5 32.5l399 454l-399 455q-13 13 -4.5 32t29.5 19q12 0 22 -10l416 -475q8 -8 8 -21q0 -12 -8 -20l-416 -475q-10 -10 -22 -10q-21 0 -29.5 18.5zM321 45.5q-8 18.5 5 32.5l399 454l-399 455q-12 15 -4 33t28 18q13 0 23 -10l415 -475q9 -9 9 -21 q0 -11 -9 -20l-415 -475q-10 -10 -23 -10q-21 0 -29 18.5z" />
<glyph unicode="&#xbc;" horiz-adv-x="1757" d="M174 555q0 10 8 17.5t19 7.5h143v780l-102 -92q-10 -10 -27.5 -5t-17.5 23q0 13 10 23l143 123q8 8 21 8q9 0 15.5 -8t6.5 -17v-835h148q11 0 18.5 -7.5t7.5 -17.5q0 -9 -8 -17t-18 -8h-340q-10 0 -18.5 8t-8.5 17zM509.5 18.5q-4.5 12.5 0.5 22.5l659 1378q10 26 39 15 q11 -6 15 -17t-2 -22l-658 -1381q-5 -9 -16.5 -13.5t-22.5 1.5q-10 4 -14.5 16.5zM913 262q0 14 11 21q239 304 487 614q8 8 16 8q10 0 18.5 -6t8.5 -16v-598h105q10 0 17 -7t7 -16q0 -22 -24 -22h-105v-213q0 -27 -24 -27q-10 0 -17.5 8t-7.5 19v213h-467q-10 0 -17.5 6.5 t-7.5 15.5zM987 287h418v524z" />
<glyph unicode="&#xbd;" horiz-adv-x="1822" d="M174 555q0 10 8 17.5t19 7.5h143v780l-102 -92q-14 -11 -29.5 -5t-15.5 23q0 13 10 23l143 123q8 8 21 8q9 0 15.5 -8t6.5 -17v-835h148q11 0 18.5 -7.5t7.5 -17.5q0 -9 -8 -17t-18 -8h-340q-10 0 -18.5 8t-8.5 17zM509.5 18.5q-4.5 12.5 0.5 22.5l659 1378q10 26 39 15 q11 -6 15 -17t-2 -22l-658 -1381q-5 -9 -16.5 -13.5t-22.5 1.5q-10 4 -14.5 16.5zM1069 25q0 42 17.5 83.5t40 72t63 65.5t67 54t71.5 50q15 10 22 15q106 72 144 109q89 84 89 173q0 211 -240 211q-65 0 -120 -27.5t-84 -82.5q-10 -15 -27 -15q-10 0 -17.5 8t-7.5 17 q0 4 5 14q38 66 104.5 99.5t146.5 33.5q134 0 211.5 -65.5t77.5 -192.5q0 -152 -221 -297q-74 -49 -114.5 -78t-87 -69.5t-68 -77.5t-25.5 -76h508q11 0 18 -7t7 -17q0 -11 -7.5 -18t-17.5 -7h-532q-9 0 -16 7.5t-7 17.5z" />
<glyph unicode="&#xbe;" horiz-adv-x="1902" d="M174 786q0 12 7 20.5t20 8.5q12 0 20 -7.5t8 -21.5q0 -18 9 -49q29 -79 97.5 -117t158.5 -38q63 0 120 21.5t97.5 69.5t40.5 113q0 97 -97 162q-73 43 -161 43q-13 0 -23 7t-10 18q0 26 33 26q73 0 131 37q80 52 80 135q0 75 -67 122.5t-144 47.5q-147 0 -209 -112 q-7 -17 -23 -17q-11 0 -18.5 7.5t-7.5 15.5l4 16q35 69 103 104.5t151 35.5q99 0 181.5 -62t82.5 -158q0 -62 -38 -114.5t-97 -79.5q81 -28 133.5 -90.5t52.5 -143.5q0 -77 -50 -138t-121 -90.5t-144 -29.5q-78 0 -149.5 28.5t-121 89t-49.5 140.5zM653 27l4 18l656 1370 q9 19 26 19q12 0 20.5 -8t8.5 -19q0 -8 -4 -16l-653 -1373q-9 -18 -29 -18q-12 0 -20.5 7.5t-8.5 19.5zM1059 262q0 14 10 21q239 304 487 614q8 8 17 8q10 0 18 -6t8 -16v-598h105q10 0 17.5 -7t7.5 -16q0 -22 -25 -22h-105v-213q0 -27 -24 -27q-10 0 -17.5 8t-7.5 19v213 h-467q-10 0 -17 6.5t-7 15.5zM1133 287h417v524z" />
<glyph unicode="&#xbf;" horiz-adv-x="751" d="M86 -123q0 54 12.5 99t40 85t55 68.5t74.5 71.5q44 41 68.5 67.5t52.5 65t40.5 81t12.5 91.5v153q0 9 6.5 14t14.5 5q22 0 22 -19v-153q0 -103 -44.5 -178t-135.5 -160q-47 -45 -65.5 -65.5t-48 -59.5t-41 -78t-11.5 -86q0 -124 87.5 -199t213.5 -75q144 0 258 82 q10 7 21.5 1t11.5 -18q0 -8 -14 -22q-55 -42 -129 -66t-146 -24q-149 0 -252.5 86t-103.5 233zM410 956q0 22 15.5 37t37.5 15q21 0 36 -15.5t15 -36.5q0 -23 -14.5 -40t-36.5 -17q-23 0 -38 16.5t-15 40.5z" />
<glyph unicode="&#xc0;" horiz-adv-x="1404" d="M96 31q0 26 33 26q25 0 39 43l494 1315q4 12 16 19.5t24 7.5t24.5 -7.5t16.5 -19.5l494 -1315q14 -43 39 -43q33 0 33 -26q0 -31 -35 -31q-19 0 -39 10q-34 18 -53 72l-127 336h-705l-127 -336q-19 -54 -53 -72q-20 -10 -39 -10q-35 0 -35 31zM371 475h663l-332 883z M526 1798q0 25 17.5 42.5t40.5 17.5q18 0 37 -15l245 -198q19 -14 9.5 -31.5t-31.5 -7.5l-285 143q-33 16 -33 49z" />
<glyph unicode="&#xc1;" horiz-adv-x="1404" d="M96 31q0 26 33 26q25 0 39 43l494 1315q4 12 16 19.5t24 7.5t24.5 -7.5t16.5 -19.5l494 -1315q14 -43 39 -43q33 0 33 -26q0 -31 -35 -31q-19 0 -39 10q-34 18 -53 72l-127 336h-705l-127 -336q-19 -54 -53 -72q-20 -10 -39 -10q-35 0 -35 31zM371 475h663l-332 883z M530.5 1612.5q-8.5 18.5 10.5 32.5l245 198q19 15 37 15q23 0 40.5 -17.5t17.5 -42.5q0 -33 -33 -49l-285 -143q-24 -12 -32.5 6.5z" />
<glyph unicode="&#xc2;" horiz-adv-x="1404" d="M96 31q0 26 33 26q25 0 39 43l494 1315q4 12 16 19.5t24 7.5t24.5 -7.5t16.5 -19.5l494 -1315q14 -43 39 -43q33 0 33 -26q0 -31 -35 -31q-19 0 -39 10q-34 18 -53 72l-127 336h-705l-127 -336q-19 -54 -53 -72q-20 -10 -39 -10q-35 0 -35 31zM371 475h663l-332 883z M475 1612q-6 10 0 16l195 182q15 15 32 15q18 0 33 -15l195 -182q6 -6 0 -16q-8 -12 -19 -4l-209 135l-208 -135q-11 -8 -19 4z" />
<glyph unicode="&#xc3;" horiz-adv-x="1404" d="M96 31q0 26 33 26q25 0 39 43l494 1315q4 12 16 19.5t24 7.5t24.5 -7.5t16.5 -19.5l494 -1315q14 -43 39 -43q33 0 33 -26q0 -31 -35 -31q-19 0 -39 10q-34 18 -53 72l-127 336h-705l-127 -336q-19 -54 -53 -72q-20 -10 -39 -10q-35 0 -35 31zM371 475h663l-332 883z M404.5 1593.5q-5.5 17.5 3.5 32.5q28 51 71.5 86t95.5 35q68 0 154 -66q70 -49 115 -49q36 0 58.5 22.5t47.5 67.5q8 17 27 17q12 0 20.5 -8.5t8.5 -20.5q0 -8 -7 -22q-64 -117 -155 -117q-70 0 -152 63q-25 18 -37.5 26.5t-35 17t-44.5 8.5q-39 0 -65 -25t-53 -72 q-8 -14 -25 -14q-22 1 -27.5 18.5z" />
<glyph unicode="&#xc4;" horiz-adv-x="1404" d="M96 31q0 26 33 26q25 0 39 43l494 1315q4 12 16 19.5t24 7.5t24.5 -7.5t16.5 -19.5l494 -1315q14 -43 39 -43q33 0 33 -26q0 -31 -35 -31q-19 0 -39 10q-34 18 -53 72l-127 336h-705l-127 -336q-19 -54 -53 -72q-20 -10 -39 -10q-35 0 -35 31zM371 475h663l-332 883z M389 1686q0 34 24.5 56.5t59.5 22.5t59.5 -22.5t24.5 -56.5q0 -33 -25 -56.5t-59 -23.5t-59 23.5t-25 56.5zM848 1686q0 34 25.5 56.5t60.5 22.5q33 0 58.5 -22.5t25.5 -56.5q0 -33 -25.5 -56.5t-58.5 -23.5q-34 0 -60 23.5t-26 56.5z" />
<glyph unicode="&#xc5;" horiz-adv-x="1417" d="M96 31q0 12 8 20t19 8h10q10 0 14 2q20 13 27 39l488 1307q-50 14 -81.5 54t-31.5 93q0 65 46.5 110.5t113.5 45.5q69 0 116 -45.5t47 -110.5q0 -55 -33.5 -95t-88.5 -54l493 -1305q13 -31 27 -39q4 -2 14 -2h10q11 0 19 -8t8 -20q0 -10 -7 -18.5t-16 -10.5q-6 -2 -18 -2 q-61 0 -92 82l-127 336h-705l-127 -336q-19 -54 -53 -72q-20 -10 -39 -10q-41 0 -41 31zM377 477h663l-331 881zM586 1554q0 -45 37.5 -79.5t85.5 -34.5t87.5 34.5t39.5 79.5t-39.5 81t-87.5 36q-47 0 -85 -35.5t-38 -81.5z" />
<glyph unicode="&#xc6;" horiz-adv-x="1923" d="M96 29q0 30 29 30q14 0 26.5 5.5t23 16.5t16.5 19.5t14 23t10 17.5l696 1276q7 17 27 17h815q12 0 20.5 -8.5t8.5 -20.5t-8.5 -21.5t-20.5 -9.5h-741q10 -30 10 -61v-586h604q12 0 20.5 -8.5t8.5 -20.5t-8.5 -20t-20.5 -8h-604v-559q0 -31 -8 -52h780q12 0 20.5 -8 t8.5 -20t-8.5 -21.5t-20.5 -9.5h-856q-13 0 -22 8.5t-9 22.5q0 12 9 20t20 8q27 0 27 52v303h-541l-166 -312q-16 -28 -30 -47.5t-39 -37t-52 -17.5q-39 0 -39 29zM453 473h510v840q0 35 -13 53z" />
<glyph unicode="&#xc7;" horiz-adv-x="1323" d="M123 717q0 146 58 279.5t156 230t231.5 154t279.5 57.5q183 0 342 -84q16 -6 16 -25q0 -12 -8 -21.5t-18 -9.5q-7 0 -17 5q-145 77 -311 77q-137 0 -261.5 -52.5t-214.5 -141t-143 -211.5t-53 -258q0 -133 54.5 -256.5t145 -213.5t213.5 -144t255 -54q191 0 358 107 q15 10 30 0.5t15 -27.5q0 -6 -3.5 -12t-7.5 -9l-3 -2q-175 -114 -391 -114q-29 0 -41 2l-10 -51q48 -5 89.5 -32.5t61.5 -70.5q12 -30 12 -59q0 -72 -61 -119t-137 -47q-73 0 -125 35q-43 27 -43 51q0 12 9 21.5t22 9.5q8 0 20 -8q42 -33 109 -33q52 0 90.5 22.5t38.5 71.5 q0 42 -40 67t-87 29q-18 2 -27 10t-6 21l20 88q-172 25 -313.5 127t-223 258t-81.5 332z" />
<glyph unicode="&#xc8;" horiz-adv-x="1314" d="M195 29q0 24 26 28q27 5 27 54v1212q0 48 -27 53q-26 4 -26 29q0 13 7.5 20t15.5 8l7 1h916q12 0 20 -8.5t8 -20.5t-8 -20.5t-20 -8.5h-844q8 -28 8 -53v-598h709q18 0 26 -14.5t0.5 -28.5t-26.5 -14h-709v-557q0 -26 -8 -54h885q13 0 21.5 -7.5t8.5 -20.5 q0 -12 -9 -20.5t-21 -8.5h-957q-3 0 -8 1t-13.5 8t-8.5 20zM526 1798q0 25 17.5 42.5t40.5 17.5q18 0 37 -15l245 -198q19 -14 9.5 -31.5t-31.5 -7.5l-285 143q-33 16 -33 49z" />
<glyph unicode="&#xc9;" horiz-adv-x="1314" d="M195 29q0 24 26 28q27 5 27 54v1212q0 48 -27 53q-26 4 -26 29q0 13 7.5 20t15.5 8l7 1h916q12 0 20 -8.5t8 -20.5t-8 -20.5t-20 -8.5h-844q8 -28 8 -53v-598h709q18 0 26 -14.5t0.5 -28.5t-26.5 -14h-709v-557q0 -26 -8 -54h885q13 0 21.5 -7.5t8.5 -20.5 q0 -12 -9 -20.5t-21 -8.5h-957q-3 0 -8 1t-13.5 8t-8.5 20zM524.5 1612.5q-8.5 18.5 10.5 32.5l245 198q19 15 37 15q23 0 40 -17.5t17 -42.5q0 -34 -32 -49l-285 -143q-24 -12 -32.5 6.5z" />
<glyph unicode="&#xca;" horiz-adv-x="1314" d="M195 29q0 24 26 28q27 5 27 54v1212q0 48 -27 53q-26 4 -26 29q0 13 7.5 20t15.5 8l7 1h916q12 0 20 -8.5t8 -20.5t-8 -20.5t-20 -8.5h-844q8 -28 8 -53v-598h709q18 0 26 -14.5t0.5 -28.5t-26.5 -14h-709v-557q0 -26 -8 -54h885q13 0 21.5 -7.5t8.5 -20.5 q0 -12 -9 -20.5t-21 -8.5h-957q-3 0 -8 1t-13.5 8t-8.5 20zM469 1612q-6 10 0 16l195 182q15 15 32 15q18 0 33 -15l195 -182q6 -6 0 -16q-8 -12 -19 -4l-209 135l-209 -135q-11 -7 -18 4z" />
<glyph unicode="&#xcb;" horiz-adv-x="1314" d="M195 29q0 24 26 28q27 5 27 54v1212q0 48 -27 53q-26 4 -26 29q0 13 7.5 20t15.5 8l7 1h916q12 0 20 -8.5t8 -20.5t-8 -20.5t-20 -8.5h-844q8 -28 8 -53v-598h709q18 0 26 -14.5t0.5 -28.5t-26.5 -14h-709v-557q0 -26 -8 -54h885q13 0 21.5 -7.5t8.5 -20.5 q0 -12 -9 -20.5t-21 -8.5h-957q-3 0 -8 1t-13.5 8t-8.5 20zM401 1686q0 34 24.5 56.5t59.5 22.5t59.5 -22.5t24.5 -56.5q0 -33 -25 -56.5t-59 -23.5t-59 23.5t-25 56.5zM860 1686q0 34 25.5 56.5t60.5 22.5q33 0 58.5 -22.5t25.5 -56.5q0 -33 -25.5 -56.5t-58.5 -23.5 q-34 0 -60 23.5t-26 56.5z" />
<glyph unicode="&#xcc;" horiz-adv-x="466" d="M70 1798q0 25 17 42.5t40 17.5q18 0 37 -15l246 -198q19 -14 9 -31.5t-32 -7.5l-285 143q-32 15 -32 49zM205 29v1376q0 12 8 20.5t20 8.5t20.5 -8.5t8.5 -20.5v-1376q0 -11 -8.5 -20t-20.5 -9t-20 9t-8 20z" />
<glyph unicode="&#xcd;" horiz-adv-x="466" d="M96 1612.5q-9 18.5 10 32.5l246 198q19 15 37 15q23 0 40 -17.5t17 -42.5q0 -34 -32 -49l-285 -143q-24 -12 -33 6.5zM205 29q0 -11 8 -20t20 -9t20.5 9t8.5 20v1376q0 12 -8.5 20.5t-20.5 8.5t-20 -8.5t-8 -20.5v-1376z" />
<glyph unicode="&#xce;" horiz-adv-x="466" d="M-2 1612q-6 10 0 16l195 182q15 15 32 15q18 0 33 -15l195 -182q6 -6 0 -16q-8 -12 -19 -4l-209 135l-209 -135q-11 -7 -18 4zM205 29v1376q0 12 8 20.5t20 8.5t20.5 -8.5t8.5 -20.5v-1376q0 -11 -8.5 -20t-20.5 -9t-20 9t-8 20z" />
<glyph unicode="&#xcf;" horiz-adv-x="466" d="M-35 1686q0 34 24.5 56.5t59.5 22.5t59.5 -22.5t24.5 -56.5q0 -33 -25 -56.5t-59 -23.5t-59 23.5t-25 56.5zM205 29q0 -11 8 -20t20 -9t20.5 9t8.5 20v1376q0 12 -8.5 20.5t-20.5 8.5t-20 -8.5t-8 -20.5v-1376zM322 1686q0 34 25.5 56.5t60.5 22.5q33 0 58.5 -22.5 t25.5 -56.5q0 -33 -25.5 -56.5t-58.5 -23.5q-34 0 -60 23.5t-26 56.5z" />
<glyph unicode="&#xd0;" horiz-adv-x="1527" d="M92 717q0 12 8.5 19t20.5 7h160v580q0 48 -27 53q-27 4 -27 29q0 13 7.5 20t15.5 8l8 1h383q181 0 316.5 -42t246.5 -147q195 -184 195 -524q0 -345 -191 -539q-82 -82 -200 -132t-234 -50h-516q-3 0 -8.5 1t-14 8t-8.5 20q0 24 27 28q27 5 27 54v575h-160 q-12 0 -20.5 9.5t-8.5 21.5zM330 57h442q108 0 218 48.5t186 127.5q165 176 165 488q0 316 -180 483q-92 87 -220.5 129.5t-254.5 42.5h-356q8 -28 8 -53v-580h377q12 0 20 -7t8 -19t-8 -21.5t-20 -9.5h-377v-575q0 -26 -8 -54z" />
<glyph unicode="&#xd1;" horiz-adv-x="1542" d="M195 29q0 24 24 28q29 5 29 54v1212q0 48 -29 53q-24 4 -24 29q0 13 7 20t14 8l7 1q43 0 82 -52l932 -1222v1163q0 59 26.5 85t55.5 26q3 0 8 -1t13 -8t8 -20q0 -25 -25 -29q-29 -5 -29 -53v-1212q0 -49 29 -54q25 -4 25 -28q0 -13 -7 -20t-15 -8l-7 -1q-36 0 -68 41 l-946 1231v-1161q0 -59 -26.5 -85t-55.5 -26q-3 0 -7.5 1t-12.5 8t-8 20zM482 1593.5q-6 17.5 3 32.5q28 51 72 86t96 35q68 0 154 -66q70 -49 115 -49q36 0 58.5 22.5t47.5 67.5q8 17 27 17q12 0 20 -8.5t8 -20.5q0 -10 -6 -22q-64 -117 -155 -117q-70 0 -152 63 q-25 18 -37.5 26.5t-35 17t-44.5 8.5q-39 0 -65 -25t-53 -72q-8 -14 -25 -14q-22 1 -28 18.5z" />
<glyph unicode="&#xd2;" horiz-adv-x="1699" d="M123 715q0 148 58 283t155.5 232.5t231.5 155.5t280 58q198 0 366 -97t265.5 -264.5t97.5 -367.5q0 -197 -97 -364t-264.5 -264t-367.5 -97q-149 0 -284.5 59.5t-231.5 159t-152.5 232t-56.5 274.5zM180 715q0 -132 54 -255.5t144.5 -214t214 -144.5t255.5 -54 q182 0 337 91.5t245 245.5t90 331q0 180 -90 334.5t-245 245.5t-337 91q-177 0 -331 -91t-245.5 -246t-91.5 -334zM674 1798q0 25 17 42.5t40 17.5q18 0 37 -15l246 -198q19 -14 9 -31.5t-32 -7.5l-284 143q-33 16 -33 49z" />
<glyph unicode="&#xd3;" horiz-adv-x="1699" d="M123 715q0 -142 56.5 -274.5t152.5 -232t231.5 -159t284.5 -59.5q200 0 367.5 97t264.5 264t97 364q0 200 -97.5 367.5t-265.5 264.5t-366 97q-146 0 -280 -58t-231.5 -155.5t-155.5 -232.5t-58 -283zM180 715q0 179 91.5 334t245.5 246t331 91q182 0 337 -91t245 -245.5 t90 -334.5q0 -177 -90 -331t-245 -245.5t-337 -91.5q-132 0 -255.5 54t-214 144.5t-144.5 214t-54 255.5zM682 1612.5q-9 18.5 10 32.5l246 198q19 15 37 15q23 0 40 -17.5t17 -42.5q0 -33 -33 -49l-284 -143q-24 -12 -33 6.5z" />
<glyph unicode="&#xd4;" horiz-adv-x="1699" d="M123 715q0 148 58 283t155.5 232.5t231.5 155.5t280 58q198 0 366 -97t265.5 -264.5t97.5 -367.5q0 -197 -97 -364t-264.5 -264t-367.5 -97q-149 0 -284.5 59.5t-231.5 159t-152.5 232t-56.5 274.5zM180 715q0 -132 54 -255.5t144.5 -214t214 -144.5t255.5 -54 q182 0 337 91.5t245 245.5t90 331q0 180 -90 334.5t-245 245.5t-337 91q-177 0 -331 -91t-245.5 -246t-91.5 -334zM623 1612q-6 10 0 16l194 182q15 15 33 15t33 -15l194 -182q6 -6 0 -16q-7 -11 -18 -4l-209 135l-209 -135q-11 -7 -18 4z" />
<glyph unicode="&#xd5;" horiz-adv-x="1699" d="M123 715q0 -142 56.5 -274.5t152.5 -232t231.5 -159t284.5 -59.5q200 0 367.5 97t264.5 264t97 364q0 200 -97.5 367.5t-265.5 264.5t-366 97q-146 0 -280 -58t-231.5 -155.5t-155.5 -232.5t-58 -283zM180 715q0 179 91.5 334t245.5 246t331 91q182 0 337 -91t245 -245.5 t90 -334.5q0 -177 -90 -331t-245 -245.5t-337 -91.5q-132 0 -255.5 54t-214 144.5t-144.5 214t-54 255.5zM552 1595.5q-6 17.5 3 32.5q28 51 72 86t96 35q68 0 154 -66q70 -49 114 -49q36 0 59 22.5t48 67.5q8 17 26 17q12 0 20.5 -8.5t8.5 -20.5q0 -10 -6 -22 q-64 -117 -156 -117q-69 0 -151 63q-25 18 -37.5 26.5t-35 17t-44.5 8.5q-39 0 -66 -25.5t-53 -71.5q-8 -14 -24 -14q-22 1 -28 18.5z" />
<glyph unicode="&#xd6;" horiz-adv-x="1699" d="M123 715q0 -142 56.5 -274.5t152.5 -232t231.5 -159t284.5 -59.5q200 0 367.5 97t264.5 264t97 364q0 200 -97.5 367.5t-265.5 264.5t-366 97q-146 0 -280 -58t-231.5 -155.5t-155.5 -232.5t-58 -283zM180 715q0 179 91.5 334t245.5 246t331 91q182 0 337 -91t245 -245.5 t90 -334.5q0 -177 -90 -331t-245 -245.5t-337 -91.5q-132 0 -255.5 54t-214 144.5t-144.5 214t-54 255.5zM537 1686q0 34 24.5 56.5t59.5 22.5t59.5 -22.5t24.5 -56.5q0 -33 -25 -56.5t-59 -23.5t-59 23.5t-25 56.5zM995 1686q0 34 25.5 56.5t60.5 22.5q33 0 58.5 -22.5 t25.5 -56.5q0 -33 -25.5 -56.5t-58.5 -23.5q-34 0 -60 23.5t-26 56.5z" />
<glyph unicode="&#xd7;" horiz-adv-x="935" d="M185.5 410.5q-0.5 12.5 7.5 19.5l233 236l-231 231q-8 8 -8.5 20t6.5 21q8 9 19.5 10t20.5 -8l234 -233l231 231q23 19 43 2q8 -8 8.5 -20t-6.5 -21l-235 -233l231 -232q9 -9 10 -21.5t-8 -21.5q-8 -8 -20 -8.5t-21 8.5l-233 234l-231 -232q-9 -9 -21 -10t-20 8 q-9 7 -9.5 19.5z" />
<glyph unicode="&#xd8;" horiz-adv-x="1701" d="M123 717q0 145 58 279.5t155 232.5t231 156.5t279 58.5q210 0 387 -107l67 101q6 12 23 12q12 0 22.5 -10t10.5 -23q0 -6 -4 -14l-68 -98q136 -101 215.5 -260t79.5 -328q0 -146 -58.5 -280.5t-156.5 -232.5t-233 -156t-281 -58q-204 0 -383 106l-66 -98q-8 -9 -20 -11 t-23 5q-22 16 -8 41l68 98q-136 97 -215.5 257.5t-79.5 328.5zM180 717q0 -156 73 -300.5t198 -238.5l749 1112q-167 96 -352 96q-132 0 -255 -52.5t-213.5 -141t-145 -213t-54.5 -262.5zM502 145q159 -98 348 -98q132 0 255 52t215 140.5t147 213.5t55 262q0 156 -73 302 t-198 238z" />
<glyph unicode="&#xd9;" horiz-adv-x="1474" d="M168 1405q0 13 7 20t15 8l7 1q29 0 55.5 -26t26.5 -85v-854q0 -77 40 -153t102.5 -132.5t143 -91.5t158.5 -35h33q105 0 206.5 56.5t167.5 154t66 205.5v850q0 59 26.5 85t55.5 26q3 0 8 -1t13 -8t8 -20q0 -25 -25 -29q-29 -5 -29 -53v-848q0 -125 -74 -236t-189.5 -175 t-237.5 -64h-33q-120 0 -235 63.5t-189 173.5t-74 234v852q0 49 -28 53q-25 4 -25 29zM561 1798q0 25 17 42.5t40 17.5q18 0 37 -15l246 -198q19 -14 9.5 -31.5t-31.5 -7.5l-285 143q-33 16 -33 49z" />
<glyph unicode="&#xda;" horiz-adv-x="1474" d="M168 1405q0 13 7 20t15 8l7 1q29 0 55.5 -26t26.5 -85v-854q0 -77 40 -153t102.5 -132.5t143 -91.5t158.5 -35h33q105 0 206.5 56.5t167.5 154t66 205.5v850q0 59 26.5 85t55.5 26q3 0 8 -1t13 -8t8 -20q0 -25 -25 -29q-29 -5 -29 -53v-848q0 -125 -74 -236t-189.5 -175 t-237.5 -64h-33q-120 0 -235 63.5t-189 173.5t-74 234v852q0 49 -28 53q-25 4 -25 29zM565 1612.5q-9 18.5 10 32.5l246 198q19 15 37 15q23 0 40 -17.5t17 -42.5q0 -34 -32 -49l-285 -143q-24 -12 -33 6.5z" />
<glyph unicode="&#xdb;" horiz-adv-x="1474" d="M168 1405q0 13 7 20t15 8l7 1q29 0 55.5 -26t26.5 -85v-854q0 -77 40 -153t102.5 -132.5t143 -91.5t158.5 -35h33q105 0 206.5 56.5t167.5 154t66 205.5v850q0 59 26.5 85t55.5 26q3 0 8 -1t13 -8t8 -20q0 -25 -25 -29q-29 -5 -29 -53v-848q0 -125 -74 -236t-189.5 -175 t-237.5 -64h-33q-120 0 -235 63.5t-189 173.5t-74 234v852q0 49 -28 53q-25 4 -25 29zM510 1612q-6 10 0 16l195 182q15 15 32 15q18 0 33 -15l195 -182q6 -6 0 -16q-8 -12 -19 -4l-209 135l-209 -135q-11 -7 -18 4z" />
<glyph unicode="&#xdc;" horiz-adv-x="1474" d="M168 1405q0 13 7 20t15 8l7 1q29 0 55.5 -26t26.5 -85v-854q0 -77 40 -153t102.5 -132.5t143 -91.5t158.5 -35h33q105 0 206.5 56.5t167.5 154t66 205.5v850q0 59 26.5 85t55.5 26q3 0 8 -1t13 -8t8 -20q0 -25 -25 -29q-29 -5 -29 -53v-848q0 -125 -74 -236t-189.5 -175 t-237.5 -64h-33q-120 0 -235 63.5t-189 173.5t-74 234v852q0 49 -28 53q-25 4 -25 29zM424 1686q0 34 24.5 56.5t59.5 22.5t59.5 -22.5t24.5 -56.5q0 -33 -25 -56.5t-59 -23.5t-59 23.5t-25 56.5zM883 1686q0 34 25.5 56.5t60.5 22.5q33 0 58.5 -22.5t25.5 -56.5 q0 -33 -25.5 -56.5t-58.5 -23.5q-34 0 -60 23.5t-26 56.5z" />
<glyph unicode="&#xdd;" horiz-adv-x="1314" d="M90 1401q0 17 15.5 25t33.5 8q48 0 78 -50l440 -733l441 733q26 47 78 50q18 0 33.5 -8t15.5 -25q0 -12 -8.5 -21t-20.5 -8q-2 0 -8.5 2t-9.5 2q-20 0 -33 -22l-459 -764v-561q0 -12 -9 -20.5t-20 -8.5t-19.5 8.5t-8.5 20.5v561l-459 764q-13 22 -31 22q-5 0 -12 -2 t-8 -2q-12 0 -20.5 8.5t-8.5 20.5zM497.5 1612.5q-8.5 18.5 10.5 32.5l246 198q19 15 37 15q23 0 40 -17.5t17 -42.5q0 -33 -33 -49l-285 -143q-24 -12 -32.5 6.5z" />
<glyph unicode="&#xde;" horiz-adv-x="1136" d="M193 29q0 24 26 28q27 5 27 54v1212q0 48 -29 53q-24 4 -24 29q0 13 7 20t14 8l7 1q29 0 55.5 -26t26.5 -85v-199h352q160 0 274.5 -114.5t114.5 -274.5q0 -122 -69.5 -231t-181.5 -158q-66 -27 -125 -27h-365v-208q0 -59 -25.5 -85t-54.5 -26q-3 0 -8 1t-13.5 8t-8.5 20 zM303 377h352q90 0 167 52.5t120 134.5t43 171q0 136 -96 234t-232 98h-354v-690z" />
<glyph unicode="&#xdf;" horiz-adv-x="1273" d="M195 -154q0 13 7 20.5t14 9.5l7 1q3 0 7.5 1.5t12 13.5t7.5 32v1116q0 188 114.5 291t292.5 103h48q154 0 269.5 -110.5t115.5 -266.5q0 -102 -46.5 -187.5t-130.5 -132.5q113 -40 182.5 -138.5t69.5 -219.5q0 -158 -114.5 -268.5t-272.5 -110.5h-223q-33 0 -33 29 q0 13 8 20t16 7l9 1h238q123 5 218 98t95 222q0 133 -93.5 228t-226.5 95h-141q-31 0 -31 29q0 11 8.5 19t22.5 8h78q133 -5 220 77.5t87 217.5q0 134 -95.5 229.5t-227.5 97.5h-50q-163 0 -257.5 -91t-94.5 -249v-1114q0 -56 -26 -80t-56 -24q-3 0 -7.5 0.5t-12.5 7 t-8 18.5z" />
<glyph unicode="&#xe0;" horiz-adv-x="1069" d="M72 313q0 75 25 138t68 106.5t102 74t126.5 44.5t141.5 14q162 0 315 -76v80q0 102 -19 172q-15 51 -47.5 84.5t-80.5 48.5t-92 20t-107 5q-104 0 -281 -47q-13 -3 -24 4t-11 20q0 10 6 17.5t12 9.5l7 2q153 45 283 45q156 0 248 -33t128 -124q35 -80 35 -195v-612 q0 -49 27 -54q27 -4 27 -28q0 -13 -7.5 -20t-15.5 -8l-8 -1q-29 0 -54.5 26t-25.5 85v92q-58 -100 -163.5 -156.5t-231.5 -56.5q-73 0 -140 20t-122 58t-88 101.5t-33 143.5zM129 315q0 -71 29.5 -124.5t79.5 -84t107.5 -45t121.5 -14.5q90 0 175 38.5t144 115t64 172.5v178 q-154 82 -322 82q-80 0 -149.5 -18.5t-126.5 -55t-90 -99.5t-33 -145zM377 1421q0 25 17 42.5t40 17.5q18 0 37 -15l246 -198q19 -14 9 -31.5t-32 -7.5l-284 143q-33 16 -33 49z" />
<glyph unicode="&#xe1;" horiz-adv-x="1069" d="M72 313q0 75 25 138t68 106.5t102 74t126.5 44.5t141.5 14q162 0 315 -76v80q0 102 -19 172q-15 51 -47.5 84.5t-80.5 48.5t-92 20t-107 5q-104 0 -281 -47q-13 -3 -24 4t-11 20q0 10 6 17.5t12 9.5l7 2q153 45 283 45q156 0 248 -33t128 -124q35 -80 35 -195v-612 q0 -49 27 -54q27 -4 27 -28q0 -13 -7.5 -20t-15.5 -8l-8 -1q-29 0 -54.5 26t-25.5 85v92q-58 -100 -163.5 -156.5t-231.5 -56.5q-73 0 -140 20t-122 58t-88 101.5t-33 143.5zM129 315q0 -71 29.5 -124.5t79.5 -84t107.5 -45t121.5 -14.5q90 0 175 38.5t144 115t64 172.5v178 q-154 82 -322 82q-80 0 -149.5 -18.5t-126.5 -55t-90 -99.5t-33 -145zM370.5 1235.5q-8.5 18.5 10.5 32.5l246 198q19 15 37 15q23 0 40 -17.5t17 -42.5q0 -33 -33 -49l-285 -143q-24 -12 -32.5 6.5z" />
<glyph unicode="&#xe2;" horiz-adv-x="1069" d="M72 313q0 75 25 138t68 106.5t102 74t126.5 44.5t141.5 14q162 0 315 -76v80q0 102 -19 172q-15 51 -47.5 84.5t-80.5 48.5t-92 20t-107 5q-104 0 -281 -47q-13 -3 -24 4t-11 20q0 10 6 17.5t12 9.5l7 2q153 45 283 45q156 0 248 -33t128 -124q35 -80 35 -195v-612 q0 -49 27 -54q27 -4 27 -28q0 -13 -7.5 -20t-15.5 -8l-8 -1q-29 0 -54.5 26t-25.5 85v92q-58 -100 -163.5 -156.5t-231.5 -56.5q-73 0 -140 20t-122 58t-88 101.5t-33 143.5zM129 315q0 -71 29.5 -124.5t79.5 -84t107.5 -45t121.5 -14.5q90 0 175 38.5t144 115t64 172.5v178 q-154 82 -322 82q-80 0 -149.5 -18.5t-126.5 -55t-90 -99.5t-33 -145zM313 1235q-6 10 0 16l195 183q14 14 33 14q18 0 32 -14l195 -183q6 -6 0 -16q-7 -11 -18 -4l-209 135l-209 -135q-11 -8 -19 4z" />
<glyph unicode="&#xe3;" horiz-adv-x="1069" d="M72 313q0 75 25 138t68 106.5t102 74t126.5 44.5t141.5 14q162 0 315 -76v80q0 102 -19 172q-15 51 -47.5 84.5t-80.5 48.5t-92 20t-107 5q-104 0 -281 -47q-13 -3 -24 4t-11 20q0 10 6 17.5t12 9.5l7 2q153 45 283 45q156 0 248 -33t128 -124q35 -80 35 -195v-612 q0 -49 27 -54q27 -4 27 -28q0 -13 -7.5 -20t-15.5 -8l-8 -1q-29 0 -54.5 26t-25.5 85v92q-58 -100 -163.5 -156.5t-231.5 -56.5q-73 0 -140 20t-122 58t-88 101.5t-33 143.5zM129 315q0 -71 29.5 -124.5t79.5 -84t107.5 -45t121.5 -14.5q90 0 175 38.5t144 115t64 172.5v178 q-154 82 -322 82q-80 0 -149.5 -18.5t-126.5 -55t-90 -99.5t-33 -145zM232.5 1321.5q-5.5 17.5 3.5 32.5q28 51 71.5 86t95.5 35q68 0 154 -66q70 -49 115 -49q36 0 58.5 22.5t47.5 67.5q8 16 27 16q12 0 20.5 -8t8.5 -20q0 -9 -7 -23q-64 -117 -155 -117q-69 0 -152 64 q-24 18 -37.5 26.5t-35.5 16.5t-44 8q-39 0 -65.5 -25t-52.5 -71q-8 -14 -25 -14q-22 1 -27.5 18.5z" />
<glyph unicode="&#xe4;" horiz-adv-x="1069" d="M72 313q0 75 25 138t68 106.5t102 74t126.5 44.5t141.5 14q162 0 315 -76v80q0 102 -19 172q-15 51 -47.5 84.5t-80.5 48.5t-92 20t-107 5q-104 0 -281 -47q-13 -3 -24 4t-11 20q0 10 6 17.5t12 9.5l7 2q153 45 283 45q156 0 248 -33t128 -124q35 -80 35 -195v-612 q0 -49 27 -54q27 -4 27 -28q0 -13 -7.5 -20t-15.5 -8l-8 -1q-29 0 -54.5 26t-25.5 85v92q-58 -100 -163.5 -156.5t-231.5 -56.5q-73 0 -140 20t-122 58t-88 101.5t-33 143.5zM129 315q0 -71 29.5 -124.5t79.5 -84t107.5 -45t121.5 -14.5q90 0 175 38.5t144 115t64 172.5v178 q-154 82 -322 82q-80 0 -149.5 -18.5t-126.5 -55t-90 -99.5t-33 -145zM211 1309q0 35 24.5 57.5t59.5 22.5t59.5 -22.5t24.5 -57.5q0 -33 -25 -56.5t-59 -23.5t-59 23.5t-25 56.5zM670 1309q0 34 25.5 57t60.5 23q33 0 58.5 -23t25.5 -57q0 -33 -25.5 -56.5t-58.5 -23.5 q-34 0 -60 23.5t-26 56.5z" />
<glyph unicode="&#xe5;" horiz-adv-x="1069" d="M72 313q0 75 25 138t68 106.5t102 74t126.5 44.5t141.5 14q162 0 315 -76v80q0 102 -19 172q-15 51 -47.5 84.5t-80.5 48.5t-92 20t-107 5q-104 0 -281 -47q-13 -3 -24 4t-11 20q0 10 6 17.5t12 9.5l7 2q153 45 283 45q156 0 248 -33t128 -124q35 -80 35 -195v-612 q0 -49 27 -54q27 -4 27 -28q0 -13 -7.5 -20t-15.5 -8l-8 -1q-29 0 -54.5 26t-25.5 85v92q-58 -100 -163.5 -156.5t-231.5 -56.5q-73 0 -140 20t-122 58t-88 101.5t-33 143.5zM129 315q0 -71 29.5 -124.5t79.5 -84t107.5 -45t121.5 -14.5q90 0 175 38.5t144 115t64 172.5v178 q-154 82 -322 82q-80 0 -149.5 -18.5t-126.5 -55t-90 -99.5t-33 -145zM383 1339q0 64 47 110t113 46q67 0 114.5 -45.5t47.5 -110.5t-47.5 -110t-114.5 -45q-66 0 -113 45.5t-47 109.5zM420 1339q0 -47 37.5 -82.5t85.5 -35.5q50 0 87.5 35.5t37.5 82.5t-37.5 83t-87.5 36 q-48 0 -85.5 -36t-37.5 -83z" />
<glyph unicode="&#xe6;" horiz-adv-x="1961" d="M72 313q0 75 24.5 138t67 106.5t101 74t126 44.5t141.5 14q163 0 316 -76v80q0 102 -19 172q-15 51 -47.5 84.5t-80.5 48.5t-92 20t-107 5q-104 0 -281 -47q-6 -2 -10 -2q-11 0 -19 8t-8 18q0 11 7 18.5t13 8.5l7 2q153 45 283 45q101 0 170.5 -13.5t122 -46.5t80 -92 t34.5 -147q61 128 176.5 208.5t259.5 80.5q138 0 253.5 -81t177 -201.5t61.5 -247.5q0 -12 -10.5 -21.5t-22.5 -9.5h-891q4 -113 61 -216t156.5 -169t214.5 -66q224 0 357 133q11 11 24 11q21 0 30.5 -18.5t-5.5 -33.5q-73 -79 -184 -114t-222 -35q-147 0 -265.5 85.5 t-178.5 223.5q-12 -50 -45 -100q-64 -101 -167 -158t-228 -57q-99 0 -183.5 35t-141 110t-56.5 178zM127 315q0 -71 29.5 -125t79 -85t107.5 -46.5t122 -15.5q85 0 171.5 42t149 125.5t62.5 186.5v154q-154 82 -322 82q-80 0 -149.5 -18.5t-126.5 -55t-90 -99.5t-33 -145z M905 561h864q-6 113 -64 215.5t-157 167t-213 64.5t-212.5 -65t-155.5 -167t-62 -215z" />
<glyph unicode="&#xe7;" horiz-adv-x="1089" d="M102 528q0 148 73 274t198 199.5t270 73.5q190 0 332 -112q10 -7 10 -23q0 -18 -15 -25.5t-30 0.5q-63 47 -141.5 75t-155.5 28q-97 0 -186.5 -39t-154.5 -105t-103.5 -156.5t-38.5 -189.5q0 -97 38.5 -186t103.5 -153.5t154.5 -103t186.5 -38.5q169 0 297 98q10 7 18 7 q21 0 27 -21t-10 -33q-123 -99 -303 -106l-8 -49q48 -5 89.5 -32.5t61.5 -70.5q12 -30 12 -59q0 -46 -29.5 -86.5t-76.5 -61.5q-43 -18 -92 -18q-95 0 -158 63q-10 10 -10 23q0 12 9 21.5t22 9.5q8 0 20 -8q21 -16 55 -26.5t62 -10.5q50 0 85.5 24t35.5 74q0 41 -39.5 66 t-87.5 30q-14 2 -23.5 10.5t-9.5 20.5q0 32 16 80q-138 9 -253.5 82.5t-183 193.5t-67.5 260z" />
<glyph unicode="&#xe8;" horiz-adv-x="1202" d="M102 535q0 140 62 263t177 200t257 77q107 0 202.5 -48.5t160 -125t102 -172t37.5 -190.5q0 -13 -10 -23t-23 -10h-907q0 -122 54.5 -226.5t156 -168.5t227.5 -64q118 0 207.5 29.5t159.5 101.5q16 16 33 11.5t20.5 -19.5t-8.5 -31q-137 -149 -412 -149 q-216 0 -356 154.5t-140 390.5zM160 563h880q-6 115 -65 219t-160.5 170t-218.5 66q-118 0 -217.5 -65.5t-156.5 -169t-62 -220.5zM436 1421q0 25 17.5 42.5t40.5 17.5q17 0 36 -15l246 -198q19 -14 9.5 -31.5t-31.5 -7.5l-285 143q-33 16 -33 49z" />
<glyph unicode="&#xe9;" horiz-adv-x="1202" d="M102 535q0 140 62 263t177 200t257 77q107 0 202.5 -48.5t160 -125t102 -172t37.5 -190.5q0 -13 -10 -23t-23 -10h-907q0 -122 54.5 -226.5t156 -168.5t227.5 -64q118 0 207.5 29.5t159.5 101.5q16 16 33 11.5t20.5 -19.5t-8.5 -31q-137 -149 -412 -149 q-216 0 -356 154.5t-140 390.5zM160 563h880q-6 115 -65 219t-160.5 170t-218.5 66q-118 0 -217.5 -65.5t-156.5 -169t-62 -220.5zM422 1235.5q-9 18.5 10 32.5l246 198q19 15 37 15q23 0 40 -17.5t17 -42.5q0 -33 -33 -49l-284 -143q-24 -12 -33 6.5z" />
<glyph unicode="&#xea;" horiz-adv-x="1202" d="M102 535q0 140 62 263t177 200t257 77q107 0 202.5 -48.5t160 -125t102 -172t37.5 -190.5q0 -13 -10 -23t-23 -10h-907q0 -122 54.5 -226.5t156 -168.5t227.5 -64q118 0 207.5 29.5t159.5 101.5q16 16 33 11.5t20.5 -19.5t-8.5 -31q-137 -149 -412 -149 q-216 0 -356 154.5t-140 390.5zM160 563h880q-6 115 -65 219t-160.5 170t-218.5 66q-118 0 -217.5 -65.5t-156.5 -169t-62 -220.5zM365 1235q-6 10 0 16l194 183q14 14 33 14t33 -14l194 -183q6 -6 0 -16q-7 -11 -18 -4l-209 135l-209 -135q-11 -7 -18 4z" />
<glyph unicode="&#xeb;" horiz-adv-x="1202" d="M102 535q0 140 62 263t177 200t257 77q107 0 202.5 -48.5t160 -125t102 -172t37.5 -190.5q0 -13 -10 -23t-23 -10h-907q0 -122 54.5 -226.5t156 -168.5t227.5 -64q118 0 207.5 29.5t159.5 101.5q16 16 33 11.5t20.5 -19.5t-8.5 -31q-137 -149 -412 -149 q-216 0 -356 154.5t-140 390.5zM160 563h880q-6 115 -65 219t-160.5 170t-218.5 66q-118 0 -217.5 -65.5t-156.5 -169t-62 -220.5zM279 1309q0 35 24.5 57.5t58.5 22.5q35 0 59.5 -22.5t24.5 -57.5q0 -33 -25 -56.5t-59 -23.5t-58.5 23.5t-24.5 56.5zM737 1309q0 34 25.5 57 t60.5 23q33 0 58.5 -23t25.5 -57q0 -33 -25.5 -56.5t-58.5 -23.5q-34 0 -60 23.5t-26 56.5z" />
<glyph unicode="&#xec;" horiz-adv-x="419" d="M23 1421q0 25 17 42.5t40 17.5q18 0 37 -15l245 -198q19 -14 9.5 -31.5t-31.5 -7.5l-285 143q-32 15 -32 49zM123 1036q0 13 7.5 20t15.5 8l8 1q29 0 54 -26t25 -85v-843q0 -49 27 -54q27 -4 27 -28q0 -13 -7.5 -20t-15.5 -8l-8 -1q-29 0 -54.5 26t-25.5 85v843 q0 49 -26 54q-27 4 -27 28z" />
<glyph unicode="&#xed;" horiz-adv-x="419" d="M10 1235.5q-9 18.5 10 32.5l246 198q19 15 37 15q23 0 40 -17.5t17 -42.5q0 -34 -32 -49l-285 -143q-24 -12 -33 6.5zM119 1036q0 13 7.5 20t15.5 8l8 1q29 0 54 -26t25 -85v-843q0 -49 27 -54q27 -4 27 -28q0 -13 -7.5 -20t-15.5 -8l-8 -1q-29 0 -54.5 26t-25.5 85v843 q0 49 -27 54q-26 4 -26 28z" />
<glyph unicode="&#xee;" horiz-adv-x="419" d="M-31 1235q-6 10 0 16l195 183q14 14 33 14q18 0 32 -14l195 -183q6 -6 0 -16q-7 -11 -18 -4l-209 135l-209 -135q-11 -8 -19 4zM123 1036q0 13 7.5 20t15.5 8l8 1q29 0 54 -26t25 -85v-843q0 -49 27 -54q27 -4 27 -28q0 -13 -7.5 -20t-15.5 -8l-8 -1q-29 0 -54.5 26 t-25.5 85v843q0 49 -26 54q-27 4 -27 28z" />
<glyph unicode="&#xef;" horiz-adv-x="419" d="M-76 1309q0 35 24.5 57.5t59.5 22.5t59.5 -22.5t24.5 -57.5q0 -33 -25 -56.5t-59 -23.5t-59 23.5t-25 56.5zM123 1036q0 13 7.5 20t15.5 8l8 1q29 0 54 -26t25 -85v-843q0 -49 27 -54q27 -4 27 -28q0 -13 -7.5 -20t-15.5 -8l-8 -1q-29 0 -54.5 26t-25.5 85v843 q0 49 -26 54q-27 4 -27 28zM260 1309q0 34 25.5 57t60.5 23q33 0 58.5 -23t25.5 -57q0 -33 -25.5 -56.5t-58.5 -23.5q-34 0 -60 23.5t-26 56.5z" />
<glyph unicode="&#xf0;" horiz-adv-x="1269" d="M98 530q0 109 42 208t113.5 170.5t171 114t208.5 42.5q124 0 233.5 -54.5t182.5 -148.5q-40 123 -122.5 233t-195.5 181q-12 8 -18 10l-187 -110q-8 -5 -16 -5q-10 0 -18.5 8.5t-8.5 18.5q0 18 15 25l155 94q-118 54 -241 72q-25 4 -25 32q0 12 10 20t23 7 q147 -17 295 -96l184 112q8 4 14 4q13 0 21 -8.5t8 -19.5q0 -15 -16 -25l-158 -94q158 -98 264 -279q62 -104 98.5 -233t36.5 -254q0 -59 -8 -106q-29 -193 -178 -321t-348 -128q-146 0 -269 70.5t-194.5 192.5t-71.5 267zM156 530q0 -96 38 -184t102 -151t152 -100.5 t185 -37.5q128 0 238 63t174.5 172t64.5 238q0 96 -38 184.5t-102.5 152.5t-152.5 102t-184 39q-129 0 -239 -64.5t-174 -174.5t-64 -239z" />
<glyph unicode="&#xf1;" d="M133 29q0 24 27 28q26 5 26 54v843q0 49 -26 54q-27 4 -27 28q0 13 7.5 20t15.5 8l8 1q29 0 54.5 -26t25.5 -85v-129q56 105 155 172.5t219 67.5q217 0 330 -127t113 -348v-479q0 -49 26 -54q27 -4 27 -28q0 -13 -8 -20t-16 -8l-7 -1q-29 0 -54 26t-25 85v495 q0 186 -105 294t-281 108q-150 0 -262 -115.5t-112 -269.5v-512q0 -59 -25.5 -85t-54.5 -26q-3 0 -8.5 1t-14 8t-8.5 20zM328.5 1321.5q-5.5 17.5 3.5 32.5q28 51 72 86t96 35q29 0 58.5 -10.5t48.5 -22.5t46 -33q70 -49 115 -49q36 0 58.5 22.5t47.5 67.5q8 16 27 16 q12 0 20.5 -8t8.5 -20q0 -11 -6 -23q-64 -117 -156 -117q-69 0 -152 64q-25 18 -37.5 26t-34.5 16.5t-44 8.5q-39 0 -66 -25t-53 -71q-8 -14 -25 -14q-22 1 -27.5 18.5z" />
<glyph unicode="&#xf2;" horiz-adv-x="1292" d="M102 530q0 148 72.5 273.5t197.5 198.5t273 73t273.5 -73t198.5 -198.5t73 -273.5q0 -147 -73 -271.5t-198.5 -196.5t-273.5 -72t-273 72t-197.5 196.5t-72.5 271.5zM160 530q0 -131 65.5 -242t177 -176t242.5 -65q98 0 188 38.5t156 103t105 154t39 187.5 q0 200 -144 343t-344 145q-131 0 -242.5 -65.5t-177 -178t-65.5 -244.5zM469 1421q0 25 17 42.5t40 17.5q18 0 37 -15l246 -198q19 -14 9 -31.5t-32 -7.5l-284 143q-33 16 -33 49z" />
<glyph unicode="&#xf3;" horiz-adv-x="1292" d="M102 530q0 -147 72.5 -271.5t197.5 -196.5t273 -72t273.5 72t198.5 196.5t73 271.5q0 148 -73 273.5t-198.5 198.5t-273.5 73t-273 -73t-197.5 -198.5t-72.5 -273.5zM160 530q0 132 65.5 244.5t177 178t242.5 65.5q200 -2 344 -145t144 -343q0 -98 -39 -187.5t-105 -154 t-156 -103t-188 -38.5q-131 0 -242.5 65t-177 176t-65.5 242zM473 1235.5q-9 18.5 10 32.5l246 198q19 15 37 15q23 0 40 -17.5t17 -42.5q0 -34 -32 -49l-285 -143q-24 -12 -33 6.5z" />
<glyph unicode="&#xf4;" horiz-adv-x="1292" d="M102 530q0 148 72.5 273.5t197.5 198.5t273 73t273.5 -73t198.5 -198.5t73 -273.5q0 -147 -73 -271.5t-198.5 -196.5t-273.5 -72t-273 72t-197.5 196.5t-72.5 271.5zM160 530q0 -131 65.5 -242t177 -176t242.5 -65q98 0 188 38.5t156 103t105 154t39 187.5 q0 200 -144 343t-344 145q-131 0 -242.5 -65.5t-177 -178t-65.5 -244.5zM418 1235q-6 10 0 16l194 183q14 14 33 14t33 -14l194 -183q6 -6 0 -16q-7 -11 -18 -4l-209 135l-209 -135q-11 -7 -18 4z" />
<glyph unicode="&#xf5;" horiz-adv-x="1292" d="M102 530q0 -147 72.5 -271.5t197.5 -196.5t273 -72t273.5 72t198.5 196.5t73 271.5q0 148 -73 273.5t-198.5 198.5t-273.5 73t-273 -73t-197.5 -198.5t-72.5 -273.5zM160 530q0 132 65.5 244.5t177 178t242.5 65.5q200 -2 344 -145t144 -343q0 -98 -39 -187.5t-105 -154 t-156 -103t-188 -38.5q-131 0 -242.5 65t-177 176t-65.5 242zM347 1321.5q-6 17.5 3 32.5q28 51 72 86t96 35q68 0 154 -66q70 -49 114 -49q36 0 59 22.5t48 67.5q8 16 27 16q12 0 20 -8t8 -20q0 -11 -6 -23q-64 -117 -156 -117q-68 0 -151 64q-24 18 -37.5 26.5t-35.5 16.5 t-44 8q-39 0 -66 -25t-53 -71q-8 -14 -24 -14q-22 1 -28 18.5z" />
<glyph unicode="&#xf6;" horiz-adv-x="1292" d="M102 530q0 -147 72.5 -271.5t197.5 -196.5t273 -72t273.5 72t198.5 196.5t73 271.5q0 148 -73 273.5t-198.5 198.5t-273.5 73t-273 -73t-197.5 -198.5t-72.5 -273.5zM160 530q0 132 65.5 244.5t177 178t242.5 65.5q200 -2 344 -145t144 -343q0 -98 -39 -187.5t-105 -154 t-156 -103t-188 -38.5q-131 0 -242.5 65t-177 176t-65.5 242zM332 1309q0 35 24.5 57.5t59.5 22.5t59.5 -22.5t24.5 -57.5q0 -33 -25 -56.5t-59 -23.5t-59 23.5t-25 56.5zM791 1309q0 34 25.5 57t60.5 23q33 0 58.5 -23t25.5 -57q0 -33 -25.5 -56.5t-58.5 -23.5 q-34 0 -60 23.5t-26 56.5z" />
<glyph unicode="&#xf7;" horiz-adv-x="1030" d="M111 717q0 11 8 19.5t18 8.5h752q13 0 22 -8t9 -22q0 -11 -8 -19t-19 -8h-752q-12 0 -21 8.5t-9 20.5zM428 408q0 37 25.5 62.5t62.5 25.5t62.5 -26.5t25.5 -63.5q0 -36 -26 -62.5t-62 -26.5t-62 26.5t-26 64.5zM428 1028q0 37 25.5 62.5t62.5 25.5t62.5 -25.5 t25.5 -62.5t-25.5 -62.5t-62.5 -25.5q-35 0 -61.5 25.5t-26.5 62.5z" />
<glyph unicode="&#xf8;" horiz-adv-x="1294" d="M102 526q0 108 42.5 208.5t115 175.5t173.5 120t212 45q138 0 281 -78l90 136q10 16 28 16q12 0 22.5 -10.5t10.5 -22.5q0 -8 -4 -16l-96 -137q98 -72 156.5 -190t58.5 -245q0 -104 -43 -202.5t-115 -172t-173.5 -118.5t-211.5 -45q-151 0 -272 73l-111 -165 q-11 -15 -28 -15q-11 0 -21 9t-10 22q0 9 6 18l111 164q-103 72 -162.5 188t-59.5 242zM160 530q0 -115 52 -218t144 -167l539 805q-123 68 -252 68q-128 0 -239.5 -66t-177.5 -179t-66 -243zM408 111q118 -64 237 -64q128 0 240.5 63.5t181 174t68.5 239.5q0 115 -49.5 217 t-141.5 174z" />
<glyph unicode="&#xf9;" d="M133 1036q0 13 7.5 20t15.5 8l8 1q29 0 54.5 -26t25.5 -85v-495q0 -184 98.5 -293t286.5 -109q99 0 185.5 53t138 142t51.5 190v512q0 59 25 85t54 26q3 0 8.5 -1t14 -8t8.5 -20q0 -24 -27 -28q-26 -5 -26 -54v-843q0 -49 26 -54q27 -4 27 -28q0 -13 -8 -20t-16 -8l-7 -1 q-29 0 -54 26t-25 85v129q-63 -107 -159.5 -173.5t-215.5 -66.5q-220 0 -331.5 126.5t-111.5 354.5v473q0 49 -26 54q-27 4 -27 28zM430 1421q0 25 17 42.5t40 17.5q18 0 37 -15l246 -198q19 -14 9.5 -31.5t-31.5 -7.5l-285 143q-33 16 -33 49z" />
<glyph unicode="&#xfa;" d="M133 1036q0 13 7.5 20t15.5 8l8 1q29 0 54.5 -26t25.5 -85v-495q0 -184 98.5 -293t286.5 -109q99 0 185.5 53t138 142t51.5 190v512q0 59 25 85t54 26q3 0 8.5 -1t14 -8t8.5 -20q0 -24 -27 -28q-26 -5 -26 -54v-843q0 -49 26 -54q27 -4 27 -28q0 -13 -8 -20t-16 -8l-7 -1 q-29 0 -54 26t-25 85v129q-63 -107 -159.5 -173.5t-215.5 -66.5q-220 0 -331.5 126.5t-111.5 354.5v473q0 49 -26 54q-27 4 -27 28zM459 1235.5q-9 18.5 10 32.5l246 198q19 15 37 15q23 0 40 -17.5t17 -42.5q0 -33 -33 -49l-284 -143q-24 -12 -33 6.5z" />
<glyph unicode="&#xfb;" d="M133 1036q0 13 7.5 20t15.5 8l8 1q29 0 54.5 -26t25.5 -85v-495q0 -184 98.5 -293t286.5 -109q99 0 185.5 53t138 142t51.5 190v512q0 59 25 85t54 26q3 0 8.5 -1t14 -8t8.5 -20q0 -24 -27 -28q-26 -5 -26 -54v-843q0 -49 26 -54q27 -4 27 -28q0 -13 -8 -20t-16 -8l-7 -1 q-29 0 -54 26t-25 85v129q-63 -107 -159.5 -173.5t-215.5 -66.5q-220 0 -331.5 126.5t-111.5 354.5v473q0 49 -26 54q-27 4 -27 28zM406 1235q-6 10 0 16l194 183q14 14 33 14t33 -14l194 -183q6 -6 0 -16q-7 -11 -18 -4l-209 135l-209 -135q-11 -7 -18 4z" />
<glyph unicode="&#xfc;" d="M133 1036q0 13 7.5 20t15.5 8l8 1q29 0 54.5 -26t25.5 -85v-495q0 -184 98.5 -293t286.5 -109q99 0 185.5 53t138 142t51.5 190v512q0 59 25 85t54 26q3 0 8.5 -1t14 -8t8.5 -20q0 -24 -27 -28q-26 -5 -26 -54v-843q0 -49 26 -54q27 -4 27 -28q0 -13 -8 -20t-16 -8l-7 -1 q-29 0 -54 26t-25 85v129q-63 -107 -159.5 -173.5t-215.5 -66.5q-220 0 -331.5 126.5t-111.5 354.5v473q0 49 -26 54q-27 4 -27 28zM299 1309q0 35 24.5 57.5t59.5 22.5t59.5 -22.5t24.5 -57.5q0 -33 -25 -56.5t-59 -23.5t-59 23.5t-25 56.5zM758 1309q0 34 25.5 57t60.5 23 q33 0 58.5 -23t25.5 -57q0 -33 -25.5 -56.5t-58.5 -23.5q-34 0 -60 23.5t-26 56.5z" />
<glyph unicode="&#xfd;" horiz-adv-x="1146" d="M88 1032q0 17 14 25t31 8q58 0 84 -68l354 -915l359 917q11 29 33 47.5t49 18.5q20 0 33.5 -9t13.5 -26q0 -26 -31 -26q-3 0 -7.5 1t-8.5 1q-17 0 -29 -27q-280 -722 -313 -805q-127 -318 -162 -377q-43 -70 -92.5 -107.5t-122.5 -37.5q-64 0 -150 33q-20 7 -20 28 q0 18 17 25t36 -2q52 -25 113 -25q30 0 57 9.5t49 29.5t38.5 39.5t33.5 52t26.5 53t24.5 56t21 49.5l-377 977q-10 29 -29 29q-3 0 -9.5 -1t-8.5 -1q-12 0 -19.5 8t-7.5 20zM401.5 1235.5q-8.5 18.5 10.5 32.5l245 198q19 15 37 15q23 0 40.5 -17.5t17.5 -42.5 q0 -33 -33 -49l-285 -143q-24 -12 -32.5 6.5z" />
<glyph unicode="&#xfe;" horiz-adv-x="1271" d="M170 -414q0 11 6.5 20t18.5 9q30 0 30 53v1655q0 53 -30 53q-12 0 -18.5 9t-6.5 20q0 12 9.5 20.5t21.5 8.5q42 0 62 -34.5t20 -76.5v-541q61 126 171 204.5t242 78.5q117 0 218.5 -62t166.5 -165q88 -140 88 -318q0 -98 -34 -191t-93.5 -166.5t-150 -118t-195.5 -44.5 q-96 0 -182.5 38t-151.5 109q-45 48 -79 117v-596q0 -42 -20 -76t-62 -34q-12 0 -21.5 8t-9.5 20zM283 522q0 -125 49.5 -231.5t148.5 -169.5q98 -64 215 -64q118 0 214.5 64.5t150 170.5t53.5 228q0 161 -82 289q-56 89 -145.5 144t-190.5 55q-97 0 -182.5 -50.5 t-142.5 -136.5q-82 -123 -88 -299z" />
<glyph unicode="&#xff;" horiz-adv-x="1146" d="M88 1032q0 17 14 25t31 8q58 0 84 -68l354 -915l359 917q11 29 33 47.5t49 18.5q20 0 33.5 -9t13.5 -26q0 -26 -31 -26q-3 0 -7.5 1t-8.5 1q-17 0 -29 -27q-280 -722 -313 -805q-127 -318 -162 -377q-43 -70 -92.5 -107.5t-122.5 -37.5q-64 0 -150 33q-20 7 -20 28 q0 18 17 25t36 -2q52 -25 113 -25q30 0 57 9.5t49 29.5t38.5 39.5t33.5 52t26.5 53t24.5 56t21 49.5l-377 977q-10 29 -29 29q-3 0 -9.5 -1t-8.5 -1q-12 0 -19.5 8t-7.5 20zM258 1309q0 35 24.5 57.5t59.5 22.5t59.5 -22.5t24.5 -57.5q0 -33 -25 -56.5t-59 -23.5t-59 23.5 t-25 56.5zM717 1309q0 34 25.5 57t60.5 23q33 0 58.5 -23t25.5 -57q0 -33 -25.5 -56.5t-58.5 -23.5q-34 0 -60 23.5t-26 56.5z" />
<glyph unicode="&#x152;" horiz-adv-x="2037" d="M123 717q0 146 53.5 275t155.5 229q104 102 234 157.5t270 55.5h1030q12 0 20 -9.5t8 -21.5t-8 -20.5t-20 -8.5h-742q11 -28 11 -61v-586h604q12 0 20 -9.5t8 -21.5t-8 -20t-20 -8h-604v-559q0 -26 -9 -50h781q12 0 21 -9t9 -21q0 -11 -9 -20t-21 -9h-1069 q-142 0 -272.5 54.5t-233.5 154.5q-209 215 -209 508zM182 717q0 -132 52.5 -253.5t141 -210t209.5 -141.5t253 -53h213q24 0 24 50v1204q0 61 -24 61h-215q-131 -1 -252 -54t-209 -141.5t-140.5 -209.5t-52.5 -252z" />
<glyph unicode="&#x153;" horiz-adv-x="2197" d="M102 530q0 109 42 208t113.5 170.5t171 114t208.5 42.5q172 0 310.5 -100t193.5 -258q52 157 175 257.5t288 100.5q104 0 197.5 -47.5t157 -123.5t100 -170.5t36.5 -188.5q0 -12 -10.5 -21.5t-22.5 -9.5h-891q4 -113 61.5 -216t157 -169t214.5 -66q223 0 356 133 q10 10 22.5 10t22.5 -8q9 -8 11 -21t-7 -22q-73 -79 -184 -114t-221 -35q-159 0 -285 101t-178 259q-55 -159 -193 -258.5t-311 -99.5q-146 0 -269 71t-194.5 193.5t-71.5 267.5zM160 530q0 -96 38 -184t102 -152t152 -101.5t185 -37.5q125 0 233 60.5t173.5 165.5t70.5 229 v20q0 96 -38 184.5t-102.5 152.5t-152.5 102t-184 39q-129 0 -239 -64.5t-174 -174.5t-64 -239zM1171 561h865q-6 113 -64 215.5t-157 167t-213 64.5t-213 -65t-156 -167t-62 -215z" />
<glyph unicode="&#x178;" horiz-adv-x="1314" d="M90 1401q0 17 15.5 25t33.5 8q23 -1 44.5 -15t33.5 -35l440 -733l441 733q12 21 33.5 35t44.5 15q18 0 33.5 -8t15.5 -25q0 -12 -8.5 -20.5t-20.5 -8.5q-2 0 -8.5 2t-9.5 2h-2q-18 0 -31 -22l-459 -764v-561q0 -12 -9 -20.5t-20 -8.5t-19.5 8.5t-8.5 20.5v561l-459 764 q-13 22 -31 22h-2q-3 0 -9.5 -2t-8.5 -2q-12 0 -20.5 8.5t-8.5 20.5zM356 1686q0 34 24.5 56.5t59.5 22.5t59.5 -22.5t24.5 -56.5q0 -33 -25 -56.5t-59 -23.5t-59 23.5t-25 56.5zM815 1686q0 34 25.5 56.5t60.5 22.5q33 0 58.5 -22.5t25.5 -56.5q0 -33 -25.5 -56.5 t-58.5 -23.5q-34 0 -60 23.5t-26 56.5z" />
<glyph unicode="&#x2c6;" horiz-adv-x="999" d="M272 1235q-6 10 0 16l195 183q14 14 33 14q18 0 32 -14l195 -183q6 -6 0 -16q-7 -11 -18 -4l-209 135l-209 -135q-11 -8 -19 4z" />
<glyph unicode="&#x2dc;" horiz-adv-x="993" d="M197.5 1321.5q-5.5 17.5 3.5 32.5q28 51 72 86t96 35q29 0 58.5 -10.5t48.5 -22.5t46 -33q70 -49 115 -49q36 0 58.5 22.5t47.5 67.5q8 16 27 16q12 0 20.5 -8t8.5 -20q0 -11 -6 -23q-64 -117 -156 -117q-69 0 -152 64q-25 18 -37.5 26t-34.5 16.5t-44 8.5q-39 0 -66 -25 t-53 -71q-8 -14 -25 -14q-22 1 -27.5 18.5z" />
<glyph unicode="&#x2000;" horiz-adv-x="929" />
<glyph unicode="&#x2001;" horiz-adv-x="1858" />
<glyph unicode="&#x2002;" horiz-adv-x="929" />
<glyph unicode="&#x2003;" horiz-adv-x="1858" />
<glyph unicode="&#x2004;" horiz-adv-x="619" />
<glyph unicode="&#x2005;" horiz-adv-x="464" />
<glyph unicode="&#x2006;" horiz-adv-x="309" />
<glyph unicode="&#x2007;" horiz-adv-x="309" />
<glyph unicode="&#x2008;" horiz-adv-x="232" />
<glyph unicode="&#x2009;" horiz-adv-x="371" />
<glyph unicode="&#x200a;" horiz-adv-x="103" />
<glyph unicode="&#x2010;" horiz-adv-x="950" d="M115 535q0 11 8 19.5t18 8.5h662q13 0 23 -6.5t10 -19.5q0 -12 -8.5 -21.5t-20.5 -9.5h-662q-12 0 -21 8.5t-9 20.5z" />
<glyph unicode="&#x2011;" horiz-adv-x="950" d="M115 535q0 11 8 19.5t18 8.5h662q13 0 23 -6.5t10 -19.5q0 -12 -8.5 -21.5t-20.5 -9.5h-662q-12 0 -21 8.5t-9 20.5z" />
<glyph unicode="&#x2012;" horiz-adv-x="950" d="M115 535q0 11 8 19.5t18 8.5h662q13 0 23 -6.5t10 -19.5q0 -12 -8.5 -21.5t-20.5 -9.5h-662q-12 0 -21 8.5t-9 20.5z" />
<glyph unicode="&#x2013;" horiz-adv-x="1363" d="M115 717q0 11 8 19.5t18 8.5h1076q12 0 21.5 -7t10.5 -19q0 -12 -8 -21.5t-20 -9.5h-1076q-12 0 -21 8.5t-9 20.5z" />
<glyph unicode="&#x2014;" horiz-adv-x="1769" d="M115 717q0 11 8 19.5t18 8.5h1481q12 0 22 -7t11 -19q0 -12 -8.5 -21.5t-20.5 -9.5h-1481q-12 0 -21 8.5t-9 20.5z" />
<glyph unicode="&#x2018;" horiz-adv-x="509" d="M166 1284q0 62 47 121.5t109 89.5q13 10 22 -2q5 -12 -10 -23q-55 -29 -93 -91.5t-18 -116.5l2 -11l8 6q17 17 39 17q23 0 36.5 -15.5t13.5 -37.5q0 -24 -21 -41t-47 -17q-40 0 -64 39t-24 82z" />
<glyph unicode="&#x2019;" horiz-adv-x="509" d="M170 1169q-6 11 10 23q55 32 93 94t18 117l-4 8l-6 -6q-17 -14 -41 -14q-21 0 -34 14.5t-13 36.5q0 25 20 41t45 16q41 0 64.5 -38.5t23.5 -82.5q0 -62 -46.5 -121.5t-106.5 -89.5q-15 -9 -23 2z" />
<glyph unicode="&#x201a;" horiz-adv-x="452" d="M133 -184q-8 13 10 22q57 31 97 97t20 122l-4 11l-6 -7q-22 -16 -43 -16q-22 0 -35.5 16t-13.5 39q0 25 20.5 42.5t46.5 17.5q42 0 67 -40.5t25 -84.5q0 -66 -48.5 -128.5t-110.5 -92.5q-17 -9 -25 2z" />
<glyph unicode="&#x201c;" horiz-adv-x="778" d="M166 1284q0 62 46.5 121.5t106.5 89.5q15 9 23 -2q6 -11 -10 -23q-54 -30 -92 -92t-19 -116l4 -11l6 6q20 17 41 17t34 -15.5t13 -37.5q0 -24 -20.5 -41t-44.5 -17q-41 0 -64.5 38.5t-23.5 82.5zM434 1284q0 62 47 121.5t109 89.5q12 9 20 -2q6 -11 -10 -23 q-54 -30 -92 -92t-19 -116l5 -11l6 6q20 17 41 17t34 -15.5t13 -37.5q0 -24 -21 -41t-45 -17q-41 0 -64.5 38.5t-23.5 82.5z" />
<glyph unicode="&#x201d;" horiz-adv-x="778" d="M168 1169q-5 13 12 21q54 32 91.5 94.5t17.5 116.5l-2 10l-8 -6q-16 -16 -39 -16q-21 0 -35.5 15.5t-14.5 37.5q0 24 21 40.5t47 16.5q39 0 63.5 -39.5t24.5 -81.5q0 -64 -47 -123.5t-109 -87.5q-13 -10 -22 2zM438 1169q-7 12 11 21q54 31 91.5 94t18.5 117l-4 10l-8 -6 q-16 -16 -39 -16q-21 0 -34 15.5t-13 37.5q0 24 19.5 40.5t45.5 16.5q41 0 64.5 -39t23.5 -82q0 -64 -47 -123.5t-108 -87.5q-12 -9 -21 2z" />
<glyph unicode="&#x201e;" horiz-adv-x="780" d="M166 -201q-5 13 12 21q54 32 91.5 94.5t17.5 116.5l-2 10l-9 -6q-17 -17 -38 -17t-35.5 16t-14.5 38q0 24 21 40.5t47 16.5q40 0 64 -39t24 -82q0 -64 -47 -123.5t-109 -87.5q-13 -10 -22 2zM440 -201q-7 12 11 21q54 32 92 94.5t18 116.5l-4 10l-6 -6q-20 -17 -41 -17 t-34 15.5t-13 38.5q0 24 20.5 40.5t44.5 16.5q41 0 64.5 -38.5t23.5 -82.5q0 -64 -46.5 -123.5t-106.5 -87.5q-15 -9 -23 2z" />
<glyph unicode="&#x2022;" horiz-adv-x="847" d="M207 725q0 88 64 150.5t153 62.5q90 0 153.5 -63.5t63.5 -153.5q0 -88 -64 -150.5t-153 -62.5q-90 0 -153.5 63.5t-63.5 153.5z" />
<glyph unicode="&#x2026;" d="M170 72q0 31 20.5 51t51.5 20t51 -20t20 -51t-20 -51.5t-51 -20.5t-51.5 20.5t-20.5 51.5zM551 72q0 31 20.5 51t51.5 20t51 -20t20 -51t-20 -51.5t-51 -20.5t-51.5 20.5t-20.5 51.5zM932 72q0 31 20.5 51t51.5 20t51 -20t20 -51t-20 -51.5t-51 -20.5t-51.5 20.5 t-20.5 51.5z" />
<glyph unicode="&#x202f;" horiz-adv-x="371" />
<glyph unicode="&#x2039;" horiz-adv-x="692" d="M92 532q0 13 8 21l418 475q10 10 23 10t21.5 -10.5t8.5 -21.5q0 -10 -6 -19l-399 -455l399 -456q12 -15 3.5 -33t-27.5 -18q-15 0 -23 10l-418 477q-8 8 -8 20z" />
<glyph unicode="&#x203a;" horiz-adv-x="690" d="M119 42q-7 19 6 34l399 456l-399 455q-6 9 -6 19q0 11 9 21.5t22 10.5q12 0 22 -10l418 -475q8 -8 8 -21q0 -12 -8 -20l-418 -477q-9 -12 -25 -12q-21 0 -28 19z" />
<glyph unicode="&#x205f;" horiz-adv-x="464" />
<glyph unicode="&#x20ac;" horiz-adv-x="1562" d="M92 590q0 12 8.5 21.5t20.5 9.5h213q-12 108 2 208h-215q-12 0 -20.5 8.5t-8.5 20.5t8.5 21.5t20.5 9.5h227q51 229 243.5 386t428.5 165h35q183 0 340 -86q11 -5 14.5 -16.5t-2.5 -22.5q-13 -23 -39 -12q-145 77 -311 77h-33q-212 -3 -387.5 -144.5t-226.5 -346.5h553 q12 0 20 -9.5t8 -21.5t-8 -20.5t-20 -8.5h-566q-18 -107 -4 -208h570q12 0 20 -9.5t8 -21.5t-8 -20.5t-20 -8.5h-557q25 -112 86 -203q92 -145 240.5 -226t320.5 -81q195 0 358 105q8 4 14 4q23 0 29 -22t-12 -32q-176 -114 -389 -114q-185 0 -348 89.5t-263 244.5 q-72 113 -98 235h-223q-12 0 -20.5 8.5t-8.5 20.5z" />
<glyph unicode="&#x2122;" horiz-adv-x="1218" d="M25 1405q0 11 8 20t20 9h508q29 0 49 -27l232 -320l231 316q22 31 47 31q12 0 20.5 -9t8.5 -20t-7.5 -19.5t-17.5 -9.5v-549q0 -4 2 -6q23 -4 23 -26q0 -12 -8.5 -20.5t-20.5 -8.5q-24 0 -37.5 17.5t-13.5 43.5v471l-205 -276q-7 -10 -22 -10q-14 0 -21 10l-205 276v-471 q0 -27 -12.5 -44t-36.5 -17q-12 0 -21 8.5t-9 20.5q0 22 22 26l2 6v547q0 2 -225 2v-581q0 -12 -8.5 -20.5t-20.5 -8.5q-13 0 -20.5 8.5t-7.5 20.5v581h-226q-12 0 -20 8.5t-8 20.5z" />
<glyph unicode="&#x25fc;" horiz-adv-x="1064" d="M0 0v1065h1065v-1065h-1065z" />
</font>
</defs>
</svg>
