<?xml version="1.0" encoding="utf-8"?>
<!-- Generator: Adobe Illustrator 18.0.0, SVG Export Plug-In . SVG Version: 6.00 Build 0)  -->
<!DOCTYPE svg PUBLIC "-//W3C//DTD SVG 1.1//EN" "http://www.w3.org/Graphics/SVG/1.1/DTD/svg11.dtd">
<svg version="1.1" id="图层_1" xmlns="http://www.w3.org/2000/svg" xmlns:xlink="http://www.w3.org/1999/xlink" x="0px" y="0px"
	 width="160px" height="120.9px" viewBox="0 0 160 120.9" enable-background="new 0 0 160 120.9" xml:space="preserve">
<g>
	<g>
		<path fill="#38546D" d="M60.3,116.2c-0.1,0-0.2,0-0.3,0l-7.7-2.3c-0.5-0.2-0.8-0.7-0.6-1.2s0.7-0.8,1.2-0.6l6.5,1.9V99.4
			c0-0.5,0.4-1,1-1c0.5,0,1,0.4,1,1v15.8c0,0.3-0.1,0.6-0.4,0.8C60.7,116.1,60.5,116.2,60.3,116.2z"/>
		<path fill="#38546D" d="M80.5,117.6c-0.1,0-0.2,0-0.3,0l-7.7-2.3c-0.5-0.2-0.8-0.7-0.6-1.2c0.2-0.5,0.7-0.8,1.2-0.6l6.5,1.9v-14.5
			c0-0.5,0.4-1,1-1s1,0.4,1,1v15.8c0,0.3-0.1,0.6-0.4,0.8C80.9,117.5,80.7,117.6,80.5,117.6z"/>
		<path fill="#38546D" d="M52.6,119.3c-0.4,0-0.7-0.2-0.9-0.6c-0.2-0.5,0-1,0.5-1.2l7.7-3.2c0.5-0.2,1,0,1.2,0.5
			c0.2,0.5,0,1-0.5,1.2l-7.7,3.2C52.8,119.3,52.7,119.3,52.6,119.3z"/>
		<path fill="#38546D" d="M72.7,120.9c-0.4,0-0.7-0.2-0.9-0.6c-0.2-0.5,0-1,0.5-1.2l7.7-3.2c0.5-0.2,1,0,1.2,0.5
			c0.2,0.5,0,1-0.5,1.2l-7.7,3.2C73,120.9,72.8,120.9,72.7,120.9z"/>
	</g>
	<g>
		<path fill="#C3E3EE" d="M129.6,57c-2.4,21.9-19.6,41.5-41,46.7c-21.4,5.2-45.7-4.2-57.9-22.6c-6.5-9.8-9.7-21.5-12-33.1
			c-2.5-12.7-3.7-27,3.9-37.5c5.7-7.7,16-11.8,25.4-10S65.5,9.7,68,18.9c1.6,6,1.1,12.6,4.3,17.9c2.5,4.2,7,6.9,11.6,8.7
			c12.7,4.9,29.7,2.1,35.7-10.1c3.1-6.3,4.3-15.5,11.3-16.8c3.2-0.6,6.6,1.3,7.9,4.2c1.3,3,0.3,6.8-2.3,8.7c3.4-3.7,10-4.9,13.3-1.1
			c3.3,3.8-1.1,11.4-5.7,9.2c3.4-0.8,7.1-1.2,10.4,0.1c3.3,1.3,5.9,4.7,5.4,8.1c-0.8,5.5-7.8,7.3-13.4,7.8
			c-5.3,0.4-10.6,0.9-15.9,1.3"/>
	</g>
	<path fill="#E69C3E" d="M0,31.4l17.2,5.3c0,0,7.1-5.7,0.4-14.4C17.7,22.3,8,22.2,0,31.4z"/>
	<g>
		<path fill="#3B5770" d="M129.4,90.7c-16.5,2.7-33.8,0.6-49.1-6c-7.8-3.3-15.3-8-19.9-15.1c-4.6-7.1-5.6-17-0.6-23.8
			c4.7-6.4,10.2-6.7,17.2-6.9c5.2-0.2,14,2.2,18.4,4.9c8.2,5,11.7,8.1,17.1,16.8c6.4,10.3,10.4,20.6,16.3,30.6"/>
	</g>
	<ellipse fill="#40210F" cx="26.3" cy="24.6" rx="3.1" ry="3.1"/>
	<ellipse fill="#A4C6CE" cx="90.6" cy="50.1" rx="2.3" ry="2.5"/>
	<ellipse fill="#A4C6CE" cx="103" cy="64.3" rx="2.3" ry="2.5"/>
	<ellipse fill="#A4C6CE" cx="103" cy="57" rx="1.6" ry="1.5"/>
	<ellipse fill="#A4C6CE" cx="111.4" cy="74" rx="1.5" ry="1.3"/>
	<ellipse fill="#A4C6CE" cx="117.3" cy="81.4" rx="1.5" ry="1.3"/>
	<ellipse fill="#A4C6CE" cx="109.9" cy="65.8" rx="1" ry="1"/>
</g>
</svg>
