<?xml version="1.0" encoding="utf-8"?>
<!-- Generator: Adobe Illustrator 18.0.0, SVG Export Plug-In . SVG Version: 6.00 Build 0)  -->
<!DOCTYPE svg PUBLIC "-//W3C//DTD SVG 1.1//EN" "http://www.w3.org/Graphics/SVG/1.1/DTD/svg11.dtd">
<svg version="1.1" id="图层_1" xmlns="http://www.w3.org/2000/svg" xmlns:xlink="http://www.w3.org/1999/xlink" x="0px" y="0px"
	 width="320px" height="320px" viewBox="0 0 320 320" enable-background="new 0 0 320 320" xml:space="preserve">
<g>
	<g>
		<path fill="#E5EEF7" d="M156.3,220.7c4.4-11.1,8.7-22.2,13.1-33.2c12.8-32.5,25.9-65.4,46.5-93.6c10.9-14.9,23.8-28.2,34.9-43
			S271.4,19.5,274,1.2c2.3,14.4,0.3,29.2-1.6,43.6c-3.6,26.1-7.1,52.2-11.4,78.2c-1.4,8.2-2.8,16.4-5.9,24.1
			c-2.8,7.2-7,13.8-11.4,20.2c-10.8,15.5-23.7,29.8-39.6,40.1s-35,16.2-53.8,14.2"/>
	</g>
	<g>
		<path fill="#E5EEF7" d="M143.9,216.1c-29.3-2.6-56.7-21.2-69.8-47.5c-12.9-25.8-12.2-56.1-12.1-85S60.9,24.1,44.9,0
			c7.9,5.6,12.6,14.4,18,22.4c18,26.8,45.3,46.4,62.3,73.9c21.6,34.9,23.9,79,16,119.3"/>
	</g>
	<g>
		<path fill="#E5EEF7" d="M155.1,225.6c-7.2-4.7-16.8-4.9-24.7-1.6s-14.3,9.7-18.6,17.2c-4.6,8-6.9,18.3-2.5,26.5
			c3.8,7.1,12.2,11.1,20.2,10.6c8-0.5,15.5-5.1,20.4-11.5c4.9-6.4,7.5-14.3,8.4-22.3c0.4-3.5,0.5-7.2-0.9-10.5
			c-1.3-3.3-4.2-6.1-7.8-6.4"/>
	</g>
	<g>
		<path fill="#E5EEF7" d="M166.4,225.9c8-3.2,17.4-1.6,24.6,3.2c7.2,4.7,12.1,12.3,14.9,20.4c3,8.8,3.3,19.3-2.6,26.5
			c-5.1,6.2-14.1,8.6-21.9,6.5c-7.8-2-14.2-8-17.8-15.2c-3.6-7.2-4.6-15.5-4-23.5c0.3-3.5,0.9-7.1,2.8-10.1c1.9-3,5.3-5.2,8.9-4.8"
			/>
	</g>
	<g>
		<path fill="#996024" d="M84,245.7c4.4,4.7,10.3,8.4,16.7,8.6c6.4,0.2,13.2-4,14.4-10.3c1.6-7.9-5.1-14.6-8.9-21.7
			c-3.6-6.7-4.6-14.4-4.8-22c-0.3-21.4,6.9-43.2,21.5-58.7s37-24.2,58.1-20.4s39.6,20.7,43.5,41.7c4.4,24.4-10.1,48.8-8.1,73.6
			c0.5,6,2.9,13,8.7,14.6c4.3,1.2,8.9-1.3,11.4-5c2.5-3.7,3-8.3,2.9-12.7c2.8,7.1,4.3,15.2,1.6,22.3c-2.6,7.2-10.4,12.8-17.8,10.8
			c-9.4-2.5-12.6-14.3-20.3-20.2c-8.1-6.3-19.5-4.9-29.6-3.3c-12.3,2-24.7,4-36.4,8.3c-9.5,3.5-18.7,8.5-28.7,9.5
			c-10.1,1-21.8-3.7-24.5-13.5"/>
	</g>
	<g>
		<path fill="#DCBB6F" d="M144,264.9c0.5,12.8-0.2,25.7-2.2,38.3c3.3,0.6,6.6,1.3,9.9,1.9c1.1-9.8,5.5-19,7.5-28.7
			c1.1-5.5,1.4-11.2,3.2-16.5c-3.8-0.1-7.5,0.1-11.2,0.4c-3.2,0.3-7,1.2-7.8,4.3"/>
	</g>
	<g>
		<path fill="#883C23" d="M141.5,298c-0.6,3.1-1.1,7-2.2,10c-1.8-0.4-3.6-0.6-5.4-0.5c0.3-1.5,0.3-3.1-0.1-4.7
			c-2-0.4-4.1,1.1-4.7,3.1s0.3,4.2,1.8,5.6c1.5,1.4,3.5,2.2,5.5,2.5c4.2,0.7,8.5-0.2,12.5-1.4c0.3-0.1,0.5-0.2,0.7-0.3
			c0.3-0.2,0.4-0.6,0.5-0.9c1.3-3.6,2.1-7.4,2.5-11.2C149,300.9,144.9,300.1,141.5,298z"/>
	</g>
	<g>
		<path fill="#DCBB6F" d="M180.3,270.6c-4.1,12.1-7,24.7-8.7,37.4c-3.3-0.3-6.7-0.6-10-1c1.7-9.7,0-19.8,0.9-29.6
			c0.5-5.6,1.8-11.1,1.6-16.7c3.6,1,7.2,2.2,10.7,3.6c3,1.2,6.3,3.2,6.3,6.3"/>
	</g>
	<g>
		<path fill="#883C23" d="M173.4,303.1c-0.3,3.2-0.9,7-0.7,10.2c1.8,0.1,3.6,0.4,5.3,1c0.1-1.6,0.6-3.1,1.4-4.5
			c2.1,0.1,3.6,2.2,3.6,4.3c-0.1,2.1-1.5,3.9-3.3,4.9c-1.8,1-4,1.1-6,0.9c-4.2-0.5-8.1-2.6-11.6-4.9c-0.2-0.1-0.5-0.3-0.6-0.5
			c-0.2-0.3-0.2-0.7-0.2-1c-0.2-3.8,0.1-7.7,0.8-11.4C165.5,303.8,169.6,304.1,173.4,303.1z"/>
	</g>
	<g>
		<path fill="#F5D2A8" d="M179.8,203.8c5,5.8,10,11.5,15,17.3c3.3,3.8,6.7,7.7,9,12.1c0.6-2.7,4-4.2,6.4-3s3.1,4.9,1.3,7
			c-1.8,2.1-5,2-7.7,1.9c-0.7,0-1.5-0.1-2.1-0.4c-0.6-0.3-1.1-0.9-1.6-1.5c-7-8.8-14.6-17.1-22.7-24.8c-1.7-1.6-3.5-3.4-3.9-5.7
			c-0.4-2.3,1.7-5,3.9-4.3"/>
	</g>
	<g>
		<path fill="#F5D2A8" d="M151.8,200.8c-5.3,5.5-10.7,11-16,16.4c-3.5,3.6-7.1,7.3-9.7,11.6c-0.5-2.7-3.8-4.5-6.3-3.4
			c-2.5,1.1-3.4,4.7-1.7,6.9c1.7,2.2,4.9,2.3,7.6,2.3c0.7,0,1.5,0,2.1-0.3c0.7-0.3,1.2-0.9,1.6-1.4c7.5-8.4,15.5-16.3,24.1-23.5
			c1.8-1.5,3.7-3.2,4.2-5.4c0.5-2.3-1.4-5.1-3.7-4.5"/>
	</g>
	<g>
		<path fill="#F3D273" d="M153.7,197.6c-5.2,13.3-10.3,26.6-15.5,39.9c-4.2,10.7-8.4,21.6-10.2,33c3.4-3.1,6.4-6.5,9-10.2
			c1,6.8,3,13.5,5.9,19.7c5.3-7.2,7.1-8.5,11.5-16.3c3.8,7.1,5.3,6.4,9.3,14c1.9-4.1,3.5-8.4,4.7-12.8c4.5,4,8.9,7.9,13.4,11.9
			c0.5-5.1,1.1-10.1,1.6-15.2c4.1,3.6,8.2,7.3,12.3,10.9c-4.3-24.6-9.8-49.1-16.5-73.2c-0.2-0.7-0.4-1.4-1-1.8
			c-0.7-0.5-1.7-0.3-2.6,0c-7.1,1.7-14.3-1.5-21.6-1.8c-1.4-0.1-3.5,0.8-2.9,2.1"/>
	</g>
	
		<ellipse transform="matrix(0.9954 9.608036e-002 -9.608036e-002 0.9954 17.1392 -15.3099)" fill="#F5D2A8" cx="167.5" cy="170.3" rx="46.6" ry="34.2"/>
	<g>
		<path fill="#F3D273" d="M219.5,129.6c-6-19.3-21.3-34.9-39.4-43.7s-38.9-11.3-59-9.6c6.8,4.5,9.3,13.7,8.2,21.8
			s-5.3,15.4-9.3,22.5c24.8,3.6,46.1,23.3,71.1,22c11.9-0.6,23.5-6.4,31.2-15.6"/>
	</g>
	<g>
		<path fill="#996024" d="M121.7,155.5c-0.3,5.1-1.8,10.8-2.1,15.9c6.2-3,13.5-7,19.1-11c2.9,2.1,6,3.9,9.3,5.5
			c2.8-3.3,5.9-6.4,9.2-9.2c4.6,2.5,9.3,5,13.9,7.5c0.7,0.4,1.4,0.8,2.2,0.8c2.5,0,3.8-3.5,6.3-3.6c3.7,3.4,7.4,6.8,11.1,10.2
			c2.8-2.5,6.2-5.2,10-4.7c1.3,0.2,2.5,0.7,3.6,1.3c3.4,1.5,6.7,3.1,10.1,4.6c-0.3-5-0.5-10-0.8-15c-0.1-1.5-0.2-3-0.9-4.3
			c-0.6-1.1-1.6-1.9-2.7-2.6c-10.7-7.7-24.2-10.8-37.5-10.9c-13.2-0.1-26.3,2.6-39.1,5.6c-3,0.7-6,1.4-8.5,3
			c-2.3,1.5-4.1,3.7-5.9,5.8"/>
	</g>
	
		<ellipse transform="matrix(-0.9954 -9.608030e-002 9.608030e-002 -0.9954 220.9141 165.2805)" fill="#DCBB6F" cx="114.4" cy="77.3" rx="6.9" ry="6.5"/>
	<g>
		<path fill="#DCBB6F" d="M115.8,162.7c-3.9-17.2-3.6-34.6-2.3-52.2c12.1,5.3,23.9,11.4,35.2,18.2c5.4-11.5,13.5-21.6,23.5-29.4
			c8.1,5.4,15.6,11.5,22.5,18.3c3.9,3.9,7.8,8.4,8.5,13.9c7.9-4.4,16-8.4,24.3-12c-3.3,17.7-7.5,35.3-12.3,52.7
			c-4.3-5.9-9.7-10.9-15.9-14.7c-12.4-7.6-27.6-10.1-42.1-8.6C142.6,150.4,128.7,155.7,115.8,162.7"/>
	</g>
	
		<ellipse transform="matrix(0.9954 9.608036e-002 -9.608036e-002 0.9954 17.4716 -13.5533)" fill="#512E16" cx="149.5" cy="174.6" rx="1.7" ry="3.1"/>
	
		<ellipse transform="matrix(0.9954 9.608036e-002 -9.608036e-002 0.9954 17.9791 -17.0451)" fill="#512E16" cx="186" cy="178.2" rx="1.7" ry="3.1"/>
	<path fill="#8B685B" d="M169.4,187.2c-0.4,0.8-1.6,0.7-2.6,0.3c-0.7-0.3-0.8,0.1-0.3,0.5c1.4,1,3.4,1.2,4.1-0.6
		c0.8-1.9-0.9-3.5-2.6-3.9c-0.7-0.1-0.6,0.2-0.1,0.7C168,184.2,170.3,185.7,169.4,187.2z"/>
	<path fill="#6F8B98" d="M243,180.6c-3.2,4.3-37,56.6-40.5,61.6c-0.2,0.2-0.1,0.5,0.1,0.7l2.2,1.3c0.2,0.2,0.5,0.1,0.7-0.1
		l39.4-62.4c0.2-0.3,0-0.6-0.2-0.7l-1.1-0.4C243.4,180.3,243.2,180.4,243,180.6z"/>
	<polygon fill="#E26538" points="256.2,162.4 246.5,168.2 237.8,163.8 240,174.2 232.6,181.5 243,181.4 248.7,190.8 252.4,181.6 
		262.8,180.1 254.8,172.2 	"/>
	<g>
		<path fill="#D75857" d="M158.6,191.9c0.7,0.9,2,1.6,3.1,2.1c5.1,2,11.3,1.9,16.2-0.4c-0.8,1.8-2.3,3.7-4.5,4.6
			c-4.4,1.9-9.1,0.4-11.1-0.7C160,196.2,158.6,194,158.6,191.9"/>
	</g>
</g>
</svg>
