<?xml version="1.0" encoding="utf-8"?>
<!-- Generator: Adobe Illustrator 18.0.0, SVG Export Plug-In . SVG Version: 6.00 Build 0)  -->
<!DOCTYPE svg PUBLIC "-//W3C//DTD SVG 1.1//EN" "http://www.w3.org/Graphics/SVG/1.1/DTD/svg11.dtd">
<svg version="1.1" xmlns="http://www.w3.org/2000/svg" xmlns:xlink="http://www.w3.org/1999/xlink" x="0px" y="0px" width="2240px"
	 height="320px" viewBox="0 0 2240 320" enable-background="new 0 0 2240 320" xml:space="preserve">
<g id="图层_1">
</g>
<g id="图层_2">
	<g>
		<g>
			<path fill="#E8F1F9" d="M173.8,191.8c2.7-9.5,5.5-19.1,8.2-28.6c8-28,16.2-56.4,31.1-81.5c7.9-13.2,17.5-25.4,25.5-38.5
				s14.6-27.7,15.3-43c3.1,11.8,2.6,24.2,2.1,36.4c-0.9,22-1.7,43.9-3.2,65.9c-0.5,6.9-1,13.9-2.9,20.5c-1.8,6.2-4.7,12-7.8,17.7
				c-7.7,13.7-17.3,26.7-29.7,36.4c-12.4,9.8-27.7,16.2-43.5,16.1"/>
		</g>
		<g>
			<path fill="#E8F1F9" d="M163.1,189c-24.5,0.2-48.8-13.1-61.8-33.9c-12.8-20.4-14.6-45.6-16.8-69.6c-2.2-24-5.7-49.4-20.8-68.1
				c7,4,11.6,11,16.7,17.2c17.1,20.8,41.3,34.9,57.6,56.4c20.7,27.3,26.2,63.7,22.9,97.8"/>
		</g>
		<g>
			<path fill="#E8F1F9" d="M173.2,196c-6.4-3.3-14.3-2.7-20.6,0.7c-6.3,3.4-11.1,9.2-14,15.8c-3.2,7-4.3,15.7,0,22.2
				c3.7,5.6,11,8.2,17.6,7.2c6.6-1.1,12.4-5.5,16-11.2c3.6-5.7,5.1-12.5,5.2-19.2c0-3-0.2-6-1.5-8.6c-1.3-2.6-4-4.8-7-4.7"/>
		</g>
		<g>
			<path fill="#E8F1F9" d="M182.5,195.3c6.4-3.3,14.3-2.7,20.6,0.7c6.3,3.4,11.1,9.2,14,15.8c3.2,7,4.3,15.7,0,22.2
				c-3.7,5.6-11,8.2-17.6,7.2c-6.6-1.1-12.4-5.5-16-11.2c-3.6-5.7-5.1-12.5-5.2-19.2c0-3,0.2-6,1.5-8.6c1.3-2.6,4-4.8,7-4.7"/>
		</g>
		<g>
			<path fill="#F7E28B" d="M115.8,218.3c4,3.5,9.2,6.1,14.6,5.8c5.4-0.4,10.6-4.4,11.2-9.7c0.7-6.6-5.4-11.7-9.1-17.3
				c-3.5-5.3-5-11.6-5.7-17.9c-2-17.7,2.2-36.4,13.2-50.5c10.9-14.1,28.8-23,46.6-21.6c17.8,1.4,34.6,14,39.4,31.2
				c5.7,19.9-4.5,41.4-0.9,61.8c0.9,5,3.4,10.5,8.4,11.4c3.6,0.6,7.3-1.8,9.1-5s1.9-7.1,1.4-10.8c2.9,5.7,4.8,12.2,3.1,18.4
				c-1.6,6.2-7.7,11.4-13.9,10.4c-8-1.3-11.6-10.9-18.4-15.2c-7.2-4.6-16.6-2.5-24.8-0.4c-10.1,2.6-20.2,5.3-29.5,9.8
				c-7.6,3.7-14.8,8.6-23.1,10.2c-8.3,1.6-18.4-1.4-21.4-9.2"/>
		</g>
		<g>
			<path fill="#6E9739" d="M165.3,232.4c2.4,10.4,3.8,21.1,4.2,31.7c2.8,0,5.6,0,8.4,0c-0.6-8.2,1.6-16.4,1.6-24.6
				c0-4.7-0.6-9.4,0-14c-3.1,0.5-6.1,1.2-9.2,2.1c-2.5,0.7-5.5,2.1-5.7,4.7"/>
		</g>
		<g>
			<path fill="#9E5123" d="M168.4,260c0,2.7,0.2,5.9-0.2,8.5c-1.5-0.1-3,0.1-4.5,0.4c0-1.3-0.3-2.6-0.8-3.8c-1.7,0-3.2,1.6-3.3,3.3
				s0.9,3.4,2.4,4.3c1.4,0.9,3.2,1.2,4.9,1.2c3.5-0.1,6.9-1.5,10-3.1c0.2-0.1,0.4-0.2,0.5-0.4c0.2-0.2,0.2-0.5,0.3-0.8
				c0.5-3.2,0.6-6.4,0.3-9.5C175,261.1,171.5,261.1,168.4,260z"/>
		</g>
		<g>
			<path fill="#6E9739" d="M198.5,232.4c-2.4,10.4-3.8,21.1-4.2,31.7c-2.8,0-5.6,0-8.4,0c0.6-8.2-1.6-16.4-1.6-24.6
				c0-4.7,0.6-9.4,0-14c3.1,0.5,6.1,1.2,9.2,2.1c2.5,0.7,5.5,2.1,5.7,4.7"/>
		</g>
		<g>
			<path fill="#9E5123" d="M195.5,260c0,2.7-0.2,5.9,0.2,8.5c1.5-0.1,3,0.1,4.5,0.4c0-1.3,0.3-2.6,0.8-3.8c1.7,0,3.2,1.6,3.3,3.3
				c0.1,1.7-0.9,3.4-2.4,4.3c-1.4,0.9-3.2,1.2-4.9,1.2c-3.5-0.1-6.9-1.5-10-3.1c-0.2-0.1-0.4-0.2-0.5-0.4c-0.2-0.2-0.2-0.5-0.3-0.8
				c-0.5-3.2-0.6-6.4-0.3-9.5C188.9,261.1,192.4,261.1,195.5,260z"/>
		</g>
		<g>
			<path fill="#F2BE92" d="M191.9,175.9c4.6,4.4,9.2,8.8,13.9,13.2c3.1,2.9,6.1,5.8,8.5,9.4c0.3-2.3,3-3.8,5.1-3
				c2.1,0.8,3,3.8,1.7,5.7c-1.3,1.9-4,2.1-6.3,2.2c-0.6,0-1.2,0-1.8-0.2c-0.6-0.2-1-0.7-1.4-1.1c-6.5-6.8-13.5-13-20.9-18.8
				c-1.5-1.2-3.2-2.5-3.7-4.4c-0.5-1.9,1-4.3,2.9-3.9"/>
		</g>
		<g>
			<path fill="#F2BE92" d="M170,175.9c-4.6,4.4-9.2,8.8-13.9,13.2c-3.1,2.9-6.1,5.8-8.5,9.4c-0.3-2.3-3-3.8-5.1-3s-3,3.8-1.7,5.7
				c1.3,1.9,4,2.1,6.3,2.2c0.6,0,1.2,0,1.8-0.2c0.6-0.2,1-0.7,1.4-1.1c6.5-6.8,13.5-13,20.9-18.8c1.5-1.2,3.2-2.5,3.7-4.4
				c0.5-1.9-1-4.3-2.9-3.9"/>
		</g>
		<g>
			<path fill="#79B132" d="M169.8,172.8c-3.2,11.4-6.4,22.9-9.6,34.3c-2.6,9.3-5.2,18.6-5.8,28.2c2.6-2.8,4.8-5.9,6.6-9.2
				c1.4,5.6,3.6,10.9,6.4,15.9c3.9-6.4,5.2-7.6,8.3-14.5c3.7,5.6,4.9,4.9,8.9,10.9c1.3-3.6,2.2-7.3,2.9-11c4,2.9,8,5.9,12,8.8
				c0-4.3,0.1-8.5,0.1-12.8c3.7,2.7,7.4,5.4,11.1,8.1c-5.6-20.1-12.1-40-19.5-59.4c-0.2-0.5-0.4-1.1-0.9-1.4
				c-0.7-0.4-1.5-0.1-2.2,0.2c-5.7,1.9-12-0.1-18.1,0.2c-1.2,0.1-2.8,0.9-2.2,2"/>
		</g>
		<ellipse fill="#EFBB8E" cx="179.1" cy="149.1" rx="38.8" ry="28.5"/>
		<g>
			<path fill="#F7E28B" d="M164.8,131.6c-2.3,6.7-1.9,7.4-7.1,12.5c-5.2,5.1-12.6,7.8-19.9,7.3c-0.8-0.1-1.7-0.2-2.4-0.7
				c-0.8-0.6-1.1-1.6-1.3-2.5c-1.4-7,0.3-8.7,4.6-14.4s10.3-9.8,16.4-13.5c4.3-2.6,8.7-5.1,13.5-6.4c12.9-3.6,26.6,1.4,38.4,7.7
				c6,3.2,12.4,7.5,13.2,14.2c0.4,3.1-0.5-0.9-0.7,2.2s0.3,6.6,2.8,8.5c-10.2,4.5-22.2,1.2-32.6-2.9
				C180.5,140,172.3,139.8,164.8,131.6"/>
		</g>
		<g>
			<path fill="#79B132" d="M139.1,113c6.5-15.5,20.5-27.3,36.2-33.1c15.8-5.9,33.2-6.2,49.8-3.3c-6,3.2-8.8,10.6-8.5,17.4
				c0.3,6.8,3.1,13.2,5.9,19.5c-20.8,1-40.2,15.7-60.8,12.6c-9.9-1.5-19-7.2-24.6-15.5"/>
		</g>
		<ellipse fill="#71973C" cx="230.5" cy="78" rx="5.8" ry="5.4"/>
		<g>
			<path fill="#71973C" d="M135.5,146.9c-4.6-13.9-5.8-28.5-6.1-43.1c10.5,3.4,20.7,7.5,30.7,12.3c3.5-9.9,9.5-19,17.2-26.3
				c7.1,3.8,13.9,8.3,20.2,13.4c3.6,2.9,7.2,6.3,8.2,10.9c6.2-4.3,12.6-8.3,19.2-11.9c-1.4,15-3.4,29.9-6,44.8
				c-4-4.5-9-8.3-14.4-10.9c-10.9-5.3-23.7-6.2-35.7-3.8C156.7,134.6,145.6,140.1,135.5,146.9"/>
		</g>
		<ellipse fill="#532F17" cx="163.5" cy="154.1" rx="2.2" ry="2.6"/>
		<ellipse fill="#532F17" cx="193.9" cy="154.1" rx="2.2" ry="2.6"/>
		<path fill="#906A5C" d="M182,163c-0.3,0.7-1.3,0.7-2.1,0.5c-0.6-0.2-0.7,0.1-0.2,0.4c1.2,0.7,2.9,0.7,3.4-0.8c0.5-1.6-1-2.8-2.5-3
			c-0.6-0.1-0.5,0.2,0,0.6C180.6,160.6,182.5,161.6,182,163z"/>
		<g>
			<path fill="#E96160" d="M175.3,169.1c2.7,1.6,7.2,1.4,9.3-0.8c0.4,0.9-0.2,2-1.1,2.6c-1,0.7-2.3,0.8-3.5,0.9
				c-1.4,0-2.4-0.3-3.5-0.9C175.9,170.6,175.2,169.8,175.3,169.1"/>
		</g>
		<path fill="#80A4B8" d="M116.4,153.2c2.2,3.9,30.4,47.5,33,51.8c0.1,0.2,0.4,0.2,0.5,0.1l1.8-1.2c0.2-0.1,0.2-0.4,0.1-0.6
			L117.8,152c-0.1-0.2-0.4-0.2-0.6-0.1l-0.7,0.7C116.4,152.8,116.4,153,116.4,153.2z"/>
		<polygon fill="#EABB38" points="104.5,132.6 106.4,143.9 98.4,150.3 109,152.6 112.8,162.6 117.1,152.8 128.3,151.4 121.3,144 
			124.2,133.7 114.1,138.5 		"/>
	</g>
	<g>
		<g>
			<path fill="#E8F1F9" d="M493.8,191.8c2.7-9.5,5.5-19.1,8.2-28.6c8-28,16.2-56.4,31.1-81.5c7.9-13.2,17.5-25.4,25.5-38.5
				c8-13.1,14.6-27.7,15.3-43c3.1,11.8,2.6,24.2,2.1,36.4c-0.9,22-1.7,43.9-3.2,65.9c-0.5,6.9-1,13.9-2.9,20.5
				c-1.8,6.2-4.7,12-7.8,17.7c-7.7,13.7-17.3,26.7-29.7,36.4c-12.4,9.8-27.7,16.2-43.5,16.1"/>
		</g>
		<g>
			<path fill="#E8F1F9" d="M483.1,189c-24.5,0.2-48.8-13.1-61.8-33.9c-12.8-20.4-14.6-45.6-16.8-69.6c-2.2-24-5.7-49.4-20.8-68.1
				c7,4,11.6,11,16.7,17.2c17.1,20.8,41.3,34.9,57.6,56.4c20.7,27.3,26.2,63.7,22.9,97.8"/>
		</g>
		<g>
			<path fill="#E8F1F9" d="M493.2,196c-6.4-3.3-14.3-2.7-20.6,0.7c-6.3,3.4-11.1,9.2-14,15.8c-3.2,7-4.3,15.7,0,22.2
				c3.7,5.6,11,8.2,17.6,7.2c6.6-1.1,12.4-5.5,16-11.2c3.6-5.7,5.1-12.5,5.2-19.2c0-3-0.2-6-1.5-8.6c-1.3-2.6-4-4.8-7-4.7"/>
		</g>
		<g>
			<path fill="#E8F1F9" d="M502.5,195.3c6.4-3.3,14.3-2.7,20.6,0.7c6.3,3.4,11.1,9.2,14,15.8c3.2,7,4.3,15.7,0,22.2
				c-3.7,5.6-11,8.2-17.6,7.2c-6.6-1.1-12.4-5.5-16-11.2c-3.6-5.7-5.1-12.5-5.2-19.2c0-3,0.2-6,1.5-8.6c1.3-2.6,4-4.8,7-4.7"/>
		</g>
		<g>
			<path fill="#F7E28B" d="M435.8,218.3c4,3.5,9.2,6.1,14.6,5.8c5.4-0.4,10.6-4.4,11.2-9.7c0.7-6.6-5.4-11.7-9.1-17.3
				c-3.5-5.3-5-11.6-5.7-17.9c-2-17.7,2.2-36.4,13.2-50.5c10.9-14.1,28.8-23,46.6-21.6c17.8,1.4,34.6,14,39.4,31.2
				c5.7,19.9-4.5,41.4-0.9,61.8c0.9,5,3.4,10.5,8.4,11.4c3.6,0.6,7.3-1.8,9.1-5c1.7-3.3,1.9-7.1,1.4-10.8c2.9,5.7,4.8,12.2,3.1,18.4
				c-1.6,6.2-7.7,11.4-13.9,10.4c-8-1.3-11.6-10.9-18.4-15.2c-7.2-4.6-16.6-2.5-24.8-0.4c-10.1,2.6-20.2,5.3-29.5,9.8
				c-7.6,3.7-14.8,8.6-23.1,10.2c-8.3,1.6-18.4-1.4-21.4-9.2"/>
		</g>
		<g>
			<path fill="#6E9739" d="M485.3,232.4c2.4,10.4,3.8,21.1,4.2,31.7c2.8,0,5.6,0,8.4,0c-0.6-8.2,1.6-16.4,1.6-24.6
				c0-4.7-0.6-9.4,0-14c-3.1,0.5-6.1,1.2-9.2,2.1c-2.5,0.7-5.5,2.1-5.7,4.7"/>
		</g>
		<g>
			<path fill="#9E5123" d="M488.4,260c0,2.7,0.2,5.9-0.2,8.5c-1.5-0.1-3,0.1-4.5,0.4c0-1.3-0.3-2.6-0.8-3.8c-1.7,0-3.2,1.6-3.3,3.3
				s0.9,3.4,2.4,4.3c1.4,0.9,3.2,1.2,4.9,1.2c3.5-0.1,6.9-1.5,10-3.1c0.2-0.1,0.4-0.2,0.5-0.4c0.2-0.2,0.2-0.5,0.3-0.8
				c0.5-3.2,0.6-6.4,0.3-9.5C495,261.1,491.5,261.1,488.4,260z"/>
		</g>
		<g>
			<path fill="#6E9739" d="M518.5,232.4c-2.4,10.4-3.8,21.1-4.2,31.7c-2.8,0-5.6,0-8.4,0c0.6-8.2-1.6-16.4-1.6-24.6
				c0-4.7,0.6-9.4,0-14c3.1,0.5,6.1,1.2,9.2,2.1c2.5,0.7,5.5,2.1,5.7,4.7"/>
		</g>
		<g>
			<path fill="#9E5123" d="M515.5,260c0,2.7-0.2,5.9,0.2,8.5c1.5-0.1,3,0.1,4.5,0.4c0-1.3,0.3-2.6,0.8-3.8c1.7,0,3.2,1.6,3.3,3.3
				s-0.9,3.4-2.4,4.3c-1.4,0.9-3.2,1.2-4.9,1.2c-3.5-0.1-6.9-1.5-10-3.1c-0.2-0.1-0.4-0.2-0.5-0.4c-0.2-0.2-0.2-0.5-0.3-0.8
				c-0.5-3.2-0.6-6.4-0.3-9.5C508.9,261.1,512.4,261.1,515.5,260z"/>
		</g>
		<g>
			<g>
				<path fill="#F2BE92" d="M488.3,175.7c-5.5,3.2-11,6.5-16.5,9.7c-3.6,2.1-7.3,4.3-10.4,7.2c0.2-2.3-2-4.4-4.3-4.1
					c-2.2,0.3-3.8,3.1-2.9,5.2c0.9,2.1,3.4,2.9,5.6,3.5c0.6,0.2,1.2,0.3,1.8,0.2c0.6-0.1,1.1-0.4,1.6-0.8
					c7.9-5.1,16.1-9.7,24.6-13.6c1.8-0.8,3.7-1.7,4.6-3.4c0.9-1.7,0-4.4-2-4.5"/>
			</g>
			<path fill="#80A4B8" d="M441.3,141.5c1.3,4.3,18.9,53.1,20.5,57.9c0.1,0.2,0.3,0.3,0.5,0.2l2-0.8c0.2-0.1,0.3-0.3,0.2-0.5
				l-21.6-57.7c-0.1-0.2-0.4-0.3-0.6-0.2l-0.8,0.5C441.3,141.1,441.2,141.3,441.3,141.5z"/>
			<polygon fill="#EABB38" points="434.3,118.7 433.5,130.2 424.4,134.7 434.2,139.3 435.6,149.9 442,141.2 453.2,142.5 448,133.7 
				453.2,124.3 442.2,126.7 			"/>
		</g>
		<g>
			<path fill="#F2BE92" d="M511.9,175.9c4.6,4.4,9.2,8.8,13.9,13.2c3.1,2.9,6.1,5.8,8.5,9.4c0.3-2.3,3-3.8,5.1-3s3,3.8,1.7,5.7
				c-1.3,1.9-4,2.1-6.3,2.2c-0.6,0-1.2,0-1.8-0.2c-0.6-0.2-1-0.7-1.4-1.1c-6.5-6.8-13.5-13-20.9-18.8c-1.5-1.2-3.2-2.5-3.7-4.4
				c-0.5-1.9,1-4.3,2.9-3.9"/>
		</g>
		<g>
			<path fill="#79B132" d="M489.8,172.8c-3.2,11.4-6.4,22.9-9.6,34.3c-2.6,9.3-5.2,18.6-5.8,28.2c2.6-2.8,4.8-5.9,6.6-9.2
				c1.4,5.6,3.6,10.9,6.4,15.9c3.9-6.4,5.2-7.6,8.3-14.5c3.7,5.6,4.9,4.9,8.9,10.9c1.3-3.6,2.2-7.3,2.9-11c4,2.9,8,5.9,12,8.8
				c0-4.3,0.1-8.5,0.1-12.8c3.7,2.7,7.4,5.4,11.1,8.1c-5.6-20.1-12.1-40-19.5-59.4c-0.2-0.5-0.4-1.1-0.9-1.4
				c-0.7-0.4-1.5-0.1-2.2,0.2c-5.7,1.9-12-0.1-18.1,0.2c-1.2,0.1-2.8,0.9-2.2,2"/>
		</g>
		<ellipse fill="#EFBB8E" cx="499.1" cy="149.1" rx="38.8" ry="28.5"/>
		<g>
			<path fill="#F7E28B" d="M484.8,131.6c-2.3,6.7-1.9,7.4-7.1,12.5c-5.2,5.1-12.6,7.8-19.9,7.3c-0.8-0.1-1.7-0.2-2.4-0.7
				c-0.8-0.6-1.1-1.6-1.3-2.5c-1.4-7,0.3-8.7,4.6-14.4c4.4-5.6,10.3-9.8,16.4-13.5c4.3-2.6,8.7-5.1,13.5-6.4
				c12.9-3.6,26.6,1.4,38.4,7.7c6,3.2,12.4,7.5,13.2,14.2c0.4,3.1-0.5-0.9-0.7,2.2c-0.3,3.1,0.3,6.6,2.8,8.5
				c-10.2,4.5-22.2,1.2-32.6-2.9C500.5,140,492.3,139.8,484.8,131.6"/>
		</g>
		<g>
			<path fill="#79B132" d="M459.1,113c6.5-15.5,20.5-27.3,36.2-33.1c15.8-5.9,33.2-6.2,49.8-3.3c-6,3.2-8.8,10.6-8.5,17.4
				c0.3,6.8,3.1,13.2,5.9,19.5c-20.8,1-40.2,15.7-60.8,12.6c-9.9-1.5-19-7.2-24.6-15.5"/>
		</g>
		<ellipse fill="#71973C" cx="550.5" cy="78" rx="5.8" ry="5.4"/>
		<g>
			<path fill="#71973C" d="M455.5,146.9c-4.6-13.9-5.8-28.5-6.1-43.1c10.5,3.4,20.7,7.5,30.7,12.3c3.5-9.9,9.5-19,17.2-26.3
				c7.1,3.8,13.9,8.3,20.2,13.4c3.6,2.9,7.2,6.3,8.2,10.9c6.2-4.3,12.6-8.3,19.2-11.9c-1.4,15-3.4,29.9-6,44.8
				c-4-4.5-9-8.3-14.4-10.9c-10.9-5.3-23.7-6.2-35.7-3.8C476.7,134.6,465.6,140.1,455.5,146.9"/>
		</g>
		<ellipse fill="#532F17" cx="483.5" cy="154.1" rx="2.2" ry="2.6"/>
		<ellipse fill="#532F17" cx="513.9" cy="154.1" rx="2.2" ry="2.6"/>
		<path fill="#906A5C" d="M502,163c-0.3,0.7-1.3,0.7-2.1,0.5c-0.6-0.2-0.7,0.1-0.2,0.4c1.2,0.7,2.9,0.7,3.4-0.8c0.5-1.6-1-2.8-2.5-3
			c-0.6-0.1-0.5,0.2,0,0.6C500.6,160.6,502.5,161.6,502,163z"/>
		<g>
			<path fill="#E96160" d="M495.3,169.1c2.7,1.6,7.2,1.4,9.3-0.8c0.4,0.9-0.2,2-1.1,2.6c-1,0.7-2.3,0.8-3.5,0.9
				c-1.4,0-2.4-0.3-3.5-0.9C495.9,170.6,495.2,169.8,495.3,169.1"/>
		</g>
	</g>
	<g>
		<g>
			<path fill="#E8F1F9" d="M1133.8,191.8c2.7-9.5,5.5-19.1,8.2-28.6c8-28,16.2-56.4,31.1-81.5c7.9-13.2,17.5-25.4,25.5-38.5
				s14.6-27.7,15.3-43c3.1,11.8,2.6,24.2,2.1,36.4c-0.9,22-1.7,43.9-3.2,65.9c-0.5,6.9-1,13.9-2.9,20.5c-1.8,6.2-4.7,12-7.8,17.7
				c-7.7,13.7-17.3,26.7-29.7,36.4c-12.4,9.8-27.7,16.2-43.5,16.1"/>
		</g>
		<g>
			<path fill="#E8F1F9" d="M1123.1,189c-24.5,0.2-48.8-13.1-61.8-33.9c-12.8-20.4-14.6-45.6-16.8-69.6s-5.7-49.4-20.8-68.1
				c7,4,11.6,11,16.7,17.2c17.1,20.8,41.3,34.9,57.6,56.4c20.7,27.3,26.2,63.7,22.9,97.8"/>
		</g>
		<g>
			<path fill="#E8F1F9" d="M1133.2,196c-6.4-3.3-14.3-2.7-20.6,0.7c-6.3,3.4-11.1,9.2-14,15.8c-3.2,7-4.3,15.7,0,22.2
				c3.7,5.6,11,8.2,17.6,7.2s12.4-5.5,16-11.2c3.6-5.7,5.1-12.5,5.2-19.2c0-3-0.2-6-1.5-8.6c-1.3-2.6-4-4.8-7-4.7"/>
		</g>
		<g>
			<path fill="#E8F1F9" d="M1142.5,195.3c6.4-3.3,14.3-2.7,20.6,0.7c6.3,3.4,11.1,9.2,14,15.8c3.2,7,4.3,15.7,0,22.2
				c-3.7,5.6-11,8.2-17.6,7.2c-6.6-1.1-12.4-5.5-16-11.2c-3.6-5.7-5.1-12.5-5.2-19.2c0-3,0.2-6,1.5-8.6c1.3-2.6,4-4.8,7-4.7"/>
		</g>
		<g>
			<path fill="#F7E28B" d="M1075.8,218.3c4,3.5,9.2,6.1,14.6,5.8c5.4-0.4,10.6-4.4,11.2-9.7c0.7-6.6-5.4-11.7-9.1-17.3
				c-3.5-5.3-5-11.6-5.7-17.9c-2-17.7,2.2-36.4,13.2-50.5c10.9-14.1,28.8-23,46.6-21.6c17.8,1.4,34.6,14,39.4,31.2
				c5.7,19.9-4.5,41.4-0.9,61.8c0.9,5,3.4,10.5,8.4,11.4c3.6,0.6,7.3-1.8,9.1-5c1.7-3.3,1.9-7.1,1.4-10.8c2.9,5.7,4.8,12.2,3.1,18.4
				c-1.6,6.2-7.7,11.4-13.9,10.4c-8-1.3-11.6-10.9-18.4-15.2c-7.2-4.6-16.6-2.5-24.8-0.4c-10.1,2.6-20.2,5.3-29.5,9.8
				c-7.6,3.7-14.8,8.6-23.1,10.2c-8.3,1.6-18.4-1.4-21.4-9.2"/>
		</g>
		<g>
			<path fill="#6E9739" d="M1125.3,232.4c2.4,10.4,3.8,21.1,4.2,31.7c2.8,0,5.6,0,8.4,0c-0.6-8.2,1.6-16.4,1.6-24.6
				c0-4.7-0.6-9.4,0-14c-3.1,0.5-6.1,1.2-9.2,2.1c-2.5,0.7-5.5,2.1-5.7,4.7"/>
		</g>
		<g>
			<path fill="#9E5123" d="M1128.4,260c0,2.7,0.2,5.9-0.2,8.5c-1.5-0.1-3,0.1-4.5,0.4c0-1.3-0.3-2.6-0.8-3.8c-1.7,0-3.2,1.6-3.3,3.3
				c-0.1,1.7,0.9,3.4,2.4,4.3c1.4,0.9,3.2,1.2,4.9,1.2c3.5-0.1,6.9-1.5,10-3.1c0.2-0.1,0.4-0.2,0.5-0.4c0.2-0.2,0.2-0.5,0.3-0.8
				c0.5-3.2,0.6-6.4,0.3-9.5C1135,261.1,1131.5,261.1,1128.4,260z"/>
		</g>
		<g>
			<path fill="#6E9739" d="M1158.5,232.4c-2.4,10.4-3.8,21.1-4.2,31.7c-2.8,0-5.6,0-8.4,0c0.6-8.2-1.6-16.4-1.6-24.6
				c0-4.7,0.6-9.4,0-14c3.1,0.5,6.1,1.2,9.2,2.1c2.5,0.7,5.5,2.1,5.7,4.7"/>
		</g>
		<g>
			<path fill="#9E5123" d="M1155.5,260c0,2.7-0.2,5.9,0.2,8.5c1.5-0.1,3,0.1,4.5,0.4c0-1.3,0.3-2.6,0.8-3.8c1.7,0,3.2,1.6,3.3,3.3
				c0.1,1.7-0.9,3.4-2.4,4.3c-1.4,0.9-3.2,1.2-4.9,1.2c-3.5-0.1-6.9-1.5-10-3.1c-0.2-0.1-0.4-0.2-0.5-0.4c-0.2-0.2-0.2-0.5-0.3-0.8
				c-0.5-3.2-0.6-6.4-0.3-9.5C1148.9,261.1,1152.4,261.1,1155.5,260z"/>
		</g>
		<g>
			<g>
				<path fill="#F2BE92" d="M1128.3,175.7c-5.5,3.2-11,6.5-16.5,9.7c-3.6,2.1-7.3,4.3-10.4,7.2c0.2-2.3-2-4.4-4.3-4.1
					s-3.8,3.1-2.9,5.2c0.9,2.1,3.4,2.9,5.6,3.5c0.6,0.2,1.2,0.3,1.8,0.2c0.6-0.1,1.1-0.4,1.6-0.8c7.9-5.1,16.1-9.7,24.6-13.6
					c1.8-0.8,3.7-1.7,4.6-3.4c0.9-1.7,0-4.4-2-4.5"/>
			</g>
			<path fill="#80A4B8" d="M1081.3,141.5c1.3,4.3,18.9,53.1,20.5,57.9c0.1,0.2,0.3,0.3,0.5,0.2l2-0.8c0.2-0.1,0.3-0.3,0.2-0.5
				l-21.6-57.7c-0.1-0.2-0.4-0.3-0.6-0.2l-0.8,0.5C1081.3,141.1,1081.2,141.3,1081.3,141.5z"/>
			<polygon fill="#EABB38" points="1074.3,118.7 1073.5,130.2 1064.4,134.7 1074.2,139.3 1075.6,149.9 1082,141.2 1093.2,142.5 
				1088,133.7 1093.2,124.3 1082.2,126.7 			"/>
		</g>
		<g>
			<path fill="#F2BE92" d="M1151.9,175.9c4.6,4.4,9.2,8.8,13.9,13.2c3.1,2.9,6.1,5.8,8.5,9.4c0.3-2.3,3-3.8,5.1-3
				c2.1,0.8,3,3.8,1.7,5.7c-1.3,1.9-4,2.1-6.3,2.2c-0.6,0-1.2,0-1.8-0.2c-0.6-0.2-1-0.7-1.4-1.1c-6.5-6.8-13.5-13-20.9-18.8
				c-1.5-1.2-3.2-2.5-3.7-4.4c-0.5-1.9,1-4.3,2.9-3.9"/>
		</g>
		<g>
			<path fill="#79B132" d="M1129.8,172.8c-3.2,11.4-6.4,22.9-9.6,34.3c-2.6,9.3-5.2,18.6-5.8,28.2c2.6-2.8,4.8-5.9,6.6-9.2
				c1.4,5.6,3.6,10.9,6.4,15.9c3.9-6.4,5.2-7.6,8.3-14.5c3.7,5.6,4.9,4.9,8.9,10.9c1.3-3.6,2.2-7.3,2.9-11c4,2.9,8,5.9,12,8.8
				c0-4.3,0.1-8.5,0.1-12.8c3.7,2.7,7.4,5.4,11.1,8.1c-5.6-20.1-12.1-40-19.5-59.4c-0.2-0.5-0.4-1.1-0.9-1.4
				c-0.7-0.4-1.5-0.1-2.2,0.2c-5.7,1.9-12-0.1-18.1,0.2c-1.2,0.1-2.8,0.9-2.2,2"/>
		</g>
		<ellipse fill="#EFBB8E" cx="1139.1" cy="149.1" rx="38.8" ry="28.5"/>
		<g>
			<path fill="#F7E28B" d="M1124.8,131.6c-2.3,6.7-1.9,7.4-7.1,12.5c-5.2,5.1-12.6,7.8-19.9,7.3c-0.8-0.1-1.7-0.2-2.4-0.7
				c-0.8-0.6-1.1-1.6-1.3-2.5c-1.4-7,0.3-8.7,4.6-14.4s10.3-9.8,16.4-13.5c4.3-2.6,8.7-5.1,13.5-6.4c12.9-3.6,26.6,1.4,38.4,7.7
				c6,3.2,12.4,7.5,13.2,14.2c0.4,3.1-0.5-0.9-0.7,2.2s0.3,6.6,2.8,8.5c-10.2,4.5-22.2,1.2-32.6-2.9
				C1140.5,140,1132.3,139.8,1124.8,131.6"/>
		</g>
		<g>
			<path fill="#79B132" d="M1099.1,113c6.5-15.5,20.5-27.3,36.2-33.1c15.8-5.9,33.2-6.2,49.8-3.3c-6,3.2-8.8,10.6-8.5,17.4
				c0.3,6.8,3.1,13.2,5.9,19.5c-20.8,1-40.2,15.7-60.8,12.6c-9.9-1.5-19-7.2-24.6-15.5"/>
		</g>
		<ellipse fill="#71973C" cx="1190.5" cy="78" rx="5.8" ry="5.4"/>
		<g>
			<path fill="#71973C" d="M1095.5,146.9c-4.6-13.9-5.8-28.5-6.1-43.1c10.5,3.4,20.7,7.5,30.7,12.3c3.5-9.9,9.5-19,17.2-26.3
				c7.1,3.8,13.9,8.3,20.2,13.4c3.6,2.9,7.2,6.3,8.2,10.9c6.2-4.3,12.6-8.3,19.2-11.9c-1.4,15-3.4,29.9-6,44.8
				c-4-4.5-9-8.3-14.4-10.9c-10.9-5.3-23.7-6.2-35.7-3.8C1116.7,134.6,1105.6,140.1,1095.5,146.9"/>
		</g>
		<ellipse fill="#532F17" cx="1123.5" cy="154.1" rx="2.2" ry="2.6"/>
		<ellipse fill="#532F17" cx="1153.9" cy="154.1" rx="2.2" ry="2.6"/>
		<path fill="#906A5C" d="M1142,163c-0.3,0.7-1.3,0.7-2.1,0.5c-0.6-0.2-0.7,0.1-0.2,0.4c1.2,0.7,2.9,0.7,3.4-0.8
			c0.5-1.6-1-2.8-2.5-3c-0.6-0.1-0.5,0.2,0,0.6C1140.6,160.6,1142.5,161.6,1142,163z"/>
		<g>
			<path fill="#E96160" d="M1135.3,169.1c2.7,1.6,7.2,1.4,9.3-0.8c0.4,0.9-0.2,2-1.1,2.6c-1,0.7-2.3,0.8-3.5,0.9
				c-1.4,0-2.4-0.3-3.5-0.9C1135.9,170.6,1135.2,169.8,1135.3,169.1"/>
		</g>
	</g>
	<g>
		<g>
			<path fill="#E8F1F9" d="M813.8,191.8c2.7-9.5,5.5-19.1,8.2-28.6c8-28,16.2-56.4,31.1-81.5c7.9-13.2,17.5-25.4,25.5-38.5
				c8-13.1,14.6-27.7,15.3-43c3.1,11.8,2.6,24.2,2.1,36.4c-0.9,22-1.7,43.9-3.2,65.9c-0.5,6.9-1,13.9-2.9,20.5
				c-1.8,6.2-4.7,12-7.8,17.7c-7.7,13.7-17.3,26.7-29.7,36.4c-12.4,9.8-27.7,16.2-43.5,16.1"/>
		</g>
		<g>
			<path fill="#E8F1F9" d="M803.1,189c-24.5,0.2-48.8-13.1-61.8-33.9c-12.8-20.4-14.6-45.6-16.8-69.6c-2.2-24-5.7-49.4-20.8-68.1
				c7,4,11.6,11,16.7,17.2c17.1,20.8,41.3,34.9,57.6,56.4c20.7,27.3,26.2,63.7,22.9,97.8"/>
		</g>
		<g>
			<path fill="#E8F1F9" d="M813.2,196c-6.4-3.3-14.3-2.7-20.6,0.7c-6.3,3.4-11.1,9.2-14,15.8c-3.2,7-4.3,15.7,0,22.2
				c3.7,5.6,11,8.2,17.6,7.2s12.4-5.5,16-11.2c3.6-5.7,5.1-12.5,5.2-19.2c0-3-0.2-6-1.5-8.6c-1.3-2.6-4-4.8-7-4.7"/>
		</g>
		<g>
			<path fill="#E8F1F9" d="M822.5,195.3c6.4-3.3,14.3-2.7,20.6,0.7c6.3,3.4,11.1,9.2,14,15.8c3.2,7,4.3,15.7,0,22.2
				c-3.7,5.6-11,8.2-17.6,7.2c-6.6-1.1-12.4-5.5-16-11.2c-3.6-5.7-5.1-12.5-5.2-19.2c0-3,0.2-6,1.5-8.6c1.3-2.6,4-4.8,7-4.7"/>
		</g>
		<g>
			<path fill="#F7E28B" d="M755.8,218.3c4,3.5,9.2,6.1,14.6,5.8c5.4-0.4,10.6-4.4,11.2-9.7c0.7-6.6-5.4-11.7-9.1-17.3
				c-3.5-5.3-5-11.6-5.7-17.9c-2-17.7,2.2-36.4,13.2-50.5c10.9-14.1,28.8-23,46.6-21.6c17.8,1.4,34.6,14,39.4,31.2
				c5.7,19.9-4.5,41.4-0.9,61.8c0.9,5,3.4,10.5,8.4,11.4c3.6,0.6,7.3-1.8,9.1-5c1.7-3.3,1.9-7.1,1.4-10.8c2.9,5.7,4.8,12.2,3.1,18.4
				c-1.6,6.2-7.7,11.4-13.9,10.4c-8-1.3-11.6-10.9-18.4-15.2c-7.2-4.6-16.6-2.5-24.8-0.4c-10.1,2.6-20.2,5.3-29.5,9.8
				c-7.6,3.7-14.8,8.6-23.1,10.2c-8.3,1.6-18.4-1.4-21.4-9.2"/>
		</g>
		<g>
			<path fill="#6E9739" d="M805.3,232.4c2.4,10.4,3.8,21.1,4.2,31.7c2.8,0,5.6,0,8.4,0c-0.6-8.2,1.6-16.4,1.6-24.6
				c0-4.7-0.6-9.4,0-14c-3.1,0.5-6.1,1.2-9.2,2.1c-2.5,0.7-5.5,2.1-5.7,4.7"/>
		</g>
		<g>
			<path fill="#9E5123" d="M808.4,260c0,2.7,0.2,5.9-0.2,8.5c-1.5-0.1-3,0.1-4.5,0.4c0-1.3-0.3-2.6-0.8-3.8c-1.7,0-3.2,1.6-3.3,3.3
				s0.9,3.4,2.4,4.3c1.4,0.9,3.2,1.2,4.9,1.2c3.5-0.1,6.9-1.5,10-3.1c0.2-0.1,0.4-0.2,0.5-0.4c0.2-0.2,0.2-0.5,0.3-0.8
				c0.5-3.2,0.6-6.4,0.3-9.5C815,261.1,811.5,261.1,808.4,260z"/>
		</g>
		<g>
			<path fill="#6E9739" d="M838.5,232.4c-2.4,10.4-3.8,21.1-4.2,31.7c-2.8,0-5.6,0-8.4,0c0.6-8.2-1.6-16.4-1.6-24.6
				c0-4.7,0.6-9.4,0-14c3.1,0.5,6.1,1.2,9.2,2.1c2.5,0.7,5.5,2.1,5.7,4.7"/>
		</g>
		<g>
			<path fill="#9E5123" d="M835.5,260c0,2.7-0.2,5.9,0.2,8.5c1.5-0.1,3,0.1,4.5,0.4c0-1.3,0.3-2.6,0.8-3.8c1.7,0,3.2,1.6,3.3,3.3
				s-0.9,3.4-2.4,4.3c-1.4,0.9-3.2,1.2-4.9,1.2c-3.5-0.1-6.9-1.5-10-3.1c-0.2-0.1-0.4-0.2-0.5-0.4c-0.2-0.2-0.2-0.5-0.3-0.8
				c-0.5-3.2-0.6-6.4-0.3-9.5C828.9,261.1,832.4,261.1,835.5,260z"/>
		</g>
		<g>
			<g>
				<path fill="#F2BE92" d="M809.1,175.3c-3.9,5-7.8,10.1-11.7,15.1c-2.6,3.3-5.2,6.7-7,10.5c-0.6-2.2-3.5-3.3-5.5-2.2
					c-2,1.1-2.4,4.2-0.8,5.9c1.6,1.6,4.2,1.5,6.5,1.2c0.6-0.1,1.2-0.2,1.7-0.5c0.5-0.3,0.9-0.8,1.2-1.3c5.4-7.7,11.4-14.9,17.8-21.7
					c1.3-1.4,2.8-3,3-4.9s-1.6-4.1-3.5-3.4"/>
			</g>
			<path fill="#80A4B8" d="M752.8,160.9c2.8,3.5,37.2,42.4,40.4,46.3c0.1,0.2,0.4,0.2,0.6,0l1.6-1.5c0.2-0.1,0.2-0.4,0-0.6
				L754,159.6c-0.2-0.2-0.5-0.2-0.6,0l-0.6,0.8C752.7,160.5,752.7,160.7,752.8,160.9z"/>
			<polygon fill="#EABB38" points="738,142.3 741.5,153.3 734.6,160.8 745.4,161.4 750.7,170.8 753.4,160.4 764.2,157.4 
				756.2,151.1 757.6,140.5 748.3,146.8 			"/>
		</g>
		<g>
			<path fill="#F2BE92" d="M831.9,175.9c4.6,4.4,9.2,8.8,13.9,13.2c3.1,2.9,6.1,5.8,8.5,9.4c0.3-2.3,3-3.8,5.1-3s3,3.8,1.7,5.7
				c-1.3,1.9-4,2.1-6.3,2.2c-0.6,0-1.2,0-1.8-0.2c-0.6-0.2-1-0.7-1.4-1.1c-6.5-6.8-13.5-13-20.9-18.8c-1.5-1.2-3.2-2.5-3.7-4.4
				c-0.5-1.9,1-4.3,2.9-3.9"/>
		</g>
		<g>
			<path fill="#79B132" d="M809.8,172.8c-3.2,11.4-6.4,22.9-9.6,34.3c-2.6,9.3-5.2,18.6-5.8,28.2c2.6-2.8,4.8-5.9,6.6-9.2
				c1.4,5.6,3.6,10.9,6.4,15.9c3.9-6.4,5.2-7.6,8.3-14.5c3.7,5.6,4.9,4.9,8.9,10.9c1.3-3.6,2.2-7.3,2.9-11c4,2.9,8,5.9,12,8.8
				c0-4.3,0.1-8.5,0.1-12.8c3.7,2.7,7.4,5.4,11.1,8.1c-5.6-20.1-12.1-40-19.5-59.4c-0.2-0.5-0.4-1.1-0.9-1.4
				c-0.7-0.4-1.5-0.1-2.2,0.2c-5.7,1.9-12-0.1-18.1,0.2c-1.2,0.1-2.8,0.9-2.2,2"/>
		</g>
		<ellipse fill="#EFBB8E" cx="819.1" cy="149.1" rx="38.8" ry="28.5"/>
		<g>
			<path fill="#F7E28B" d="M804.8,131.6c-2.3,6.7-1.9,7.4-7.1,12.5c-5.2,5.1-12.6,7.8-19.9,7.3c-0.8-0.1-1.7-0.2-2.4-0.7
				c-0.8-0.6-1.1-1.6-1.3-2.5c-1.4-7,0.3-8.7,4.6-14.4c4.4-5.6,10.3-9.8,16.4-13.5c4.3-2.6,8.7-5.1,13.5-6.4
				c12.9-3.6,26.6,1.4,38.4,7.7c6,3.2,12.4,7.5,13.2,14.2c0.4,3.1-0.5-0.9-0.7,2.2c-0.3,3.1,0.3,6.6,2.8,8.5
				c-10.2,4.5-22.2,1.2-32.6-2.9C820.5,140,812.3,139.8,804.8,131.6"/>
		</g>
		<g>
			<path fill="#79B132" d="M779.1,113c6.5-15.5,20.5-27.3,36.2-33.1c15.8-5.9,33.2-6.2,49.8-3.3c-6,3.2-8.8,10.6-8.5,17.4
				c0.3,6.8,3.1,13.2,5.9,19.5c-20.8,1-40.2,15.7-60.8,12.6c-9.9-1.5-19-7.2-24.6-15.5"/>
		</g>
		<ellipse fill="#71973C" cx="870.5" cy="78" rx="5.8" ry="5.4"/>
		<g>
			<path fill="#71973C" d="M775.5,146.9c-4.6-13.9-5.8-28.5-6.1-43.1c10.5,3.4,20.7,7.5,30.7,12.3c3.5-9.9,9.5-19,17.2-26.3
				c7.1,3.8,13.9,8.3,20.2,13.4c3.6,2.9,7.2,6.3,8.2,10.9c6.2-4.3,12.6-8.3,19.2-11.9c-1.4,15-3.4,29.9-6,44.8
				c-4-4.5-9-8.3-14.4-10.9c-10.9-5.3-23.7-6.2-35.7-3.8C796.7,134.6,785.6,140.1,775.5,146.9"/>
		</g>
		<ellipse fill="#532F17" cx="803.5" cy="154.1" rx="2.2" ry="2.6"/>
		<ellipse fill="#532F17" cx="833.9" cy="154.1" rx="2.2" ry="2.6"/>
		<path fill="#906A5C" d="M822,163c-0.3,0.7-1.3,0.7-2.1,0.5c-0.6-0.2-0.7,0.1-0.2,0.4c1.2,0.7,2.9,0.7,3.4-0.8c0.5-1.6-1-2.8-2.5-3
			c-0.6-0.1-0.5,0.2,0,0.6C820.6,160.6,822.5,161.6,822,163z"/>
		<g>
			<path fill="#E96160" d="M815.3,169.1c2.7,1.6,7.2,1.4,9.3-0.8c0.4,0.9-0.2,2-1.1,2.6c-1,0.7-2.3,0.8-3.5,0.9
				c-1.4,0-2.4-0.3-3.5-0.9C815.9,170.6,815.2,169.8,815.3,169.1"/>
		</g>
	</g>
	<g>
		<g>
			<path fill="#E8F1F9" d="M1453.8,191.8c2.7-9.5,5.5-19.1,8.2-28.6c8-28,16.2-56.4,31.1-81.5c7.9-13.2,17.5-25.4,25.5-38.5
				s14.6-27.7,15.3-43c3.1,11.8,2.6,24.2,2.1,36.4c-0.9,22-1.7,43.9-3.2,65.9c-0.5,6.9-1,13.9-2.9,20.5c-1.8,6.2-4.7,12-7.8,17.7
				c-7.7,13.7-17.3,26.7-29.7,36.4c-12.4,9.8-27.7,16.2-43.5,16.1"/>
		</g>
		<g>
			<path fill="#E8F1F9" d="M1443.1,189c-24.5,0.2-48.8-13.1-61.8-33.9c-12.8-20.4-14.6-45.6-16.8-69.6s-5.7-49.4-20.8-68.1
				c7,4,11.6,11,16.7,17.2c17.1,20.8,41.3,34.9,57.6,56.4c20.7,27.3,26.2,63.7,22.9,97.8"/>
		</g>
		<g>
			<path fill="#E8F1F9" d="M1453.2,196c-6.4-3.3-14.3-2.7-20.6,0.7c-6.3,3.4-11.1,9.2-14,15.8c-3.2,7-4.3,15.7,0,22.2
				c3.7,5.6,11,8.2,17.6,7.2s12.4-5.5,16-11.2c3.6-5.7,5.1-12.5,5.2-19.2c0-3-0.2-6-1.5-8.6c-1.3-2.6-4-4.8-7-4.7"/>
		</g>
		<g>
			<path fill="#E8F1F9" d="M1462.5,195.3c6.4-3.3,14.3-2.7,20.6,0.7c6.3,3.4,11.1,9.2,14,15.8c3.2,7,4.3,15.7,0,22.2
				c-3.7,5.6-11,8.2-17.6,7.2c-6.6-1.1-12.4-5.5-16-11.2c-3.6-5.7-5.1-12.5-5.2-19.2c0-3,0.2-6,1.5-8.6c1.3-2.6,4-4.8,7-4.7"/>
		</g>
		<g>
			<path fill="#F7E28B" d="M1395.8,218.3c4,3.5,9.2,6.1,14.6,5.8c5.4-0.4,10.6-4.4,11.2-9.7c0.7-6.6-5.4-11.7-9.1-17.3
				c-3.5-5.3-5-11.6-5.7-17.9c-2-17.7,2.2-36.4,13.2-50.5c10.9-14.1,28.8-23,46.6-21.6c17.8,1.4,34.6,14,39.4,31.2
				c5.7,19.9-4.5,41.4-0.9,61.8c0.9,5,3.4,10.5,8.4,11.4c3.6,0.6,7.3-1.8,9.1-5c1.7-3.3,1.9-7.1,1.4-10.8c2.9,5.7,4.8,12.2,3.1,18.4
				c-1.6,6.2-7.7,11.4-13.9,10.4c-8-1.3-11.6-10.9-18.4-15.2c-7.2-4.6-16.6-2.5-24.8-0.4c-10.1,2.6-20.2,5.3-29.5,9.8
				c-7.6,3.7-14.8,8.6-23.1,10.2c-8.3,1.6-18.4-1.4-21.4-9.2"/>
		</g>
		<g>
			<path fill="#6E9739" d="M1445.3,232.4c2.4,10.4,3.8,21.1,4.2,31.7c2.8,0,5.6,0,8.4,0c-0.6-8.2,1.6-16.4,1.6-24.6
				c0-4.7-0.6-9.4,0-14c-3.1,0.5-6.1,1.2-9.2,2.1c-2.5,0.7-5.5,2.1-5.7,4.7"/>
		</g>
		<g>
			<path fill="#9E5123" d="M1448.4,260c0,2.7,0.2,5.9-0.2,8.5c-1.5-0.1-3,0.1-4.5,0.4c0-1.3-0.3-2.6-0.8-3.8c-1.7,0-3.2,1.6-3.3,3.3
				c-0.1,1.7,0.9,3.4,2.4,4.3c1.4,0.9,3.2,1.2,4.9,1.2c3.5-0.1,6.9-1.5,10-3.1c0.2-0.1,0.4-0.2,0.5-0.4c0.2-0.2,0.2-0.5,0.3-0.8
				c0.5-3.2,0.6-6.4,0.3-9.5C1455,261.1,1451.5,261.1,1448.4,260z"/>
		</g>
		<g>
			<path fill="#6E9739" d="M1478.5,232.4c-2.4,10.4-3.8,21.1-4.2,31.7c-2.8,0-5.6,0-8.4,0c0.6-8.2-1.6-16.4-1.6-24.6
				c0-4.7,0.6-9.4,0-14c3.1,0.5,6.1,1.2,9.2,2.1c2.5,0.7,5.5,2.1,5.7,4.7"/>
		</g>
		<g>
			<path fill="#9E5123" d="M1475.5,260c0,2.7-0.2,5.9,0.2,8.5c1.5-0.1,3,0.1,4.5,0.4c0-1.3,0.3-2.6,0.8-3.8c1.7,0,3.2,1.6,3.3,3.3
				c0.1,1.7-0.9,3.4-2.4,4.3c-1.4,0.9-3.2,1.2-4.9,1.2c-3.5-0.1-6.9-1.5-10-3.1c-0.2-0.1-0.4-0.2-0.5-0.4c-0.2-0.2-0.2-0.5-0.3-0.8
				c-0.5-3.2-0.6-6.4-0.3-9.5C1468.9,261.1,1472.4,261.1,1475.5,260z"/>
		</g>
		<g>
			<g>
				<path fill="#F2BE92" d="M1449.1,175.3c-3.9,5-7.8,10.1-11.7,15.1c-2.6,3.3-5.2,6.7-7,10.5c-0.6-2.2-3.5-3.3-5.5-2.2
					c-2,1.1-2.4,4.2-0.8,5.9c1.6,1.6,4.2,1.5,6.5,1.2c0.6-0.1,1.2-0.2,1.7-0.5c0.5-0.3,0.9-0.8,1.2-1.3c5.4-7.7,11.4-14.9,17.8-21.7
					c1.3-1.4,2.8-3,3-4.9c0.2-1.9-1.6-4.1-3.5-3.4"/>
			</g>
			<path fill="#80A4B8" d="M1392.8,160.9c2.8,3.5,37.2,42.4,40.4,46.3c0.1,0.2,0.4,0.2,0.6,0l1.6-1.5c0.2-0.1,0.2-0.4,0-0.6
				l-41.4-45.6c-0.2-0.2-0.5-0.2-0.6,0l-0.6,0.8C1392.7,160.5,1392.7,160.7,1392.8,160.9z"/>
			<polygon fill="#EABB38" points="1378,142.3 1381.5,153.3 1374.6,160.8 1385.4,161.4 1390.7,170.8 1393.4,160.4 1404.2,157.4 
				1396.2,151.1 1397.6,140.5 1388.3,146.8 			"/>
		</g>
		<g>
			<path fill="#F2BE92" d="M1471.9,175.9c4.6,4.4,9.2,8.8,13.9,13.2c3.1,2.9,6.1,5.8,8.5,9.4c0.3-2.3,3-3.8,5.1-3
				c2.1,0.8,3,3.8,1.7,5.7c-1.3,1.9-4,2.1-6.3,2.2c-0.6,0-1.2,0-1.8-0.2c-0.6-0.2-1-0.7-1.4-1.1c-6.5-6.8-13.5-13-20.9-18.8
				c-1.5-1.2-3.2-2.5-3.7-4.4c-0.5-1.9,1-4.3,2.9-3.9"/>
		</g>
		<g>
			<path fill="#79B132" d="M1449.8,172.8c-3.2,11.4-6.4,22.9-9.6,34.3c-2.6,9.3-5.2,18.6-5.8,28.2c2.6-2.8,4.8-5.9,6.6-9.2
				c1.4,5.6,3.6,10.9,6.4,15.9c3.9-6.4,5.2-7.6,8.3-14.5c3.7,5.6,4.9,4.9,8.9,10.9c1.3-3.6,2.2-7.3,2.9-11c4,2.9,8,5.9,12,8.8
				c0-4.3,0.1-8.5,0.1-12.8c3.7,2.7,7.4,5.4,11.1,8.1c-5.6-20.1-12.1-40-19.5-59.4c-0.2-0.5-0.4-1.1-0.9-1.4
				c-0.7-0.4-1.5-0.1-2.2,0.2c-5.7,1.9-12-0.1-18.1,0.2c-1.2,0.1-2.8,0.9-2.2,2"/>
		</g>
		<ellipse fill="#EFBB8E" cx="1459.1" cy="149.1" rx="38.8" ry="28.5"/>
		<g>
			<path fill="#F7E28B" d="M1444.8,131.6c-2.3,6.7-1.9,7.4-7.1,12.5c-5.2,5.1-12.6,7.8-19.9,7.3c-0.8-0.1-1.7-0.2-2.4-0.7
				c-0.8-0.6-1.1-1.6-1.3-2.5c-1.4-7,0.3-8.7,4.6-14.4s10.3-9.8,16.4-13.5c4.3-2.6,8.7-5.1,13.5-6.4c12.9-3.6,26.6,1.4,38.4,7.7
				c6,3.2,12.4,7.5,13.2,14.2c0.4,3.1-0.5-0.9-0.7,2.2s0.3,6.6,2.8,8.5c-10.2,4.5-22.2,1.2-32.6-2.9
				C1460.5,140,1452.3,139.8,1444.8,131.6"/>
		</g>
		<g>
			<path fill="#79B132" d="M1419.1,113c6.5-15.5,20.5-27.3,36.2-33.1c15.8-5.9,33.2-6.2,49.8-3.3c-6,3.2-8.8,10.6-8.5,17.4
				c0.3,6.8,3.1,13.2,5.9,19.5c-20.8,1-40.2,15.7-60.8,12.6c-9.9-1.5-19-7.2-24.6-15.5"/>
		</g>
		<ellipse fill="#71973C" cx="1510.5" cy="78" rx="5.8" ry="5.4"/>
		<g>
			<path fill="#71973C" d="M1415.5,146.9c-4.6-13.9-5.8-28.5-6.1-43.1c10.5,3.4,20.7,7.5,30.7,12.3c3.5-9.9,9.5-19,17.2-26.3
				c7.1,3.8,13.9,8.3,20.2,13.4c3.6,2.9,7.2,6.3,8.2,10.9c6.2-4.3,12.6-8.3,19.2-11.9c-1.4,15-3.4,29.9-6,44.8
				c-4-4.5-9-8.3-14.4-10.9c-10.9-5.3-23.7-6.2-35.7-3.8C1436.7,134.6,1425.6,140.1,1415.5,146.9"/>
		</g>
		<ellipse fill="#532F17" cx="1443.5" cy="154.1" rx="2.2" ry="2.6"/>
		<ellipse fill="#532F17" cx="1473.9" cy="154.1" rx="2.2" ry="2.6"/>
		<path fill="#906A5C" d="M1462,163c-0.3,0.7-1.3,0.7-2.1,0.5c-0.6-0.2-0.7,0.1-0.2,0.4c1.2,0.7,2.9,0.7,3.4-0.8
			c0.5-1.6-1-2.8-2.5-3c-0.6-0.1-0.5,0.2,0,0.6C1460.6,160.6,1462.5,161.6,1462,163z"/>
		<g>
			<path fill="#E96160" d="M1455.3,169.1c2.7,1.6,7.2,1.4,9.3-0.8c0.4,0.9-0.2,2-1.1,2.6c-1,0.7-2.3,0.8-3.5,0.9
				c-1.4,0-2.4-0.3-3.5-0.9C1455.9,170.6,1455.2,169.8,1455.3,169.1"/>
		</g>
	</g>
	<g>
		<g>
			<path fill="#E8F1F9" d="M1773.8,191.8c2.7-9.5,5.5-19.1,8.2-28.6c8-28,16.2-56.4,31.1-81.5c7.9-13.2,17.5-25.4,25.5-38.5
				s14.6-27.7,15.3-43c3.1,11.8,2.6,24.2,2.1,36.4c-0.9,22-1.7,43.9-3.2,65.9c-0.5,6.9-1,13.9-2.9,20.5c-1.8,6.2-4.7,12-7.8,17.7
				c-7.7,13.7-17.3,26.7-29.7,36.4c-12.4,9.8-27.7,16.2-43.5,16.1"/>
		</g>
		<g>
			<path fill="#E8F1F9" d="M1763.1,189c-24.5,0.2-48.8-13.1-61.8-33.9c-12.8-20.4-14.6-45.6-16.8-69.6s-5.7-49.4-20.8-68.1
				c7,4,11.6,11,16.7,17.2c17.1,20.8,41.3,34.9,57.6,56.4c20.7,27.3,26.2,63.7,22.9,97.8"/>
		</g>
		<g>
			<path fill="#E8F1F9" d="M1773.2,196c-6.4-3.3-14.3-2.7-20.6,0.7c-6.3,3.4-11.1,9.2-14,15.8c-3.2,7-4.3,15.7,0,22.2
				c3.7,5.6,11,8.2,17.6,7.2s12.4-5.5,16-11.2c3.6-5.7,5.1-12.5,5.2-19.2c0-3-0.2-6-1.5-8.6c-1.3-2.6-4-4.8-7-4.7"/>
		</g>
		<g>
			<path fill="#E8F1F9" d="M1782.5,195.3c6.4-3.3,14.3-2.7,20.6,0.7c6.3,3.4,11.1,9.2,14,15.8c3.2,7,4.3,15.7,0,22.2
				c-3.7,5.6-11,8.2-17.6,7.2c-6.6-1.1-12.4-5.5-16-11.2c-3.6-5.7-5.1-12.5-5.2-19.2c0-3,0.2-6,1.5-8.6c1.3-2.6,4-4.8,7-4.7"/>
		</g>
		<g>
			<path fill="#F7E28B" d="M1715.8,218.3c4,3.5,9.2,6.1,14.6,5.8c5.4-0.4,10.6-4.4,11.2-9.7c0.7-6.6-5.4-11.7-9.1-17.3
				c-3.5-5.3-5-11.6-5.7-17.9c-2-17.7,2.2-36.4,13.2-50.5c10.9-14.1,28.8-23,46.6-21.6c17.8,1.4,34.6,14,39.4,31.2
				c5.7,19.9-4.5,41.4-0.9,61.8c0.9,5,3.4,10.5,8.4,11.4c3.6,0.6,7.3-1.8,9.1-5c1.7-3.3,1.9-7.1,1.4-10.8c2.9,5.7,4.8,12.2,3.1,18.4
				c-1.6,6.2-7.7,11.4-13.9,10.4c-8-1.3-11.6-10.9-18.4-15.2c-7.2-4.6-16.6-2.5-24.8-0.4c-10.1,2.6-20.2,5.3-29.5,9.8
				c-7.6,3.7-14.8,8.6-23.1,10.2c-8.3,1.6-18.4-1.4-21.4-9.2"/>
		</g>
		<g>
			<path fill="#6E9739" d="M1765.3,232.4c2.4,10.4,3.8,21.1,4.2,31.7c2.8,0,5.6,0,8.4,0c-0.6-8.2,1.6-16.4,1.6-24.6
				c0-4.7-0.6-9.4,0-14c-3.1,0.5-6.1,1.2-9.2,2.1c-2.5,0.7-5.5,2.1-5.7,4.7"/>
		</g>
		<g>
			<path fill="#9E5123" d="M1768.4,260c0,2.7,0.2,5.9-0.2,8.5c-1.5-0.1-3,0.1-4.5,0.4c0-1.3-0.3-2.6-0.8-3.8c-1.7,0-3.2,1.6-3.3,3.3
				c-0.1,1.7,0.9,3.4,2.4,4.3c1.4,0.9,3.2,1.2,4.9,1.2c3.5-0.1,6.9-1.5,10-3.1c0.2-0.1,0.4-0.2,0.5-0.4c0.2-0.2,0.2-0.5,0.3-0.8
				c0.5-3.2,0.6-6.4,0.3-9.5C1775,261.1,1771.5,261.1,1768.4,260z"/>
		</g>
		<g>
			<path fill="#6E9739" d="M1798.5,232.4c-2.4,10.4-3.8,21.1-4.2,31.7c-2.8,0-5.6,0-8.4,0c0.6-8.2-1.6-16.4-1.6-24.6
				c0-4.7,0.6-9.4,0-14c3.1,0.5,6.1,1.2,9.2,2.1c2.5,0.7,5.5,2.1,5.7,4.7"/>
		</g>
		<g>
			<path fill="#9E5123" d="M1795.5,260c0,2.7-0.2,5.9,0.2,8.5c1.5-0.1,3,0.1,4.5,0.4c0-1.3,0.3-2.6,0.8-3.8c1.7,0,3.2,1.6,3.3,3.3
				c0.1,1.7-0.9,3.4-2.4,4.3c-1.4,0.9-3.2,1.2-4.9,1.2c-3.5-0.1-6.9-1.5-10-3.1c-0.2-0.1-0.4-0.2-0.5-0.4c-0.2-0.2-0.2-0.5-0.3-0.8
				c-0.5-3.2-0.6-6.4-0.3-9.5C1788.9,261.1,1792.4,261.1,1795.5,260z"/>
		</g>
		<g>
			<g>
				<path fill="#F2BE92" d="M1768.3,175.7c-5.5,3.2-11,6.5-16.5,9.7c-3.6,2.1-7.3,4.3-10.4,7.2c0.2-2.3-2-4.4-4.3-4.1
					s-3.8,3.1-2.9,5.2c0.9,2.1,3.4,2.9,5.6,3.5c0.6,0.2,1.2,0.3,1.8,0.2c0.6-0.1,1.1-0.4,1.6-0.8c7.9-5.1,16.1-9.7,24.6-13.6
					c1.8-0.8,3.7-1.7,4.6-3.4c0.9-1.7,0-4.4-2-4.5"/>
			</g>
			<path fill="#80A4B8" d="M1721.3,141.5c1.3,4.3,18.9,53.1,20.5,57.9c0.1,0.2,0.3,0.3,0.5,0.2l2-0.8c0.2-0.1,0.3-0.3,0.2-0.5
				l-21.6-57.7c-0.1-0.2-0.4-0.3-0.6-0.2l-0.8,0.5C1721.3,141.1,1721.2,141.3,1721.3,141.5z"/>
			<polygon fill="#EABB38" points="1714.3,118.7 1713.5,130.2 1704.4,134.7 1714.2,139.3 1715.6,149.9 1722,141.2 1733.2,142.5 
				1728,133.7 1733.2,124.3 1722.2,126.7 			"/>
		</g>
		<g>
			<path fill="#F2BE92" d="M1791.9,175.9c4.6,4.4,9.2,8.8,13.9,13.2c3.1,2.9,6.1,5.8,8.5,9.4c0.3-2.3,3-3.8,5.1-3
				c2.1,0.8,3,3.8,1.7,5.7c-1.3,1.9-4,2.1-6.3,2.2c-0.6,0-1.2,0-1.8-0.2c-0.6-0.2-1-0.7-1.4-1.1c-6.5-6.8-13.5-13-20.9-18.8
				c-1.5-1.2-3.2-2.5-3.7-4.4c-0.5-1.9,1-4.3,2.9-3.9"/>
		</g>
		<g>
			<path fill="#79B132" d="M1769.8,172.8c-3.2,11.4-6.4,22.9-9.6,34.3c-2.6,9.3-5.2,18.6-5.8,28.2c2.6-2.8,4.8-5.9,6.6-9.2
				c1.4,5.6,3.6,10.9,6.4,15.9c3.9-6.4,5.2-7.6,8.3-14.5c3.7,5.6,4.9,4.9,8.9,10.9c1.3-3.6,2.2-7.3,2.9-11c4,2.9,8,5.9,12,8.8
				c0-4.3,0.1-8.5,0.1-12.8c3.7,2.7,7.4,5.4,11.1,8.1c-5.6-20.1-12.1-40-19.5-59.4c-0.2-0.5-0.4-1.1-0.9-1.4
				c-0.7-0.4-1.5-0.1-2.2,0.2c-5.7,1.9-12-0.1-18.1,0.2c-1.2,0.1-2.8,0.9-2.2,2"/>
		</g>
		<ellipse fill="#EFBB8E" cx="1779.1" cy="149.1" rx="38.8" ry="28.5"/>
		<g>
			<path fill="#F7E28B" d="M1764.8,131.6c-2.3,6.7-1.9,7.4-7.1,12.5c-5.2,5.1-12.6,7.8-19.9,7.3c-0.8-0.1-1.7-0.2-2.4-0.7
				c-0.8-0.6-1.1-1.6-1.3-2.5c-1.4-7,0.3-8.7,4.6-14.4s10.3-9.8,16.4-13.5c4.3-2.6,8.7-5.1,13.5-6.4c12.9-3.6,26.6,1.4,38.4,7.7
				c6,3.2,12.4,7.5,13.2,14.2c0.4,3.1-0.5-0.9-0.7,2.2s0.3,6.6,2.8,8.5c-10.2,4.5-22.2,1.2-32.6-2.9
				C1780.5,140,1772.3,139.8,1764.8,131.6"/>
		</g>
		<g>
			<path fill="#79B132" d="M1739.1,113c6.5-15.5,20.5-27.3,36.2-33.1c15.8-5.9,33.2-6.2,49.8-3.3c-6,3.2-8.8,10.6-8.5,17.4
				c0.3,6.8,3.1,13.2,5.9,19.5c-20.8,1-40.2,15.7-60.8,12.6c-9.9-1.5-19-7.2-24.6-15.5"/>
		</g>
		<ellipse fill="#71973C" cx="1830.5" cy="78" rx="5.8" ry="5.4"/>
		<g>
			<path fill="#71973C" d="M1735.5,146.9c-4.6-13.9-5.8-28.5-6.1-43.1c10.5,3.4,20.7,7.5,30.7,12.3c3.5-9.9,9.5-19,17.2-26.3
				c7.1,3.8,13.9,8.3,20.2,13.4c3.6,2.9,7.2,6.3,8.2,10.9c6.2-4.3,12.6-8.3,19.2-11.9c-1.4,15-3.4,29.9-6,44.8
				c-4-4.5-9-8.3-14.4-10.9c-10.9-5.3-23.7-6.2-35.7-3.8C1756.7,134.6,1745.6,140.1,1735.5,146.9"/>
		</g>
		<ellipse fill="#532F17" cx="1763.5" cy="154.1" rx="2.2" ry="2.6"/>
		<ellipse fill="#532F17" cx="1793.9" cy="154.1" rx="2.2" ry="2.6"/>
		<path fill="#906A5C" d="M1782,163c-0.3,0.7-1.3,0.7-2.1,0.5c-0.6-0.2-0.7,0.1-0.2,0.4c1.2,0.7,2.9,0.7,3.4-0.8
			c0.5-1.6-1-2.8-2.5-3c-0.6-0.1-0.5,0.2,0,0.6C1780.6,160.6,1782.5,161.6,1782,163z"/>
		<g>
			<path fill="#E96160" d="M1775.3,169.1c2.7,1.6,7.2,1.4,9.3-0.8c0.4,0.9-0.2,2-1.1,2.6c-1,0.7-2.3,0.8-3.5,0.9
				c-1.4,0-2.4-0.3-3.5-0.9C1775.9,170.6,1775.2,169.8,1775.3,169.1"/>
		</g>
	</g>
	<g>
		<g>
			<path fill="#E8F1F9" d="M2093.8,191.8c2.7-9.5,5.5-19.1,8.2-28.6c8-28,16.2-56.4,31.1-81.5c7.9-13.2,17.5-25.4,25.5-38.5
				s14.6-27.7,15.3-43c3.1,11.8,2.6,24.2,2.1,36.4c-0.9,22-1.7,43.9-3.2,65.9c-0.5,6.9-1,13.9-2.9,20.5c-1.8,6.2-4.7,12-7.8,17.7
				c-7.7,13.7-17.3,26.7-29.7,36.4c-12.4,9.8-27.7,16.2-43.5,16.1"/>
		</g>
		<g>
			<path fill="#E8F1F9" d="M2083.1,189c-24.5,0.2-48.8-13.1-61.8-33.9c-12.8-20.4-14.6-45.6-16.8-69.6s-5.7-49.4-20.8-68.1
				c7,4,11.6,11,16.7,17.2c17.1,20.8,41.3,34.9,57.6,56.4c20.7,27.3,26.2,63.7,22.9,97.8"/>
		</g>
		<g>
			<path fill="#E8F1F9" d="M2093.2,196c-6.4-3.3-14.3-2.7-20.6,0.7c-6.3,3.4-11.1,9.2-14,15.8c-3.2,7-4.3,15.7,0,22.2
				c3.7,5.6,11,8.2,17.6,7.2c6.6-1.1,12.4-5.5,16-11.2c3.6-5.7,5.1-12.5,5.2-19.2c0-3-0.2-6-1.5-8.6c-1.3-2.6-4-4.8-7-4.7"/>
		</g>
		<g>
			<path fill="#E8F1F9" d="M2102.5,195.3c6.4-3.3,14.3-2.7,20.6,0.7c6.3,3.4,11.1,9.2,14,15.8c3.2,7,4.3,15.7,0,22.2
				c-3.7,5.6-11,8.2-17.6,7.2c-6.6-1.1-12.4-5.5-16-11.2c-3.6-5.7-5.1-12.5-5.2-19.2c0-3,0.2-6,1.5-8.6c1.3-2.6,4-4.8,7-4.7"/>
		</g>
		<g>
			<path fill="#F7E28B" d="M2035.8,218.3c4,3.5,9.2,6.1,14.6,5.8c5.4-0.4,10.6-4.4,11.2-9.7c0.7-6.6-5.4-11.7-9.1-17.3
				c-3.5-5.3-5-11.6-5.7-17.9c-2-17.7,2.2-36.4,13.2-50.5s28.8-23,46.6-21.6c17.8,1.4,34.6,14,39.4,31.2c5.7,19.9-4.5,41.4-0.9,61.8
				c0.9,5,3.4,10.5,8.4,11.4c3.6,0.6,7.3-1.8,9.1-5s1.9-7.1,1.4-10.8c2.9,5.7,4.8,12.2,3.1,18.4c-1.6,6.2-7.7,11.4-13.9,10.4
				c-8-1.3-11.6-10.9-18.4-15.2c-7.2-4.6-16.6-2.5-24.8-0.4c-10.1,2.6-20.2,5.3-29.5,9.8c-7.6,3.7-14.8,8.6-23.1,10.2
				c-8.3,1.6-18.4-1.4-21.4-9.2"/>
		</g>
		<g>
			<path fill="#6E9739" d="M2085.3,232.4c2.4,10.4,3.8,21.1,4.2,31.7c2.8,0,5.6,0,8.4,0c-0.6-8.2,1.6-16.4,1.6-24.6
				c0-4.7-0.6-9.4,0-14c-3.1,0.5-6.1,1.2-9.2,2.1c-2.5,0.7-5.5,2.1-5.7,4.7"/>
		</g>
		<g>
			<path fill="#9E5123" d="M2088.4,260c0,2.7,0.2,5.9-0.2,8.5c-1.5-0.1-3,0.1-4.5,0.4c0-1.3-0.3-2.6-0.8-3.8c-1.7,0-3.2,1.6-3.3,3.3
				c-0.1,1.7,0.9,3.4,2.4,4.3c1.4,0.9,3.2,1.2,4.9,1.2c3.5-0.1,6.9-1.5,10-3.1c0.2-0.1,0.4-0.2,0.5-0.4c0.2-0.2,0.2-0.5,0.3-0.8
				c0.5-3.2,0.6-6.4,0.3-9.5C2095,261.1,2091.5,261.1,2088.4,260z"/>
		</g>
		<g>
			<path fill="#6E9739" d="M2118.5,232.4c-2.4,10.4-3.8,21.1-4.2,31.7c-2.8,0-5.6,0-8.4,0c0.6-8.2-1.6-16.4-1.6-24.6
				c0-4.7,0.6-9.4,0-14c3.1,0.5,6.1,1.2,9.2,2.1c2.5,0.7,5.5,2.1,5.7,4.7"/>
		</g>
		<g>
			<path fill="#9E5123" d="M2115.5,260c0,2.7-0.2,5.9,0.2,8.5c1.5-0.1,3,0.1,4.5,0.4c0-1.3,0.3-2.6,0.8-3.8c1.7,0,3.2,1.6,3.3,3.3
				c0.1,1.7-0.9,3.4-2.4,4.3c-1.4,0.9-3.2,1.2-4.9,1.2c-3.5-0.1-6.9-1.5-10-3.1c-0.2-0.1-0.4-0.2-0.5-0.4c-0.2-0.2-0.2-0.5-0.3-0.8
				c-0.5-3.2-0.6-6.4-0.3-9.5C2108.9,261.1,2112.4,261.1,2115.5,260z"/>
		</g>
		<g>
			<g>
				<path fill="#F2BE92" d="M2089.1,175.3c-3.9,5-7.8,10.1-11.7,15.1c-2.6,3.3-5.2,6.7-7,10.5c-0.6-2.2-3.5-3.3-5.5-2.2
					c-2,1.1-2.4,4.2-0.8,5.9c1.6,1.6,4.2,1.5,6.5,1.2c0.6-0.1,1.2-0.2,1.7-0.5c0.5-0.3,0.9-0.8,1.2-1.3c5.4-7.7,11.4-14.9,17.8-21.7
					c1.3-1.4,2.8-3,3-4.9c0.2-1.9-1.6-4.1-3.5-3.4"/>
			</g>
			<path fill="#80A4B8" d="M2032.8,160.9c2.8,3.5,37.2,42.4,40.4,46.3c0.1,0.2,0.4,0.2,0.6,0l1.6-1.5c0.2-0.1,0.2-0.4,0-0.6
				l-41.4-45.6c-0.2-0.2-0.5-0.2-0.6,0l-0.6,0.8C2032.7,160.5,2032.7,160.7,2032.8,160.9z"/>
			<polygon fill="#EABB38" points="2018,142.3 2021.5,153.3 2014.6,160.8 2025.4,161.4 2030.7,170.8 2033.4,160.4 2044.2,157.4 
				2036.2,151.1 2037.6,140.5 2028.3,146.8 			"/>
		</g>
		<g>
			<path fill="#F2BE92" d="M2111.9,175.9c4.6,4.4,9.2,8.8,13.9,13.2c3.1,2.9,6.1,5.8,8.5,9.4c0.3-2.3,3-3.8,5.1-3
				c2.1,0.8,3,3.8,1.7,5.7c-1.3,1.9-4,2.1-6.3,2.2c-0.6,0-1.2,0-1.8-0.2c-0.6-0.2-1-0.7-1.4-1.1c-6.5-6.8-13.5-13-20.9-18.8
				c-1.5-1.2-3.2-2.5-3.7-4.4c-0.5-1.9,1-4.3,2.9-3.9"/>
		</g>
		<g>
			<path fill="#79B132" d="M2089.8,172.8c-3.2,11.4-6.4,22.9-9.6,34.3c-2.6,9.3-5.2,18.6-5.8,28.2c2.6-2.8,4.8-5.9,6.6-9.2
				c1.4,5.6,3.6,10.9,6.4,15.9c3.9-6.4,5.2-7.6,8.3-14.5c3.7,5.6,4.9,4.9,8.9,10.9c1.3-3.6,2.2-7.3,2.9-11c4,2.9,8,5.9,12,8.8
				c0-4.3,0.1-8.5,0.1-12.8c3.7,2.7,7.4,5.4,11.1,8.1c-5.6-20.1-12.1-40-19.5-59.4c-0.2-0.5-0.4-1.1-0.9-1.4
				c-0.7-0.4-1.5-0.1-2.2,0.2c-5.7,1.9-12-0.1-18.1,0.2c-1.2,0.1-2.8,0.9-2.2,2"/>
		</g>
		<ellipse fill="#EFBB8E" cx="2099.1" cy="149.1" rx="38.8" ry="28.5"/>
		<g>
			<path fill="#F7E28B" d="M2084.8,131.6c-2.3,6.7-1.9,7.4-7.1,12.5c-5.2,5.1-12.6,7.8-19.9,7.3c-0.8-0.1-1.7-0.2-2.4-0.7
				c-0.8-0.6-1.1-1.6-1.3-2.5c-1.4-7,0.3-8.7,4.6-14.4c4.4-5.6,10.3-9.8,16.4-13.5c4.3-2.6,8.7-5.1,13.5-6.4
				c12.9-3.6,26.6,1.4,38.4,7.7c6,3.2,12.4,7.5,13.2,14.2c0.4,3.1-0.5-0.9-0.7,2.2c-0.3,3.1,0.3,6.6,2.8,8.5
				c-10.2,4.5-22.2,1.2-32.6-2.9C2100.5,140,2092.3,139.8,2084.8,131.6"/>
		</g>
		<g>
			<path fill="#79B132" d="M2059.1,113c6.5-15.5,20.5-27.3,36.2-33.1c15.8-5.9,33.2-6.2,49.8-3.3c-6,3.2-8.8,10.6-8.5,17.4
				c0.3,6.8,3.1,13.2,5.9,19.5c-20.8,1-40.2,15.7-60.8,12.6c-9.9-1.5-19-7.2-24.6-15.5"/>
		</g>
		<ellipse fill="#71973C" cx="2150.5" cy="78" rx="5.8" ry="5.4"/>
		<g>
			<path fill="#71973C" d="M2055.5,146.9c-4.6-13.9-5.8-28.5-6.1-43.1c10.5,3.4,20.7,7.5,30.7,12.3c3.5-9.9,9.5-19,17.2-26.3
				c7.1,3.8,13.9,8.3,20.2,13.4c3.6,2.9,7.2,6.3,8.2,10.9c6.2-4.3,12.6-8.3,19.2-11.9c-1.4,15-3.4,29.9-6,44.8
				c-4-4.5-9-8.3-14.4-10.9c-10.9-5.3-23.7-6.2-35.7-3.8C2076.7,134.6,2065.6,140.1,2055.5,146.9"/>
		</g>
		<ellipse fill="#532F17" cx="2083.5" cy="154.1" rx="2.2" ry="2.6"/>
		<ellipse fill="#532F17" cx="2113.9" cy="154.1" rx="2.2" ry="2.6"/>
		<path fill="#906A5C" d="M2102,163c-0.3,0.7-1.3,0.7-2.1,0.5c-0.6-0.2-0.7,0.1-0.2,0.4c1.2,0.7,2.9,0.7,3.4-0.8
			c0.5-1.6-1-2.8-2.5-3c-0.6-0.1-0.5,0.2,0,0.6C2100.6,160.6,2102.5,161.6,2102,163z"/>
		<g>
			<path fill="#E96160" d="M2095.3,169.1c2.7,1.6,7.2,1.4,9.3-0.8c0.4,0.9-0.2,2-1.1,2.6c-1,0.7-2.3,0.8-3.5,0.9
				c-1.4,0-2.4-0.3-3.5-0.9C2095.9,170.6,2095.2,169.8,2095.3,169.1"/>
		</g>
	</g>
	<path fill="#FFFFFF" d="M16.5,319.3h285.9c0.7,0,1.3-0.5,1.4-1.2c9.3-57.6-31.8-111-93.8-104.9c0,0-35,2.7-60.6,34.3
		c0,0-16.9-12.9-46.2-11.7c-47.9,2.2-78.1,24.1-88,82.1C14.9,318.6,15.6,319.3,16.5,319.3z"/>
	<path fill="#FFFFFF" d="M336.5,319.3h285.9c0.7,0,1.3-0.5,1.4-1.2c9.3-57.6-31.8-111-93.8-104.9c0,0-35,2.7-60.6,34.3
		c0,0-16.9-12.9-46.2-11.7c-47.9,2.2-78.1,24.1-88,82.1C334.9,318.6,335.6,319.3,336.5,319.3z"/>
	<path fill="#FFFFFF" d="M656.5,319.3h285.9c0.7,0,1.3-0.5,1.4-1.2c9.3-57.6-31.8-111-93.8-104.9c0,0-35,2.7-60.6,34.3
		c0,0-16.9-12.9-46.2-11.7c-47.9,2.2-78.1,24.1-88,82.1C654.9,318.6,655.6,319.3,656.5,319.3z"/>
	<path fill="#FFFFFF" d="M976.5,319.3h285.9c0.7,0,1.3-0.5,1.4-1.2c9.3-57.6-31.8-111-93.8-104.9c0,0-35,2.7-60.6,34.3
		c0,0-16.9-12.9-46.2-11.7c-47.9,2.2-78.1,24.1-88,82.1C974.9,318.6,975.6,319.3,976.5,319.3z"/>
	<path fill="#FFFFFF" d="M1296.5,319.3h285.9c0.7,0,1.3-0.5,1.4-1.2c9.3-57.6-31.8-111-93.8-104.9c0,0-35,2.7-60.6,34.3
		c0,0-16.9-12.9-46.2-11.7c-47.9,2.2-78.1,24.1-88,82.1C1294.9,318.6,1295.6,319.3,1296.5,319.3z"/>
	<path fill="#FFFFFF" d="M1616.5,319.3h285.9c0.7,0,1.3-0.5,1.4-1.2c9.3-57.6-31.8-111-93.8-104.9c0,0-35,2.7-60.6,34.3
		c0,0-16.9-12.9-46.2-11.7c-47.9,2.2-78.1,24.1-88,82.1C1614.9,318.6,1615.6,319.3,1616.5,319.3z"/>
	<path fill="#FFFFFF" d="M1936.5,319.3h285.9c0.7,0,1.3-0.5,1.4-1.2c9.3-57.6-31.8-111-93.8-104.9c0,0-35,2.7-60.6,34.3
		c0,0-16.9-12.9-46.2-11.7c-47.9,2.2-78.1,24.1-88,82.1C1934.9,318.6,1935.6,319.3,1936.5,319.3z"/>
</g>
</svg>
