<?xml version="1.0" encoding="utf-8"?>
<!-- Generator: Adobe Illustrator 18.0.0, SVG Export Plug-In . SVG Version: 6.00 Build 0)  -->
<!DOCTYPE svg PUBLIC "-//W3C//DTD SVG 1.1//EN" "http://www.w3.org/Graphics/SVG/1.1/DTD/svg11.dtd">
<svg version="1.1" id="图层_1" xmlns="http://www.w3.org/2000/svg" xmlns:xlink="http://www.w3.org/1999/xlink" x="0px" y="0px"
	 width="320px" height="320px" viewBox="-959 541 320 320" enable-background="new -959 541 320 320" xml:space="preserve">
<g>
	<g>
		<path fill="#E8F1F9" d="M-863.8,756.7c1.9-6.7,3.8-13.4,5.8-20.1c5.6-19.7,11.4-39.6,21.8-57.2c5.5-9.3,12.3-17.8,17.9-27
			s10.2-19.4,10.7-30.2c2.2,8.3,1.8,17,1.5,25.5c-0.6,15.4-1.2,30.8-2.3,46.2c-0.3,4.8-0.7,9.7-2.1,14.4c-1.2,4.4-3.3,8.5-5.5,12.4
			c-5.4,9.6-12.1,18.7-20.8,25.6c-8.7,6.9-19.5,11.4-30.5,11.3"/>
	</g>
	<g>
		<path fill="#E8F1F9" d="M-871.3,754.8c-17.2,0.1-34.2-9.2-43.4-23.8c-9-14.3-10.3-32-11.8-48.8c-1.5-16.8-4-34.6-14.6-47.8
			c4.9,2.8,8.1,7.7,11.7,12.1c12,14.6,29,24.5,40.4,39.6c14.6,19.1,18.4,44.7,16,68.6"/>
	</g>
	<g>
		<path fill="#E8F1F9" d="M-864.2,759.7c-4.5-2.3-10.1-1.9-14.5,0.5c-4.4,2.4-7.8,6.5-9.8,11.1c-2.2,4.9-3,11,0,15.6
			c2.6,3.9,7.7,5.8,12.4,5c4.6-0.8,8.7-3.9,11.2-7.8c2.5-4,3.6-8.8,3.6-13.5c0-2.1-0.1-4.2-1.1-6.1c-0.9-1.8-2.8-3.3-4.9-3.3"/>
	</g>
	<g>
		<path fill="#E8F1F9" d="M-857.6,759.2c4.5-2.3,10.1-1.9,14.5,0.5c4.4,2.4,7.8,6.5,9.8,11.1c2.2,4.9,3,11,0,15.6
			c-2.6,3.9-7.7,5.8-12.4,5c-4.6-0.8-8.7-3.9-11.2-7.8s-3.6-8.8-3.6-13.5c0-2.1,0.1-4.2,1.1-6.1c0.9-1.8,2.8-3.3,4.9-3.3"/>
	</g>
	<g>
		<path fill="#F7E28B" d="M-904.5,775.4c2.8,2.5,6.5,4.3,10.2,4c3.8-0.3,7.5-3.1,7.8-6.8c0.5-4.7-3.8-8.2-6.4-12.1
			c-2.5-3.7-3.5-8.1-4-12.5c-1.4-12.4,1.6-25.5,9.2-35.4s20.2-16.2,32.7-15.1c12.5,1,24.3,9.8,27.7,21.9c4,14-3.1,29-0.6,43.3
			c0.6,3.5,2.4,7.4,5.9,8c2.6,0.4,5.1-1.3,6.4-3.5c1.2-2.3,1.3-5,1-7.6c2,4,3.3,8.6,2.2,12.9c-1.1,4.3-5.4,8-9.8,7.3
			c-5.6-0.9-8.1-7.6-12.9-10.7c-5.1-3.2-11.6-1.8-17.4-0.3c-7.1,1.8-14.2,3.7-20.7,6.9c-5.3,2.6-10.4,6-16.2,7.1
			c-5.8,1.1-12.9-1-15-6.5"/>
	</g>
	<g>
		<path fill="#6E9739" d="M-869.7,785.3c1.7,7.3,2.7,14.8,3,22.3c2,0,3.9,0,5.9,0c-0.4-5.8,1.1-11.5,1.1-17.3c0-3.3-0.4-6.6,0-9.8
			c-2.2,0.4-4.3,0.9-6.4,1.5c-1.8,0.5-3.9,1.5-4,3.3"/>
	</g>
	<g>
		<path fill="#9E5123" d="M-867.5,804.6c0,1.9,0.1,4.1-0.2,6c-1.1,0-2.1,0.1-3.2,0.3c0-0.9-0.2-1.8-0.5-2.7c-1.2,0-2.3,1.1-2.3,2.3
			s0.7,2.4,1.7,3c1,0.7,2.3,0.9,3.5,0.8c2.5-0.1,4.8-1,7-2.2c0.1-0.1,0.3-0.1,0.4-0.3c0.1-0.2,0.2-0.4,0.2-0.6
			c0.3-2.2,0.4-4.5,0.2-6.7C-862.9,805.4-865.4,805.4-867.5,804.6z"/>
	</g>
	<g>
		<path fill="#6E9739" d="M-846.4,785.3c-1.7,7.3-2.7,14.8-3,22.3c-2,0-3.9,0-5.9,0c0.4-5.8-1.1-11.5-1.1-17.3c0-3.3,0.4-6.6,0-9.8
			c2.2,0.4,4.3,0.9,6.4,1.5c1.8,0.5,3.9,1.5,4,3.3"/>
	</g>
	<g>
		<path fill="#9E5123" d="M-848.6,804.6c0,1.9-0.1,4.1,0.2,6c1.1,0,2.1,0.1,3.2,0.3c0-0.9,0.2-1.8,0.5-2.7c1.2,0,2.3,1.1,2.3,2.3
			s-0.7,2.4-1.7,3c-1,0.7-2.3,0.9-3.5,0.8c-2.5-0.1-4.8-1-7-2.2c-0.1-0.1-0.3-0.1-0.4-0.3c-0.1-0.2-0.2-0.4-0.2-0.6
			c-0.3-2.2-0.4-4.5-0.2-6.7C-853.1,805.4-850.7,805.4-848.6,804.6z"/>
	</g>
	<g>
		<path fill="#F2BE92" d="M-851,745.6c3.2,3.1,6.5,6.2,9.7,9.2c2.1,2,4.3,4.1,6,6.6c0.2-1.6,2.1-2.7,3.6-2.1c1.5,0.6,2.1,2.7,1.2,4
			c-0.9,1.3-2.8,1.5-4.4,1.5c-0.4,0-0.9,0-1.2-0.1c-0.4-0.2-0.7-0.5-1-0.8c-4.6-4.7-9.5-9.2-14.7-13.2c-1.1-0.8-2.2-1.8-2.6-3.1
			c-0.3-1.3,0.7-3,2-2.7"/>
	</g>
	<g>
		<path fill="#F2BE92" d="M-866.4,745.6c-3.2,3.1-6.5,6.2-9.7,9.2c-2.1,2-4.3,4.1-6,6.6c-0.2-1.6-2.1-2.7-3.6-2.1
			c-1.5,0.6-2.1,2.7-1.2,4c0.9,1.3,2.8,1.5,4.4,1.5c0.4,0,0.9,0,1.2-0.1c0.4-0.2,0.7-0.5,1-0.8c4.6-4.7,9.5-9.2,14.7-13.2
			c1.1-0.8,2.2-1.8,2.6-3.1c0.3-1.3-0.7-3-2-2.7"/>
	</g>
	<g>
		<path fill="#79B132" d="M-866.6,743.4c-2.3,8-4.5,16.1-6.8,24.1c-1.8,6.5-3.7,13-4.1,19.8c1.8-2,3.4-4.1,4.7-6.5
			c1,3.9,2.5,7.7,4.5,11.2c2.7-4.5,3.7-5.3,5.8-10.1c2.6,3.9,3.5,3.5,6.2,7.7c0.9-2.5,1.6-5.1,2-7.7c2.8,2.1,5.6,4.1,8.5,6.2
			c0-3,0.1-6,0.1-8.9c2.6,1.9,5.2,3.8,7.8,5.7c-3.9-14.1-8.5-28-13.7-41.7c-0.1-0.4-0.3-0.8-0.7-1c-0.5-0.3-1,0-1.5,0.1
			c-4,1.4-8.4-0.1-12.7,0.1c-0.8,0-2,0.7-1.6,1.4"/>
	</g>
	<ellipse fill="#EFBB8E" cx="-860.1" cy="726.8" rx="27.3" ry="20"/>
	<g>
		<path fill="#F7E28B" d="M-870.1,714.5c-1.6,4.7-1.3,5.2-5,8.8c-3.7,3.6-8.9,5.5-14,5.1c-0.6,0-1.2-0.1-1.7-0.5
			c-0.5-0.4-0.8-1.1-0.9-1.8c-1-4.9,0.2-6.1,3.3-10.1c3.1-3.9,7.2-6.9,11.5-9.5c3-1.8,6.1-3.6,9.5-4.5c9.1-2.5,18.7,1,27,5.4
			c4.2,2.2,8.7,5.3,9.3,10c0.3,2.2-0.3-0.6-0.5,1.6c-0.2,2.2,0.2,4.7,1.9,6c-7.2,3.1-15.6,0.8-22.9-2
			C-859,720.4-864.8,720.3-870.1,714.5"/>
	</g>
	<g>
		<path fill="#79B132" d="M-888.1,701.5c4.6-10.9,14.4-19.1,25.4-23.2c11.1-4.1,23.3-4.4,34.9-2.3c-4.2,2.2-6.2,7.4-6,12.2
			c0.2,4.8,2.2,9.3,4.2,13.7c-14.6,0.7-28.2,11-42.7,8.8c-6.9-1-13.3-5.1-17.3-10.8"/>
	</g>
	<ellipse fill="#71973C" cx="-823.9" cy="676.9" rx="4.1" ry="3.8"/>
	<g>
		<path fill="#71973C" d="M-890.6,725.2c-3.2-9.8-4.1-20-4.3-30.3c7.4,2.4,14.6,5.3,21.5,8.6c2.5-7,6.6-13.4,12-18.4
			c5,2.7,9.8,5.8,14.2,9.4c2.5,2,5,4.5,5.7,7.6c4.3-3,8.8-5.8,13.5-8.3c-1,10.5-2.4,21-4.2,31.4c-2.8-3.2-6.3-5.8-10.1-7.7
			c-7.7-3.7-16.7-4.3-25-2.6C-875.7,716.6-883.5,720.4-890.6,725.2"/>
	</g>
	<ellipse fill="#532F17" cx="-871" cy="730.3" rx="1.5" ry="1.8"/>
	<ellipse fill="#532F17" cx="-849.6" cy="730.3" rx="1.5" ry="1.8"/>
	<path fill="#906A5C" d="M-858,736.5c-0.2,0.5-0.9,0.5-1.5,0.3c-0.4-0.1-0.5,0.1-0.1,0.3c0.8,0.5,2.1,0.5,2.4-0.6
		c0.3-1.1-0.7-2-1.8-2.1c-0.4,0-0.3,0.2,0,0.4C-859,734.8-857.6,735.6-858,736.5z"/>
	<g>
		<path fill="#E96160" d="M-862.7,740.8c1.9,1.1,5,1,6.6-0.6c0.3,0.7-0.2,1.4-0.8,1.8c-0.7,0.5-1.6,0.6-2.5,0.6
			c-1,0-1.7-0.2-2.5-0.6C-862.3,741.8-862.8,741.3-862.7,740.8"/>
	</g>
	<path fill="#80A4B8" d="M-904,729.6c1.6,2.7,21.3,33.3,23.2,36.4c0.1,0.1,0.3,0.2,0.4,0.1l1.2-0.8c0.1-0.1,0.2-0.3,0.1-0.4
		l-23.9-36c-0.1-0.1-0.3-0.2-0.4,0l-0.5,0.5C-904,729.4-904.1,729.5-904,729.6z"/>
	<polygon fill="#EABB38" points="-912.9,714.4 -912,722.5 -917.5,726.9 -910,728.5 -907.3,735.6 -904.4,728.6 -896.5,727.7 
		-901.4,722.5 -899.3,715.3 -906.9,718.2 	"/>
</g>
<g>
	<g>
		<g>
			<path fill="#C3C3C1" d="M-937.4,861c-16.8,0-27.3-18.6-18.3-32.7c1.8-2.9,4.2-5.5,7.1-7.6c7.5-5.6,17.1-8.1,26.4-7.3
				c8.6,0.7,16.5-4.4,20.4-12.1c1-1.9,2-3.7,3-5.1c3.8-5.4,8.4-10.2,14-13.5c18.5-11,36.7-10.5,54.8-2.4c7.5,3.4,16.6,2.1,22.7-3.5
				c9.2-8.4,21.7-13.3,34.2-15.2c15.7-2.4,31.9-0.7,46.8,4.9c10.2,3.8,18.4,10.2,25.1,18.8c2.6,3.3,4.5,7,5.8,10.9
				c3,8.9,11.7,14.2,21.1,14c8.3-0.2,16.6,2.3,23.3,7.3c4.3,3.2,7.7,8,10.1,13.4c6.4,14.1-4.2,30.1-19.7,30.1H-937.4z"/>
		</g>
	</g>
	<g>
		<g>
			<path fill="#FFFFFF" d="M-937.4,857.8c-16.8,0-27.3-18.6-18.3-32.7c1.8-2.9,4.2-5.5,7.1-7.6c7.5-5.6,17.1-8.1,26.4-7.3
				c8.6,0.7,16.5-4.4,20.4-12.1c1-1.9,2-3.7,3-5.1c3.8-5.4,8.4-10.2,14-13.5c18.5-11,36.7-10.5,54.8-2.4c7.5,3.4,16.6,2.1,22.7-3.5
				c9.2-8.4,21.7-13.3,34.2-15.2c15.7-2.4,31.9-0.7,46.8,4.9c10.2,3.8,18.4,10.2,25.1,18.8c2.6,3.3,4.5,7,5.8,10.9
				c3,8.9,11.7,14.2,21.1,14c8.3-0.2,16.6,2.3,23.3,7.3c4.3,3.2,7.7,8,10.1,13.4c6.4,14.1-4.2,30.1-19.7,30.1H-937.4z"/>
		</g>
	</g>
</g>
</svg>
