<?xml version="1.0" encoding="utf-8"?>
<!-- Generator: Adobe Illustrator 18.0.0, SVG Export Plug-In . SVG Version: 6.00 Build 0)  -->
<!DOCTYPE svg PUBLIC "-//W3C//DTD SVG 1.1//EN" "http://www.w3.org/Graphics/SVG/1.1/DTD/svg11.dtd">
<svg version="1.1" id="图层_1" xmlns="http://www.w3.org/2000/svg" xmlns:xlink="http://www.w3.org/1999/xlink" x="0px" y="0px"
	 width="320px" height="320px" viewBox="0 0 320 320" enable-background="new 0 0 320 320" xml:space="preserve">
<g>
	<g>
		<path fill="#E8F1FA" d="M170.5,171.8c-22.2-0.8-43.5-13.8-54.4-33.1c-10.8-19-11.4-41.8-12.4-63.5c-1-21.8-3.1-44.8-16.1-62.3
			c6.1,3.9,10,10.4,14.4,16.2c14.6,19.5,35.9,33.2,49.7,53.2c17.6,25.5,21.1,58.6,16.7,89.2"/>
	</g>
	<g>
		<path fill="#E8F1FA" d="M173.3,173c-7.3-9-14.6-18-21.9-27.1c-21.4-26.5-43.1-53.3-70.5-73.5C66.5,61.8,50.6,53.1,36,42.6
			S7.8,19.5,0,3.3c2.1,14.1,8.2,27.2,14.2,40.1C25.1,66.6,36,89.9,47.7,112.8c3.7,7.2,7.4,14.4,12.5,20.7
			c4.7,5.9,10.5,10.8,16.5,15.4c14.6,11.3,30.7,20.8,48.5,25.7s37.2,4.8,54.1-2.4"/>
	</g>
	<circle fill="#CA644F" cx="109" cy="35.6" r="7.7"/>
	<path fill="#D87053" d="M143.3,83.9c0,0,2.9-27.7-26.3-46.9c0,0,91.2-51.7,135.2,15.6l-11,23.3l-32.4,8.1l-44.2,9.3L143.3,83.9z"/>
	<g>
		<path fill="#F2BE93" d="M221.3,163.5c8.1,4.9,16.2,9.8,24.3,14.7c5.4,3.2,10.8,6.5,15.3,10.9c-0.3-3.4,3.1-6.5,6.4-6
			c3.3,0.5,5.6,4.6,4.2,7.7c-1.4,3.1-5.1,4.3-8.4,5.1c-0.9,0.2-1.8,0.4-2.6,0.3c-0.9-0.2-1.7-0.7-2.4-1.2
			c-11.5-7.7-23.7-14.7-36.2-20.6c-2.6-1.2-5.4-2.6-6.7-5.2c-1.3-2.6,0.1-6.6,3-6.6"/>
	</g>
	<path fill="#708F9C" d="M298.1,139.4c-2.8,3.6-33.1,47.3-36.2,51.4c-0.1,0.2-0.1,0.4,0.1,0.6l1.8,1.2c0.2,0.1,0.4,0.1,0.6-0.1
		l35.3-52.2c0.1-0.2,0.1-0.5-0.2-0.6l-0.9-0.4C298.4,139.3,298.2,139.3,298.1,139.4z"/>
	<polygon fill="#A778B2" points="313.6,119 303.3,124.7 294.3,119.8 296.2,130.7 288.2,138.3 299.2,138.4 304.8,148.5 309.1,139 
		320,137.8 311.9,129.2 	"/>
	<g>
		<path fill="#B55748" d="M188.8,246.3c-10.8,16.2-26.9,27.9-39.9,42.4c-3-1.7-6.1-3.1-9.3-4.3c8.9-19.6,20.6-38,32.2-56.3
			c5.2,8,13.2,13.5,21.1,18.9c-0.3,0.1-0.7,0.3-1,0.4"/>
	</g>
	<g>
		<path fill="#942D23" d="M139.1,282.5c3.6,2.6,7.5,4.7,11.6,6.3c0.4,0.2,0.6,0.7,0.3,1.1c-1.7,2.7-3.4,5.5-4.9,8.4
			c-0.2,0.3-0.1,0.7,0,0.9c0.7,0.8,1.4,1.6,2.4,2c1.1,0.5,2.6,0.4,3.6-0.3s1.3-2.1,0.9-3.4c2.2,1,1.9,4.9,0.1,6.9
			c-1.6,1.7-4,2.1-6.1,1.6c-2.1-0.5-3.9-1.7-5.6-2.9l-8.1-5.7c-0.9-0.7-1.3-1.9-0.8-3.1c1.7-4.1,3.8-8,6.3-11.7"/>
	</g>
	<g>
		<path fill="#CA644F" d="M202.3,244.1c-2,19.4-11.3,37.2-16.4,56c-3.7-0.1-7.4,0-11.1,0.4c-1.6-21.6,0.1-43.3,1.8-64.8
			c9.1,4.7,19.6,6,29.8,7.2c-0.2,0.3-0.5,0.5-0.7,0.8"/>
	</g>
	<g>
		<path fill="#F7C092" d="M261.7,75.8c3,10.4,4.5,21.3,4.2,32.1c-0.1,6.2-0.3,13.5,4.6,17.2c-0.3,3.2-4.2,5.4-7.1,4
			c-1.7,11.9-11.9,21.3-23.3,25c-11.4,3.7-23.9,2.6-35.6,0.1c-2.7-0.6-5.5-1.3-7.3-3.3c-1.6-1.7-2.2-4-2.7-6.3
			c-4.8-20.5-7.7-41.4-8.5-62.4c-0.2-3.9-0.1-8.3,2.4-11.3c2.1-2.5,5.5-3.5,8.7-4.3c11-2.9,22.1-5.8,33.4-5.3
			c11.3,0.5,23,5,29.6,14.3"/>
	</g>
	<g>
		<path fill="#D58B1F" d="M255.2,79.8c6,2.7,12.4,6.1,15.1,12.1c1.9,4.3,1.6,9.5-0.8,13.5c-0.3,0.5-0.7,1.1-1.3,1.3
			c-1,0.4-2-0.3-2.8-1c-9.9-7.7-21.6-13.3-33.8-16.1c6.4-4.8,14.4-7.6,22.4-7.8"/>
	</g>
	<g>
		<path fill="#41210D" d="M254.4,124.9c-0.4-0.6-0.5-1.4-0.5-2.1c-0.1-3,0.2-6.1,0.9-9.1c0.1-0.6,0.5-1.3,1-1.2
			c0.3,0,0.6,0.3,0.8,0.6c1,1.5,0.9,3.4,0.6,5.2c-0.2,1.8-0.5,3.7-0.9,5.5c-0.1,0.4-0.2,0.9-0.5,1.2c-0.3,0.3-0.8,0.5-1.2,0.2"/>
	</g>
	<path fill="#EA5C65" d="M246.9,151.4C246.9,151.4,246.9,151.4,246.9,151.4c-3.5-0.1-5.2-4.8-5.3-4.9c-0.1-0.3,0-0.7,0.4-0.8
		c0.3-0.1,0.7,0.1,0.8,0.4c0,0,1.5,4,4.1,4.1c0.4,0,0.6,0.3,0.6,0.7C247.5,151.2,247.2,151.4,246.9,151.4z"/>
	<g>
		<path fill="#D87053" d="M172.7,170.7c-12.9,22.9-32.3,41.3-48.5,62c6.3-2.5,12.5-5.1,18.8-7.6c2.4,7.5,4.3,15.2,5.9,23
			c6-3.5,11.9-7,17.9-10.5c4.7,7.5,9.1,15.2,13.3,23c4.5-4.9,9.2-9.7,14.2-14.1c3.2,7.6,7.5,14.7,12.7,21c1.5-6.5,3.4-13,5.9-19.2
			c5.6,6.7,10.8,13.7,15.8,20.8c-4.5-29.7-3.9-59.9-3.4-89.9c0.1-3.4,0.1-6.8,0.2-10.3"/>
	</g>
	<g>
		<path fill="#F2BE93" d="M214.5,173.9c4.7,8.2,9.5,16.4,14.2,24.6c3.1,5.4,6.3,10.9,8.1,16.9c1.4-3.1,5.9-4.2,8.5-2.1
			c2.7,2.1,2.7,6.7,0,8.8c-2.7,2.1-6.5,1.3-9.8,0.5c-0.9-0.2-1.8-0.5-2.4-1c-0.7-0.6-1.1-1.4-1.5-2.2c-6.4-12.3-13.7-24.2-21.8-35.5
			c-1.7-2.3-3.5-4.9-3.4-7.8c0.1-2.9,3.3-5.7,5.8-4.3"/>
	</g>
	<g>
		<path fill="#942D23" d="M173.5,299.1c4.7,0.7,9.5,0.8,14.3,0.4c0.5,0,0.9,0.4,0.9,0.9c-0.2,3.2-0.4,6.5-0.4,9.7
			c0,0.3,0.2,0.7,0.5,0.8c1.1,0.4,2.2,0.7,3.3,0.7c1.3-0.1,2.7-0.8,3.3-2c0.6-1.2,0.1-2.5-1-3.5c2.7-0.1,4.3,3.6,3.6,6.1
			c-0.6,2.2-2.8,3.7-5,4.2s-4.6,0.2-6.8-0.1l-10.6-1.4c-1.2-0.2-2.2-1.1-2.4-2.4c-0.5-4.4-0.5-8.9,0-13.4"/>
	</g>
	<g>
		<path fill="#E8F1FA" d="M168.7,180.3c-1.3,6.7-5.5,13.8-10.3,18.7s-10.2,7.6-15,8.5c-5.2,1-12.7-1-14-6.7
			c-1.1-4.9,1.2-11,6.7-15.9c5.1-4.6,10.7-8.2,15.3-9.9c4.7-1.7,7.6-4.5,11.2-2.7c1.6,0.8,2.7,1.6,4,2.8
			C167.8,176,169.1,176.8,168.7,180.3L168.7,180.3z"/>
	</g>
	<g>
		<path fill="#CA644F" d="M192.4,149c9.3,4.8,19.8,7.9,30.3,7c2,10.1,6.4,19.9,5.4,30.2c-2.3-3.6-4.7-7.2-7-10.8
			c-0.9,4.4-1.9,8.8-2.8,13.2c-4-4-8.3-7.7-12.8-11.2c-3.4,5.3-7.4,10.2-12,14.5c-4.1-5.4-6.9-11.4-8.2-20.4
			c-6.5,5.1-13.8,7.7-17.1,8.9c-1-3.1-0.5-6.4-0.1-9.7c0.6-3.9,1.1-7.8,1.7-11.7c0.1-0.8,0.3-1.7,0.8-2.3c0.5-0.6,1.2-0.9,1.8-1.2
			c7.7-3.5,15.8-7.2,24.2-6.5"/>
	</g>
	<g>
		<path fill="#D58B1F" d="M150.2,99.6c5.3,13.4,8.2,27.8,8.6,42.3c0.2,7.1-1.4,15.9-8.1,18.1c-2.9,1-6,0.5-8.9-0.4
			c-2.9-0.8-5.9-2.1-7.5-4.7c-1.6-2.5-1-6.6,1.8-7.7c2.8-1.1,6,3.1,3.8,5.1c3.3-2.4,4.6-7.1,3-10.8c-1.6-3.7-5.9-6.1-9.9-5.4
			c-4.1,0.7-7.2,4.2-8.3,8.2s-0.4,8.3,1.2,12.1c4.3,10.5,14.7,17.8,25.9,20c11.1,2.3,22.8,0.1,33.3-4.2c5.3-2.2,10.5-5,14.7-8.9
			c12.5-12,13.3-31.6,11.2-48.8c-0.9-7.4-2.2-14.7-3.8-21.9c-0.2-1.1-0.5-2.2-1.4-2.9c-0.8-0.6-1.9-0.7-2.9-0.7
			c-12.2-0.2-24.5,1.7-36.1,5.4c-5.1,1.6-10.4,3.7-15.6,2.7"/>
	</g>
	<path fill="#CA644F" d="M133.6,69.6c0,0,8.9,33.2,15.9,39.7c0,0,27.2,10.9,116.1-25.3c0,0-3.6-37.4-10.6-48.5l-12.7,21.2L202,26.9
		l-21.8,47.3L133.6,69.6z"/>
</g>
</svg>
