<?xml version="1.0" encoding="utf-8"?>
<!-- Generator: Adobe Illustrator 18.0.0, SVG Export Plug-In . SVG Version: 6.00 Build 0)  -->
<!DOCTYPE svg PUBLIC "-//W3C//DTD SVG 1.1//EN" "http://www.w3.org/Graphics/SVG/1.1/DTD/svg11.dtd">
<svg version="1.1" id="图层_1" xmlns="http://www.w3.org/2000/svg" xmlns:xlink="http://www.w3.org/1999/xlink" x="0px" y="0px"
	 width="320px" height="320px" viewBox="0 0 320 320" enable-background="new 0 0 320 320" xml:space="preserve">
<g>
	<g>
		<path fill="#E8F1FA" d="M176.1,224c3.2-11.2,6.4-22.3,9.6-33.5c9.4-32.8,19-65.9,36.4-95.2c9.2-15.5,20.4-29.6,29.8-45
			C261.3,35,268.9,18,269.8,0c3.6,13.8,3.1,28.3,2.5,42.5c-1,25.7-2,51.4-3.8,77c-0.6,8.1-1.2,16.2-3.4,24
			c-2.1,7.3-5.5,14.1-9.2,20.7c-9,16.1-20.2,31.2-34.7,42.6c-14.5,11.4-32.4,19-50.9,18.9"/>
	</g>
	<g>
		<path fill="#E8F1FA" d="M163.6,220.8c-28.7,0.2-57-15.3-72.3-39.6c-15-23.9-17.1-53.3-19.7-81.4S65,42.2,47.3,20.3
			c8.2,4.7,13.6,12.8,19.5,20.1c19.9,24.3,48.3,40.8,67.4,65.9c24.2,31.9,30.6,74.4,26.7,114.3"/>
	</g>
	<g>
		<path fill="#E8F1FA" d="M175.4,229c-7.4-3.8-16.7-3.1-24.1,0.8c-7.4,3.9-12.9,10.8-16.4,18.4c-3.7,8.2-5,18.4,0,25.9
			c4.3,6.5,12.9,9.6,20.6,8.4c7.7-1.3,14.5-6.4,18.7-13.1c4.2-6.6,6-14.6,6.1-22.4c0.1-3.5-0.2-7-1.8-10.1c-1.6-3.1-4.7-5.6-8.1-5.5
			"/>
	</g>
	<g>
		<path fill="#E8F1FA" d="M186.3,228.2c7.4-3.8,16.7-3.1,24.1,0.8s12.9,10.8,16.4,18.4c3.7,8.2,5,18.4,0,25.9
			c-4.3,6.5-12.9,9.6-20.6,8.4c-7.7-1.3-14.5-6.4-18.7-13.1c-4.2-6.6-6-14.6-6.1-22.4c-0.1-3.5,0.2-7,1.8-10.1
			c1.6-3.1,4.7-5.6,8.1-5.5"/>
	</g>
	<g>
		<path fill="#F8E38C" d="M108.3,255.1c4.7,4.1,10.8,7.2,17,6.7c6.3-0.4,12.4-5.1,13.1-11.4c0.8-7.8-6.4-13.7-10.7-20.2
			c-4.1-6.1-5.9-13.6-6.7-20.9c-2.3-20.7,2.6-42.6,15.4-59c12.8-16.5,33.7-26.9,54.4-25.2c20.8,1.7,40.4,16.4,46.1,36.4
			c6.6,23.3-5.2,48.3-1,72.2c1,5.8,4,12.3,9.8,13.3c4.3,0.7,8.6-2.1,10.6-5.9c2-3.8,2.2-8.4,1.6-12.6c3.4,6.6,5.6,14.3,3.7,21.5
			s-8.9,13.4-16.3,12.2c-9.3-1.5-13.5-12.7-21.6-17.7c-8.4-5.3-19.4-3-29-0.4c-11.8,3.1-23.6,6.2-34.5,11.4
			c-8.9,4.3-17.3,10-27,11.9c-9.7,1.9-21.5-1.6-25-10.8"/>
	</g>
	<g>
		<path fill="#6E9839" d="M166.2,271.6c2.8,12.2,4.5,24.6,4.9,37.1c3.3,0,6.5,0,9.8,0c-0.7-9.6,1.8-19.2,1.9-28.8
			c0-5.5-0.7-11,0-16.4c-3.6,0.6-7.2,1.4-10.7,2.5c-3,0.8-6.5,2.5-6.7,5.6"/>
	</g>
	<g>
		<path fill="#9F5123" d="M169.9,303.7c0,3.1,0.2,6.9-0.3,10c-1.8-0.1-3.5,0.1-5.3,0.5c0-1.5-0.3-3.1-0.9-4.5
			c-2-0.1-3.7,1.8-3.9,3.8c-0.1,2,1.1,3.9,2.8,5c1.7,1.1,3.8,1.4,5.8,1.4c4.1-0.1,8.1-1.7,11.7-3.6c0.2-0.1,0.5-0.2,0.6-0.4
			c0.2-0.3,0.3-0.6,0.3-1c0.6-3.7,0.7-7.4,0.3-11.2C177.5,305.1,173.4,305.1,169.9,303.7z"/>
	</g>
	<g>
		<path fill="#6E9839" d="M205.1,271.6c-2.8,12.2-4.5,24.6-4.9,37.1c-3.3,0-6.5,0-9.8,0c0.7-9.6-1.8-19.2-1.9-28.8
			c0-5.5,0.7-11,0-16.4c3.6,0.6,7.2,1.4,10.7,2.5c3,0.8,6.5,2.5,6.7,5.6"/>
	</g>
	<g>
		<path fill="#9F5123" d="M201.4,303.7c0,3.1-0.2,6.9,0.3,10c1.8-0.1,3.5,0.1,5.3,0.5c0-1.5,0.3-3.1,0.9-4.5c2-0.1,3.7,1.8,3.9,3.8
			c0.1,2-1.1,3.9-2.8,5c-1.7,1.1-3.8,1.4-5.8,1.4c-4.1-0.1-8.1-1.7-11.7-3.6c-0.2-0.1-0.5-0.2-0.6-0.4c-0.2-0.3-0.3-0.6-0.3-1
			c-0.6-3.7-0.7-7.4-0.3-11.2C193.8,305.1,197.9,305.1,201.4,303.7z"/>
	</g>
	<g>
		<path fill="#F2BE93" d="M197.3,205.5c5.4,5.1,10.8,10.3,16.2,15.4c3.6,3.4,7.2,6.8,9.9,10.9c0.3-2.6,3.5-4.5,6-3.5
			c2.5,1,3.5,4.5,1.9,6.6c-1.6,2.2-4.6,2.5-7.3,2.5c-0.7,0-1.4,0-2.1-0.2c-0.7-0.3-1.2-0.8-1.7-1.3c-7.6-7.9-15.8-15.2-24.4-22
			c-1.8-1.4-3.7-2.9-4.3-5.1s1.2-5,3.4-4.6"/>
	</g>
	<g>
		<path fill="#F2BE93" d="M171.7,205.5c-5.4,5.1-10.8,10.3-16.2,15.4c-3.6,3.4-7.2,6.8-9.9,10.9c-0.3-2.6-3.5-4.5-6-3.5
			c-2.5,1-3.5,4.5-1.9,6.6c1.6,2.2,4.6,2.5,7.3,2.5c0.7,0,1.4,0,2.1-0.2c0.7-0.3,1.2-0.8,1.7-1.3c7.6-7.9,15.8-15.2,24.4-22
			c1.8-1.4,3.7-2.9,4.3-5.1s-1.2-5-3.4-4.6"/>
	</g>
	<g>
		<path fill="#7AB233" d="M171.4,201.9c-3.8,13.4-7.5,26.8-11.3,40.1c-3,10.8-6.1,21.7-6.8,32.9c3-3.3,5.6-6.9,7.8-10.8
			c1.6,6.5,4.2,12.8,7.5,18.6c4.5-7.5,6.1-8.9,9.6-16.9c4.3,6.5,5.8,5.8,10.4,12.7c1.5-4.2,2.6-8.5,3.4-12.9
			c4.7,3.4,9.4,6.8,14.1,10.3c0.1-5,0.1-9.9,0.2-14.9c4.3,3.1,8.6,6.3,12.9,9.4c-6.5-23.5-14.1-46.7-22.9-69.5
			c-0.2-0.6-0.5-1.3-1.1-1.6c-0.8-0.4-1.7-0.1-2.5,0.2c-6.7,2.3-14.1-0.1-21.1,0.2c-1.4,0.1-3.3,1.1-2.6,2.3"/>
	</g>
	<ellipse fill="#F0BB8F" cx="182.3" cy="174.1" rx="45.4" ry="33.3"/>
	<g>
		<path fill="#F8E38C" d="M165.6,153.7c-2.7,7.8-2.2,8.7-8.3,14.6c-6.1,5.9-14.8,9.1-23.3,8.5c-1-0.1-2-0.2-2.8-0.8
			c-0.9-0.7-1.3-1.9-1.5-3c-1.7-8.2,0.3-10.2,5.4-16.8s12.1-11.4,19.2-15.8c5-3.1,10.2-5.9,15.8-7.5c15.1-4.2,31.1,1.6,44.9,9
			c7,3.7,14.4,8.8,15.5,16.6c0.5,3.6-0.5-1-0.8,2.6c-0.3,3.6,0.3,7.7,3.2,10c-11.9,5.2-26,1.4-38.1-3.4
			C184,163.5,174.4,163.3,165.6,153.7"/>
	</g>
	<g>
		<path fill="#7AB233" d="M135.6,132c7.6-18.1,23.9-31.9,42.3-38.7c18.4-6.9,38.8-7.3,58.2-3.8c-7.1,3.7-10.3,12.4-10,20.4
			c0.4,8,3.7,15.5,6.9,22.8c-24.4,1.1-47,18.3-71.1,14.7c-11.5-1.7-22.2-8.4-28.8-18.1"/>
	</g>
	<ellipse fill="#71983C" cx="242.5" cy="91.1" rx="6.8" ry="6.4"/>
	<g>
		<path fill="#71983C" d="M131.4,171.5c-5.3-16.3-6.8-33.3-7.2-50.4c12.2,4,24.2,8.8,35.9,14.3c4.1-11.6,11.1-22.3,20.1-30.7
			c8.3,4.4,16.3,9.7,23.6,15.7c4.2,3.4,8.4,7.4,9.5,12.7c7.2-5,14.7-9.7,22.4-13.9c-1.6,17.5-3.9,35-7,52.3
			c-4.7-5.3-10.5-9.7-16.8-12.8c-12.8-6.2-27.8-7.2-41.7-4.4C156.2,157.1,143.2,163.6,131.4,171.5"/>
	</g>
	<ellipse fill="#532F17" cx="164.1" cy="180" rx="2.5" ry="3"/>
	<ellipse fill="#532F17" cx="199.7" cy="180" rx="2.5" ry="3"/>
	<path fill="#906A5C" d="M185.7,190.4c-0.3,0.8-1.5,0.8-2.5,0.5c-0.7-0.2-0.8,0.1-0.2,0.5c1.4,0.9,3.4,0.8,4-1
		c0.6-1.9-1.2-3.3-2.9-3.5c-0.7-0.1-0.6,0.3,0,0.7C184,187.6,186.4,188.8,185.7,190.4z"/>
	<g>
		<path fill="#E96160" d="M177.9,197.5c3.1,1.9,8.4,1.7,10.9-0.9c0.5,1.1-0.3,2.4-1.3,3.1c-1.2,0.8-2.7,1-4.1,1
			c-1.6,0-2.8-0.4-4.1-1C178.6,199.2,177.7,198.3,177.9,197.5"/>
	</g>
	<path fill="#81A5B9" d="M109.1,178.9c2.6,4.5,35.6,55.5,38.6,60.6c0.1,0.2,0.4,0.3,0.6,0.2l2.1-1.4c0.2-0.1,0.3-0.4,0.1-0.6
		l-39.8-60c-0.2-0.2-0.5-0.3-0.7-0.1l-0.8,0.8C109,178.5,109,178.7,109.1,178.9z"/>
	<polygon fill="#EABB39" points="94.2,153.6 95.8,167 86.7,174.4 99.1,177.1 103.5,188.8 108.5,177.3 121.6,175.7 113.4,167.1 
		116.8,155 104.2,159.9 	"/>
</g>
</svg>
