<?xml version="1.0" encoding="utf-8"?>
<!-- Generator: Adobe Illustrator 18.0.0, SVG Export Plug-In . SVG Version: 6.00 Build 0)  -->
<!DOCTYPE svg PUBLIC "-//W3C//DTD SVG 1.1//EN" "http://www.w3.org/Graphics/SVG/1.1/DTD/svg11.dtd">
<svg version="1.1" id="图层_1" xmlns="http://www.w3.org/2000/svg" xmlns:xlink="http://www.w3.org/1999/xlink" x="0px" y="0px"
	 width="320px" height="330.5px" viewBox="0 0 320 330.5" enable-background="new 0 0 320 330.5" xml:space="preserve">
<g>
	<g>
		<path fill="#E8F1FA" d="M185.8,192.8c2.8-9.6,5.5-19.2,8.3-28.8c8.1-28.2,16.3-56.7,31.3-82c7.9-13.3,17.6-25.5,25.7-38.7
			c8.1-13.2,14.7-27.8,15.4-43.3c3.1,11.9,2.6,24.3,2.2,36.6c-0.9,22.1-1.7,44.2-3.3,66.3c-0.5,6.9-1,13.9-2.9,20.6
			c-1.8,6.3-4.7,12.1-7.9,17.8c-7.8,13.8-17.4,26.8-29.9,36.7c-12.4,9.8-27.9,16.3-43.8,16.2"/>
	</g>
	<g>
		<path fill="#E8F1FA" d="M175,190.1c-24.7,0.2-49.1-13.2-62.2-34.1c-12.9-20.5-14.7-45.9-16.9-70c-2.2-24.2-5.7-49.7-21-68.5
			c7,4,11.7,11,16.8,17.3c17.2,20.9,41.6,35.2,58,56.7c20.9,27.4,26.4,64.1,23,98.4"/>
	</g>
	<g>
		<path fill="#E8F1FA" d="M185.2,197.1c-6.4-3.3-14.4-2.7-20.8,0.7c-6.4,3.4-11.1,9.3-14.1,15.9c-3.2,7.1-4.3,15.8,0,22.3
			c3.7,5.6,11.1,8.3,17.8,7.2s12.5-5.5,16.1-11.2c3.6-5.7,5.1-12.6,5.2-19.3c0-3-0.2-6-1.6-8.7c-1.4-2.6-4-4.8-7-4.8"/>
	</g>
	<g>
		<path fill="#E8F1FA" d="M194.6,196.4c6.4-3.3,14.4-2.7,20.8,0.7s11.1,9.3,14.1,15.9c3.2,7.1,4.3,15.8,0,22.3
			c-3.7,5.6-11.1,8.3-17.8,7.2c-6.7-1.1-12.5-5.5-16.1-11.2c-3.6-5.7-5.1-12.6-5.2-19.3c0-3,0.2-6,1.6-8.7c1.4-2.6,4-4.8,7-4.8"/>
	</g>
	<g>
		<path fill="#F8E38C" d="M127.4,219.6c4.1,3.5,9.3,6.2,14.7,5.8s10.7-4.4,11.2-9.8c0.7-6.7-5.5-11.8-9.2-17.4
			c-3.5-5.3-5-11.7-5.7-18c-2-17.8,2.3-36.6,13.2-50.8s29-23.2,46.9-21.7c17.9,1.5,34.8,14.1,39.7,31.4c5.7,20.1-4.5,41.6-0.9,62.1
			c0.9,5,3.4,10.6,8.4,11.5c3.7,0.6,7.4-1.8,9.1-5.1c1.8-3.3,1.9-7.2,1.4-10.9c2.9,5.7,4.8,12.3,3.2,18.5c-1.6,6.2-7.7,11.5-14,10.5
			c-8-1.3-11.7-10.9-18.6-15.3c-7.3-4.6-16.7-2.6-25-0.4c-10.1,2.6-20.3,5.3-29.7,9.9c-7.7,3.7-14.9,8.6-23.3,10.2
			c-8.3,1.6-18.5-1.4-21.5-9.3"/>
	</g>
	<g>
		<path fill="#6E9839" d="M177.2,233.7c2.4,10.5,3.9,21.2,4.3,31.9c2.8,0,5.6,0,8.4,0c-0.6-8.3,1.6-16.5,1.6-24.8
			c0-4.7-0.6-9.4,0-14.1c-3.1,0.5-6.2,1.2-9.2,2.1c-2.6,0.7-5.6,2.1-5.8,4.8"/>
	</g>
	<g>
		<path fill="#9F5123" d="M180.4,261.4c0,2.7,0.2,5.9-0.2,8.6c-1.5-0.1-3,0.1-4.5,0.4c0-1.3-0.3-2.6-0.8-3.8c-1.7,0-3.2,1.6-3.3,3.3
			c-0.1,1.7,0.9,3.4,2.4,4.3s3.2,1.2,5,1.2c3.6-0.1,6.9-1.5,10.1-3.1c0.2-0.1,0.4-0.2,0.5-0.4c0.2-0.2,0.2-0.5,0.3-0.8
			c0.5-3.2,0.6-6.4,0.3-9.6C187,262.6,183.5,262.6,180.4,261.4z"/>
	</g>
	<g>
		<path fill="#6E9839" d="M210.7,233.7c-2.4,10.5-3.9,21.2-4.3,31.9c-2.8,0-5.6,0-8.4,0c0.6-8.3-1.6-16.5-1.6-24.8
			c0-4.7,0.6-9.4,0-14.1c3.1,0.5,6.2,1.2,9.2,2.1c2.6,0.7,5.6,2.1,5.8,4.8"/>
	</g>
	<g>
		<path fill="#9F5123" d="M207.6,261.4c0,2.7-0.2,5.9,0.2,8.6c1.5-0.1,3,0.1,4.5,0.4c0-1.3,0.3-2.6,0.8-3.8c1.7,0,3.2,1.6,3.3,3.3
			c0.1,1.7-0.9,3.4-2.4,4.3c-1.5,0.9-3.2,1.2-5,1.2c-3.6-0.1-6.9-1.5-10.1-3.1c-0.2-0.1-0.4-0.2-0.5-0.4c-0.2-0.2-0.2-0.5-0.3-0.8
			c-0.5-3.2-0.6-6.4-0.3-9.6C201.1,262.6,204.5,262.6,207.6,261.4z"/>
	</g>
	<g>
		<path fill="#F2BE93" d="M204.1,176.9c4.7,4.4,9.3,8.8,14,13.3c3.1,2.9,6.2,5.9,8.5,9.4c0.3-2.3,3-3.9,5.1-3c2.1,0.8,3,3.9,1.7,5.7
			c-1.3,1.9-4,2.1-6.3,2.2c-0.6,0-1.2,0-1.8-0.2c-0.6-0.2-1-0.7-1.4-1.1c-6.5-6.8-13.6-13.1-21-18.9c-1.5-1.2-3.2-2.5-3.7-4.4
			c-0.5-1.9,1-4.3,2.9-3.9"/>
	</g>
	<g>
		<path fill="#F2BE93" d="M182,176.9c-4.7,4.4-9.3,8.8-14,13.3c-3.1,2.9-6.2,5.9-8.5,9.4c-0.3-2.3-3-3.9-5.1-3
			c-2.1,0.8-3,3.9-1.7,5.7c1.3,1.9,4,2.1,6.3,2.2c0.6,0,1.2,0,1.8-0.2c0.6-0.2,1-0.7,1.4-1.1c6.5-6.8,13.6-13.1,21-18.9
			c1.5-1.2,3.2-2.5,3.7-4.4c0.5-1.9-1-4.3-2.9-3.9"/>
	</g>
	<g>
		<path fill="#7AB233" d="M181.8,173.7c-3.2,11.5-6.5,23-9.7,34.6c-2.6,9.3-5.2,18.7-5.9,28.4c2.6-2.8,4.8-5.9,6.7-9.3
			c1.4,5.6,3.6,11,6.5,16c3.9-6.4,5.2-7.6,8.3-14.5c3.7,5.6,5,5,8.9,11c1.3-3.6,2.2-7.3,2.9-11.1c4,2.9,8.1,5.9,12.1,8.8
			c0-4.3,0.1-8.6,0.1-12.8c3.7,2.7,7.4,5.4,11.1,8.1c-5.6-20.2-12.2-40.2-19.7-59.8c-0.2-0.5-0.4-1.1-0.9-1.4
			c-0.7-0.4-1.5-0.1-2.2,0.2c-5.8,2-12.1-0.1-18.2,0.2c-1.2,0.1-2.8,1-2.2,2"/>
	</g>
	<ellipse fill="#F0BB8F" cx="191.1" cy="149.9" rx="39.1" ry="28.7"/>
	<g>
		<path fill="#F8E38C" d="M176.8,132.3c-2.4,6.7-1.9,7.5-7.2,12.6c-5.2,5.1-12.7,7.8-20,7.4c-0.9-0.1-1.7-0.2-2.4-0.7
			c-0.8-0.6-1.1-1.6-1.3-2.6c-1.4-7,0.3-8.8,4.7-14.5s10.4-9.8,16.5-13.6c4.3-2.6,8.8-5.1,13.6-6.4c13-3.6,26.8,1.4,38.7,7.7
			c6,3.2,12.4,7.6,13.3,14.3c0.4,3.1-0.5-0.9-0.7,2.2c-0.3,3.1,0.3,6.7,2.8,8.6c-10.3,4.5-22.4,1.2-32.8-2.9
			C192.6,140.7,184.4,140.6,176.8,132.3"/>
	</g>
	<g>
		<path fill="#7AB233" d="M151,113.6c6.6-15.6,20.6-27.4,36.4-33.3c15.9-5.9,33.4-6.3,50.1-3.3c-6.1,3.2-8.9,10.7-8.6,17.5
			c0.3,6.9,3.2,13.3,6,19.6c-21,1-40.4,15.8-61.2,12.6c-9.9-1.5-19.1-7.3-24.8-15.6"/>
	</g>
	<ellipse fill="#71983C" cx="242.9" cy="78.4" rx="5.8" ry="5.5"/>
	<g>
		<path fill="#71983C" d="M147.3,147.7c-4.6-14-5.8-28.7-6.2-43.4c10.5,3.5,20.9,7.6,30.9,12.3c3.6-10,9.5-19.2,17.3-26.4
			c7.2,3.8,14,8.3,20.3,13.5c3.6,2.9,7.2,6.4,8.2,10.9c6.2-4.3,12.7-8.3,19.3-12c-1.4,15.1-3.4,30.1-6,45c-4.1-4.6-9-8.3-14.5-11
			c-11-5.4-23.9-6.2-35.9-3.8C168.7,135.3,157.5,140.8,147.3,147.7"/>
	</g>
	<ellipse fill="#532F17" cx="175.5" cy="154.9" rx="2.2" ry="2.6"/>
	<ellipse fill="#532F17" cx="206.1" cy="154.9" rx="2.2" ry="2.6"/>
	<path fill="#906A5C" d="M194.1,163.8c-0.3,0.7-1.3,0.7-2.1,0.5c-0.6-0.2-0.7,0.1-0.2,0.4c1.2,0.8,3,0.7,3.4-0.9
		c0.5-1.6-1-2.9-2.5-3c-0.6-0.1-0.5,0.2,0,0.6C192.6,161.4,194.6,162.5,194.1,163.8z"/>
	<g>
		<path fill="#E96160" d="M187.4,170c2.7,1.6,7.2,1.4,9.4-0.8c0.4,1-0.2,2.1-1.1,2.7c-1,0.7-2.3,0.9-3.6,0.9c-1.4,0-2.4-0.3-3.5-0.9
			C187.9,171.5,187.2,170.7,187.4,170"/>
	</g>
	<g>
		<path fill="#81A5B9" d="M128.1,154c2.2,3.9,30.6,47.8,33.2,52.2c0.1,0.2,0.4,0.2,0.5,0.1l1.8-1.2c0.2-0.1,0.2-0.4,0.1-0.6
			l-34.3-51.6c-0.1-0.2-0.4-0.2-0.6-0.1l-0.7,0.7C128.1,153.6,128,153.8,128.1,154z"/>
		<polygon fill="#C39A33" points="112.2,127.5 114.1,142.8 103.6,151.3 117.8,154.4 122.9,167.8 128.5,154.6 143.5,152.8 
			134.2,142.9 138.1,129.1 123.6,134.7 		"/>
		<polygon fill="#EABB39" points="115.3,132.2 116.7,143.7 108.8,150.1 119.5,152.4 123.3,162.5 127.6,152.6 138.9,151.2 
			131.8,143.8 134.8,133.4 123.9,137.6 		"/>
	</g>
</g>
<path fill="#FFFFFF" d="M1.6,330.5l315.4,0c0.8,0,1.4-0.5,1.5-1.3c10.3-63.5-35.1-122.5-103.5-115.7c0,0-38.6,3-66.9,37.8
	c0,0-18.6-14.2-51-12.9C44.2,240.8,10.9,265,0,329C-0.1,329.8,0.7,330.5,1.6,330.5z"/>
</svg>
