<?xml version="1.0" encoding="utf-8"?>
<!-- Generator: Adobe Illustrator 18.0.0, SVG Export Plug-In . SVG Version: 6.00 Build 0)  -->
<!DOCTYPE svg PUBLIC "-//W3C//DTD SVG 1.1//EN" "http://www.w3.org/Graphics/SVG/1.1/DTD/svg11.dtd">
<svg version="1.1" id="图层_1" xmlns="http://www.w3.org/2000/svg" xmlns:xlink="http://www.w3.org/1999/xlink" x="0px" y="0px"
	 viewBox="0 0 1920 1080" enable-background="new 0 0 1920 1080" xml:space="preserve" width="1920px" height="1080px">
<g>
	<g>
		<path fill="#20532C" d="M1787.8,1021.2c-8.6-6.2-20.3-1.2-30.2,2.5c-5.6,2.1-11.8,3.8-17.5,1.8c-5.6-2-9.8-9-6.7-14.1
			c4.5-7.5,19-4.4,22-12.7c2.2-6.2-4.6-11.7-6.5-18c-2.5-8,4.2-16.8,12.4-18.6c5.7-1.3,13.2-0.6,15.9-5.9
			c4.4-8.6-11.5-19.3-5.4-26.9c4.6-5.7,15.7-0.3,20.2-6.1c3.3-4.2-0.1-10.1-3-14.5s-4.8-11.5-0.2-14.2c2.2-1.3,5.1-0.8,7.5-1.6
			c5-1.7,6.7-8,6.6-13.3c-0.1-5.3-1.1-11,1.7-15.6c2.6-4.4,8.4-6.5,13.4-5.1c4.9,1.4,8.7,6,9.5,11c1.1,6.2-1.4,13.8,3.2,18.1
			c3.9,3.5,10.3,2.1,14.8,4.7c4.9,2.9,5.8,10.7,1.6,14.6c-3.5,3.2-10.1,5.4-8.7,9.9c1.3,3.8,6.8,3.1,10.8,3.7
			c8.3,1.2,12.4,13.3,6.5,19.3c-4.1,4.2-12,6.3-11.9,12.2c0.2,6.8,9.9,5.1,16.4,7.4c10.3,3.6,19.7,14.7,12.4,22.7
			c-1.9,2-4.2,3.6-5.8,5.9s-2,5.7,0,7.6c6.2,3.3,16.3,3.5,21.2,5c4.9,1.5,5.2,9.4,3.6,14.3c-0.8,2.5-2.9,4.4-5.1,5.9
			c-7.5,5.3-10.9,5.5-20.1,4.8c-9.8-0.8-20.1-5-29.1-1c-2.7,1.2-5,3.1-7.6,4.5C1819.5,1034.9,1799.4,1031.6,1787.8,1021.2"/>
	</g>
	<g>
		<path fill="#335E2F" d="M1372.7,895.7c-11.5-8.3-27.1-1.6-40.3,3.4c-7.5,2.8-15.8,5.1-23.3,2.4s-13-12.1-8.9-18.9
			c6.1-10.1,25.4-5.9,29.4-17c3-8.3-6.2-15.6-8.7-24c-3.3-10.7,5.6-22.4,16.5-24.9c7.7-1.7,17.6-0.9,21.2-7.9
			c5.9-11.5-15.3-25.8-7.1-35.9c6.1-7.6,21-0.4,27-8.1c4.3-5.6-0.1-13.5-4-19.4s-6.4-15.3-0.3-18.9c3-1.7,6.8-1.1,10-2.2
			c6.7-2.2,8.9-10.7,8.8-17.8c-0.1-7.1-1.4-14.7,2.2-20.8c3.5-5.9,11.3-8.6,17.8-6.8c6.6,1.9,11.6,8,12.7,14.7
			c1.4,8.3-1.9,18.5,4.3,24.1c5.2,4.7,13.7,2.8,19.8,6.3c6.6,3.8,7.7,14.3,2.1,19.5c-4.7,4.3-13.6,7.3-11.6,13.3
			c1.7,5.1,9,4.1,14.4,4.9c11.1,1.6,16.5,17.8,8.7,25.7c-5.5,5.6-16,8.4-15.8,16.2c0.2,9.1,13.3,6.8,21.9,9.9
			c13.8,4.9,26.3,19.6,16.5,30.3c-2.5,2.7-5.6,4.8-7.7,7.8c-2.1,3-2.7,7.6,0,10.1c8.3,4.4,21.8,4.6,28.3,6.7s6.9,12.6,4.8,19.1
			c-1.1,3.4-3.9,5.8-6.8,7.9c-10,7.1-14.6,7.4-26.8,6.5c-13.1-1-26.9-6.7-38.9-1.3c-3.6,1.6-6.7,4.1-10.1,6
			C1415.2,914,1388.3,909.6,1372.7,895.7"/>
	</g>
	<polygon fill="#1A4323" points="141.8,1075.3 70.3,862.9 2.1,1075.3 	"/>
	<polygon fill="#1A4323" points="1349.5,875.3 1299.4,726.3 1251.5,875.3 	"/>
	<polygon fill="#335E2F" points="1095.6,859.5 1045.4,710.6 997.6,859.5 	"/>
	<polygon fill="#1A4323" points="578.7,980.9 476.7,678.2 379.5,980.9 	"/>
	<polygon fill="#335E2F" points="1737.5,754.4 1798.1,955 1667.5,950.9 	"/>
	<g>
		<path fill="#1E502A" d="M241.3,985.5c9.3-7.1,22.5-2.2,33.7,1.5c6.3,2.1,13.3,3.6,19.5,1.2s10.5-10.3,6.8-15.7
			c-5.4-8-21.3-4-25-12.9c-2.7-6.7,4.6-13,6.5-19.9c2.4-8.8-5.4-18.2-14.5-19.8c-6.4-1.2-14.7-0.1-17.9-5.7
			c-5.3-9.2,11.9-21.6,4.8-29.6c-5.3-6-17.5,0.3-22.7-5.8c-3.8-4.4-0.3-11,2.7-16s4.9-12.8-0.3-15.5c-2.5-1.3-5.6-0.7-8.4-1.5
			c-5.7-1.6-7.8-8.5-7.9-14.3s0.7-12.1-2.5-17c-3.1-4.7-9.6-6.7-15.1-5c-5.4,1.8-9.4,6.9-10.1,12.4c-0.9,6.8,2.2,15-2.8,19.9
			c-4.2,4-11.3,2.7-16.3,5.8c-5.3,3.3-6,12-1.2,16c4,3.4,11.5,5.5,10.1,10.5c-1.2,4.3-7.4,3.7-11.8,4.5c-9.2,1.7-13.2,15-6.4,21.3
			c4.8,4.4,13.6,6.3,13.7,12.8c0.1,7.5-10.8,6-17.9,8.8c-11.3,4.4-21.3,16.9-12.8,25.3c2.1,2.1,4.8,3.7,6.6,6.2
			c1.8,2.4,2.5,6.1,0.3,8.3c-6.7,3.9-18,4.5-23.3,6.4c-5.4,1.9-5.3,10.5-3.4,15.8c1,2.7,3.4,4.7,5.9,6.2c8.6,5.5,12.4,5.6,22.5,4.4
			c10.9-1.2,22.1-6.4,32.3-2.3c3,1.2,5.7,3.1,8.6,4.5C206.5,1001.8,228.8,997.4,241.3,985.5"/>
	</g>
	<g>
		<path fill="#335E2F" d="M868.5,882.1c8.9-6.8,21.6-2.1,32.3,1.4c6,2,12.8,3.5,18.7,1.2s10.1-9.9,6.6-15.1
			c-5.1-7.7-20.5-3.9-24-12.4c-2.6-6.4,4.4-12.5,6.3-19.2c2.3-8.5-5.1-17.5-13.9-19c-6.2-1.1-14.1-0.1-17.2-5.5
			c-5.1-8.9,11.5-20.8,4.6-28.4c-5.1-5.8-16.8,0.3-21.8-5.5c-3.6-4.3-0.3-10.6,2.6-15.4c2.9-4.8,4.7-12.3-0.3-14.9
			c-2.4-1.3-5.4-0.7-8.1-1.4c-5.4-1.5-7.5-8.1-7.6-13.7c-0.1-5.6,0.7-11.6-2.4-16.3c-3-4.5-9.3-6.4-14.5-4.8c-5.2,1.7-9,6.6-9.7,12
			c-0.9,6.6,2.1,14.4-2.7,19.1c-4,3.9-10.9,2.6-15.6,5.6c-5.1,3.2-5.7,11.5-1.1,15.4c3.9,3.2,11.1,5.3,9.7,10.1
			c-1.2,4.1-7.1,3.5-11.3,4.3c-8.8,1.6-12.7,14.5-6.2,20.5c4.6,4.3,13.1,6.1,13.1,12.3c0.1,7.2-10.4,5.8-17.2,8.4
			c-10.8,4.2-20.5,16.2-12.3,24.4c2.1,2,4.6,3.6,6.4,5.9c1.7,2.3,2.4,5.9,0.3,7.9c-6.5,3.7-17.3,4.3-22.4,6.1s-5.1,10.1-3.2,15.2
			c1,2.6,3.3,4.5,5.7,6c8.2,5.3,11.9,5.4,21.7,4.3c10.4-1.2,21.3-6.1,31-2.2c2.9,1.2,5.4,3,8.3,4.4
			C835.1,897.8,856.5,893.5,868.5,882.1"/>
	</g>
	<g>
		<path fill="#7CA95A" d="M1920,1079.9c-19.9-47.8-61.1-85.1-104.3-114.7c-219-150-522.5-152.7-804.9-158.1
			c-265.6-5.2-499.3,26-751.7,108.7c-71.5,23.5-142.4,53.4-199.6,102.3c-21,18-40.1,38.8-55.8,61.8H1920z"/>
	</g>
	<g>
		<path fill="#406F34" d="M1724.8,937.8c8.5-2.2,14.8-0.6,18.7,5.7c1.2,2,1.7,5.2-0.3,6.4c-1,0.6-2.2,0.5-3.3,0.4
			c-2-0.2-4-0.3-6-0.5c-3.6-0.3-7.5-0.7-10.1-3.2C1721.2,944.2,1720.6,939.3,1724.8,937.8z"/>
	</g>
	<g>
		<path fill="#406F34" d="M774.8,1018.7c8.5-2.2,14.8-0.6,18.7,5.7c1.2,2,1.7,5.2-0.3,6.4c-1,0.6-2.2,0.5-3.3,0.4
			c-2-0.2-4-0.3-6-0.5c-3.6-0.3-7.5-0.7-10.1-3.2C771.2,1025.1,770.6,1020.2,774.8,1018.7z"/>
	</g>
	<g>
		<path fill="#758F54" d="M1029.1,974.3c5.3-4.7,10.6-5.8,15.7-2.7c1.7,1,3.1,3.1,2.1,4.8c-0.5,0.8-1.4,1.2-2.2,1.5
			c-1.5,0.6-3,1.2-4.5,1.9c-2.7,1.1-5.7,2.3-8.5,1.4S1026.6,976.9,1029.1,974.3z"/>
	</g>
	<g>
		<path fill="#406F34" d="M1366.2,851.9c-0.7,4.2,4.2,6.4,6.7,4.9c2.5-1.5,2.7-5.7,0.3-7.5C1370.8,847.6,1366.8,849,1366.2,851.9z"
			/>
	</g>
	<g>
		<path fill="#9DBA58" d="M1232.3,969.6c-1.5,9.3,9.3,14.1,14.8,10.7c5.5-3.4,5.9-12.6,0.6-16.4
			C1242.5,960.1,1233.8,963.3,1232.3,969.6z"/>
	</g>
	<g>
		<path fill="#406F34" d="M88.1,1027.1c1-3.9,4.4-7.4,8.4-7.4c4,0,7.7,4.5,6,8.2c-1.2,2.6-4.3,3.7-7.1,4.5c-2,0.6-4.3,1.1-6.1,0.1
			C87.4,1031.4,87.6,1029.1,88.1,1027.1z"/>
	</g>
	<g>
		<path fill="#758F54" d="M1705.7,1013.7c-5,0.8-10.7-1.4-12.6-6.1s1.5-11.1,6.5-10.8c3.6,0.2,6.3,3.2,8.6,6.1c1.6,2,3.4,4.4,3.1,7
			C1711,1012.5,1708.2,1013.3,1705.7,1013.7z"/>
	</g>
	<g>
		<path fill="#758F54" d="M471.1,1032.8c-4.8-0.2-9.8-3.4-10.8-8.3c-1.1-4.9,3.2-10.5,7.9-9.3c3.4,0.8,5.4,4.3,7.1,7.5
			c1.2,2.3,2.4,4.9,1.8,7.4C476.3,1032.6,473.6,1032.9,471.1,1032.8z"/>
	</g>
	<g>
		<path fill="#406F34" d="M812.4,878c1-4.2,4.7-7.9,9-8c4.3,0,8.2,4.8,6.4,8.7c-1.3,2.8-4.7,3.9-7.6,4.8c-2.2,0.6-4.6,1.2-6.5,0.1
			S811.9,880.1,812.4,878z"/>
	</g>
	<g>
		<path fill="#406F34" d="M392.2,910.8c0-5.1,9.8-8.2,13.6-4.8s2.1,10.8-2.8,12.5C398.2,920.1,392.5,915.9,392.2,910.8z"/>
	</g>
	<g>
		<path fill="#9DBA58" d="M553.3,993.5c0-3.8,7.3-6.2,10.2-3.6c2.9,2.6,1.5,8.1-2.1,9.3C557.8,1000.5,553.5,997.3,553.3,993.5z"/>
	</g>
	<g>
		<path fill="#9DBA58" d="M928.4,881c0-4.1,7.8-6.6,10.9-3.8c3,2.7,1.6,8.6-2.2,10C933.2,888.5,928.6,885.1,928.4,881z"/>
	</g>
	<g>
		<path fill="#406F34" d="M1142.2,924.8c0-4.3,8.2-6.9,11.4-4c3.2,2.9,1.7,9-2.3,10.4S1142.3,929.1,1142.2,924.8z"/>
	</g>
	<g>
		<path fill="#758F54" d="M301.1,1005.3c0-6,11.5-9.6,16-5.6c4.5,4,2.4,12.7-3.3,14.6C308.1,1016.3,301.4,1011.3,301.1,1005.3z"/>
	</g>
	<g>
		<path fill="#2B7C3A" d="M196.5,1025.1c-1.9-7.3-1.4-14.5,0.7-21.7c1.6-5.5,3.3-11.9-0.5-17c-0.6-0.7-1.8,0-1.3,0.7
			c4.3,5.8,1,12.9-0.5,19c-1.6,6.4-1.5,13,0.1,19.3C195.3,1026.4,196.7,1026,196.5,1025.1L196.5,1025.1z"/>
		<g>
			<path fill="#E14720" d="M191.2,982.7c-1.7-1.1-2.3-3.6-1.3-5.4c0.2-0.5,0.6-0.9,1.1-1.2c1-0.5,2.3,0.2,2.9,1.1
				c0.6,1,0.7,2.2,0.8,3.3c0.6-1.4,2.3-2,3.8-2.2c0.6-0.1,1.2-0.1,1.8,0.1c1,0.4,1.7,1.6,1.5,2.6s-1.3,1.9-2.4,1.9
				c1.4,0.5,2.8,1.5,3.4,2.9s0,3.4-1.5,3.8c-1.6,0.5-3.1-0.8-4.3-2c0.1,1.7-1,3.3-2.5,4c-0.6,0.3-1.8,0.1-2.4-0.3
				c-0.6-0.4-1.1-1.1-1.2-1.8c-0.2-1.4,0-3.2,0.9-4c-1,0.4-2,0.8-3,0.7c-1-0.1-2.1-1-2-2c0.1-0.9,0.9-1.5,1.7-1.7
				c0.8-0.2,1.7,0,2.6,0.2"/>
		</g>
		<g>
			<path fill="#2B7C3A" d="M198.3,1001.2c3.6-1.6,4.7-6.7,8.4-8c-1.5,1.1-1.7,3.1-2.6,4.7C203,1000,200.6,1001.4,198.3,1001.2z"/>
		</g>
		<g>
			<path fill="#2B7C3A" d="M195.8,1018.2c3.6-1.6,4.7-6.7,8.4-8c-1.5,1.1-1.7,3.1-2.6,4.7C200.5,1017,198.2,1018.4,195.8,1018.2z"/>
		</g>
		<g>
			<path fill="#2B7C3A" d="M196.6,1010c-0.8-1.3,0-3,1.2-3.9c1.2-0.9,2.8-1.1,4.2-1.2c1.5-0.1,3-0.2,4.3-0.9c-0.5,2-2.7,3-4.6,3.7
				C200.1,1008.4,198.1,1009.4,196.6,1010z"/>
		</g>
		<g>
			<path fill="#2B7C3A" d="M195.4,1004.7c-0.3-2.5-1.9-4.7-4.2-5.8c-1.9-0.9-3.7-1.9-5.2-3.2c0.3,1.9,0.8,3.9,2.1,5.3
				c0.5,0.5,1.1,0.8,1.8,1.1C191.9,1003.1,193.6,1003.8,195.4,1004.7z"/>
		</g>
		<g>
			<path fill="#2B7C3A" d="M193,1016.9c-0.3-2.5-1.9-4.7-4.2-5.8c-1.9-0.9-3.7-1.9-5.2-3.2c0.3,1.9,0.8,3.9,2.1,5.3
				c0.5,0.5,1.1,0.8,1.8,1.1C189.5,1015.2,191.1,1016,193,1016.9z"/>
		</g>
	</g>
	<g>
		<g>
			<path fill="#C23820" d="M1604.2,946.8c0.4,0.1,0.9,0.5,1.1,0.8c0.9,1.1,1.3,2.5,1.2,3.9c0,0.8-0.3,1.6-1,2
				c-0.8,0.4-1.6-0.1-2.3-0.5c-0.3-0.2-0.6-0.4-0.7-0.7c-0.2-0.5,0-1.2,0.3-1.7C1603.3,949.3,1603.8,948.1,1604.2,946.8z"/>
		</g>
		<g>
			<path fill="#C23820" d="M1643.2,980.9c-1.6,0.7-3.4,0.5-5,1c-1.3,0.4-2.4,1.2-3.1,2.3c-0.1,0.1-0.2,0.3-0.2,0.4
				c0,0.1,0,0.3,0.1,0.4c0.4,0.8,1.4,1.2,2.3,1.1c0.9-0.1,1.7-0.6,2.5-1.1c1.2-0.9,2.4-2,3.3-3.2c0.3-0.3,0.5-0.7,0.4-1.1"/>
		</g>
		<path fill="#256F37" d="M1631.6,1040.5c-1.9-9.3,2.5-18.4,1.8-27.8c-0.6-9-3.4-17.8-5.2-26.6c-0.9-4.5-1.7-9.1-1.5-13.7
			c0-1,1.5-0.9,1.5,0c-0.3,8.6,2.3,17.1,4.2,25.3c1,4.2,1.9,8.5,2.4,12.8c0.5,4.2,0.2,8.3-0.5,12.4c-0.9,5.6-2.4,11.3-1.2,17.1
			C1633.3,1041.1,1631.8,1041.4,1631.6,1040.5L1631.6,1040.5z"/>
		<path fill="#256F37" d="M1628.1,987.9c-3.9-5.4-9.4-9.3-13.9-14.2c-4.3-4.8-7.3-10.6-8.7-16.9c-0.2-0.9,1.2-1.3,1.5-0.4
			c1.5,6.6,4.8,12.5,9.4,17.4c4.3,4.5,9.3,8.3,13,13.3C1630,987.9,1628.7,988.6,1628.1,987.9L1628.1,987.9z"/>
		<path fill="#256F37" d="M1633.4,1016.3c-0.1-3.3-2-6.6-4.4-8.9c-2.4-2.3-5.6-3.6-8.5-5.2c-6.2-3.5-11.9-8-17.4-12.5
			c-0.8-0.6,0.3-1.7,1.1-1.1c6.2,4.9,12.4,9.8,19.4,13.4c2.9,1.5,5.8,3.1,7.9,5.7c1.9,2.4,3.3,5.3,3.4,8.4
			C1635,1017.3,1633.5,1017.2,1633.4,1016.3L1633.4,1016.3z"/>
		<g>
			<path fill="#3D6E34" d="M1625.8,1004c0.3-1.9,0.4-3.9,0.1-5.8c-0.3-1.9-1.1-3.8-2.4-5.2c0.8,1.6,0.5,3.5,0.6,5.3
				c0.1,1.5,0.4,3,0.7,4.5C1624.9,1003.2,1625.4,1004.1,1625.8,1004"/>
		</g>
		<g>
			<path fill="#3D6E34" d="M1622.1,1000.8c0.4-2.2,0-4.5-1.3-6.3c-1-1.4-2.4-2.6-2.8-4.3c0.7,3.7,1.4,7.5,3.4,10.6
				C1621.5,1001,1622.1,1001,1622.1,1000.8"/>
		</g>
		<g>
			<path fill="#3D6E34" d="M1617.7,998.5c0.2-1.7-0.8-3.8-2-5.1s-2.7-2.2-4.3-3c1.9,2.6,3.9,5.1,5.8,7.7
				C1617.3,998.3,1617.5,998.5,1617.7,998.5"/>
		</g>
		<g>
			<path fill="#3D6E34" d="M1622,1002.5c-1.3,1.8-3.3,3-5.5,3.3c-1.7,0.2-3.6,0-5.1,0.9c3.2-2,6.4-4,10.1-4.7
				C1621.6,1001.9,1622.1,1002.3,1622,1002.5"/>
		</g>
		<g>
			<path fill="#3D6E34" d="M1611,970c-1.6,0.2-3.4-0.3-4.6-1.4c-1-0.8-1.8-2-3-2.3c2.7,0.7,5.5,1.5,7.7,3.2
				C1611.1,969.6,1611.1,970,1611,970"/>
		</g>
		<g>
			<path fill="#3D6E34" d="M1614.8,999.3c-1.2,1.3-3.3,2-5.1,2c-1.7,0-3.5-0.5-5.1-1.1c3.2-0.3,6.4-0.7,9.6-1
				C1614.4,999.2,1614.6,999.2,1614.8,999.3"/>
		</g>
		<g>
			<path fill="#3D6E34" d="M1610.5,993.7c0.2-0.7,0.1-1.5-0.2-2.1c-0.3-0.7-0.8-1.2-1.3-1.8c-1.2-1.3-2.3-2.7-3.3-4.1
				C1606.2,988.7,1608.6,991.4,1610.5,993.7"/>
		</g>
		<g>
			<path fill="#3D6E34" d="M1608.7,994.4c-1.9-0.2-4-0.7-5.7-1.4c0.7,0.9,1.5,1.9,2.6,2.1c0.4,0.1,0.8,0,1.3,0
				C1607.4,995,1608.1,994.9,1608.7,994.4"/>
		</g>
		<g>
			<path fill="#3D6E34" d="M1635.2,1012.4c0.6-0.9,2-1.7,3.1-1.7c1-0.1,2.1,0.2,3,0.7c-0.3-1.1-0.9-2.1-1.9-2.6
				c-1-0.4-2.3-0.2-3.1,0.6C1635.6,1010.2,1635.2,1011.3,1635.2,1012.4"/>
		</g>
		<g>
			<path fill="#3D6E34" d="M1616.8,973.2c-0.1-1,0.3-2.6,1-3.4c0.7-0.8,1.7-1.3,2.7-1.6c-0.9-0.6-2.1-0.9-3.1-0.6
				c-1,0.4-1.7,1.4-1.8,2.5C1615.6,971.3,1616,972.4,1616.8,973.2"/>
		</g>
		<g>
			<path fill="#3D6E34" d="M1630.6,1011.2c-0.4-1.7-2.6-3.2-4.4-3.4c-1.8-0.2-3.5,0.4-5.2,0.9c0.8,0,1.6,0.2,2.4,0.4
				c0.9,0.3,1.8,0.8,2.7,1.1C1627.6,1010.6,1629.2,1010.5,1630.6,1011.2"/>
		</g>
		<g>
			<path fill="#3D6E34" d="M1619.1,979.2c-1-1.5-3.6-2.1-5.3-1.6c-1.7,0.5-3.1,1.6-4.5,2.7c0.8-0.3,1.6-0.4,2.4-0.5
				c1,0,1.9,0.1,2.9,0C1616.1,979.7,1617.5,979,1619.1,979.2"/>
		</g>
		<g>
			<path fill="#3D6E34" d="M1637.4,994c-0.2,0.1-0.4,0.1-0.6,0.2c-1.2,0.6-1.7,2.1-1.7,3.4c0,1.3,0.4,2.6,0.4,3.9c0,0.4,0,0.7-0.2,1
				c-0.2,0.3-0.5,0.6-0.8,0.6c-0.5,0-0.8-0.5-0.9-1c-0.5-1.4-0.4-2.9-0.3-4.4c0.1-1,0.3-2,0.8-2.8c0.5-0.8,1.5-1.5,2.5-1.3
				c0.5,0.1,1,0.3,1.5,0.3"/>
		</g>
		<g>
			<path fill="#E34B28" d="M1610.2,950.2c-0.2,1.9-0.4,4-1.5,5.6c-1.1,1.6-3.2,2.6-5,1.9c-0.4-0.1-0.7-0.4-1.1-0.6
				c-1.9-1.3-3.1-3.6-3.3-5.9c0.7,1,2,1.4,3.2,1.4C1605.2,952.8,1607.8,951.5,1610.2,950.2z"/>
		</g>
		<g>
			<path fill="#E34B28" d="M1639.9,977.6c-2.7,1.2-5.3,2.7-7.8,4.3c-1,0.7-2.1,1.5-2.5,2.7c-0.5,1.5,0.5,3.4,2.1,3.8
				c0.7,0.2,1.4,0.1,2.2,0c1.8-0.2,3.6-0.5,5.4-0.7c-0.4-0.7-1.3-1-1.7-1.7c-0.8-1.1-0.2-2.6,0.4-3.8c0.8-1.6,1.6-3.2,2.4-4.9"/>
		</g>
	</g>
	<g>
		<path fill="#3D2F23" d="M428.9,972.6c0.4-1.7,0.3-3.5,0-5.2c-0.1-0.9-0.3-1.7-0.6-2.5c-0.5-1.3-1.3-2.9-0.1-4.1
			c0.5-0.5-0.3-1.3-0.8-0.8c-1.6,1.7-0.6,3.7,0,5.6c0.7,2.1,1,4.6,0.5,6.7C427.7,973,428.7,973.3,428.9,972.6L428.9,972.6z"/>
		<path fill="#3D2F23" d="M424.2,983.3c-0.9-2.2-1.3-4.5-1.2-7c0-0.7-1-0.7-1.1,0c-0.1,2.5,0.3,4.9,1.3,7.2
			C423.4,984.2,424.5,983.9,424.2,983.3L424.2,983.3z"/>
		<path fill="#3D2F23" d="M426.3,991.6c0.1-2.5,1-5.2,2.3-7.4c0.3-0.6-0.6-1.1-0.9-0.5c-1.4,2.4-2.3,5.2-2.4,8
			C425.2,992.3,426.3,992.3,426.3,991.6L426.3,991.6z"/>
		<path fill="#3D2F23" d="M428.3,1000.6c1.4-1.4,2.5-3.1,3.5-4.8c0.3-0.6-0.6-1.1-0.9-0.5c-0.9,1.6-2,3.3-3.3,4.6
			C427.1,1000.3,427.8,1001.1,428.3,1000.6L428.3,1000.6z"/>
		<path fill="#3D2F23" d="M428.1,1001c-1.2-2-3.2-3.5-5.3-4.5c-0.6-0.3-1.2,0.6-0.5,0.9c1.9,1,3.8,2.2,4.9,4.1
			C427.5,1002.1,428.5,1001.6,428.1,1001L428.1,1001z"/>
		<g>
			<path fill="#247E3D" d="M427.5,960.1c-0.2-1.6,0.9-3.2,2.3-4s3.1-0.9,4.7-0.9c-0.4,0.6-0.6,1.3-0.9,2
				C432.7,959.1,429.7,960.1,427.5,960.1"/>
		</g>
		<g>
			<path fill="#247E3D" d="M428.1,983.9c-0.6-2,0.5-4.2,2.1-5.6c1.7-1.3,3.8-1.8,5.9-2.2c-0.3,0.9-0.4,1.8-0.7,2.7
				C434.5,981.6,430.9,983.5,428.1,983.9"/>
		</g>
		<g>
			<path fill="#247E3D" d="M421.3,975.1c-1.3-0.5-2.8,0.1-4.1-0.1c-1.7-0.2-3-1.7-3.5-3.3c-0.5-1.6-0.4-3.4-0.3-5.1s0.3-3.4,0-5.1
				c-0.4-2.1-1.8-3.9-3.6-5c2-0.3,4-1.1,6.1-0.7c1.8,0.3,3.3,1.5,4.3,3s1.6,3.2,1.9,5c0.7,3.5,0.8,7.1,0.1,10.6
				C422.1,974.7,421.8,975.3,421.3,975.1"/>
		</g>
		<g>
			<path fill="#247E3D" d="M408.8,983.3c1.4,1.4,1.3,3.8,1,5.7c-0.4,1.9-0.9,4,0,5.8c0.8,1.6,2.5,2.5,4.2,3.2
				c1.2,0.4,2.5,0.8,3.8,0.7c1.2-0.1,2.4-0.6,3.4-1.3c0.7-0.6,1.2-1.3,1.4-2.2c0.1-0.7-0.1-1.4-0.3-2.1c-0.9-2.8-2.8-5.3-5.1-7
				C414.6,984.3,411.7,983.4,408.8,983.3z"/>
		</g>
		<g>
			<path fill="#247E3D" d="M435.6,996.7c-1.6,0.3-2.7-0.5-3.8-1.7s-1.5-2.9-1-4.4c0.3-0.9,0.8-1.6,1.4-2.3c1.1-1.4,2.5-2.7,4.1-3.5
				c1.4-0.7,2.9-1.1,4.4-1.4c2.9-0.7,5.9-1.2,8.8-0.7c2.4,0.4,4.6,1.6,6.7,2.8c-1.6-0.2-3.1,0.3-4.6,0.8c-1.7,0.6-3.4,1.4-5,2.2
				c-2.1,1.1-4.3,2.3-5.8,4.2c-0.7,0.9-1.3,1.9-2.1,2.7C437.8,996.2,436.8,996.6,435.6,996.7z"/>
		</g>
		<path fill="#3D2F23" d="M428.9,1010.5c-1.5,1-1.7-4.1-1.7-9.4c-0.3-1.5-0.5-3-0.9-4.5c-0.5-1.5-0.9-2.9-1.6-4.4
			c-0.6-1.5-1.1-3-1.4-4.7c-0.1-0.8-0.2-1.7-0.2-2.5c0-0.8,0.1-1.7,0.3-2.5c0.8-3.3,2.3-6.1,3.9-8.9l0,0.1c0.2-0.4,0.4-0.6,0.5-0.9
			c0.2-0.3,0.4-0.6,0.6-0.8c0.4-0.5,0.9-1,1.3-1.5c0.9-0.9,2-1.8,3.1-2.5c1.1-0.7,2.3-1.3,3.5-1.8c1.2-0.5,2.4-0.9,3.7-1.2
			c-1.2,0.5-2.4,1-3.5,1.6c-0.6,0.3-1.1,0.6-1.6,1c-0.5,0.3-1,0.7-1.5,1.1c-1,0.8-1.9,1.6-2.7,2.6c-0.4,0.5-0.8,1-1.1,1.5
			c-0.3,0.5-0.7,1.1-0.9,1.5l0,0l0,0c-0.7,1.4-1.4,2.8-2,4.2c-0.6,1.4-1.2,2.9-1.5,4.3c-0.2,0.7-0.2,1.5-0.3,2.2
			c0,0.7,0,1.5,0.1,2.2c0.2,1.5,0.7,2.9,1.2,4.4c0.5,1.5,1.1,3,1.4,4.6c0.4,1.6,0.6,3.1,0.8,4.7c0.2,1.6,0.6,3.6,0.6,5.2
			C429.1,1007.8,429.6,1010.2,428.9,1010.5z"/>
	</g>
	<g>
		<path fill="#2E8340" d="M907.7,840.9c-1.9-7.1-2.7-14.4-2.3-21.7c0.2-3.6,0.7-7.2,1.4-10.8c0.7-3.5,1.4-7.1,1-10.8
			c-0.1-0.7-1.2-0.7-1.2,0c0.4,3.8-0.4,7.6-1.2,11.3c-0.7,3.5-1.1,7.1-1.2,10.7c-0.3,7.3,0.5,14.5,2.4,21.6
			C906.8,842,907.9,841.7,907.7,840.9L907.7,840.9z"/>
		<g>
			<path fill="#E34B28" d="M899.2,796.2c-0.7,0.4-1.1,1.2-1.7,1.7c-1,0.8-2.5,0.9-3.6,0.3c-1.1-0.6-1.8-1.9-1.7-3.1
				c0.2-2,2.2-3.4,4.2-3.6s4,0.6,5.8,1.3c-1.1-1.6-2-3.4-2.6-5.2c-0.4-1.2-0.8-2.5-0.3-3.7c0.6-1.6,2.5-2.5,4.1-2.1s2.9,1.8,3.4,3.4
				c0.5,1.6,0.2,3.4-0.6,4.9c0.5-1.9,2-3.3,3.6-4.3c0.9-0.6,2-1.1,3.1-0.9c1.8,0.4,2.6,2.8,1.8,4.5c-0.8,1.7-2.6,2.7-4.4,3.1
				c1.5,0.8,3.1,1.7,4,3.1c0.9,1.4,1,3.6-0.3,4.7c-1.6,1.3-4,0.4-5.6-0.8c-1.3-1-2.5-2.2-3.5-3.5c0.6,1.3,1.2,2.9,0.6,4.2
				c-0.7,1.4-2.4,1.9-4,2c-1,0.1-2.2,0-2.8-0.9C897.8,799.7,899.3,797.9,899.2,796.2"/>
		</g>
		<g>
			<path fill="#237C3E" d="M906.4,813.8c0.3-2.3,1.6-4.4,3.3-6c1.7-1.6,3.8-2.7,5.8-3.8c-1.6,2.2-3.1,4.3-4.7,6.5
				C909.8,811.9,908.1,813.6,906.4,813.8z"/>
		</g>
		<g>
			<path fill="#237C3E" d="M906,824.3c0.5-2.3,2-4.3,3.8-5.7s4-2.4,6.1-3.3c-1.7,2-3.5,4.1-5.2,6.1
				C909.5,822.7,907.7,824.3,906,824.3z"/>
		</g>
		<g>
			<path fill="#237C3E" d="M904.6,813.8c-0.3-2.3-1.6-4.4-3.3-6s-3.8-2.7-5.8-3.8c1.6,2.2,3.1,4.3,4.7,6.5
				C901.1,811.9,902.9,813.6,904.6,813.8z"/>
		</g>
		<g>
			<path fill="#237C3E" d="M903.4,824.3c-0.5-2.3-2-4.3-3.8-5.7c-1.8-1.4-4-2.4-6.1-3.3c1.7,2,3.5,4.1,5.2,6.1
				C899.8,822.7,901.7,824.3,903.4,824.3z"/>
		</g>
		<g>
			<path fill="#237C3E" d="M906,832.1c0.3-1.3,1.1-2.5,2.2-3.3c1.1-0.8,2.3-1.4,3.5-1.9c-1,1.2-2,2.3-3,3.5
				C908,831.2,907,832.1,906,832.1z"/>
		</g>
		<g>
			<path fill="#237C3E" d="M904.6,832.1c-0.3-1.3-1.1-2.5-2.2-3.3c-1.1-0.8-2.3-1.4-3.5-1.9c1,1.2,2,2.3,3,3.5
				C902.5,831.2,903.6,832.1,904.6,832.1z"/>
		</g>
	</g>
	<g>
		<path fill="#2E8340" d="M695,1070.2c-1.9-7.1-2.7-14.4-2.3-21.7c0.2-3.6,0.7-7.2,1.4-10.8c0.7-3.5,1.4-7.1,1-10.8
			c-0.1-0.7-1.2-0.7-1.2,0c0.4,3.8-0.4,7.6-1.2,11.3c-0.7,3.5-1.1,7.1-1.2,10.7c-0.3,7.3,0.5,14.5,2.4,21.6
			C694,1071.2,695.2,1070.9,695,1070.2L695,1070.2z"/>
		<g>
			<path fill="#E34B28" d="M686.4,1025.4c-0.7,0.4-1.1,1.2-1.7,1.7c-1,0.8-2.5,0.9-3.6,0.3c-1.1-0.6-1.8-1.9-1.7-3.1
				c0.2-2,2.2-3.4,4.2-3.6s4,0.6,5.8,1.3c-1.1-1.6-2-3.4-2.6-5.2c-0.4-1.2-0.8-2.5-0.3-3.7c0.6-1.6,2.5-2.5,4.1-2.1s2.9,1.8,3.4,3.4
				c0.5,1.6,0.2,3.4-0.6,4.9c0.5-1.9,2-3.3,3.6-4.3c0.9-0.6,2-1.1,3.1-0.9c1.8,0.4,2.6,2.8,1.8,4.5c-0.8,1.7-2.6,2.7-4.4,3.1
				c1.5,0.8,3.1,1.7,4,3.1c0.9,1.4,1,3.6-0.3,4.7c-1.6,1.3-4,0.4-5.6-0.8c-1.3-1-2.5-2.2-3.5-3.5c0.6,1.3,1.2,2.9,0.6,4.2
				c-0.7,1.4-2.4,1.9-4,2c-1,0.1-2.2,0-2.8-0.9C685,1029,686.5,1027.1,686.4,1025.4"/>
		</g>
		<g>
			<path fill="#237C3E" d="M693.6,1043c0.3-2.3,1.6-4.4,3.3-6s3.8-2.7,5.8-3.8c-1.6,2.2-3.1,4.3-4.7,6.5
				C697,1041.2,695.3,1042.9,693.6,1043z"/>
		</g>
		<g>
			<path fill="#237C3E" d="M693.2,1053.5c0.5-2.3,2-4.3,3.8-5.7s4-2.4,6.1-3.3c-1.7,2-3.5,4.1-5.2,6.1
				C696.8,1052,694.9,1053.5,693.2,1053.5z"/>
		</g>
		<g>
			<path fill="#237C3E" d="M691.8,1043c-0.3-2.3-1.6-4.4-3.3-6c-1.7-1.6-3.8-2.7-5.8-3.8c1.6,2.2,3.1,4.3,4.7,6.5
				C688.4,1041.2,690.1,1042.9,691.8,1043z"/>
		</g>
		<g>
			<path fill="#237C3E" d="M690.7,1053.5c-0.5-2.3-2-4.3-3.8-5.7s-4-2.4-6.1-3.3c1.7,2,3.5,4.1,5.2,6.1
				C687.1,1052,688.9,1053.5,690.7,1053.5z"/>
		</g>
		<g>
			<path fill="#237C3E" d="M693.2,1061.3c0.3-1.3,1.1-2.5,2.2-3.3c1.1-0.8,2.3-1.4,3.5-1.9c-1,1.2-2,2.3-3,3.5
				C695.3,1060.4,694.2,1061.3,693.2,1061.3z"/>
		</g>
		<g>
			<path fill="#237C3E" d="M691.8,1061.3c-0.3-1.3-1.1-2.5-2.2-3.3c-1.1-0.8-2.3-1.4-3.5-1.9c1,1.2,2,2.3,3,3.5
				C689.7,1060.4,690.8,1061.3,691.8,1061.3z"/>
		</g>
	</g>
	<g>
		<path fill="#2E8340" d="M1794.4,1044.8c-1.8-6.8-2.6-13.9-2.2-21c0.2-3.5,0.6-7,1.3-10.5c0.7-3.4,1.4-6.9,1-10.4
			c-0.1-0.7-1.2-0.7-1.1,0c0.4,3.7-0.4,7.3-1.1,11c-0.6,3.4-1.1,6.9-1.2,10.3c-0.3,7,0.5,14.1,2.3,20.9
			C1793.5,1045.8,1794.6,1045.5,1794.4,1044.8L1794.4,1044.8z"/>
		<g>
			<path fill="#F9D4BC" d="M1789.1,997.9c-0.8-0.1-1.5,0.2-2.3,0.2c-1.2,0-2.4-0.8-2.9-1.9c-0.5-1.1-0.2-2.5,0.6-3.4
				c1.3-1.4,3.7-1.3,5.4-0.2c1.6,1.1,2.7,2.8,3.7,4.5c0.1-1.9,0.5-3.8,1.1-5.6c0.4-1.2,0.9-2.4,2-3.1c1.4-0.9,3.3-0.4,4.4,0.9
				s1.2,3.1,0.6,4.6c-0.6,1.5-1.9,2.7-3.3,3.4c1.5-1.1,3.5-1.3,5.3-1.1c1.1,0.1,2.2,0.4,2.9,1.2c1.2,1.4,0.3,3.7-1.3,4.5
				c-1.6,0.8-3.6,0.5-5.2-0.2c0.7,1.5,1.3,3.1,1.2,4.7s-1.3,3.3-3,3.4c-2,0.1-3.3-2.1-3.8-4c-0.4-1.5-0.6-3.1-0.6-4.7
				c-0.3,1.4-0.8,3-2.1,3.6c-1.4,0.7-3,0-4.2-0.9c-0.8-0.6-1.7-1.4-1.6-2.4C1785.9,999.8,1788.2,999.3,1789.1,997.9"/>
		</g>
		<g>
			<path fill="#237C3E" d="M1793.1,1018.5c0.3-2.2,1.5-4.3,3.2-5.8c1.6-1.5,3.6-2.6,5.7-3.7c-1.5,2.1-3,4.2-4.5,6.3
				C1796.4,1016.7,1794.8,1018.4,1793.1,1018.5z"/>
		</g>
		<g>
			<path fill="#237C3E" d="M1792.7,1028.6c0.4-2.2,1.9-4.1,3.7-5.5s3.9-2.3,5.9-3.2c-1.7,2-3.4,3.9-5.1,5.9
				C1796.2,1027.1,1794.4,1028.7,1792.7,1028.6z"/>
		</g>
		<g>
			<path fill="#237C3E" d="M1791.4,1018.5c-0.3-2.2-1.5-4.3-3.2-5.8c-1.6-1.5-3.6-2.6-5.7-3.7c1.5,2.1,3,4.2,4.5,6.3
				C1788.1,1016.7,1789.7,1018.4,1791.4,1018.5z"/>
		</g>
		<g>
			<path fill="#237C3E" d="M1790.3,1028.6c-0.4-2.2-1.9-4.1-3.7-5.5s-3.9-2.3-5.9-3.2c1.7,2,3.4,3.9,5.1,5.9
				C1786.8,1027.1,1788.6,1028.7,1790.3,1028.6z"/>
		</g>
		<g>
			<path fill="#237C3E" d="M1792.7,1036.2c0.3-1.3,1.1-2.4,2.1-3.2c1-0.8,2.2-1.3,3.4-1.8c-1,1.1-1.9,2.3-2.9,3.4
				C1794.7,1035.3,1793.7,1036.2,1792.7,1036.2z"/>
		</g>
	</g>
	<g>
		<path fill="#2E8340" d="M1459.4,869.3c-2-7.5-2.8-15.4-2.5-23.2c0.2-3.9,0.7-7.7,1.4-11.5c0.7-3.8,1.5-7.6,1.1-11.5
			c-0.1-0.8-1.3-0.8-1.2,0c0.4,4.1-0.5,8.1-1.2,12.1c-0.7,3.8-1.2,7.6-1.3,11.4c-0.3,7.7,0.6,15.5,2.5,23
			C1458.4,870.4,1459.6,870.1,1459.4,869.3L1459.4,869.3z"/>
		<g>
			<path fill="#E2B9D6" d="M1453.4,817.7c-0.9-0.1-1.7,0.2-2.6,0.2c-1.3,0-2.6-0.9-3.2-2.1c-0.5-1.2-0.3-2.8,0.7-3.7
				c1.5-1.6,4.1-1.4,5.9-0.2c1.8,1.2,2.9,3.1,4,4.9c0.2-2.1,0.6-4.1,1.2-6.1c0.4-1.3,1-2.7,2.2-3.4c1.5-1,3.7-0.4,4.8,0.9
				c1.1,1.4,1.3,3.4,0.6,5.1c-0.7,1.7-2.1,2.9-3.7,3.7c1.6-1.3,3.8-1.4,5.9-1.2c1.2,0.1,2.4,0.4,3.2,1.3c1.3,1.5,0.4,4.1-1.4,5
				s-3.9,0.5-5.8-0.3c0.7,1.7,1.5,3.4,1.3,5.2c-0.1,1.8-1.5,3.7-3.3,3.7c-2.2,0.1-3.6-2.3-4.2-4.4c-0.4-1.7-0.7-3.5-0.6-5.2
				c-0.4,1.5-0.9,3.3-2.3,4c-1.5,0.7-3.3,0-4.7-1c-0.9-0.6-1.9-1.5-1.8-2.6C1449.9,819.7,1452.5,819.2,1453.4,817.7"/>
		</g>
		<g>
			<path fill="#237C3E" d="M1457.9,840.3c0.3-2.5,1.7-4.7,3.5-6.4c1.8-1.7,4-2.9,6.2-4c-1.7,2.3-3.3,4.6-5,7
				C1461.6,838.3,1459.8,840.2,1457.9,840.3z"/>
		</g>
		<g>
			<path fill="#237C3E" d="M1457.5,851.5c0.5-2.4,2.1-4.5,4-6.1c2-1.5,4.3-2.6,6.6-3.5c-1.9,2.2-3.7,4.3-5.6,6.5
				C1461.3,849.9,1459.3,851.6,1457.5,851.5z"/>
		</g>
		<g>
			<path fill="#237C3E" d="M1456,840.3c-0.3-2.5-1.7-4.7-3.5-6.4s-4-2.9-6.2-4c1.7,2.3,3.3,4.6,5,7
				C1452.3,838.3,1454.2,840.2,1456,840.3z"/>
		</g>
		<g>
			<path fill="#237C3E" d="M1454.8,851.5c-0.5-2.4-2.1-4.5-4-6.1s-4.3-2.6-6.6-3.5c1.9,2.2,3.7,4.3,5.6,6.5
				C1451,849.9,1452.9,851.6,1454.8,851.5z"/>
		</g>
		<g>
			<path fill="#237C3E" d="M1457.5,859.9c0.3-1.4,1.2-2.6,2.3-3.5s2.5-1.5,3.8-2c-1.1,1.2-2.1,2.5-3.2,3.7
				C1459.7,858.9,1458.6,859.9,1457.5,859.9z"/>
		</g>
	</g>
	<g>
		<path fill="#2E8340" d="M1300.8,1012.8c-1.3-8.1-1.5-16.4-0.3-24.5c0.6-4.1,1.5-8,2.7-12c1.1-3.9,2.3-7.8,2.3-11.9
			c0-0.8-1.3-1-1.3-0.1c0.1,4.3-1.3,8.4-2.5,12.6c-1.1,3.9-2,7.8-2.5,11.8c-1.1,8.1-1,16.3,0.4,24.4
			C1299.7,1013.8,1300.9,1013.6,1300.8,1012.8L1300.8,1012.8z"/>
		<g>
			<path fill="#F8D785" d="M1296,961.7c-0.8,0.4-1.4,1.2-2.1,1.7c-1.2,0.8-2.8,0.7-4-0.1c-1.2-0.8-1.8-2.3-1.5-3.7
				c0.4-2.2,2.9-3.6,5.1-3.6c2.3,0,4.4,1.1,6.4,2.1c-1-1.9-1.9-4-2.4-6.1c-0.4-1.4-0.6-2.9,0-4.2c0.8-1.7,3-2.5,4.8-1.9
				c1.8,0.6,3.1,2.3,3.4,4.2c0.3,1.9-0.2,3.8-1.2,5.4c0.7-2,2.6-3.4,4.5-4.4c1.1-0.6,2.4-1,3.6-0.7c2,0.6,2.6,3.4,1.6,5.2
				c-1.1,1.8-3.2,2.7-5.3,3c1.6,1.1,3.2,2.2,4.1,3.9c0.9,1.7,0.8,4.1-0.8,5.2c-1.9,1.3-4.5,0-6.2-1.5c-1.4-1.3-2.5-2.7-3.5-4.3
				c0.5,1.6,1.1,3.4,0.2,4.8c-0.9,1.5-2.9,1.8-4.7,1.8c-1.2,0-2.5-0.3-3.1-1.3C1294,965.6,1295.9,963.6,1296,961.7"/>
		</g>
		<g>
			<path fill="#237C3E" d="M1302.2,982.2c0.5-2.6,2.2-4.8,4.3-6.4c2.1-1.6,4.5-2.7,6.9-3.6c-2,2.3-4,4.5-5.9,6.8
				C1306.2,980.5,1304.1,982.2,1302.2,982.2z"/>
		</g>
		<g>
			<path fill="#237C3E" d="M1300.6,993.9c0.8-2.5,2.6-4.6,4.8-6c2.2-1.4,4.7-2.3,7.2-3c-2.2,2.1-4.3,4.2-6.5,6.3
				C1304.8,992.5,1302.5,994.1,1300.6,993.9z"/>
		</g>
		<g>
			<path fill="#237C3E" d="M1300.2,982c0-2.6-1.3-5.1-3-7.1c-1.7-2-3.9-3.5-6.1-4.8c1.5,2.6,3,5.2,4.6,7.8
				C1296.5,979.5,1298.2,981.7,1300.2,982z"/>
		</g>
		<g>
			<path fill="#237C3E" d="M1297.7,993.6c-0.3-2.6-1.7-5-3.6-6.8c-1.9-1.8-4.2-3.1-6.5-4.3c1.7,2.5,3.5,4.9,5.2,7.4
				C1293.9,991.5,1295.8,993.5,1297.7,993.6z"/>
		</g>
		<g>
			<path fill="#237C3E" d="M1299.8,1002.6c0.4-1.4,1.5-2.6,2.8-3.4s2.7-1.3,4.2-1.7c-1.2,1.2-2.5,2.4-3.7,3.6
				C1302.2,1001.8,1300.9,1002.8,1299.8,1002.6z"/>
		</g>
	</g>
	<g>
		<path fill="#3D6D34" d="M317.1,923.7c3.1-10.5,2.5-21.7-1.7-31.8c-0.6-1.5-3.2-0.9-2.5,0.7c4.1,9.7,4.7,20.3,1.7,30.4
			C314,924.7,316.6,925.3,317.1,923.7L317.1,923.7z"/>
		<g>
			<path fill="#C5971A" d="M310.6,888.4c0.1-0.5,0.1-1,0.2-1.5c1-1,3-0.8,3.7,0.4c0.7,1.2,0,3.1-1.4,3.4
				C311.8,891.1,310.6,889.9,310.6,888.4"/>
		</g>
		<path fill="#E4E691" d="M313.7,884.7c0.7-2.2,1.1-4.4,1.1-6.7c0-1.4-2.1-1.4-2.1,0c0,2.1-0.4,4.2-1,6.2
			C311.2,885.4,313.3,885.9,313.7,884.7L313.7,884.7z"/>
		<path fill="#E4E691" d="M317.6,885.6c1.2-1.7,2.5-3.4,3.7-5.1c0.8-1.1-1-2.1-1.8-1.1c-1.2,1.7-2.5,3.4-3.7,5.1
			C315,885.6,316.8,886.7,317.6,885.6L317.6,885.6z"/>
		<path fill="#E4E691" d="M309.9,885.6c-0.7-2-1.8-3.6-3.5-4.9c-1.1-0.8-2.6,0.7-1.5,1.5c1.4,1.1,2.4,2.3,2.9,4
			C308.3,887.4,310.4,886.8,309.9,885.6L309.9,885.6z"/>
		<path fill="#E4E691" d="M307.4,888.9c-2.1,0.6-4.3,1.2-6.4,1.9c-1.3,0.4-0.7,2.4,0.6,2c2.1-0.6,4.3-1.2,6.4-1.9
			C309.3,890.6,308.7,888.5,307.4,888.9L307.4,888.9z"/>
		<g>
			<path fill="#3D6D34" d="M316.3,923.6c1.1-2.7,2.3-5.4,3.5-8c1-2,2-4.1,3.4-5.8c3.8-4.7,10.1-6.5,14.9-10.2c-1,1.2-1.4,2.8-2,4.3
				c-2.7,7.3-7.4,13.9-13.3,18.9c-1.2,1-2.6,2-4.2,2.1c-1,0.1-2.2-0.6-1.9-1.5"/>
		</g>
		<g>
			<path fill="#3D6D34" d="M314.7,924.9c0.7-3.1,0.2-6.5-1.4-9.3s-4.3-5-7.3-5.9c-1-0.3-2-0.5-3.1-0.4c-2.9,0.2-5.2,2.6-7,4.9
				c3.6-2.2,8.9-1,11.1,2.6c1,1.6,1.4,3.6,2.2,5.4c0.8,1.8,2.3,3.5,4.2,3.6c0.4,0,0.9,0,1.2-0.3s0.5-0.8,0.2-1.2"/>
		</g>
		<path fill="#E4E691" d="M317.7,890c1.9,0.2,3.8,0.4,5.7,0.5c1.3,0.1,1.3-2,0-2.1c-1.9-0.1-3.8-0.3-5.7-0.5
			C316.3,887.8,316.4,889.9,317.7,890L317.7,890z"/>
		<path fill="#E4E691" d="M309.4,892.1c-0.5,1.1-0.9,2.3-1.3,3.4c-0.4,1.3,1.6,1.8,2,0.6c0.4-1.2,0.8-2.3,1.3-3.4
			C312,891.4,310,890.8,309.4,892.1L309.4,892.1z"/>
	</g>
	<g>
		<path fill="#50853D" d="M1399.9,912.3c2.9-9.9,2.4-20.6-1.6-30.1c-0.6-1.5-3-0.8-2.4,0.7c3.8,9.2,4.4,19.3,1.6,28.8
			C1397,913.2,1399.4,913.8,1399.9,912.3L1399.9,912.3z"/>
		<g>
			<path fill="#C5971A" d="M1393.8,878.8c0.1-0.5,0.1-1,0.2-1.4c0.9-1,2.8-0.8,3.5,0.4c0.7,1.2,0,2.9-1.3,3.3
				C1394.9,881.3,1393.8,880.2,1393.8,878.8"/>
		</g>
		<path fill="#E4E691" d="M1396.7,875.2c0.7-2.1,1-4.2,1.1-6.4c0-1.3-2-1.3-2,0c0,2-0.4,3.9-1,5.9
			C1394.4,875.9,1396.3,876.4,1396.7,875.2L1396.7,875.2z"/>
		<path fill="#E4E691" d="M1400.4,876.1c1.2-1.6,2.4-3.2,3.5-4.8c0.8-1-1-2-1.7-1c-1.2,1.6-2.4,3.2-3.5,4.8
			C1397.9,876.1,1399.7,877.1,1400.4,876.1L1400.4,876.1z"/>
		<path fill="#E4E691" d="M1393.1,876.1c-0.7-1.9-1.7-3.4-3.3-4.6c-1-0.8-2.4,0.6-1.4,1.4c1.3,1,2.2,2.2,2.8,3.8
			C1391.6,877.8,1393.6,877.3,1393.1,876.1L1393.1,876.1z"/>
		<path fill="#E4E691" d="M1390.8,879.3c-2,0.6-4,1.2-6.1,1.8c-1.2,0.4-0.7,2.3,0.5,1.9c2-0.6,4-1.2,6.1-1.8
			C1392.5,880.8,1392,878.9,1390.8,879.3L1390.8,879.3z"/>
		<g>
			<path fill="#50853D" d="M1399.1,912.2c1.1-2.6,2.2-5.1,3.4-7.6c0.9-1.9,1.9-3.9,3.2-5.5c3.6-4.4,9.6-6.2,14.1-9.7
				c-0.9,1.2-1.4,2.6-1.9,4c-2.6,6.9-7,13.2-12.7,17.9c-1.2,1-2.5,1.9-4,2c-0.9,0.1-2-0.6-1.8-1.5"/>
		</g>
		<g>
			<path fill="#50853D" d="M1397.6,913.4c0.7-3,0.2-6.2-1.3-8.9c-1.5-2.7-4.1-4.7-7-5.6c-0.9-0.3-1.9-0.5-2.9-0.4
				c-2.8,0.2-4.9,2.5-6.7,4.7c3.4-2.1,8.4-0.9,10.5,2.5c1,1.6,1.3,3.4,2.1,5.1c0.8,1.7,2.1,3.3,4,3.4c0.4,0,0.9,0,1.2-0.3
				c0.3-0.3,0.5-0.8,0.2-1.1"/>
		</g>
		<path fill="#E4E691" d="M1400.5,880.3c1.8,0.2,3.6,0.4,5.4,0.5c1.3,0.1,1.3-1.9,0-2c-1.8-0.1-3.6-0.3-5.4-0.5
			C1399.2,878.2,1399.2,880.2,1400.5,880.3L1400.5,880.3z"/>
		<path fill="#E4E691" d="M1392.7,882.2c-0.4,1.1-0.8,2.1-1.2,3.2c-0.4,1.2,1.5,1.7,1.9,0.5c0.4-1.1,0.8-2.2,1.2-3.2
			C1395.1,881.6,1393.2,881.1,1392.7,882.2L1392.7,882.2z"/>
	</g>
	<g>
		<path fill="#578A40" d="M1132.6,1007.4c3,2.2,5.6,4.7,7.8,7.5c1,1.3,2.8-0.5,1.8-1.8c-2.4-3-5.2-5.7-8.4-7.9
			C1132.6,1004.2,1131.3,1006.4,1132.6,1007.4L1132.6,1007.4z"/>
		<path fill="#578A40" d="M1145,1011.5c0,0,0-6.8,0-10.2s-3.4-3.4-3.4,0s0,6.8,0,10.2S1145,1014.9,1145,1011.5
			C1145,1011.5,1145,1014.9,1145,1011.5z"/>
		<path fill="#578A40" d="M1147.1,1014c1.7-4.1,4.2-7.6,7.4-10.6c1.2-1.1-0.6-2.9-1.8-1.8c-3.6,3.3-6.2,7.2-8,11.7
			C1144,1014.9,1146.4,1015.5,1147.1,1014L1147.1,1014z"/>
		<path fill="#578A40" d="M1146.7,1017c3.9-1.8,7.7-3.8,11.4-6c1.4-0.8,0.1-3-1.3-2.2c-3.7,2.2-7.5,4.2-11.4,6
			C1144,1015.5,1145.2,1017.7,1146.7,1017L1146.7,1017z"/>
	</g>
	<g>
		<path fill="#578A40" d="M1537.3,893.6c4,2.9,7.4,6.3,10.5,10.1c1.4,1.7,3.8-0.7,2.4-2.4c-3.2-4.1-7-7.6-11.2-10.6
			C1537.2,889.4,1535.5,892.3,1537.3,893.6L1537.3,893.6z"/>
		<path fill="#578A40" d="M1553.9,899.2c0,0,0-9.1,0-13.6s-4.5-4.5-4.5,0s0,9.1,0,13.6S1553.9,903.7,1553.9,899.2
			C1553.9,899.2,1553.9,903.7,1553.9,899.2z"/>
		<path fill="#578A40" d="M1556.6,902.5c2.2-5.4,5.6-10.2,9.9-14.2c1.6-1.5-0.8-3.9-2.4-2.4c-4.8,4.4-8.3,9.7-10.8,15.7
			C1552.5,903.6,1555.8,904.5,1556.6,902.5L1556.6,902.5z"/>
		<path fill="#578A40" d="M1556.2,906.5c5.2-2.4,10.3-5.1,15.3-8.1c1.9-1.1,0.2-4.1-1.7-2.9c-5,2.9-10,5.6-15.3,8.1
			C1552.5,904.5,1554.2,907.4,1556.2,906.5L1556.2,906.5z"/>
	</g>
	<g>
		<g>
			<path fill="#3F6E34" d="M1099.7,875.4c-3.8,3.7-3.4,9.8-2.8,15c0.6,5.2,1.3,10.5,1.9,15.7c4.2-3.6,5.9-9.5,5.6-15
				S1102,880.4,1099.7,875.4"/>
		</g>
		<g>
			<path fill="#3F6E34" d="M1104,904.8c4.6-8.2,12.1-14.8,21-18c-3.1,3.8-5,8.4-8.1,12.1c-3.1,3.8-8,6.8-12.7,5.4"/>
		</g>
		<g>
			<path fill="#3F6E34" d="M1091.7,907.2c-4.4-3.7-6.3-10-4.8-15.5c2.7,4.2,4.7,8.8,5.9,13.7c0.1,0.6,0.2,1.4-0.4,1.6
				c-0.6,0.2-0.5-1.1-0.1-0.7"/>
		</g>
	</g>
	<g>
		<g>
			<path fill="#9DBA58" d="M1153.2,819.8c-2,2.6-1.2,6.4-0.3,9.6c0.9,3.2,1.8,6.4,2.6,9.6c2.3-2.6,2.8-6.4,2.1-9.8
				C1156.8,825.8,1155.1,822.7,1153.2,819.8"/>
		</g>
		<g>
			<path fill="#9DBA58" d="M1158.6,837.7c2.1-5.6,6.2-10.3,11.4-13.2c-1.6,2.6-2.4,5.7-3.9,8.3c-1.6,2.6-4.4,5-7.4,4.5"/>
		</g>
		<g>
			<path fill="#9DBA58" d="M1151.2,840.4c-3.1-1.9-4.9-5.6-4.4-9.2c2.1,2.4,3.7,5.1,4.9,8c0.1,0.3,0.2,0.8-0.1,1
				c-0.3,0.2-0.4-0.7-0.1-0.4"/>
		</g>
	</g>
	<g>
		<g>
			<path fill="#406F34" d="M978.7,842.1c-7,6.2-3.3,20.7,8.6,23.4c5.8,1.3,5.5,0.5,11.3-1c4.9-1.3,9.5-1.7,13.7-2.9
				c7-1.9,14.6-0.4,21.5-2.6c6.9-2.2,13.4-6.3,17.4-12.3c0.5-0.7,1-1.6,0.9-2.4c-0.2-1.4-1.7-2.2-3.1-2.7c-21.7-8-45.9-4.2-68,2.5"
				/>
		</g>
		<g>
			<path fill="#A3C658" d="M1051.5,845.7c0.5-3.4,3.6-5.4,5.7-7.7c2.1-2.3,3.3-5.1,3.9-8.2c0.6-3.2,0.7-6.4,1-9.6
				c0.2-1.8,0.4-3.6,0.8-5.4c0.2-0.9,0.4-1.8,0.6-2.7c0.2-1,0.5-2.1,1.3-2.7c0.5-0.3,0-1.2-0.5-0.8c-0.9,0.7-1.4,1.7-1.6,2.8
				c-0.4,1.4-0.6,2.8-0.9,4.2c-0.5,2.7-0.7,5.4-0.9,8.2c-0.2,2.8-0.4,5.6-1.3,8.3c-0.9,2.7-2.4,4.8-4.5,6.7c-2,1.9-4.1,3.8-4.6,6.7
				C1050.5,846.1,1051.4,846.3,1051.5,845.7L1051.5,845.7z"/>
			<g>
				<path fill="#5E8E43" d="M1063.6,813.1c0.4-0.6,0.7-0.8,1.5-0.9c0.7-0.1,1.4,0.1,2.1,0.4s1.4,0.5,2.1,0.5c-0.5,0-1,0.2-1.4,0.4
					c-0.7,0.3-1.4,0.5-2,0.8c-0.4,0.2-0.8,0.3-1.2,0.3c-0.4,0-0.8-0.1-1.1-0.4C1063.3,813.9,1063.3,813.4,1063.6,813.1"/>
			</g>
			<g>
				<path fill="#5E8E43" d="M1063.6,819.5c0-0.7,0.1-1.5,0.7-1.8c0.3-0.2,0.6-0.2,1-0.2c1.6,0,3.2,0.5,4.7,0.1
					c-0.4,0.7-1,1.3-1.7,1.8c-0.7,0.6-1.5,1.1-2.4,1.3C1065,820.7,1063.8,820.4,1063.6,819.5"/>
			</g>
			<g>
				<path fill="#5E8E43" d="M1062,824.5c-0.1-0.7,0.5-1.3,1.2-1.5c0.7-0.1,1.4,0.1,2,0.4c2.2,1,4.1,2.8,6.5,2.9
					c-2,1.4-4.7,1.6-7,0.8C1063.5,826.7,1062.2,825.8,1062,824.5"/>
			</g>
			<g>
				<path fill="#5E8E43" d="M1060.9,832.6c-0.3-0.8,0.4-1.6,1.2-1.8s1.6,0,2.4,0.1c1.7,0.2,3.4,0.1,5.1-0.3
					c-0.2,0.6-0.7,1.1-1.2,1.5c-0.9,0.7-1.8,1.4-2.9,1.9c-1.1,0.4-1.6,0.6-2.7,0.2C1062,833.9,1061.2,833.7,1060.9,832.6"/>
			</g>
			<g>
				<path fill="#5E8E43" d="M1058.7,837.4c-0.4-0.6,0.1-1.4,0.7-1.7c0.6-0.3,1.4-0.2,2.1-0.1c2.3,0.4,4.6,1.2,7,1.3
					c-1.4,0.4-2.4,1.6-3.8,2.1c-1.1,0.4-2.2,0-3.3-0.1C1060.3,838.9,1059.2,838.5,1058.7,837.4"/>
			</g>
			<g>
				<path fill="#5E8E43" d="M1061.7,812.8c0.1-0.7,0-1.1-0.4-1.7c-0.4-0.6-1.1-0.9-1.8-1.2c-0.6-0.3-1.3-0.6-1.8-1.1
					c0.4,0.3,0.6,0.8,0.8,1.3c0.3,0.7,0.6,1.3,0.9,2c0.2,0.4,0.3,0.8,0.6,1.1c0.3,0.3,0.7,0.5,1.1,0.5
					C1061.4,813.6,1061.8,813.2,1061.7,812.8"/>
			</g>
			<g>
				<path fill="#5E8E43" d="M1059.8,820.2c0.5-0.5,0.9-1.1,0.7-1.8c-0.1-0.3-0.3-0.6-0.6-0.8c-1.1-1.1-2.6-1.9-3.4-3.3
					c-0.2,0.8-0.2,1.6-0.1,2.4c0.1,0.9,0.3,1.9,0.8,2.6C1057.9,820.1,1059,820.7,1059.8,820.2"/>
			</g>
			<g>
				<path fill="#5E8E43" d="M1060.2,825.1c0.6-0.4,0.6-1.3,0.2-1.9s-1.1-0.9-1.7-1.1c-2.3-0.8-4.9-0.9-6.7-2.5
					c0.4,2.4,2.2,4.4,4.4,5.5C1057.6,825.6,1059.1,825.9,1060.2,825.1"/>
			</g>
			<g>
				<path fill="#5E8E43" d="M1059.1,832.5c0.7-0.4,0.8-1.4,0.4-2.1c-0.4-0.7-1.1-1.1-1.7-1.6c-1.4-1-2.5-2.3-3.4-3.8
					c-0.3,0.6-0.2,1.3-0.2,1.9c0.1,1.1,0.3,2.3,0.7,3.4c0.4,1.1,0.8,1.6,1.8,2C1057.3,832.6,1058.1,832.9,1059.1,832.5"/>
			</g>
			<g>
				<path fill="#5E8E43" d="M1056.2,836.7c0.7-0.2,1-1,0.7-1.7c-0.2-0.7-0.8-1.1-1.4-1.5c-2-1.3-4.1-2.4-5.9-4
					c0.7,1.3,0.6,2.9,1.2,4.2c0.5,1,1.6,1.5,2.4,2.2C1054,836.7,1055.1,837.2,1056.2,836.7"/>
			</g>
		</g>
		<g>
			<g>
				<path fill="#8D8877" d="M1046.9,847.7c6.9-1.6,10.1-9,9.9-14.7c-0.1-6-0.3-12-0.4-18c-0.1-2.6-0.2-5.4-1.6-7.8
					c-2.2-3.7-7.2-5.9-12.1-7.4c-14.8-4.7-31.3-6.1-47-3.8c-4.8,0.7-9.8,1.8-13.5,4.3c-6.3,4.2-7.9,11.3-8.5,17.8
					c-0.9,9.6-0.6,19.3,1,28.8c0.3,2.1,0.8,4.3,2.7,5.8c1.8,1.4,4.4,1.8,6.9,2.1C1005.4,857.3,1028.6,852.3,1046.9,847.7"/>
			</g>
			<g>
				<path fill="#A0C556" d="M975.2,809.5c2.3-5.2,3.6-8.9,12.2-11.7c5.4-1.8,12.2-2.6,17.9-2.7c12.3-0.1,22.2,0.1,36.1,4.3
					c4.5,1.4,9.9,3.4,12.5,6.7c-7.1,4.1-15.2,5.7-23.4,5.5c-6.2-0.1-12.7-1.5-18.3,1c-3.6,1.6-6.8,4.8-10.8,4.6
					c-3.8-0.2-7.8-3.6-10.9-1.5c-2.2,1.5-2.6,4.8-6,4.8c-0.7,0-4-0.8-4.6-1C976.6,818.6,974.7,814.8,975.2,809.5L975.2,809.5z"/>
			</g>
		</g>
		<g>
			<path fill="#8BA048" d="M1038.2,824.7c0.2-1.2,1.9-1.5,2.9-0.9s1.4,1.9,1.6,3c0.2,1.1,0,2.5-0.9,3.1c-1,0.6-2.4,0.1-3-0.8
				C1038,828.2,1038.4,825.9,1038.2,824.7"/>
		</g>
		<g>
			<path fill="#8BA048" d="M996.3,841.1c0.1-0.5,0.8-0.7,1.2-0.4s0.6,0.8,0.7,1.3c0.1,0.5,0,1.1-0.4,1.3c-0.4,0.3-1,0-1.3-0.4
				C996.3,842.5,996.4,841.6,996.3,841.1"/>
		</g>
		<g>
			<path fill="#8BA048" d="M1026.2,820.3c0.7-1,3.2-2.5,4.3-2.1c0.6,0,1.3,1-0.2,2.5c-0.7,0.5-1.5,1.1-2.4,1.1
				C1027.1,821.9,1026.1,821.2,1026.2,820.3"/>
		</g>
		<g>
			<path fill="#8BA048" d="M990.9,849.1c-0.7-1.5-0.7-5.5,0.6-6.4c0.5-0.7,2.1-0.7,2.8,1.9c0.1,1.2,0.2,2.5-0.4,3.5
				S991.8,849.8,990.9,849.1"/>
		</g>
		<g>
			<path fill="#3F6E34" d="M1040.9,850.5c2.3-5.9,6.8-10.9,12.4-13.8c-1.7,2.8-2.6,6-4.4,8.8c-1.7,2.8-4.8,5.2-8,4.7"/>
		</g>
		<g>
			<g>
				<path fill="#3F6E34" d="M1015.5,842.1c-1.7,1.6-1.5,4.3-1.2,6.5c0.3,2.3,0.5,4.6,0.8,6.9c1.8-1.6,2.6-4.1,2.4-6.5
					S1016.5,844.3,1015.5,842.1"/>
			</g>
			<g>
				<path fill="#3F6E34" d="M1017.4,854.9c2-3.6,5.3-6.4,9.1-7.9c-1.3,1.6-2.2,3.6-3.5,5.3c-1.3,1.6-3.5,2.9-5.5,2.4"/>
			</g>
			<g>
				<path fill="#3F6E34" d="M1012.1,856c-1.9-1.6-2.8-4.4-2.1-6.8c1.2,1.8,2,3.8,2.6,6c0.1,0.2,0.1,0.6-0.2,0.7
					c-0.2,0.1-0.2-0.5,0-0.3"/>
			</g>
		</g>
	</g>
	<g>
		<g>
			<path fill="#3F6D34" d="M750,865.8c-0.9-5.9,1-12.2,5-16.6c2.3-2.6,5.4-4.5,7.4-7.3c0.8-1,1.4-2.2,2.3-3.1
				c0.7,4.8-0.4,9.9-2.5,14.2c-2.2,4.4-5.4,8.2-8.9,11.6c-1,1-2.3,2-3.6,1.7"/>
		</g>
		<g>
			<path fill="#3F6D34" d="M725.7,868.5c-8.8-6.1-15.4-15.4-18.2-25.8c1.7,1.7,4.4,1.3,6.8,1.7c2.9,0.5,5.5,2.3,7.4,4.7
				c1.9,2.3,3.1,5.1,4.1,7.9c1.4,3.8,2.4,8.1,0.6,11.7"/>
		</g>
		<g>
			<path fill="#3F6D34" d="M728.5,865.6c-1-10.7,1.9-21.7,8-30.5c-0.2,2.4,1.8,4.2,3,6.3c1.5,2.6,1.7,5.7,1.2,8.6s-1.9,5.6-3.4,8.2
				c-2,3.5-4.7,7-8.5,8"/>
		</g>
	</g>
	<g>
		<g>
			<path fill="#3F6D34" d="M1380.3,1043.8c-0.5-3.3,0.6-6.9,2.9-9.4c1.3-1.4,3-2.5,4.2-4.1c0.4-0.6,0.8-1.2,1.3-1.7
				c0.4,2.7-0.2,5.6-1.4,8.1c-1.2,2.5-3,4.6-5,6.6c-0.6,0.5-1.3,1.1-2,1"/>
		</g>
		<g>
			<path fill="#3F6D34" d="M1366.6,1045.3c-5-3.4-8.7-8.7-10.3-14.6c0.9,1,2.5,0.8,3.8,1c1.7,0.3,3.1,1.3,4.2,2.6
				c1,1.3,1.7,2.9,2.3,4.4c0.8,2.1,1.3,4.6,0.4,6.6"/>
		</g>
		<g>
			<path fill="#3F6D34" d="M1368.1,1043.7c-0.6-6,1.1-12.3,4.5-17.2c-0.1,1.3,1,2.4,1.7,3.6c0.9,1.4,1,3.2,0.7,4.9
				c-0.3,1.6-1.1,3.2-1.9,4.6c-1.1,2-2.6,4-4.8,4.5"/>
		</g>
	</g>
	<g>
		<path fill="#247E3D" d="M850.3,1019.8c-2.3-5.8-2.8-12.1-3.2-18.3c-0.5-6.4-0.6-12.8-0.5-19.2c0.1-6.4,0.8-12.8,1.1-19.2
			c0.3-6.1-0.4-12.2-2.2-18.1c-0.4-1.3-2.3-0.6-2,0.7c3.7,12.6,1.1,25.5,0.9,38.4c-0.1,6.3,0.1,12.5,0.6,18.7c0.5,5.9,1,12,3.2,17.6
			C848.8,1021.7,850.8,1021,850.3,1019.8L850.3,1019.8z"/>
		<path fill="#247E3D" d="M847,997.1c6.1-10.6,14.5-19.2,24.4-26.2c1.1-0.8-0.1-2.5-1.2-1.7c-10.3,7.3-18.8,16.1-25.1,27.1
			C844.5,997.4,846.4,998.3,847,997.1L847,997.1z"/>
		<path fill="#247E3D" d="M844,975.4c-5.7-6.9-11.8-13.9-20.8-16.4c-1.3-0.4-1.7,1.7-0.4,2.1c8.4,2.3,14.1,9.1,19.5,15.6
			C843.2,977.6,844.9,976.4,844,975.4L844,975.4z"/>
		<path fill="#247E3D" d="M852.2,990.7c2.1,0.7,4.3,0.8,6.4,0c1.3-0.5,0.5-2.4-0.7-2c-1.6,0.6-3.2,0.6-4.8,0.1
			C851.8,988.4,850.9,990.3,852.2,990.7L852.2,990.7z"/>
		<path fill="#247E3D" d="M849,1000.8c2.1-0.8,3.7-2.2,4.9-4.1c0.7-1.2-1.1-2.2-1.8-1c-0.8,1.4-2,2.5-3.6,3.1
			C847.2,999.2,847.8,1001.3,849,1000.8L849,1000.8z"/>
		<path fill="#247E3D" d="M856.5,984.9c1.9,0.5,3.8,0.9,5.7,1.4c1.3,0.3,1.7-1.8,0.4-2.1c-1.9-0.5-3.8-0.9-5.7-1.4
			C855.6,982.5,855.2,984.6,856.5,984.9L856.5,984.9z"/>
		<path fill="#247E3D" d="M861.5,980.4c1.6,0.6,3,1.5,4.2,2.8c1,1,2.3-0.7,1.3-1.6c-1.3-1.3-2.9-2.4-4.7-3
			C861.1,978,860.2,979.9,861.5,980.4L861.5,980.4z"/>
		<path fill="#247E3D" d="M864.8,977.7c1.8-0.2,3.6-0.3,5.3-0.5c1.3-0.1,1.2-2.2-0.2-2.1c-1.8,0.2-3.6,0.3-5.3,0.5
			C863.3,975.7,863.5,977.8,864.8,977.7L864.8,977.7z"/>
		<path fill="#247E3D" d="M870.1,973.4c1.5-0.4,2.9-0.8,4.4-1.2c1.3-0.3,0.6-2.3-0.7-2c-1.5,0.4-2.9,0.8-4.4,1.2
			C868.1,971.7,868.8,973.7,870.1,973.4L870.1,973.4z"/>
		<path fill="#247E3D" d="M866.1,971.3c0.5-1.9,1.5-3.5,3-4.8c1-0.9-0.2-2.6-1.2-1.7c-1.9,1.6-3.2,3.7-3.8,6.1
			C863.7,972.3,865.8,972.6,866.1,971.3L866.1,971.3z"/>
		<path fill="#247E3D" d="M871.6,969c0.4-1.1,1-2,1.9-2.9c1-1-0.7-2.3-1.6-1.3c-1,1-1.7,2.1-2.2,3.3
			C869.3,969.3,871.1,970.2,871.6,969L871.6,969z"/>
		<path fill="#247E3D" d="M860.1,977.2c0.1-2.5,1.1-4.7,2.9-6.4c1-0.9-0.6-2.3-1.6-1.3c-2.2,2.1-3.3,4.9-3.4,7.9
			C858,978.8,860.1,978.6,860.1,977.2L860.1,977.2z"/>
		<path fill="#247E3D" d="M855.6,982.1c-0.5-1.8,0.7-3.7,1.3-5.3c0.5-1.4,0.7-2.7,0.2-4.2c-0.4-1.3-2.4-0.6-2,0.7
			c0.6,1.8-0.6,3.7-1.2,5.3c-0.5,1.4-0.7,2.7-0.3,4.2C854,984.1,856,983.4,855.6,982.1L855.6,982.1z"/>
		<path fill="#247E3D" d="M851.9,987.6c-0.1-2.2-0.2-4.3-0.2-6.5c-0.1-1.4,0.2-3.1-0.7-4.3c-0.8-1.1-2.5,0.1-1.7,1.2
			c0.8,1.1,0.3,3.6,0.4,4.9c0.1,1.6,0.1,3.2,0.2,4.9C849.8,989.1,851.9,988.9,851.9,987.6L851.9,987.6z"/>
		<path fill="#247E3D" d="M849.2,956.9c0-1.6,1.5-2.6,2.6-3.5c0.9-0.8,1.7-1.6,2.2-2.7c0.6-1.2-1.3-2.1-1.9-0.9
			c-0.7,1.5-2.2,2.4-3.4,3.5c-1,1.1-1.6,2.3-1.6,3.8C847.1,958.5,849.2,958.3,849.2,956.9L849.2,956.9z"/>
		<path fill="#247E3D" d="M847.8,950.8c1.7-2.2,2.9-4.6,3.3-7.4c0.2-1.3-1.8-1.7-2.1-0.4c-0.4,2.4-1.4,4.5-2.9,6.4
			C845.4,950.5,847,951.9,847.8,950.8L847.8,950.8z"/>
		<path fill="#247E3D" d="M842.9,950.1c-1.6-1.1-3.3-2.1-4.9-3.1c-1.2-0.7-2.1,1.2-0.9,1.9c1.5,0.9,3,1.8,4.5,2.8
			C842.7,952.4,844.1,950.8,842.9,950.1L842.9,950.1z"/>
		<path fill="#247E3D" d="M845.5,958.6c-1.7-3.1-5-4.9-8.5-4.9c-1.3,0-1.2,2.1,0.2,2.1c2.8,0,5.3,1.6,6.6,4.1
			C844.5,961,846.2,959.8,845.5,958.6L845.5,958.6z"/>
		<path fill="#247E3D" d="M824.8,956.6c1.1,1.2,2,2.6,2.7,4.1c0.5,1.2,2.5,0.5,2-0.7c-0.7-1.7-1.7-3.3-2.9-4.6
			C825.6,954.4,823.9,955.6,824.8,956.6L824.8,956.6z"/>
		<path fill="#247E3D" d="M829.6,963.5c-2,0.6-4.1,1.3-6.1,2c-1.3,0.5-0.5,2.4,0.7,2c2-0.7,4-1.4,6.1-2
			C831.6,965.1,830.9,963.1,829.6,963.5L829.6,963.5z"/>
		<path fill="#247E3D" d="M835.9,965.5c-0.6-1.9-1.4-3.8-2.4-5.5c-0.7-1.2-2.4,0-1.7,1.2c0.9,1.6,1.6,3.3,2.2,5
			C834.4,967.6,836.3,966.8,835.9,965.5L835.9,965.5z"/>
		<path fill="#247E3D" d="M833.4,967.7c-1.9-0.3-3.8-0.2-5.7,0.2c-1.3,0.3-1.1,2.4,0.2,2.1c1.7-0.4,3.4-0.5,5.1-0.2
			C834.3,969.9,834.7,967.8,833.4,967.7L833.4,967.7z"/>
		<path fill="#247E3D" d="M833,974.3c1.7-0.2,3.4-0.6,5.1-1.1c1.3-0.4,0.6-2.3-0.7-2c-1.5,0.4-3,0.7-4.6,0.9
			C831.4,972.4,831.6,974.5,833,974.3L833,974.3z"/>
		<path fill="#247E3D" d="M839.8,969.6c-0.5-1.5-0.7-3-0.6-4.5c0.1-1.3-2-1.7-2.1-0.4c-0.1,1.9,0.1,3.8,0.7,5.6
			C838.2,971.7,840.2,970.9,839.8,969.6L839.8,969.6z"/>
		<path fill="#247E3D" d="M839.9,980c0.7,2.3,1.6,4.4,2.7,6.5c0.6,1.2,2.6,0.5,2-0.7c-1.1-2.1-2-4.3-2.7-6.5
			C841.4,978,839.5,978.7,839.9,980L839.9,980z"/>
		<path fill="#247E3D" d="M837.6,999.4c1.6-0.3,3.2-0.1,4.7,0.6c1.2,0.6,2.1-1.3,0.9-1.9c-1.8-0.8-3.8-1.1-5.7-0.8
			C836.1,997.6,836.2,999.7,837.6,999.4L837.6,999.4z"/>
		<path fill="#247E3D" d="M849.4,965.9c1.7-1.6,3-3.6,3.8-5.8c0.5-1.2-1.4-2.2-1.9-0.9c-0.8,2-2,3.8-3.5,5.3
			C846.8,965.5,848.4,966.8,849.4,965.9L849.4,965.9z"/>
		<path fill="#247E3D" d="M840.5,961.7c0.9,2,1.9,3.8,3.1,5.6c0.8,1.1,2.5-0.1,1.7-1.2c-1.1-1.6-2.1-3.3-2.9-5.1
			C841.9,959.7,839.9,960.4,840.5,961.7L840.5,961.7z"/>
		<path fill="#247E3D" d="M848,972.3c2-1.5,3.8-3.1,5.6-4.8c1-0.9-0.6-2.3-1.6-1.3c-1.7,1.6-3.4,3.1-5.2,4.5
			C845.7,971.4,846.9,973.1,848,972.3L848,972.3z"/>
	</g>
	<g>
		<g>
			<g>
				<path fill="#C79370" d="M1437.1,1057.1c0.2,0,0.2-0.3,0-0.3S1436.9,1057.1,1437.1,1057.1L1437.1,1057.1z"/>
			</g>
		</g>
		<g>
			<g>
				<path fill="#B38464" d="M1473,1047.6c0.2,0,0.2-0.3,0-0.3S1472.8,1047.6,1473,1047.6L1473,1047.6z"/>
			</g>
		</g>
		<g>
			<path fill="#406F34" d="M1452.1,1009.7c-2.4,12,9.3,22.1,20.6,27.1c7.9,3.5,16.3,5.9,24.9,7.3c6.9,1.1,14.8,1.9,19,7.5
				c1.4,1.9,2.3,4.2,4.2,5.6c2.2,1.7,5.3,1.7,8.1,1.7c14.9-0.1,29.9,1.4,44.5,4.3c7.7,1.5,16.6,3.2,22.6-1.7
				c5.6-4.6,6.2-13.3,3.2-19.9s-8.7-11.4-14.4-15.8c-16.7-12.9-35.3-23.9-55.7-29.4c-20.4-5.4-43-4.8-61.8,4.7
				c-5.3,2.7-10.7,6.6-12,12.3"/>
		</g>
		<g>
			<path fill="#A3C658" d="M1453,1008.8c-3.7-3.2-3.6-8.5-4.8-12.8c-1.1-4.3-3.6-7.9-6.8-11c-3.3-3.2-7.2-5.8-10.8-8.7
				c-2-1.6-4-3.3-5.9-5.1c-1-0.9-1.9-1.8-2.8-2.8c-1-1-2.1-2.2-2.2-3.7c0-0.8-1.4-0.9-1.3-0.1c0.1,1.7,1,2.9,2.1,4.1
				c1.4,1.5,2.9,3,4.4,4.3c2.9,2.7,6,5,9.1,7.4c3.2,2.4,6.4,4.9,9,8c2.6,3.1,3.9,6.6,4.6,10.6c0.7,3.8,1.4,7.9,4.5,10.6
				C1452.7,1010.3,1453.6,1009.4,1453,1008.8L1453,1008.8z"/>
			<g>
				<path fill="#5E8E43" d="M1423.3,969c-0.4-1-0.4-1.5,0.1-2.4c0.5-0.9,1.3-1.6,2.1-2.3c0.8-0.6,1.7-1.3,2.2-2.1
					c-0.4,0.6-0.5,1.3-0.7,2c-0.2,1-0.4,2.1-0.6,3.1c-0.1,0.6-0.2,1.2-0.5,1.7s-0.8,0.9-1.4,1C1423.9,970,1423.3,969.6,1423.3,969"
					/>
			</g>
			<g>
				<path fill="#5E8E43" d="M1430.9,973.9c-0.8-0.6-1.6-1.3-1.6-2.3c0-0.5,0.3-0.9,0.5-1.3c1.2-1.9,3.1-3.5,3.8-5.6
					c0.6,1,0.7,2.2,0.8,3.4c0.1,1.3,0.2,2.7-0.4,3.9C1433.5,973.2,1432.1,974.3,1430.9,973.9"/>
			</g>
			<g>
				<path fill="#5E8E43" d="M1435.6,979.7c-0.9-0.4-1.2-1.7-0.8-2.6c0.4-0.9,1.2-1.6,2.1-2.1c2.9-1.8,6.6-2.8,8.6-5.6
					c0.1,3.5-1.7,6.9-4.5,9C1439.5,979.6,1437.4,980.5,1435.6,979.7"/>
			</g>
			<g>
				<path fill="#5E8E43" d="M1444.6,987.4c-1.1-0.3-1.5-1.7-1.2-2.8c0.3-1.1,1.2-1.9,1.9-2.8c1.6-1.8,2.8-4,3.6-6.3
					c0.6,0.7,0.7,1.7,0.8,2.6c0.2,1.6,0.3,3.3,0,4.9c-0.3,1.6-0.6,2.4-1.9,3.4C1447,987,1446.1,987.8,1444.6,987.4"/>
			</g>
			<g>
				<path fill="#5E8E43" d="M1448.6,993.7c-1,0-1.7-1.2-1.5-2.2c0.1-1,0.8-1.8,1.5-2.5c2.3-2.5,5-4.6,7-7.3c-0.6,2,0.1,4.2-0.4,6.2
					c-0.4,1.5-1.7,2.6-2.7,3.8C1451.6,992.9,1450.2,994,1448.6,993.7"/>
			</g>
			<g>
				<path fill="#5E8E43" d="M1421.4,971c-0.8-0.7-1.3-0.9-2.3-0.8c-1,0.1-2,0.6-2.8,1.2c-0.9,0.5-1.8,1.1-2.8,1.4
					c0.7-0.2,1.4,0,2.1,0.1c1,0.2,2.1,0.3,3.1,0.5c0.6,0.1,1.2,0.2,1.7,0.1c0.6-0.1,1.1-0.4,1.4-0.9S1422,971.3,1421.4,971"/>
			</g>
			<g>
				<path fill="#5E8E43" d="M1428.9,979.1c-0.2-0.9-0.7-2-1.6-2.3c-0.5-0.1-0.9-0.1-1.4,0c-2.2,0.5-4.3,1.7-6.6,1.6
					c0.7,0.9,1.8,1.5,2.9,2c1.2,0.6,2.5,1.1,3.8,1C1427.3,981.2,1428.8,980.4,1428.9,979.1"/>
			</g>
			<g>
				<path fill="#5E8E43" d="M1435,982.4c-0.1-1-1.1-1.7-2.1-1.7s-1.9,0.6-2.7,1.2c-2.7,2.1-4.9,5.2-8.2,6.1c3.2,1.3,7,0.8,10-1
					C1433.6,986,1435.1,984.3,1435,982.4"/>
			</g>
			<g>
				<path fill="#5E8E43" d="M1443,989.5c0.1-1.1-1.1-2-2.2-2.1c-1.1-0.1-2.2,0.4-3.3,0.8c-2.3,0.8-4.7,1.2-7.2,1.2
					c0.5,0.8,1.3,1.2,2.2,1.7c1.5,0.7,3,1.4,4.6,1.7c1.6,0.3,2.5,0.3,3.8-0.6c0.8-0.5,1.8-1.1,2-2.6"/>
			</g>
			<g>
				<path fill="#5E8E43" d="M1445.9,996.3c0.3-0.9-0.5-2-1.5-2.2c-1-0.2-2,0.1-2.9,0.5c-3.1,1.3-6.1,3-9.3,4c2.1,0.2,3.9,1.5,6,1.8
					c1.6,0.2,3-0.7,4.5-1.2C1444.1,998.8,1445.6,997.9,1445.9,996.3"/>
			</g>
		</g>
		<g>
			<path fill="#8D8877" d="M1463.1,1022.4c-10.7-3.1-15.5-17.6-15.3-28.7c0.2-11.7,0.5-23.4,0.7-35.1c0.1-5.2,0.2-10.5,2.4-15.2
				c3.4-7.3,11.2-11.5,18.7-14.6c22.9-9.2,48.4-11.8,72.6-7.5c7.5,1.3,15.1,3.5,20.9,8.3c9.8,8.2,12.3,22.1,13.2,34.9
				c1.4,18.8,0.9,37.7-1.5,56.4c-0.5,4.1-1.3,8.5-4.2,11.4c-2.8,2.7-6.8,3.5-10.7,4.1C1527.2,1041.1,1491.4,1031.4,1463.1,1022.4"/>
		</g>
		<g>
			<path fill="#918F84" d="M1569.4,1041.7c-8-0.2-21.9,6.5-33.5,5.4c-7.4-0.7-13.5-6.3-16.8-13c-3.3-6.6-4.1-14.2-4.7-21.5
				c-0.3-3.6-0.5-7.2,0.3-10.7c1.6-6.5,6.8-11.6,12.8-14.7c6-3.1,12.6-4.3,19.2-5.6c8.1-1.5,16.3-3.1,24.5-2.1s16.4,4.9,20.6,12
				c4.8,8.2,3.3,18.6,0.4,27.7c-2.3,7.2-5.6,14.5-11.8,18.8C1577.3,1040.3,1573.4,1041.6,1569.4,1041.7"/>
		</g>
		<path fill="#727272" d="M1585.8,995.6c-2.2,2.8-5.5,4.2-8.8,5.3c-3.8,1.3-7.6,2.6-11.4,3.6c-7.6,2.1-15.7,3.3-23.5,1.3
			c-2.1-0.5-4.1-1.4-6.1-2.3c-1.5-0.7-3.4-1.4-5-0.4c-0.3,0.2,0,0.7,0.3,0.5c1.8-1.1,4,0.2,5.7,1c1.7,0.8,3.4,1.4,5.2,1.8
			c3.6,0.9,7.4,1.1,11.1,0.9c8.1-0.5,15.8-3.1,23.4-5.7c3.5-1.2,7.1-2.6,9.4-5.6C1586.4,995.7,1586,995.3,1585.8,995.6L1585.8,995.6
			z"/>
		<g>
			<path fill="#9FC455" d="M1495.9,921.3c20.9-3.7,50.1-3.4,64.7,6.5c7.1,11.9-19.1,14-23.8,13c-2.2-0.4-4.1-1.9-6.3-2.5
				c-6.2-1.9-12.5,2.7-18.9,2.6c-4.7-0.1-9.4-7.5-14.1-6.8c-10.4,1.4-22.5-0.9-23.7-7.2C1477.1,925.9,1491.2,921.7,1495.9,921.3z"/>
		</g>
		<path fill="#727272" d="M1457.7,951c4.4,2.7,9.3,4.5,14.4,5.3c2.5,0.4,5.1,0.6,7.7,0.5c2.8-0.1,5.5-0.5,8.2-0.7
			c2.8-0.2,5.6-0.3,8.3,0.3c2.6,0.6,4.9,1.9,7.2,3.1c2.3,1.2,4.6,2.2,7.1,2.5c2.6,0.4,5.3,0.1,7.9-0.3c3.1-0.5,6.2-1.2,9.3-1.8
			c3.3-0.7,6.6-1.3,9.9-2c0.4-0.1,0.2-0.6-0.1-0.5c-5.6,1.1-11.2,2.3-16.9,3.3c-2.7,0.5-5.5,0.9-8.2,0.8c-2.8-0.1-5.3-0.9-7.8-2.1
			c-2.2-1.1-4.3-2.3-6.6-3.1c-2.5-0.8-5.1-1.1-7.7-1c-2.7,0.1-5.4,0.4-8.1,0.6c-2.6,0.2-5.2,0.2-7.8,0c-5.9-0.6-11.6-2.5-16.6-5.6
			C1457.7,950.4,1457.4,950.8,1457.7,951L1457.7,951z"/>
		<g>
			<path fill="#9FC455" d="M1535.3,948c1.9-0.9,4.9,0.2,4.3,1.9c-0.6,1.7-3,2.2-4.5,1.2c-0.6-0.4-1.1-1-1.2-1.7
				S1534.5,948.4,1535.3,948"/>
		</g>
		<g>
			<path fill="#92AF4C" d="M1465.5,978.7c0.3-1.8,1.3-3,2.7-2.5s2.1,2.1,2.5,3.6c0.4,1.6,0.6,3.3,0.7,4.9c0,1.5-0.3,3.4-1.8,3.9
				c-1,0.4-2.2-0.1-2.9-1c-0.7-0.9-1-2-1.1-3.1C1465.2,982.6,1465.2,980.7,1465.5,978.7"/>
		</g>
		<g>
			<path fill="#92AF4C" d="M1458.6,996.5c1-1.6,2.5-1.4,3.3-0.8c0.8,0.6,0.9,1.8,0.9,2.8c0.1,1.1,0,2.3-0.8,3.1
				c-1.1,0.9-2.9,0.2-3.5-1.1c-0.6-1.3-0.3-2.8,0.1-4.1"/>
		</g>
		<g>
			<path fill="#9FC455" d="M1567.9,985.3c1.8,0.8,1.8,2.3,1.2,3.1s-1.6,1.1-2.6,1.3c-1.1,0.2-2.3,0.4-3.1-0.3
				c-1.1-0.9-0.6-2.8,0.6-3.6c1.2-0.8,2.7-0.7,4.1-0.5"/>
		</g>
		<g>
			<path fill="#92AF4C" d="M1503.4,993.6c0.7-1.3,1.7-1.1,2.1-0.6c0.5,0.5,0.5,1.4,0.5,2.2c0,0.9,0,1.9-0.6,2.4
				c-0.7,0.7-1.8,0.1-2.2-0.9C1502.9,995.7,1503.1,994.5,1503.4,993.6"/>
		</g>
		<g>
			<path fill="#9FC455" d="M1574.8,987.5c0.9-0.6,2-0.9,3.1-1.1c0.5-0.1,1-0.1,1.3,0.3c0.6,0.7-0.4,1.6-1.3,2
				c-0.5,0.2-0.9,0.4-1.4,0.6c-0.8,0.3-1.8,0.7-2.5,0.2C1573.3,988.9,1573.8,988.1,1574.8,987.5"/>
		</g>
		<g>
			<path fill="#3F6D34" d="M1471.6,1004.9c2.3,0.8,4.1,2.5,5.7,4.3c5.2,6.2,7,14.6,8.2,22.6c1.9-3.6,1.9-7.9,1.2-11.9
				c-0.6-3.9-1.9-7.8-4.5-10.8c-2.6-3-6.6-5-10.5-4.4"/>
		</g>
		<g>
			<path fill="#3F6D34" d="M1497.6,1033.1c1.5-5.6,5.1-10.3,8.6-14.9c1.6-2.2,3.3-4.3,4.9-6.5c1,3.8,0,7.9-2.1,11.3
				c-2.1,3.4-5,6-8.1,8.6c-1,0.8-2.3,1.7-3.5,1.3"/>
		</g>
		<g>
			<path fill="#3F6D34" d="M1479.3,1029.1c-5.3-3.6-9.2-9.2-10.8-15.4c1,1,2.6,0.8,4,1c1.7,0.3,3.3,1.4,4.4,2.8s1.8,3,2.4,4.7
				c0.8,2.3,1.4,4.8,0.4,7"/>
		</g>
		<g>
			<path fill="#3F6D34" d="M1558.8,1044c-0.4-2.8,0.5-5.8,2.4-7.9c1.1-1.2,2.5-2.1,3.5-3.5c0.4-0.5,0.7-1,1.1-1.5
				c0.4,2.3-0.2,4.7-1.2,6.8c-1,2.1-2.5,3.9-4.2,5.5c-0.5,0.5-1.1,0.9-1.7,0.8"/>
		</g>
		<g>
			<path fill="#3F6D34" d="M1552.7,1045.3c-2.1-2.1-3.4-5.1-3.6-8.1c0.4,0.6,1.1,0.6,1.8,0.8c0.8,0.3,1.4,0.9,1.8,1.7
				c0.4,0.7,0.6,1.6,0.7,2.4c0.2,1.1,0.2,2.3-0.4,3.3"/>
		</g>
	</g>
	<g>
		<path fill="#545A29" d="M611.6,943.2c-5-7.3-7.6-16.1-9.3-24.7c-1.7-8.8-2.5-17.8-2.6-26.8c0-1,1.6-1,1.6,0
			c0.1,8.8,0.9,17.7,2.6,26.4c1.7,8.5,4.2,17.1,9.1,24.3C613.6,943.2,612.2,944,611.6,943.2L611.6,943.2z"/>
		<g>
			<path fill="#626E2F" d="M599.9,900.2c-0.7-1.1-1.6-2.2-2.6-3.1c-0.3-0.3-0.7-0.7-1.1-0.8c-0.4-0.2-1-0.2-1.4,0.1
				c-0.2,0.2-0.4,0.5-0.4,0.7c-0.2,0.7-0.1,1.6,0.4,2.2c0.4,0.5,1.1,0.7,1.7,1C597.5,900.7,598.9,900.9,599.9,900.2L599.9,900.2z"/>
		</g>
		<g>
			<path fill="#626E2F" d="M600.4,906.2c-0.8-1-1.8-2-2.9-2.9c-0.4-0.3-0.8-0.6-1.2-0.7c-0.5-0.1-1-0.1-1.3,0.3
				c-0.2,0.2-0.3,0.5-0.4,0.8c-0.2,0.8,0,1.6,0.6,2.1c0.5,0.5,1.1,0.6,1.7,0.8C598.1,906.9,599.5,907,600.4,906.2L600.4,906.2z"/>
		</g>
		<g>
			<path fill="#626E2F" d="M601,912.5c-0.9-0.8-1.9-1.5-3-2.1c-0.4-0.2-0.8-0.4-1.2-0.4s-0.9,0.1-1.1,0.4c-0.2,0.2-0.2,0.5-0.2,0.7
				c0,0.7,0.3,1.4,0.9,1.8c0.5,0.3,1.1,0.4,1.7,0.5C599.1,913.5,600.4,913.3,601,912.5L601,912.5z"/>
		</g>
		<g>
			<path fill="#626E2F" d="M601.9,899c0.7-1.1,1.6-2.2,2.6-3.1c0.3-0.3,0.7-0.6,1.2-0.8s1-0.1,1.3,0.2c0.2,0.2,0.4,0.5,0.4,0.7
				c0.2,0.7,0.1,1.6-0.4,2.2c-0.4,0.5-1.1,0.7-1.7,1C604.3,899.5,602.8,899.7,601.9,899L601.9,899z"/>
		</g>
		<g>
			<path fill="#626E2F" d="M602.3,905.9c0.8-1,1.8-2,2.9-2.8c0.4-0.3,0.8-0.6,1.2-0.7c0.5-0.1,1-0.1,1.3,0.3
				c0.2,0.2,0.3,0.5,0.4,0.8c0.2,0.8,0,1.6-0.6,2.1c-0.5,0.4-1.1,0.6-1.8,0.8C604.6,906.6,603.2,906.7,602.3,905.9L602.3,905.9z"/>
		</g>
		<g>
			<path fill="#626E2F" d="M603.5,912.2c0.7-1,1.6-1.9,2.4-2.7c0.3-0.3,0.7-0.6,1.1-0.7s0.9-0.1,1.2,0.2c0.2,0.2,0.3,0.4,0.4,0.7
				c0.2,0.7,0,1.4-0.4,2c-0.4,0.4-1,0.6-1.5,0.8C605.6,912.8,604.3,912.9,603.5,912.2L603.5,912.2z"/>
		</g>
		<g>
			<path fill="#626E2F" d="M604.5,919.2c0.5-1.1,1.2-2.1,2-3.1c0.3-0.3,0.6-0.7,0.9-0.8c0.4-0.2,0.9-0.2,1.2,0
				c0.2,0.1,0.4,0.4,0.5,0.6c0.3,0.6,0.3,1.4-0.1,2c-0.3,0.5-0.9,0.8-1.4,1C606.7,919.4,605.5,919.7,604.5,919.2L604.5,919.2z"/>
		</g>
		<g>
			<path fill="#626E2F" d="M606.4,925.5c0.5-1.1,1.2-2.1,2-3.1c0.3-0.3,0.6-0.7,0.9-0.8s0.9-0.2,1.2,0c0.2,0.1,0.4,0.4,0.5,0.6
				c0.3,0.6,0.3,1.4-0.1,2c-0.3,0.5-0.9,0.8-1.4,1C608.6,925.8,607.3,926.1,606.4,925.5L606.4,925.5z"/>
		</g>
		<g>
			<path fill="#626E2F" d="M608.4,933.1c0.5-1.1,1.2-2.1,2-3.1c0.3-0.3,0.6-0.7,0.9-0.8s0.9-0.2,1.2,0c0.2,0.1,0.4,0.4,0.5,0.6
				c0.3,0.6,0.3,1.4-0.1,2c-0.3,0.5-0.9,0.8-1.4,1C610.5,933.3,609.3,933.6,608.4,933.1L608.4,933.1z"/>
		</g>
		<g>
			<path fill="#626E2F" d="M602.4,919.9c-0.8-0.9-1.8-1.6-2.9-2.3c-0.4-0.2-0.7-0.4-1.2-0.5c-0.4-0.1-0.9,0-1.2,0.4
				c-0.2,0.2-0.2,0.5-0.3,0.7c-0.1,0.7,0.2,1.4,0.7,1.9c0.5,0.4,1.1,0.5,1.7,0.6C600.4,920.8,601.6,920.7,602.4,919.9L602.4,919.9z"
				/>
		</g>
		<g>
			<path fill="#626E2F" d="M603.4,927.1c-0.9-0.8-1.9-1.6-2.9-2.2c-0.4-0.2-0.8-0.4-1.2-0.5c-0.4,0-0.9,0.1-1.1,0.4
				c-0.2,0.2-0.2,0.5-0.2,0.7c0,0.7,0.2,1.4,0.8,1.8c0.5,0.3,1.1,0.4,1.7,0.5C601.4,928.1,602.7,927.9,603.4,927.1L603.4,927.1z"/>
		</g>
		<g>
			<path fill="#626E2F" d="M606.5,934.4c-1-0.7-2.3-1.3-3.5-1.8c-0.4-0.2-0.9-0.3-1.4-0.3c-0.5,0-1,0.2-1.2,0.6
				c-0.1,0.2-0.2,0.5-0.2,0.8c0,0.7,0.4,1.4,1.1,1.8c0.6,0.3,1.2,0.3,1.9,0.3C604.4,935.7,605.8,935.4,606.5,934.4L606.5,934.4z"/>
		</g>
	</g>
	<g>
		<path fill="#388740" d="M1654.7,930.9c0.4-5.2,0.1-10.4-1-15.4c-1-5-3.2-10.1-2.8-15.3c0.7-9.7,9.9-17.6,6.7-27.8
			c-0.4-1.3-2.5-0.7-2.1,0.6c3.1,9.9-6.6,18.3-6.8,28c-0.1,4.8,1.6,9.3,2.7,13.9c1.2,5.3,1.5,10.7,1.2,16
			C1652.5,932.2,1654.6,932.2,1654.7,930.9L1654.7,930.9z"/>
		<g>
			<path fill="#32983D" d="M1657.9,881.4c-0.2-1.3,0.7-2.5,1.9-3.1c1.1-0.6,2.4-0.8,3.7-1c1.2-0.2,2.5-0.6,3.4-1.6
				C1665.7,879.5,1661.7,882.1,1657.9,881.4z"/>
		</g>
		<g>
			<path fill="#32983D" d="M1652.4,892.9c0.8-2.4,3.3-3.9,5.8-4.7c2.5-0.7,5.1-1,7.5-1.9c-1.4,2.2-3.3,4.1-5.5,5.4
				S1654.9,893.6,1652.4,892.9z"/>
		</g>
		<g>
			<path fill="#32983D" d="M1650.3,890.9c0.7-1.1,0.3-2.6-0.5-3.6c-0.8-1-1.9-1.7-3-2.4c-1-0.7-2.1-1.6-2.5-2.8
				C1643.9,886,1646.5,890,1650.3,890.9z"/>
		</g>
		<g>
			<path fill="#32983D" d="M1649.5,907.6c0-2.6-1.8-4.8-3.9-6.4c-2.1-1.5-4.5-2.6-6.4-4.3c0.6,2.5,1.7,5,3.4,6.9
				S1646.9,907.4,1649.5,907.6z"/>
		</g>
		<g>
			<path fill="#32983D" d="M1652,907.3c0.1-2.2,1.8-4.1,3.7-5.4c1.9-1.2,4-2.1,5.8-3.4c-0.6,2.2-1.7,4.3-3.3,5.9
				C1656.6,906,1654.3,907.3,1652,907.3z"/>
		</g>
		<g>
			<path fill="#32983D" d="M1650.7,916.4c-2-1.4-4.7-1.8-7-1.1c0.7-0.2,1.5,0.3,1.9,1c0.4,0.6,0.7,1.4,1.2,1.9
				c0.6,0.5,1.5,0.6,2.3,0.6c0.8,0,1.7-0.1,2.1-0.7C1651.5,917.7,1651.5,917,1650.7,916.4z"/>
		</g>
		<path fill="#78BECA" d="M1657.6,860.4c1.5-2.3,3.1-4.6,4.6-6.9c-0.5-0.1-1.1-0.3-1.6-0.4c0,0.1,0,0.3,0,0.4
			c-0.1,1.1,1.6,1.1,1.7,0c0-0.1,0-0.3,0-0.4c0.1-0.9-1.2-1.1-1.6-0.4c-1.5,2.3-3.1,4.6-4.6,6.9
			C1655.5,860.4,1657,861.3,1657.6,860.4L1657.6,860.4z"/>
		<path fill="#78BECA" d="M1657.6,861.4c2.3-1.3,4.8-3.1,6.2-5.4c0.6-0.9-0.9-1.8-1.5-0.9c-1.3,2-3.5,3.6-5.6,4.8
			C1655.8,860.5,1656.7,861.9,1657.6,861.4L1657.6,861.4z"/>
		<path fill="#78BECA" d="M1658.4,861.8c2.1-0.6,4.3,0,6.4-0.7c0.9-0.3,0.7-1.6-0.2-1.7c0,0,0,0,0,0c-1.1-0.1-1.1,1.6,0,1.7
			c0,0,0,0,0,0c-0.1-0.6-0.2-1.1-0.2-1.7c-2.1,0.7-4.3,0.1-6.4,0.7C1656.9,860.5,1657.3,862.2,1658.4,861.8L1658.4,861.8z"/>
		<path fill="#78BECA" d="M1657.9,862.5c1.2,0.2,2.2,1,3.3,1.3c1.7,0.4,3.7,0.3,5.5,0c1-0.2,0.7-1.7-0.2-1.7c-0.1,0-0.2,0-0.3,0
			c-1.1,0-1.1,1.7,0,1.7c0.1,0,0.2,0,0.3,0c-0.1-0.6-0.2-1.1-0.2-1.7c-1.6,0.3-3.6,0.3-5.2-0.2c-0.9-0.3-1.7-0.9-2.7-1.1
			C1657.3,860.6,1656.9,862.3,1657.9,862.5L1657.9,862.5z"/>
		<path fill="#78BECA" d="M1657.5,863c3.3,1.2,6.3,3.3,9.7,4.3c1.1,0.3,1.5-1.3,0.5-1.6c-3.4-1-6.3-3.1-9.7-4.3
			C1656.9,861,1656.5,862.7,1657.5,863L1657.5,863z"/>
		<path fill="#78BECA" d="M1657.1,863.8c0.8,0.7,1.3,1.8,1.9,2.7c1,1.7,1.9,3.5,2.8,5.2c0.4-0.3,0.9-0.7,1.3-1
			c-0.1-0.1-0.1-0.1-0.2-0.2c-0.7-0.9-1.9,0.4-1.2,1.2c0.1,0.1,0.1,0.1,0.2,0.2c0.6,0.8,1.8-0.2,1.3-1c-1-1.8-1.9-3.7-3-5.4
			c-0.6-0.9-1.2-2.1-2-2.8C1657.5,861.8,1656.3,863,1657.1,863.8L1657.1,863.8z"/>
		<path fill="#78BECA" d="M1655.2,865.2c1.3,2.4,0.9,5.2,1.7,7.8c0.5-0.2,1.1-0.3,1.6-0.5c-0.1-0.2-0.2-0.4-0.3-0.7
			c-0.4-1-2.1-0.6-1.6,0.5c0.1,0.2,0.2,0.4,0.3,0.7c0.4,1,1.9,0.6,1.6-0.5c-0.8-2.7-0.4-5.7-1.8-8.2
			C1656.2,863.4,1654.7,864.2,1655.2,865.2L1655.2,865.2z"/>
		<path fill="#78BECA" d="M1656.3,864c1.9,2.8,3.5,5.8,4.9,8.8c0.5,1,1.9,0.1,1.5-0.9c-1.4-3-3-6-4.9-8.8
			C1657.2,862.2,1655.7,863.1,1656.3,864L1656.3,864z"/>
		<path fill="#78BECA" d="M1655.4,863.9c-0.6,3.3-0.9,6.6-1.2,9.8c-0.1,1.1,1.6,1.1,1.7,0c0.3-3.1,0.6-6.3,1.2-9.4
			C1657.2,863.3,1655.6,862.9,1655.4,863.9L1655.4,863.9z"/>
		<path fill="#78BECA" d="M1654.3,864c-0.6,0.7-1.1,1.6-1.5,2.5c-1,2-1.9,4.1-2.7,6.1c0.4-0.1,0.9-0.1,1.3-0.2
			c-0.1-0.1-0.1-0.1-0.2-0.2c-0.7-0.9-1.9,0.4-1.2,1.2c0.1,0.1,0.1,0.1,0.2,0.2c0.3,0.4,1.1,0.3,1.3-0.2c0.8-1.9,1.6-3.7,2.5-5.6
			c0.4-0.9,0.8-2,1.5-2.7C1656.2,864.4,1655,863.2,1654.3,864L1654.3,864z"/>
		<path fill="#78BECA" d="M1653.3,863.8c-0.9,0.8-1.9,1.5-2.7,2.5c-1.4,1.7-2.8,3.4-4.5,4.9c-0.8,0.7,0.4,1.9,1.2,1.2
			c1.5-1.3,2.9-2.8,4.1-4.4c0.9-1.2,2-2,3.1-3C1655.3,864.3,1654.1,863.1,1653.3,863.8L1653.3,863.8z"/>
		<path fill="#78BECA" d="M1653.6,863.3c-3.7,0-7.3,0.2-11,0.4c-1.1,0.1-1.1,1.8,0,1.7c3.7-0.2,7.3-0.4,11-0.4
			C1654.7,865,1654.7,863.3,1653.6,863.3L1653.6,863.3z"/>
		<path fill="#78BECA" d="M1653.4,862.7c-3,0.1-6.7-0.7-9.5-2.1c-1-0.5-1.8,1-0.9,1.5c3,1.5,7,2.4,10.3,2.3
			C1654.5,864.4,1654.5,862.7,1653.4,862.7L1653.4,862.7z"/>
		<path fill="#78BECA" d="M1653.1,862.2c-1.7-1-3.4-2-5.2-3c-1.3-0.8-2.9-2.1-4.5-2.3c0.3,0.3,0.6,0.6,0.9,0.9c0,0,0-0.1,0-0.1
			c-0.4,0.3-0.7,0.5-1.1,0.8c0,0,0,0,0,0c1.1,0.2,1.5-1.4,0.5-1.6c0,0,0,0,0,0c-0.6-0.1-1,0.3-1.1,0.8c0,0,0,0.1,0,0.1
			c0,0.5,0.4,0.8,0.9,0.9c0.5,0.1,1.4,0.8,1.8,1.1c0.8,0.5,1.6,0.9,2.5,1.4c1.5,0.9,3,1.7,4.5,2.6
			C1653.2,864.2,1654,862.8,1653.1,862.2L1653.1,862.2z"/>
		<path fill="#78BECA" d="M1654,861.7c-1.6-1-2.9-2.3-4.3-3.4c-0.6-0.5-1.3-1.1-2-1.6c-0.7-0.5-1.7-0.9-2-1.7
			c-0.4-1-1.9-0.1-1.5,0.9c0.3,0.8,1,1.2,1.7,1.6c0.9,0.6,1.7,1.3,2.6,2c1.5,1.3,3,2.6,4.7,3.7
			C1654.1,863.8,1654.9,862.3,1654,861.7L1654,861.7z"/>
		<path fill="#78BECA" d="M1654.8,860.4c-1.7-1.8-3.5-3.5-5.1-5.3c-0.7-0.8-1.9,0.4-1.2,1.2c1.7,1.8,3.5,3.5,5.1,5.3
			C1654.3,862.4,1655.5,861.2,1654.8,860.4L1654.8,860.4z"/>
		<path fill="#78BECA" d="M1655.4,859.8c-2.1-2.7-4-5.6-6-8.3c-0.7-0.9-2.1,0-1.5,0.9c2.1,2.7,4,5.6,6,8.3
			C1654.6,861.6,1656.1,860.7,1655.4,859.8L1655.4,859.8z"/>
		<path fill="#78BECA" d="M1656.2,859.7c-1.3-3.2-2.4-6.6-3.2-10c-0.3-1.1-1.9-0.6-1.6,0.5c0.8,3.4,1.9,6.8,3.2,10
			C1655,861.2,1656.6,860.7,1656.2,859.7L1656.2,859.7z"/>
		<path fill="#78BECA" d="M1657,859.9c-0.1-2.5-0.1-5-0.2-7.5c0-1.1-1.7-1.1-1.7,0c0.1,2.5,0.1,5,0.2,7.5
			C1655.3,861,1657,861,1657,859.9L1657,859.9z"/>
		<path fill="#78BECA" d="M1657.3,859.5c0-2.5,1.6-4.8,1.6-7.3c0-1.1-1.7-1.1-1.7,0c0,2.5-1.6,4.8-1.6,7.3
			C1655.6,860.6,1657.3,860.6,1657.3,859.5L1657.3,859.5z"/>
		<g>
			<path fill="#BACD7D" d="M1652.8,863.7c-0.2-0.3-0.2-0.7-0.2-1c0-1,0.2-1.9,0.8-2.7c0.6-0.8,1.5-1.3,2.5-1.1
				c0.4,0.1,0.8,0.3,1.1,0.5c0.4,0.2,0.8,0.5,1.1,0.9c0.8,0.9,0.9,2.2,0.4,3.3s-1.7,1.7-2.8,1.7s-2.3-0.7-2.9-1.7"/>
		</g>
	</g>
	<g>
		<path fill="#388740" d="M964.6,1015.1c-0.4-5.4-0.1-10.9,1-16.2c1.1-5.3,3.3-10.6,2.9-16.1c-0.8-10.2-10.4-18.5-7-29.2
			c0.4-1.4,2.6-0.8,2.2,0.6c-3.3,10.4,6.9,19.2,7.1,29.4c0.1,5-1.7,9.8-2.8,14.6c-1.3,5.5-1.6,11.2-1.2,16.8
			C967,1016.5,964.7,1016.5,964.6,1015.1L964.6,1015.1z"/>
		<g>
			<path fill="#32983D" d="M961.3,963.2c0.2-1.3-0.8-2.6-2-3.2c-1.2-0.6-2.5-0.8-3.8-1.1c-1.3-0.3-2.7-0.7-3.6-1.7
				C953,961.3,957.2,964,961.3,963.2z"/>
		</g>
		<g>
			<path fill="#32983D" d="M967.1,975.2c-0.9-2.6-3.5-4.1-6.1-4.9s-5.4-1-7.9-2c1.5,2.3,3.4,4.3,5.8,5.6
				C961.3,975.2,964.4,975.9,967.1,975.2z"/>
		</g>
		<g>
			<path fill="#32983D" d="M969.2,973.2c-0.7-1.1-0.3-2.7,0.5-3.7c0.8-1,2-1.7,3.1-2.5c1.1-0.8,2.2-1.7,2.6-2.9
				C976,968.1,973.2,972.2,969.2,973.2z"/>
		</g>
		<g>
			<path fill="#32983D" d="M970.1,990.7c0-2.7,1.9-5.1,4.1-6.7c2.2-1.6,4.7-2.8,6.7-4.5c-0.6,2.7-1.7,5.2-3.6,7.3
				C975.5,988.8,972.8,990.5,970.1,990.7z"/>
		</g>
		<g>
			<path fill="#32983D" d="M967.4,990.4c-0.1-2.4-1.9-4.3-3.9-5.6c-2-1.3-4.2-2.2-6.1-3.6c0.6,2.3,1.8,4.5,3.5,6.1
				C962.6,989,965.1,990.3,967.4,990.4z"/>
		</g>
		<g>
			<path fill="#32983D" d="M968.8,999.9c2.1-1.4,4.9-1.9,7.3-1.2c-0.8-0.3-1.5,0.4-2,1s-0.7,1.5-1.3,2c-0.7,0.5-1.6,0.6-2.4,0.6
				c-0.8,0-1.8-0.1-2.2-0.8C968,1001.2,968,1000.5,968.8,999.9z"/>
		</g>
		<path fill="#78BECA" d="M963.3,940.1c-1.6-2.4-3.2-4.8-4.8-7.2c-0.6-0.8-2.2-0.6-2.1,0.6c0,0.1,0,0.3,0,0.4c0.2,1.4,2.4,1.4,2.3,0
			c0-0.1,0-0.3,0-0.4c-0.7,0.2-1.4,0.4-2.1,0.6c1.6,2.4,3.2,4.8,4.8,7.2C962.2,942.5,964.1,941.3,963.3,940.1L963.3,940.1z"/>
		<path fill="#78BECA" d="M962.6,940.5c-2.1-1.2-4.5-2.9-5.8-5c-0.8-1.2-2.7-0.1-1.9,1.1c1.6,2.4,4.1,4.3,6.6,5.8
			C962.7,943.1,963.8,941.2,962.6,940.5L962.6,940.5z"/>
		<path fill="#78BECA" d="M961,940.7c-2.2-0.6-4-0.2-7-0.8c0,0.7,0,1.5,0,2.2c0,0,0.3,0,0.3,0c1.4-0.3,1-2.5-0.4-2.2c0,0,0,0,0,0
			c-1.1,0.3-1,1.9,0,2.2c2.2,0.6,4.4,0.1,6.6,0.8C961.9,943.3,962.4,941.2,961,940.7L961,940.7z"/>
		<path fill="#78BECA" d="M960.7,941.4c-1,0.2-1.9,0.8-2.9,1.1c-1.6,0.6-3.7,0.5-5.3,0.2c-0.1,0.7-0.2,1.5-0.3,2.2
			c0.1,0,0.2,0,0.3,0c1.5,0.1,1.5-2.2,0-2.3c-0.1,0-0.2,0-0.3,0c-1.2,0-1.6,2-0.3,2.2c1.9,0.3,4,0.4,5.9,0c1.2-0.3,2.3-1.1,3.5-1.3
			C962.7,943.3,962.1,941.1,960.7,941.4L960.7,941.4z"/>
		<path fill="#78BECA" d="M961.1,942c-3.5,1.2-6.6,3.4-10.1,4.5c-1.4,0.4-0.8,2.6,0.6,2.2c3.6-1,6.7-3.2,10.1-4.5
			C963.1,943.7,962.5,941.5,961.1,942L961.1,942z"/>
		<path fill="#78BECA" d="M960.6,943.3c-2.4,2.2-3.8,6-5.3,8.7c-0.6,1.1,0.9,2.4,1.8,1.4c0.1-0.1,0.1-0.1,0.2-0.2
			c0.9-1.1-0.7-2.7-1.6-1.6c-0.1,0.1-0.1,0.1-0.2,0.2c0.6,0.5,1.2,0.9,1.8,1.4c1.4-2.6,2.7-6.2,4.9-8.2
			C963.3,943.9,961.7,942.3,960.6,943.3L960.6,943.3z"/>
		<path fill="#78BECA" d="M962.3,945.2c-1.5,2.7-1.1,5.8-1.9,8.7c-0.4,1.4,1.6,1.9,2.2,0.6c0.1-0.2,0.2-0.5,0.3-0.7
			c0.5-1.3-1.6-1.9-2.2-0.6c-0.1,0.2-0.2,0.5-0.3,0.7c0.7,0.2,1.5,0.4,2.2,0.6c0.7-2.7,0.3-5.7,1.7-8.1
			C965,945,963,943.9,962.3,945.2L962.3,945.2z"/>
		<path fill="#78BECA" d="M961.2,943.9c-2,2.9-3.6,6.1-5.1,9.3c-0.6,1.3,1.3,2.5,1.9,1.1c1.5-3.2,3.1-6.3,5.1-9.3
			C963.9,943.9,962,942.7,961.2,943.9L961.2,943.9z"/>
		<path fill="#78BECA" d="M962,945.4c0.6,3.2,0.9,6.5,1.2,9.8c0.1,1.4,2.4,1.4,2.3,0c-0.4-3.5-0.6-7-1.3-10.4
			C963.9,943.4,961.7,944,962,945.4L962,945.4z"/>
		<path fill="#78BECA" d="M963.6,946.4c0.7,0.7,1.1,1.9,1.5,2.8c0.9,1.9,1.7,3.8,2.6,5.8c0.3,0.6,1.3,0.7,1.8,0.2
			c0.1-0.1,0.1-0.1,0.2-0.2c0.9-1.1-0.7-2.7-1.6-1.6c-0.1,0.1-0.1,0.1-0.2,0.2c0.6,0.1,1.2,0.2,1.8,0.2c-0.9-2.1-1.8-4.3-2.9-6.4
			c-0.5-0.9-0.9-1.9-1.6-2.6C964.3,943.7,962.7,945.3,963.6,946.4L963.6,946.4z"/>
		<path fill="#78BECA" d="M964.7,946.1c1.1,1,2.2,1.8,3.1,2.9c1.3,1.7,2.8,3.3,4.4,4.8c1.1,1,2.7-0.6,1.6-1.6
			c-1.7-1.6-3.2-3.3-4.7-5.1c-0.8-1-1.9-1.8-2.9-2.6C965.2,943.6,963.6,945.2,964.7,946.1L964.7,946.1z"/>
		<path fill="#78BECA" d="M965.8,946.2c3.9,0,7.7,0.2,11.6,0.4c1.5,0.1,1.4-2.2,0-2.3c-3.8-0.2-7.7-0.5-11.6-0.4
			C964.3,944,964.3,946.3,965.8,946.2L965.8,946.2z"/>
		<path fill="#78BECA" d="M965.9,945.6c3.6,0.1,7.7-0.9,10.9-2.5c1.3-0.6,0.2-2.6-1.1-1.9c-2.8,1.4-6.7,2.2-9.8,2.2
			C964.5,943.3,964.5,945.6,965.9,945.6L965.9,945.6z"/>
		<path fill="#78BECA" d="M967.3,944.8c1.6-0.9,3.1-1.8,4.7-2.7c0.8-0.5,1.6-0.9,2.4-1.4c0.5-0.3,1.5-1.2,2-1.2
			c0.6-0.1,1.2-0.5,1.1-1.1c0,0,0-0.1,0-0.1c-0.1-0.8-0.7-1.3-1.4-1.1c0,0,0,0,0,0c-1.4,0.3-0.8,2.5,0.6,2.2c0,0,0,0,0,0
			c-0.5-0.4-1-0.7-1.4-1.1c0,0,0,0.1,0,0.1c0.4-0.4,0.8-0.8,1.1-1.1c-1.7,0.2-3.4,1.7-4.8,2.5c-1.8,1-3.6,2.1-5.4,3.1
			C964.9,943.6,966.1,945.5,967.3,944.8L967.3,944.8z"/>
		<path fill="#78BECA" d="M966.3,944.3c1.8-1.2,3.4-2.6,5-3.9c1.3-1.1,3.7-2.2,4.4-3.8c0.6-1.3-1.4-2.5-1.9-1.1
			c-0.4,0.8-1.4,1.2-2.1,1.8c-0.7,0.5-1.3,1.1-2,1.6c-1.5,1.2-2.9,2.5-4.5,3.6C964,943.1,965.1,945.1,966.3,944.3L966.3,944.3z"/>
		<path fill="#78BECA" d="M966,942.6c1.7-1.9,3.7-3.7,5.4-5.6c1-1.1-0.6-2.7-1.6-1.6c-1.7,1.9-3.7,3.7-5.4,5.6
			C963.4,942.1,965,943.7,966,942.6L966,942.6z"/>
		<path fill="#78BECA" d="M965.6,941.6c2.2-2.9,4.1-5.8,6.3-8.7c0.9-1.2-1.1-2.3-1.9-1.1c-2.2,2.9-4.1,5.8-6.3,8.7
			C962.8,941.6,964.7,942.7,965.6,941.6L965.6,941.6z"/>
		<path fill="#78BECA" d="M965,941c1.4-3.4,2.5-7,3.4-10.5c0.3-1.4-1.8-2-2.2-0.6c-0.9,3.6-2,7.1-3.4,10.5
			C962.2,941.7,964.4,942.3,965,941L965,941z"/>
		<path fill="#78BECA" d="M964.3,940.7c0.1-2.6,0.1-5.2,0.2-7.8c0-1.5-2.2-1.5-2.3,0c-0.1,2.6-0.1,5.2-0.2,7.8
			C962,942.1,964.2,942.1,964.3,940.7L964.3,940.7z"/>
		<path fill="#78BECA" d="M963.9,940.2c-0.1-2.6-1.7-5-1.7-7.6c0-1.5-2.3-1.5-2.3,0c0.1,2.6,1.7,5,1.7,7.6
			C961.6,941.7,963.9,941.7,963.9,940.2L963.9,940.2z"/>
		<g>
			<path fill="#BACD7D" d="M966.6,944.6c0.2-0.3,0.2-0.7,0.2-1c0-1-0.2-2-0.8-2.8c-0.6-0.8-1.6-1.4-2.6-1.2
				c-0.4,0.1-0.8,0.3-1.2,0.5c-0.4,0.3-0.8,0.5-1.2,0.9c-0.8,0.9-1,2.3-0.4,3.4c0.6,1.1,1.8,1.8,3,1.8c1.2,0,2.4-0.7,3-1.7"/>
		</g>
	</g>
	<g>
		<g>
			<path fill="#406F34" d="M1297.2,881.3c7.1-2.3,14,3.6,19.1,9c5.7,6.1,11.4,12.1,17,18.2c1.4,1.5,2.8,3.1,3.2,5.1
				c0.7,3.8-2.8,7.3-6.6,8c-3.8,0.7-7.6-0.7-11.2-2.1c-11.1-4.3-22.6-9-34.5-8.3c-4.9,0.3-9.7,1.5-14.5,2
				c-10.7,1.2-21.6-0.6-32.1-3.1c-6-1.4-17.4-3.7-19.7-9.5c-2.7-6.9,7.3-14.3,12.5-19.6c7.2-7.3,14.8-14.5,24.1-18.8
				c9.3-4.3,20.5-5.5,29.7-0.9c7.5,3.8,12.6,10.8,17.5,17.6"/>
		</g>
		<g>
			<path fill="#EEECC7" d="M1226,874.5c10.9-38.3,15.1-61,12.6-100.7c-0.3-4-0.6-8.1-2.3-11.7c-2-4.5-5.9-7.9-9.6-11.1
				c-11.3-9.6-23.3-19.5-29.6-32.7c-0.8-1.8,0.8-3.8,2.7-3.3c12.5,2.9,24.5,7.8,35.3,14.7c1.5,1,3.5-0.1,3.6-1.9l5.4-113.1
				c1-21.2,2-42.5-1.1-63.5c-2.7-18.2-8.6-36.2-19.3-51.1c-1.5-2,0.8-4.6,3-3.5c5.5,2.8,10.4,7,14.1,12c1.1,1.5,3.5,1.3,4.2-0.5
				c7.9-19.7,18.5-38.4,31.3-55.3c1.5-2,4.6-0.7,4.3,1.7c-3.3,24.6-5.3,49.3-6,74c-0.1,2.2,2.6,3.3,4.1,1.7l5-5
				c1.9-1.9,4.9,0.2,3.9,2.6c-7.8,18.1-9.4,39.1-8.9,59.1c0.7,23.5,3.9,47,1.8,70.3c-0.2,2.2,2.4,3.5,4,2
				c7.3-7.1,16.4-11.9,29.6-15.8c2.2-0.7,4,1.8,2.6,3.7c-12.4,17.1-13.5,22.4-26.3,36.4c-2.1,2.3-5.6,4.5-7.1,7.2
				c-1.3,2.2-1.6,4.9-1.9,7.5c-1.2,12.1-2.5,24.2-3.7,36.3c-2.9,28-5.6,57.3,4.9,83.4c9.5,23.7,29.5,44.2,32.4,68.9
				c0.5,4.1-2.3,8-6.4,8.8c-3.8,0.7-7.6,0.7-10.8-1.1c-10.4-6-26-5.5-35.2,2.2c-12.8,10.8-14.8,0.9-28.2,3.7
				C1203.3,907,1220,889,1226,874.5"/>
		</g>
		<path fill="#A8A29C" d="M1294.4,886.4c-11.2-12.6-22.8-25.7-29.5-41.4c-7.3-16.9-6.9-35.4-4.5-53.3c2.5-18.5,6.6-36.8,6.5-55.5
			c-0.1-19.4-3.6-38.6-4-58c-0.4-16.9,1.4-34.4,9.4-49.6c1-1.8,2-3.6,3.1-5.3c0.3-0.5-0.4-0.9-0.7-0.4
			c-9.3,14.2-12.4,31.4-12.7,48.2c-0.4,19.4,3.1,38.6,3.9,57.9c0.4,9.7,0,19.3-1.2,29c-1.2,9.4-2.9,18.8-4.3,28.1
			c-2.7,17.8-4.2,36.3,1.6,53.7c5.5,16.2,16.4,29.7,27.5,42.4c1.4,1.6,2.9,3.2,4.3,4.9C1294.1,887.4,1294.7,886.8,1294.4,886.4
			L1294.4,886.4z"/>
		<path fill="#A8A29C" d="M1268.2,891.5c-12.6-14.2-18.7-32.9-21.1-51.4c-2.5-19.3-1-38.8,1.3-58c2.4-19.6,5.8-39,7.1-58.7
			c0.7-9.8,0.8-19.7,0.1-29.5c-0.7-10.5-2.2-20.9-2.5-31.3c-0.3-9.7,0.7-19.4,3.8-28.7c2.8-8.6,7.1-16.8,12.7-23.9
			c1.4-1.7,2.8-3.4,4.3-5c0.4-0.4-0.2-1-0.6-0.6c-12.3,13.2-19.7,30.5-20.9,48.5c-0.7,10.6,0.5,21.3,1.5,31.9
			c1,10.3,1.5,20.6,1.1,30.9c-0.8,20.1-4.1,39.9-6.7,59.8c-2.6,19.7-4.7,39.6-2.8,59.4c1.7,18.5,6.8,37.3,18,52.4
			c1.3,1.7,2.6,3.4,4,5C1268,892.6,1268.6,892,1268.2,891.5L1268.2,891.5z"/>
		<path fill="#A8A29C" d="M1273,812c1,10.3,5.8,19.5,11.4,28c5.9,8.8,12.6,17,18,26.1c3,5.1,5.5,10.5,7,16.2c0.1,0.5,1,0.3,0.8-0.2
			c-2.7-10.1-8.4-19-14.4-27.4c-6-8.5-12.6-16.7-17.2-26.1c-2.5-5.2-4.3-10.8-4.9-16.6C1273.8,811.5,1273,811.5,1273,812L1273,812z"
			/>
		<path fill="#A8A29C" d="M1276.2,712.6c-2.4-9.1-3.9-19.1-1.1-28.3c1.3-4.5,3.7-8.5,7-11.8c3.1-3.2,6.9-5.8,10.7-8.2
			c4.3-2.7,8.7-5.1,12.8-8.1c0.4-0.3,0-1.1-0.4-0.7c-7.4,5.3-16,9.1-22.7,15.4c-3.3,3.2-5.9,7-7.5,11.3c-1.6,4.5-2.2,9.4-2.1,14.1
			c0.1,5.6,1.2,11.1,2.6,16.5C1275.5,713.3,1276.3,713.1,1276.2,712.6L1276.2,712.6z"/>
		<path fill="#A8A29C" d="M1221,727.6c8.9,6,14,17,12.9,27.6c-0.1,0.5,0.8,0.5,0.9,0c0.9-8.5-2.1-17.2-7.8-23.6
			c-1.6-1.8-3.5-3.4-5.5-4.8C1221,726.6,1220.5,727.3,1221,727.6L1221,727.6z"/>
		<path fill="#A8A29C" d="M1248.4,623.3c4.6-8.7,7.9-18.2,10-27.8c2.1-9.8,3.2-19.7,3.7-29.7c0.5-10.1,0.4-20.3,0.3-30.4
			c-0.1-9.3-0.3-18.6,0.9-27.9c1.2-8.8,3.8-17.6,9.1-24.7c0.7-0.9,1.4-1.8,2.2-2.7c0.4-0.4-0.2-1-0.6-0.6c-5.9,6.6-9.2,15-10.8,23.6
			c-1.7,8.9-1.8,18-1.7,27.1c0.1,10.1,0.3,20.3,0,30.4c-0.3,10.2-1.1,20.4-3,30.4c-1.8,9.9-4.7,19.6-9.1,28.6
			c-0.5,1.1-1.1,2.2-1.7,3.3C1247.4,623.3,1248.1,623.7,1248.4,623.3L1248.4,623.3z"/>
		<g>
			<path fill="#8E8E8E" d="M1250.3,527.3c0-1-0.1-2,0.5-2.8c0.6-0.8,1.9-1.3,2.9-0.7c1.1,0.6,1.2,1.9,1.1,2.9
				c-0.1,1.1-0.5,2.4-1.6,2.9C1252.1,530,1250.2,528.3,1250.3,527.3L1250.3,527.3z"/>
		</g>
		<g>
			<path fill="#8E8E8E" d="M1270.3,666.2c-0.5-2.7-1-5.5-0.7-8.3c0.3-2.8,1.9-5.3,3.5-4.8c1.7,0.6,2.5,3.9,2.8,6.8
				c0.4,3.2,0.5,6.9-0.7,9.5c-1.2,2.6-4.2,2.3-4.6-1"/>
		</g>
		<g>
			<path fill="#8E8E8E" d="M1241.4,748.1c-0.6-2.8-0.6-5.7,0.2-8.3c0.4-1.4,1.3-3,3.6-2.7c1.9,0.3,3.3,1.7,3.4,3.3l0.3,7.8
				c0.1,1.5-0.6,3-2.1,3.9C1244.1,753.6,1242.2,751.3,1241.4,748.1"/>
		</g>
	</g>
</g>
</svg>
