<?xml version="1.0" encoding="utf-8"?>
<!-- Generator: Adobe Illustrator 18.0.0, SVG Export Plug-In . SVG Version: 6.00 Build 0)  -->
<!DOCTYPE svg PUBLIC "-//W3C//DTD SVG 1.1//EN" "http://www.w3.org/Graphics/SVG/1.1/DTD/svg11.dtd">
<svg version="1.1" id="图层_1" xmlns="http://www.w3.org/2000/svg" xmlns:xlink="http://www.w3.org/1999/xlink" x="0px" y="0px"
	 width="1920px" height="1080px" viewBox="0 0 1920 1080" enable-background="new 0 0 1920 1080" xml:space="preserve">
<g>
	<g>
		<path fill="#20512B" d="M1788.4,1021.1c-8.6-6.2-20.3-1.2-30.2,2.5c-5.6,2.1-11.8,3.8-17.5,1.8c-5.6-2-9.8-9-6.7-14.1
			c4.5-7.5,19-4.4,22-12.7c2.2-6.2-4.6-11.7-6.5-18c-2.5-8,4.2-16.8,12.4-18.6c5.7-1.3,13.2-0.6,15.9-5.9
			c4.4-8.6-11.5-19.3-5.4-26.9c4.6-5.7,15.7-0.3,20.2-6.1c3.3-4.2-0.1-10.1-3-14.5s-4.8-11.5-0.2-14.2c2.2-1.3,5.1-0.8,7.5-1.6
			c5-1.7,6.7-8,6.6-13.3s-1.1-11,1.7-15.6c2.6-4.4,8.4-6.5,13.4-5.1c4.9,1.4,8.7,6,9.5,11c1.1,6.2-1.4,13.8,3.2,18.1
			c3.9,3.5,10.3,2.1,14.8,4.7c4.9,2.9,5.8,10.7,1.6,14.6c-3.5,3.2-10.1,5.4-8.7,9.9c1.3,3.8,6.8,3.1,10.8,3.7
			c8.3,1.2,12.4,13.3,6.5,19.3c-4.1,4.2-12,6.3-11.9,12.2c0.2,6.8,9.9,5.1,16.4,7.4c10.3,3.6,19.7,14.7,12.4,22.7
			c-1.9,2-4.2,3.6-5.8,5.9c-1.6,2.3-2,5.7,0,7.6c6.2,3.3,16.3,3.5,21.2,5c4.9,1.5,5.2,9.4,3.6,14.3c-0.8,2.5-2.9,4.4-5.1,5.9
			c-7.5,5.3-10.9,5.5-20.1,4.8c-9.8-0.8-20.1-5-29.1-1c-2.7,1.2-5,3.1-7.6,4.5C1820,1034.9,1800,1031.5,1788.4,1021.1"/>
	</g>
	<g>
		<path fill="#345C2E" d="M1372.5,895.4c-11.5-8.3-27.1-1.6-40.4,3.4c-7.5,2.8-15.8,5.1-23.3,2.4s-13-12.1-8.9-18.9
			c6.1-10.1,25.4-5.9,29.4-17c3-8.3-6.2-15.6-8.7-24c-3.3-10.7,5.6-22.4,16.5-24.9c7.7-1.7,17.6-0.9,21.2-7.9
			c5.9-11.5-15.3-25.8-7.1-36c6.1-7.6,21-0.4,27-8.1c4.3-5.6-0.1-13.5-4-19.4s-6.4-15.3-0.3-18.9c3-1.7,6.8-1.1,10-2.2
			c6.7-2.2,8.9-10.7,8.8-17.8s-1.4-14.7,2.2-20.8c3.5-5.9,11.3-8.6,17.8-6.8c6.6,1.9,11.6,8,12.7,14.7c1.4,8.3-1.9,18.5,4.3,24.1
			c5.2,4.7,13.7,2.8,19.8,6.3c6.6,3.8,7.7,14.3,2.1,19.5c-4.7,4.3-13.6,7.3-11.6,13.3c1.7,5.1,9,4.1,14.4,4.9
			c11.1,1.6,16.5,17.8,8.7,25.7c-5.5,5.6-16,8.4-15.8,16.2c0.2,9.1,13.3,6.8,21.9,9.9c13.8,4.9,26.3,19.6,16.5,30.3
			c-2.5,2.7-5.6,4.8-7.7,7.8s-2.7,7.6,0,10.1c8.3,4.4,21.8,4.6,28.3,6.7c6.5,2.1,6.9,12.6,4.8,19.1c-1.1,3.4-3.9,5.8-6.8,7.9
			c-10,7.1-14.6,7.4-26.8,6.5c-13.1-1-26.9-6.7-39-1.3c-3.6,1.6-6.7,4.1-10.1,6C1415,913.8,1388.3,909.4,1372.5,895.4"/>
	</g>
	<polygon fill="#194223" points="139.9,1075.3 68.3,862.6 0,1075.3 	"/>
	<polygon fill="#194223" points="1349.3,875 1299.3,725.8 1251.3,875 	"/>
	<polygon fill="#345C2E" points="1095.1,859.2 1044.9,710.1 996.9,859.2 	"/>
	<polygon fill="#194223" points="577.5,980.8 475.3,677.6 378,980.8 	"/>
	<polygon fill="#345C2E" points="1737.9,753.9 1798.6,954.8 1667.8,950.7 	"/>
	<g>
		<path fill="#1E4F2A" d="M239.6,985.4c9.3-7.1,22.5-2.2,33.8,1.5c6.3,2.1,13.3,3.6,19.5,1.2c6.2-2.4,10.5-10.3,6.8-15.7
			c-5.4-8-21.3-4-25-12.9c-2.7-6.7,4.6-13,6.5-19.9c2.4-8.8-5.4-18.2-14.5-19.8c-6.4-1.2-14.7-0.1-17.9-5.7
			c-5.3-9.2,11.9-21.6,4.8-29.6c-5.3-6-17.5,0.3-22.7-5.8c-3.8-4.4-0.3-11,2.7-16s4.9-12.8-0.3-15.5c-2.5-1.3-5.6-0.7-8.4-1.5
			c-5.7-1.6-7.8-8.5-7.9-14.3c-0.1-5.8,0.7-12.1-2.5-17c-3.1-4.7-9.6-6.7-15.1-5c-5.4,1.8-9.4,6.9-10.1,12.4
			c-0.9,6.8,2.2,15-2.8,19.9c-4.2,4-11.3,2.7-16.3,5.8c-5.3,3.3-6,12-1.2,16c4,3.4,11.5,5.5,10.1,10.5c-1.2,4.3-7.4,3.7-11.8,4.5
			c-9.2,1.7-13.2,15-6.4,21.3c4.8,4.4,13.6,6.3,13.7,12.8c0.1,7.5-10.8,6-17.9,8.8c-11.3,4.4-21.3,16.9-12.8,25.3
			c2.1,2.1,4.8,3.7,6.6,6.2c1.8,2.4,2.5,6.1,0.3,8.3c-6.7,3.9-18,4.5-23.3,6.4c-5.4,1.9-5.3,10.5-3.4,15.8c1,2.7,3.4,4.7,5.9,6.2
			c8.6,5.5,12.4,5.6,22.5,4.4c10.9-1.2,22.1-6.4,32.3-2.3c3,1.2,5.7,3.1,8.6,4.5C204.7,1001.7,227,997.3,239.6,985.4"/>
	</g>
	<g>
		<path fill="#345C2E" d="M867.7,881.8c8.9-6.8,21.6-2.1,32.3,1.4c6,2,12.8,3.5,18.7,1.2s10.1-9.9,6.6-15.1
			c-5.1-7.7-20.5-3.9-24-12.4c-2.6-6.4,4.4-12.5,6.3-19.2c2.3-8.5-5.1-17.5-13.9-19c-6.2-1.1-14.1-0.1-17.2-5.5
			c-5.1-8.9,11.5-20.8,4.6-28.4c-5.1-5.8-16.8,0.3-21.8-5.5c-3.6-4.3-0.3-10.6,2.6-15.4c2.9-4.8,4.7-12.3-0.3-14.9
			c-2.4-1.3-5.4-0.7-8.1-1.4c-5.4-1.5-7.5-8.1-7.6-13.7c-0.1-5.6,0.7-11.6-2.4-16.3c-3-4.5-9.3-6.4-14.5-4.8c-5.2,1.7-9,6.6-9.7,12
			c-0.9,6.6,2.1,14.4-2.7,19.1c-4,3.9-10.9,2.6-15.6,5.6c-5.1,3.2-5.7,11.5-1.1,15.4c3.9,3.2,11.1,5.3,9.7,10.1
			c-1.2,4.1-7.1,3.5-11.3,4.3c-8.8,1.6-12.7,14.5-6.2,20.5c4.6,4.3,13.1,6.1,13.1,12.3c0.1,7.2-10.4,5.8-17.2,8.4
			c-10.8,4.2-20.5,16.2-12.3,24.4c2.1,2,4.6,3.6,6.4,5.9c1.7,2.3,2.4,5.9,0.3,7.9c-6.5,3.7-17.3,4.3-22.4,6.1
			c-5.1,1.8-5.1,10.1-3.2,15.2c1,2.6,3.3,4.5,5.7,6c8.2,5.3,11.9,5.4,21.7,4.3c10.4-1.2,21.3-6.1,31-2.2c2.9,1.2,5.4,3,8.3,4.4
			C834.2,897.5,855.7,893.2,867.7,881.8"/>
	</g>
	<g>
		<path fill="#79A459" d="M1920,1079.9c-19.9-47.9-61.2-85.2-104.5-114.9c-219.3-150.2-523.3-152.9-806.1-158.3
			c-266-5.2-500.1,26-752.8,108.9C185,939.1,114,969.1,56.7,1018c-21,18-40.2,38.9-55.9,61.9H1920L1920,1079.9z"/>
	</g>
	<g>
		<path fill="#3F6D34" d="M1725.3,937.6c8.5-2.2,14.8-0.6,18.7,5.7c1.2,2,1.7,5.2-0.3,6.4c-1,0.6-2.2,0.5-3.3,0.4
			c-2-0.2-4-0.3-6-0.5c-3.6-0.3-7.5-0.7-10.1-3.2C1721.5,944,1721,939.1,1725.3,937.6z"/>
	</g>
	<g>
		<path fill="#3F6D34" d="M773.9,1018.6c8.5-2.2,14.8-0.6,18.7,5.7c1.2,2,1.7,5.2-0.3,6.4c-1,0.6-2.2,0.5-3.3,0.4
			c-2-0.2-4-0.3-6-0.5c-3.6-0.3-7.5-0.7-10.1-3.2C770.3,1025,769.7,1020.1,773.9,1018.6z"/>
	</g>
	<g>
		<path fill="#738C53" d="M1066.5,974.2c5.3-4.7,10.6-5.8,15.7-2.7c1.7,1,3.1,3.1,2.1,4.8c-0.5,0.8-1.4,1.2-2.2,1.5
			c-1.5,0.6-3,1.2-4.5,1.9c-2.7,1.1-5.7,2.3-8.5,1.4C1066.4,980.2,1064,976.8,1066.5,974.2z"/>
	</g>
	<g>
		<path fill="#3F6D34" d="M1366,851.6c-0.7,4.2,4.2,6.4,6.7,4.9s2.7-5.7,0.3-7.5C1370.8,847.3,1366.8,848.7,1366,851.6z"/>
	</g>
	<g>
		<path fill="#98B459" d="M1232.1,969.5c-1.5,9.3,9.3,14.1,14.8,10.7s5.9-12.6,0.6-16.4C1242.3,959.9,1233.6,963.1,1232.1,969.5z"/>
	</g>
	<g>
		<path fill="#3F6D34" d="M86.1,1027c1-3.9,4.4-7.4,8.4-7.4s7.7,4.5,6,8.2c-1.2,2.6-4.3,3.7-7.1,4.5c-2,0.6-4.3,1.1-6.1,0.1
			C85.4,1031.3,85.6,1029,86.1,1027z"/>
	</g>
	<g>
		<path fill="#738C53" d="M1706,1013.6c-5,0.8-10.7-1.4-12.6-6.1c-1.9-4.7,1.5-11.1,6.5-10.8c3.6,0.2,6.3,3.2,8.6,6.1
			c1.6,2,3.4,4.4,3.1,7C1711.4,1012.4,1708.5,1013.2,1706,1013.6z"/>
	</g>
	<g>
		<path fill="#738C53" d="M469.7,1032.7c-4.8-0.2-9.8-3.4-10.8-8.3c-1.1-4.9,3.2-10.5,7.9-9.3c3.4,0.8,5.4,4.3,7.1,7.5
			c1.2,2.3,2.4,4.9,1.8,7.4C474.9,1032.5,472.2,1032.8,469.7,1032.7z"/>
	</g>
	<g>
		<path fill="#3F6D34" d="M811.5,877.7c1-4.2,4.7-7.9,9-8c4.3,0,8.2,4.8,6.4,8.7c-1.3,2.8-4.7,3.9-7.6,4.8c-2.2,0.6-4.6,1.2-6.5,0.1
			C810.9,882.2,811,879.8,811.5,877.7z"/>
	</g>
	<g>
		<path fill="#3F6D34" d="M390.7,910.6c0-5.1,9.8-8.2,13.6-4.8c3.8,3.4,2.1,10.8-2.8,12.5C396.7,919.9,391,915.7,390.7,910.6z"/>
	</g>
	<g>
		<path fill="#98B459" d="M552,993.4c0-3.8,7.3-6.2,10.2-3.6c2.9,2.6,1.5,8.1-2.1,9.3C556.5,1000.4,552.2,997.2,552,993.4z"/>
	</g>
	<g>
		<path fill="#98B459" d="M927.7,880.7c0-4.1,7.8-6.6,10.9-3.8c3,2.7,1.6,8.6-2.2,10C932.5,888.2,927.8,884.8,927.7,880.7z"/>
	</g>
	<g>
		<path fill="#3F6D34" d="M1141.8,924.6c0-4.3,8.2-6.9,11.4-4c3.2,2.9,1.7,9-2.3,10.4S1141.9,928.9,1141.8,924.6z"/>
	</g>
	<g>
		<path fill="#738C53" d="M299.5,1005.2c0-6,11.5-9.6,16-5.6s2.4,12.7-3.3,14.6C306.5,1016.2,299.8,1011.2,299.5,1005.2z"/>
	</g>
	<g>
		<path fill="#2B7839" d="M194.7,1025c-1.9-7.3-1.4-14.5,0.7-21.7c1.6-5.5,3.3-11.9-0.5-17c-0.6-0.7-1.8,0-1.3,0.7
			c4.3,5.8,1,12.9-0.5,19c-1.6,6.4-1.5,13,0.1,19.3C193.5,1026.3,194.9,1025.9,194.7,1025L194.7,1025z"/>
		<g>
			<path fill="#D54823" d="M189.4,982.6c-1.7-1.1-2.3-3.6-1.3-5.4c0.2-0.5,0.6-0.9,1.1-1.2c1-0.5,2.3,0.2,2.9,1.1
				c0.6,1,0.7,2.2,0.8,3.3c0.6-1.4,2.3-2,3.8-2.2c0.6-0.1,1.2-0.1,1.8,0.1c1,0.4,1.7,1.6,1.5,2.6s-1.3,1.9-2.4,1.9
				c1.4,0.5,2.8,1.5,3.4,2.9c0.6,1.4,0,3.4-1.5,3.8c-1.6,0.5-3.1-0.8-4.3-2c0.1,1.7-1,3.3-2.5,4c-0.6,0.3-1.8,0.1-2.4-0.3
				s-1.1-1.1-1.2-1.8c-0.2-1.4,0-3.2,0.9-4c-1,0.4-2,0.8-3,0.7s-2.1-1-2-2c0.1-0.9,0.9-1.5,1.7-1.7
				C187.5,982.2,188.4,982.4,189.4,982.6"/>
		</g>
		<g>
			<path fill="#2B7839" d="M196.5,1001.1c3.6-1.6,4.7-6.7,8.4-8c-1.5,1.1-1.7,3.1-2.6,4.7C201.2,999.9,198.8,1001.3,196.5,1001.1z"
				/>
		</g>
		<g>
			<path fill="#2B7839" d="M194,1018.1c3.6-1.6,4.7-6.7,8.4-8c-1.5,1.1-1.7,3.1-2.6,4.7C198.7,1016.9,196.4,1018.3,194,1018.1z"/>
		</g>
		<g>
			<path fill="#2B7839" d="M194.8,1009.9c-0.8-1.3,0-3,1.2-3.9s2.8-1.1,4.2-1.2c1.5-0.1,3-0.2,4.3-0.9c-0.5,2-2.7,3-4.6,3.7
				C198.3,1008.3,196.3,1009.3,194.8,1009.9z"/>
		</g>
		<g>
			<path fill="#2B7839" d="M193.6,1004.6c-0.3-2.5-1.9-4.7-4.2-5.8c-1.9-0.9-3.7-1.9-5.2-3.2c0.3,1.9,0.8,3.9,2.1,5.3
				c0.5,0.5,1.1,0.8,1.8,1.1C190.1,1003,191.8,1003.7,193.6,1004.6z"/>
		</g>
		<g>
			<path fill="#2B7839" d="M191.2,1016.8c-0.3-2.5-1.9-4.7-4.2-5.8c-1.9-0.9-3.7-1.9-5.2-3.2c0.3,1.9,0.8,3.9,2.1,5.3
				c0.5,0.5,1.1,0.8,1.8,1.1C187.7,1015.1,189.3,1015.9,191.2,1016.8z"/>
		</g>
	</g>
	<g>
		<g>
			<path fill="#B83A21" d="M1604.3,946.6c0.4,0.1,0.9,0.5,1.1,0.8c0.9,1.1,1.3,2.5,1.2,3.9c0,0.8-0.3,1.6-1,2
				c-0.8,0.4-1.6-0.1-2.3-0.5c-0.3-0.2-0.6-0.4-0.7-0.7c-0.2-0.5,0-1.2,0.3-1.7C1603.6,949.1,1604.1,947.9,1604.3,946.6z"/>
		</g>
		<g>
			<path fill="#B83A21" d="M1643.4,980.8c-1.6,0.7-3.4,0.5-5,1c-1.3,0.4-2.4,1.2-3.1,2.3c-0.1,0.1-0.2,0.3-0.2,0.4
				c0,0.1,0,0.3,0.1,0.4c0.4,0.8,1.4,1.2,2.3,1.1c0.9-0.1,1.7-0.6,2.5-1.1c1.2-0.9,2.4-2,3.3-3.2c0.3-0.3,0.5-0.7,0.4-1.1"/>
		</g>
		<path fill="#296C36" d="M1631.9,1040.5c-1.9-9.3,2.5-18.4,1.8-27.8c-0.6-9-3.4-17.8-5.2-26.6c-0.9-4.5-1.7-9.1-1.5-13.7
			c0-1,1.5-0.9,1.5,0c-0.3,8.6,2.3,17.1,4.2,25.3c1,4.2,1.9,8.5,2.4,12.8c0.5,4.2,0.2,8.3-0.5,12.4c-0.9,5.6-2.4,11.3-1.2,17.1
			C1633.7,1041.1,1632.2,1041.4,1631.9,1040.5L1631.9,1040.5z"/>
		<path fill="#296C36" d="M1628.4,987.8c-3.9-5.4-9.4-9.3-13.9-14.2c-4.3-4.8-7.3-10.6-8.7-16.9c-0.2-0.9,1.2-1.3,1.5-0.4
			c1.5,6.6,4.8,12.5,9.4,17.4c4.3,4.5,9.3,8.3,13,13.3C1630.3,987.8,1628.9,988.5,1628.4,987.8L1628.4,987.8z"/>
		<path fill="#296C36" d="M1633.8,1016.2c-0.1-3.3-2-6.6-4.4-8.9s-5.6-3.6-8.5-5.2c-6.2-3.5-11.9-8-17.4-12.5
			c-0.8-0.6,0.3-1.7,1.1-1.1c6.2,4.9,12.4,9.8,19.4,13.4c2.9,1.5,5.8,3.1,7.9,5.7c1.9,2.4,3.3,5.3,3.4,8.4
			C1635.3,1017.2,1633.8,1017.1,1633.8,1016.2L1633.8,1016.2z"/>
		<g>
			<path fill="#3C6C34" d="M1626.2,1003.9c0.3-1.9,0.4-3.9,0.1-5.8c-0.3-1.9-1.1-3.8-2.4-5.2c0.8,1.6,0.5,3.5,0.6,5.3
				c0.1,1.5,0.4,3,0.7,4.5C1625.3,1003.1,1625.8,1004,1626.2,1003.9"/>
		</g>
		<g>
			<path fill="#3C6C34" d="M1622.4,1000.7c0.4-2.2,0-4.5-1.3-6.3c-1-1.4-2.4-2.6-2.8-4.3c0.7,3.7,1.4,7.5,3.4,10.6
				C1621.7,1000.9,1622.4,1000.9,1622.4,1000.7"/>
		</g>
		<g>
			<path fill="#3C6C34" d="M1617.8,998.4c0.2-1.7-0.8-3.8-2-5.1s-2.7-2.2-4.3-3c1.9,2.6,3.9,5.1,5.8,7.7
				C1617.6,998.2,1617.7,998.4,1617.8,998.4"/>
		</g>
		<g>
			<path fill="#3C6C34" d="M1622.3,1002.4c-1.3,1.8-3.3,3-5.5,3.3c-1.7,0.2-3.6,0-5.1,0.9c3.2-2,6.4-4,10.1-4.7
				C1621.8,1001.8,1622.4,1002.2,1622.3,1002.4"/>
		</g>
		<g>
			<path fill="#3C6C34" d="M1611.2,969.9c-1.6,0.2-3.4-0.3-4.6-1.4c-1-0.8-1.8-2-3-2.3c2.7,0.7,5.5,1.5,7.7,3.2
				C1611.3,969.5,1611.3,969.9,1611.2,969.9"/>
		</g>
		<g>
			<path fill="#3C6C34" d="M1615.1,999.2c-1.2,1.3-3.3,2-5.1,2c-1.7,0-3.5-0.5-5.1-1.1c3.2-0.3,6.4-0.7,9.6-1
				C1614.7,999.1,1614.8,999.1,1615.1,999.2"/>
		</g>
		<g>
			<path fill="#3C6C34" d="M1610.7,993.6c0.2-0.7,0.1-1.5-0.2-2.1c-0.3-0.7-0.8-1.2-1.3-1.8c-1.2-1.3-2.3-2.7-3.3-4.1
				C1606.3,988.6,1608.8,991.3,1610.7,993.6"/>
		</g>
		<g>
			<path fill="#3C6C34" d="M1608.8,994.3c-1.9-0.2-4-0.7-5.7-1.4c0.7,0.9,1.5,1.9,2.6,2.1c0.4,0.1,0.8,0,1.3,0
				C1607.7,994.9,1608.3,994.8,1608.8,994.3"/>
		</g>
		<g>
			<path fill="#3C6C34" d="M1635.4,1012.3c0.6-0.9,2-1.7,3.1-1.7c1-0.1,2.1,0.2,3,0.7c-0.3-1.1-0.9-2.1-1.9-2.6
				c-1-0.4-2.3-0.2-3.1,0.6C1635.9,1010.1,1635.4,1011.2,1635.4,1012.3"/>
		</g>
		<g>
			<path fill="#3C6C34" d="M1617.1,973.1c-0.1-1,0.3-2.6,1-3.4s1.7-1.3,2.7-1.6c-0.9-0.6-2.1-0.9-3.1-0.6c-1,0.4-1.7,1.4-1.8,2.5
				C1615.8,971.2,1616.2,972.3,1617.1,973.1"/>
		</g>
		<g>
			<path fill="#3C6C34" d="M1630.9,1011.1c-0.4-1.7-2.6-3.2-4.4-3.4s-3.5,0.4-5.2,0.9c0.8,0,1.6,0.2,2.4,0.4
				c0.9,0.3,1.8,0.8,2.7,1.1C1627.9,1010.5,1629.4,1010.4,1630.9,1011.1"/>
		</g>
		<g>
			<path fill="#3C6C34" d="M1619.3,979.1c-1-1.5-3.6-2.1-5.3-1.6c-1.7,0.5-3.1,1.6-4.5,2.7c0.8-0.3,1.6-0.4,2.4-0.5
				c1,0,1.9,0.1,2.9,0C1616.3,979.6,1617.7,978.9,1619.3,979.1"/>
		</g>
		<g>
			<path fill="#3C6C34" d="M1637.8,993.9c-0.2,0.1-0.4,0.1-0.6,0.2c-1.2,0.6-1.7,2.1-1.7,3.4s0.4,2.6,0.4,3.9c0,0.4,0,0.7-0.2,1
				s-0.5,0.6-0.8,0.6c-0.5,0-0.8-0.5-0.9-1c-0.5-1.4-0.4-2.9-0.3-4.4c0.1-1,0.3-2,0.8-2.8s1.5-1.5,2.5-1.3c0.5,0.1,1,0.3,1.5,0.3"/>
		</g>
		<g>
			<path fill="#D74C2B" d="M1610.3,950c-0.2,1.9-0.4,4-1.5,5.6s-3.2,2.6-5,1.9c-0.4-0.1-0.7-0.4-1.1-0.6c-1.9-1.3-3.1-3.6-3.3-5.9
				c0.7,1,2,1.4,3.2,1.4C1605.3,952.6,1608.1,951.3,1610.3,950z"/>
		</g>
		<g>
			<path fill="#D74C2B" d="M1640.3,977.5c-2.7,1.2-5.3,2.7-7.8,4.3c-1,0.7-2.1,1.5-2.5,2.7c-0.5,1.5,0.5,3.4,2.1,3.8
				c0.7,0.2,1.4,0.1,2.2,0c1.8-0.2,3.6-0.5,5.4-0.7c-0.4-0.7-1.3-1-1.7-1.7c-0.8-1.1-0.2-2.6,0.4-3.8c0.8-1.6,1.6-3.2,2.4-4.9"/>
		</g>
	</g>
	<g>
		<path fill="#3D2F23" d="M427.4,972.5c0.4-1.7,0.3-3.5,0-5.2c-0.1-0.9-0.3-1.7-0.6-2.5c-0.5-1.3-1.3-2.9-0.1-4.1
			c0.5-0.5-0.3-1.3-0.8-0.8c-1.6,1.7-0.6,3.7,0,5.6c0.7,2.1,1,4.6,0.5,6.7C426.2,972.9,427.2,973.2,427.4,972.5L427.4,972.5z"/>
		<path fill="#3D2F23" d="M422.7,983.2c-0.9-2.2-1.3-4.5-1.2-7c0-0.7-1-0.7-1.1,0c-0.1,2.5,0.3,4.9,1.3,7.2
			C421.9,984.1,423,983.8,422.7,983.2L422.7,983.2z"/>
		<path fill="#3D2F23" d="M424.8,991.5c0.1-2.5,1-5.2,2.3-7.4c0.3-0.6-0.6-1.1-0.9-0.5c-1.4,2.4-2.3,5.2-2.4,8
			C423.7,992.2,424.8,992.2,424.8,991.5L424.8,991.5z"/>
		<path fill="#3D2F23" d="M426.8,1000.5c1.4-1.4,2.5-3.1,3.5-4.8c0.3-0.6-0.6-1.1-0.9-0.5c-0.9,1.6-2,3.3-3.3,4.6
			C425.6,1000.2,426.3,1001,426.8,1000.5L426.8,1000.5z"/>
		<path fill="#3D2F23" d="M426.6,1000.9c-1.2-2-3.2-3.5-5.3-4.5c-0.6-0.3-1.2,0.6-0.5,0.9c1.9,1,3.8,2.2,4.9,4.1
			C426,1002,427,1001.5,426.6,1000.9L426.6,1000.9z"/>
		<g>
			<path fill="#277A3B" d="M426,959.9c-0.2-1.6,0.9-3.2,2.3-4s3.1-0.9,4.7-0.9c-0.4,0.6-0.6,1.3-0.9,2
				C431.3,958.9,428.2,959.9,426,959.9"/>
		</g>
		<g>
			<path fill="#277A3B" d="M426.6,983.8c-0.6-2,0.5-4.2,2.1-5.6c1.7-1.3,3.8-1.8,5.9-2.2c-0.3,0.9-0.4,1.8-0.7,2.7
				C433.1,981.5,429.4,983.4,426.6,983.8"/>
		</g>
		<g>
			<path fill="#277A3B" d="M419.8,975c-1.3-0.5-2.8,0.1-4.1-0.1c-1.7-0.2-3-1.7-3.5-3.3s-0.4-3.4-0.3-5.1c0.1-1.7,0.3-3.4,0-5.1
				c-0.4-2.1-1.8-3.9-3.6-5c2-0.3,4-1.1,6.1-0.7c1.8,0.3,3.3,1.5,4.3,3s1.6,3.2,1.9,5c0.7,3.5,0.8,7.1,0.1,10.6
				C420.6,974.6,420.3,975.2,419.8,975"/>
		</g>
		<g>
			<path fill="#277A3B" d="M407.3,983.2c1.4,1.4,1.3,3.8,1,5.7c-0.4,1.9-0.9,4,0,5.8c0.8,1.6,2.5,2.5,4.2,3.2
				c1.2,0.4,2.5,0.8,3.8,0.7c1.2-0.1,2.4-0.6,3.4-1.3c0.7-0.6,1.2-1.3,1.4-2.2c0.1-0.7-0.1-1.4-0.3-2.1c-0.9-2.8-2.8-5.3-5.1-7
				C413.1,984.2,410.2,983.3,407.3,983.2z"/>
		</g>
		<g>
			<path fill="#277A3B" d="M434.2,996.6c-1.6,0.3-2.7-0.5-3.8-1.7c-1.1-1.2-1.5-2.9-1-4.4c0.3-0.9,0.8-1.6,1.4-2.3
				c1.1-1.4,2.5-2.7,4.1-3.5c1.4-0.7,2.9-1.1,4.4-1.4c2.9-0.7,5.9-1.2,8.8-0.7c2.4,0.4,4.6,1.6,6.7,2.8c-1.6-0.2-3.1,0.3-4.6,0.8
				c-1.7,0.6-3.4,1.4-5,2.2c-2.1,1.1-4.3,2.3-5.8,4.2c-0.7,0.9-1.3,1.9-2.1,2.7C436.4,996.1,435.4,996.5,434.2,996.6z"/>
		</g>
		<path fill="#3D2F23" d="M427.4,1010.4c-1.5,1-1.7-4.1-1.7-9.4c-0.3-1.5-0.5-3-0.9-4.5c-0.5-1.5-0.9-2.9-1.6-4.4
			c-0.6-1.5-1.1-3-1.4-4.7c-0.1-0.8-0.2-1.7-0.2-2.5s0.1-1.7,0.3-2.5c0.8-3.3,2.3-6.1,3.9-8.9v0.1c0.2-0.4,0.4-0.6,0.5-0.9
			c0.2-0.3,0.4-0.6,0.6-0.8c0.4-0.5,0.9-1,1.3-1.5c0.9-0.9,2-1.8,3.1-2.5s2.3-1.3,3.5-1.8s2.4-0.9,3.7-1.2c-1.2,0.5-2.4,1-3.5,1.6
			c-0.6,0.3-1.1,0.6-1.6,1c-0.5,0.3-1,0.7-1.5,1.1c-1,0.8-1.9,1.6-2.7,2.6c-0.4,0.5-0.8,1-1.1,1.5c-0.3,0.5-0.7,1.1-0.9,1.5l0,0l0,0
			c-0.7,1.4-1.4,2.8-2,4.2s-1.2,2.9-1.5,4.3c-0.2,0.7-0.2,1.5-0.3,2.2c0,0.7,0,1.5,0.1,2.2c0.2,1.5,0.7,2.9,1.2,4.4s1.1,3,1.4,4.6
			c0.4,1.6,0.6,3.1,0.8,4.7c0.2,1.6,0.6,3.6,0.6,5.2C427.6,1007.7,428.1,1010.1,427.4,1010.4z"/>
	</g>
	<g>
		<path fill="#2F7F3F" d="M907,840.6c-1.9-7.1-2.7-14.4-2.3-21.7c0.2-3.6,0.7-7.2,1.4-10.8c0.7-3.5,1.4-7.1,1-10.8
			c-0.1-0.7-1.2-0.7-1.2,0c0.4,3.8-0.4,7.6-1.2,11.3c-0.7,3.5-1.1,7.1-1.2,10.7c-0.3,7.3,0.5,14.5,2.4,21.6
			C906.1,841.7,907.2,841.4,907,840.6L907,840.6z"/>
		<g>
			<path fill="#D74C2B" d="M898.5,795.8c-0.7,0.4-1.1,1.2-1.7,1.7c-1,0.8-2.5,0.9-3.6,0.3c-1.1-0.6-1.8-1.9-1.7-3.1
				c0.2-2,2.2-3.4,4.2-3.6c2-0.2,4,0.6,5.8,1.3c-1.1-1.6-2-3.4-2.6-5.2c-0.4-1.2-0.8-2.5-0.3-3.7c0.6-1.6,2.5-2.5,4.1-2.1
				s2.9,1.8,3.4,3.4c0.5,1.6,0.2,3.4-0.6,4.9c0.5-1.9,2-3.3,3.6-4.3c0.9-0.6,2-1.1,3.1-0.9c1.8,0.4,2.6,2.8,1.8,4.5
				s-2.6,2.7-4.4,3.1c1.5,0.8,3.1,1.7,4,3.1c0.9,1.4,1,3.6-0.3,4.7c-1.6,1.3-4,0.4-5.6-0.8c-1.3-1-2.5-2.2-3.5-3.5
				c0.6,1.3,1.2,2.9,0.6,4.2c-0.7,1.4-2.4,1.9-4,2c-1,0.1-2.2,0-2.8-0.9C897.1,799.3,898.6,797.5,898.5,795.8"/>
		</g>
		<g>
			<path fill="#26793D" d="M905.7,813.4c0.3-2.3,1.6-4.4,3.3-6s3.8-2.7,5.8-3.8c-1.6,2.2-3.1,4.3-4.7,6.5
				C909.1,811.5,907.3,813.2,905.7,813.4z"/>
		</g>
		<g>
			<path fill="#26793D" d="M905.3,823.9c0.5-2.3,2-4.3,3.8-5.7s4-2.4,6.1-3.3c-1.7,2-3.5,4.1-5.2,6.1
				C908.8,822.3,907,823.9,905.3,823.9z"/>
		</g>
		<g>
			<path fill="#26793D" d="M903.8,813.4c-0.3-2.3-1.6-4.4-3.3-6s-3.8-2.7-5.8-3.8c1.6,2.2,3.1,4.3,4.7,6.5
				C900.3,811.5,902.2,813.2,903.8,813.4z"/>
		</g>
		<g>
			<path fill="#26793D" d="M902.7,823.9c-0.5-2.3-2-4.3-3.8-5.7s-4-2.4-6.1-3.3c1.7,2,3.5,4.1,5.2,6.1
				C899.1,822.3,901,823.9,902.7,823.9z"/>
		</g>
		<g>
			<path fill="#26793D" d="M905.3,831.7c0.3-1.3,1.1-2.5,2.2-3.3c1.1-0.8,2.3-1.4,3.5-1.9c-1,1.2-2,2.3-3,3.5
				C907.3,830.8,906.3,831.7,905.3,831.7z"/>
		</g>
		<g>
			<path fill="#26793D" d="M903.8,831.7c-0.3-1.3-1.1-2.5-2.2-3.3c-1.1-0.8-2.3-1.4-3.5-1.9c1,1.2,2,2.3,3,3.5
				C901.8,830.8,902.8,831.7,903.8,831.7z"/>
		</g>
	</g>
	<g>
		<path fill="#2F7F3F" d="M693.9,1070.2c-1.9-7.1-2.7-14.4-2.3-21.7c0.2-3.6,0.7-7.2,1.4-10.8c0.7-3.5,1.4-7.1,1-10.8
			c-0.1-0.7-1.2-0.7-1.2,0c0.4,3.8-0.4,7.6-1.2,11.3c-0.7,3.5-1.1,7.1-1.2,10.7c-0.3,7.3,0.5,14.5,2.4,21.6
			C692.9,1071.2,694.1,1070.9,693.9,1070.2L693.9,1070.2z"/>
		<g>
			<path fill="#D74C2B" d="M685.3,1025.3c-0.7,0.4-1.1,1.2-1.7,1.7c-1,0.8-2.5,0.9-3.6,0.3s-1.8-1.9-1.7-3.1c0.2-2,2.2-3.4,4.2-3.6
				s4,0.6,5.8,1.3c-1.1-1.6-2-3.4-2.6-5.2c-0.4-1.2-0.8-2.5-0.3-3.7c0.6-1.6,2.5-2.5,4.1-2.1s2.9,1.8,3.4,3.4
				c0.5,1.6,0.2,3.4-0.6,4.9c0.5-1.9,2-3.3,3.6-4.3c0.9-0.6,2-1.1,3.1-0.9c1.8,0.4,2.6,2.8,1.8,4.5s-2.6,2.7-4.4,3.1
				c1.5,0.8,3.1,1.7,4,3.1s1,3.6-0.3,4.7c-1.6,1.3-4,0.4-5.6-0.8c-1.3-1-2.5-2.2-3.5-3.5c0.6,1.3,1.2,2.9,0.6,4.2
				c-0.7,1.4-2.4,1.9-4,2c-1,0.1-2.2,0-2.8-0.9C683.9,1028.9,685.4,1027,685.3,1025.3"/>
		</g>
		<g>
			<path fill="#26793D" d="M692.5,1043c0.3-2.3,1.6-4.4,3.3-6s3.8-2.7,5.8-3.8c-1.6,2.2-3.1,4.3-4.7,6.5
				C696,1041.2,694.2,1042.9,692.5,1043z"/>
		</g>
		<g>
			<path fill="#26793D" d="M692.1,1053.5c0.5-2.3,2-4.3,3.8-5.7c1.8-1.4,4-2.4,6.1-3.3c-1.7,2-3.5,4.1-5.2,6.1
				C695.8,1052,693.8,1053.5,692.1,1053.5z"/>
		</g>
		<g>
			<path fill="#26793D" d="M690.7,1043c-0.3-2.3-1.6-4.4-3.3-6s-3.8-2.7-5.8-3.8c1.6,2.2,3.1,4.3,4.7,6.5
				C687.3,1041.2,689,1042.9,690.7,1043z"/>
		</g>
		<g>
			<path fill="#26793D" d="M689.6,1053.5c-0.5-2.3-2-4.3-3.8-5.7c-1.8-1.4-4-2.4-6.1-3.3c1.7,2,3.5,4.1,5.2,6.1
				C686,1052,687.8,1053.5,689.6,1053.5z"/>
		</g>
		<g>
			<path fill="#26793D" d="M692.1,1061.3c0.3-1.3,1.1-2.5,2.2-3.3c1.1-0.8,2.3-1.4,3.5-1.9c-1,1.2-2,2.3-3,3.5
				C694.2,1060.4,693.1,1061.3,692.1,1061.3z"/>
		</g>
		<g>
			<path fill="#26793D" d="M690.7,1061.3c-0.3-1.3-1.1-2.5-2.2-3.3c-1.1-0.8-2.3-1.4-3.5-1.9c1,1.2,2,2.3,3,3.5
				C688.6,1060.4,689.7,1061.3,690.7,1061.3z"/>
		</g>
	</g>
	<g>
		<path fill="#2F7F3F" d="M1795,1044.8c-1.8-6.8-2.6-13.9-2.2-21c0.2-3.5,0.6-7,1.3-10.5c0.7-3.4,1.4-6.9,1-10.4
			c-0.1-0.7-1.2-0.7-1.1,0c0.4,3.7-0.4,7.3-1.1,11c-0.6,3.4-1.1,6.9-1.2,10.3c-0.3,7,0.5,14.1,2.3,20.9
			C1794,1045.8,1795.1,1045.5,1795,1044.8L1795,1044.8z"/>
		<g>
			<path fill="#F6D2BA" d="M1789.6,997.8c-0.8-0.1-1.5,0.2-2.3,0.2c-1.2,0-2.4-0.8-2.9-1.9s-0.2-2.5,0.6-3.4
				c1.3-1.4,3.7-1.3,5.4-0.2c1.6,1.1,2.7,2.8,3.7,4.5c0.1-1.9,0.5-3.8,1.1-5.6c0.4-1.2,0.9-2.4,2-3.1c1.4-0.9,3.3-0.4,4.4,0.9
				c1.1,1.3,1.2,3.1,0.6,4.6s-1.9,2.7-3.3,3.4c1.5-1.1,3.5-1.3,5.3-1.1c1.1,0.1,2.2,0.4,2.9,1.2c1.2,1.4,0.3,3.7-1.3,4.5
				c-1.6,0.8-3.6,0.5-5.2-0.2c0.7,1.5,1.3,3.1,1.2,4.7c-0.1,1.6-1.3,3.3-3,3.4c-2,0.1-3.3-2.1-3.8-4c-0.4-1.5-0.6-3.1-0.6-4.7
				c-0.3,1.4-0.8,3-2.1,3.6c-1.4,0.7-3,0-4.2-0.9c-0.8-0.6-1.7-1.4-1.6-2.4C1786.5,999.7,1788.6,999.2,1789.6,997.8"/>
		</g>
		<g>
			<path fill="#26793D" d="M1793.6,1018.4c0.3-2.2,1.5-4.3,3.2-5.8c1.6-1.5,3.6-2.6,5.7-3.7c-1.5,2.1-3,4.2-4.5,6.3
				C1797,1016.6,1795.4,1018.3,1793.6,1018.4z"/>
		</g>
		<g>
			<path fill="#26793D" d="M1793.1,1028.5c0.4-2.2,1.9-4.1,3.7-5.5c1.8-1.4,3.9-2.3,5.9-3.2c-1.7,2-3.4,3.9-5.1,5.9
				C1796.6,1027,1795,1028.6,1793.1,1028.5z"/>
		</g>
		<g>
			<path fill="#26793D" d="M1792,1018.4c-0.3-2.2-1.5-4.3-3.2-5.8c-1.6-1.5-3.6-2.6-5.7-3.7c1.5,2.1,3,4.2,4.5,6.3
				C1788.6,1016.6,1790.1,1018.3,1792,1018.4z"/>
		</g>
		<g>
			<path fill="#26793D" d="M1790.9,1028.5c-0.4-2.2-1.9-4.1-3.7-5.5c-1.8-1.4-3.9-2.3-5.9-3.2c1.7,2,3.4,3.9,5.1,5.9
				C1787.4,1027,1789.1,1028.6,1790.9,1028.5z"/>
		</g>
		<g>
			<path fill="#26793D" d="M1793.1,1036.2c0.3-1.3,1.1-2.4,2.1-3.2c1-0.8,2.2-1.3,3.4-1.8c-1,1.1-1.9,2.3-2.9,3.4
				C1795.1,1035.3,1794.1,1036.2,1793.1,1036.2z"/>
		</g>
	</g>
	<g>
		<path fill="#2F7F3F" d="M1459.5,869c-2-7.5-2.8-15.4-2.5-23.2c0.2-3.9,0.7-7.7,1.4-11.5s1.5-7.6,1.1-11.5c-0.1-0.8-1.3-0.8-1.2,0
			c0.4,4.1-0.5,8.1-1.2,12.1c-0.7,3.8-1.2,7.6-1.3,11.4c-0.3,7.7,0.6,15.5,2.5,23C1458.5,870.1,1459.6,869.8,1459.5,869L1459.5,869z
			"/>
		<g>
			<path fill="#DDB6D2" d="M1453.5,817.3c-0.9-0.1-1.7,0.2-2.6,0.2c-1.3,0-2.6-0.9-3.2-2.1c-0.5-1.2-0.3-2.8,0.7-3.7
				c1.5-1.6,4.1-1.4,5.9-0.2s2.9,3.1,4,4.9c0.2-2.1,0.6-4.1,1.2-6.1c0.4-1.3,1-2.7,2.2-3.4c1.5-1,3.7-0.4,4.8,0.9
				c1.1,1.4,1.3,3.4,0.6,5.1c-0.7,1.7-2.1,2.9-3.7,3.7c1.6-1.3,3.8-1.4,5.9-1.2c1.2,0.1,2.4,0.4,3.2,1.3c1.3,1.5,0.4,4.1-1.4,5
				s-3.9,0.5-5.8-0.3c0.7,1.7,1.5,3.4,1.3,5.2c-0.1,1.8-1.5,3.7-3.3,3.7c-2.2,0.1-3.6-2.3-4.2-4.4c-0.4-1.7-0.7-3.5-0.6-5.2
				c-0.4,1.5-0.9,3.3-2.3,4c-1.5,0.7-3.3,0-4.7-1c-0.9-0.6-1.9-1.5-1.8-2.6C1450,819.3,1452.5,818.8,1453.5,817.3"/>
		</g>
		<g>
			<path fill="#26793D" d="M1458,840c0.3-2.5,1.7-4.7,3.5-6.4s4-2.9,6.2-4c-1.7,2.3-3.3,4.6-5,7C1461.6,838,1459.9,839.9,1458,840z"
				/>
		</g>
		<g>
			<path fill="#26793D" d="M1457.5,851.2c0.5-2.4,2.1-4.5,4-6.1c2-1.5,4.3-2.6,6.6-3.5c-1.9,2.2-3.7,4.3-5.6,6.5
				C1461.4,849.6,1459.4,851.3,1457.5,851.2z"/>
		</g>
		<g>
			<path fill="#26793D" d="M1456,840c-0.3-2.5-1.7-4.7-3.5-6.4s-4-2.9-6.2-4c1.7,2.3,3.3,4.6,5,7C1452.4,838,1454.1,839.9,1456,840z
				"/>
		</g>
		<g>
			<path fill="#26793D" d="M1454.9,851.2c-0.5-2.4-2.1-4.5-4-6.1s-4.3-2.6-6.6-3.5c1.9,2.2,3.7,4.3,5.6,6.5
				C1451,849.6,1453,851.3,1454.9,851.2z"/>
		</g>
		<g>
			<path fill="#26793D" d="M1457.5,859.6c0.3-1.4,1.2-2.6,2.3-3.5c1.1-0.9,2.5-1.5,3.8-2c-1.1,1.2-2.1,2.5-3.2,3.7
				C1459.6,858.6,1458.6,859.6,1457.5,859.6z"/>
		</g>
	</g>
	<g>
		<path fill="#2F7F3F" d="M1300.7,1012.7c-1.3-8.1-1.5-16.4-0.3-24.5c0.6-4.1,1.5-8,2.7-12c1.1-3.9,2.3-7.8,2.3-11.9
			c0-0.8-1.3-1-1.3-0.1c0.1,4.3-1.3,8.4-2.5,12.6c-1.1,3.9-2,7.8-2.5,11.8c-1.1,8.1-1,16.3,0.4,24.4
			C1299.6,1013.7,1300.8,1013.5,1300.7,1012.7L1300.7,1012.7z"/>
		<g>
			<path fill="#F1D285" d="M1295.9,961.5c-0.8,0.4-1.4,1.2-2.1,1.7c-1.2,0.8-2.8,0.7-4-0.1s-1.8-2.3-1.5-3.7
				c0.4-2.2,2.9-3.6,5.1-3.6c2.3,0,4.4,1.1,6.4,2.1c-1-1.9-1.9-4-2.4-6.1c-0.4-1.4-0.6-2.9,0-4.2c0.8-1.7,3-2.5,4.8-1.9
				s3.1,2.3,3.4,4.2s-0.2,3.8-1.2,5.4c0.7-2,2.6-3.4,4.5-4.4c1.1-0.6,2.4-1,3.6-0.7c2,0.6,2.6,3.4,1.6,5.2c-1.1,1.8-3.2,2.7-5.3,3
				c1.6,1.1,3.2,2.2,4.1,3.9s0.8,4.1-0.8,5.2c-1.9,1.3-4.5,0-6.2-1.5c-1.4-1.3-2.5-2.7-3.5-4.3c0.5,1.6,1.1,3.4,0.2,4.8
				c-0.9,1.5-2.9,1.8-4.7,1.8c-1.2,0-2.5-0.3-3.1-1.3C1293.9,965.4,1295.8,963.4,1295.9,961.5"/>
		</g>
		<g>
			<path fill="#26793D" d="M1302.1,982.1c0.5-2.6,2.2-4.8,4.3-6.4c2.1-1.6,4.5-2.7,6.9-3.6c-2,2.3-4,4.5-5.9,6.8
				C1306.1,980.4,1303.9,982.1,1302.1,982.1z"/>
		</g>
		<g>
			<path fill="#26793D" d="M1300.4,993.8c0.8-2.5,2.6-4.6,4.8-6c2.2-1.4,4.7-2.3,7.2-3c-2.2,2.1-4.3,4.2-6.5,6.3
				C1304.7,992.4,1302.4,994,1300.4,993.8z"/>
		</g>
		<g>
			<path fill="#26793D" d="M1300.1,981.9c0-2.6-1.3-5.1-3-7.1s-3.9-3.5-6.1-4.8c1.5,2.6,3,5.2,4.6,7.8
				C1296.4,979.4,1298.1,981.6,1300.1,981.9z"/>
		</g>
		<g>
			<path fill="#26793D" d="M1297.6,993.5c-0.3-2.6-1.7-5-3.6-6.8s-4.2-3.1-6.5-4.3c1.7,2.5,3.5,4.9,5.2,7.4
				C1293.8,991.4,1295.7,993.4,1297.6,993.5z"/>
		</g>
		<g>
			<path fill="#26793D" d="M1299.7,1002.5c0.4-1.4,1.5-2.6,2.8-3.4c1.3-0.8,2.7-1.3,4.2-1.7c-1.2,1.2-2.5,2.4-3.7,3.6
				C1302.1,1001.7,1300.8,1002.7,1299.7,1002.5z"/>
		</g>
	</g>
	<g>
		<path fill="#3C6B33" d="M315.5,923.5c3.1-10.5,2.5-21.7-1.7-31.8c-0.6-1.5-3.2-0.9-2.5,0.7c4.1,9.7,4.7,20.3,1.7,30.4
			C312.4,924.5,315,925.1,315.5,923.5L315.5,923.5z"/>
		<g>
			<path fill="#BE9321" d="M309,888.1c0.1-0.5,0.1-1,0.2-1.5c1-1,3-0.8,3.7,0.4s0,3.1-1.4,3.4C310.2,890.8,309,889.6,309,888.1"/>
		</g>
		<path fill="#DEDF90" d="M312.1,884.4c0.7-2.2,1.1-4.4,1.1-6.7c0-1.4-2.1-1.4-2.1,0c0,2.1-0.4,4.2-1,6.2
			C309.6,885.1,311.7,885.6,312.1,884.4L312.1,884.4z"/>
		<path fill="#DEDF90" d="M316,885.3c1.2-1.7,2.5-3.4,3.7-5.1c0.8-1.1-1-2.1-1.8-1.1c-1.2,1.7-2.5,3.4-3.7,5.1
			C313.4,885.3,315.2,886.4,316,885.3L316,885.3z"/>
		<path fill="#DEDF90" d="M308.3,885.3c-0.7-2-1.8-3.6-3.5-4.9c-1.1-0.8-2.6,0.7-1.5,1.5c1.4,1.1,2.4,2.3,2.9,4
			C306.7,887.1,308.8,886.5,308.3,885.3L308.3,885.3z"/>
		<path fill="#DEDF90" d="M305.8,888.6c-2.1,0.6-4.3,1.2-6.4,1.9c-1.3,0.4-0.7,2.4,0.6,2c2.1-0.6,4.3-1.2,6.4-1.9
			C307.7,890.3,307.1,888.2,305.8,888.6L305.8,888.6z"/>
		<g>
			<path fill="#3C6B33" d="M314.7,923.4c1.1-2.7,2.3-5.4,3.5-8c1-2,2-4.1,3.4-5.8c3.8-4.7,10.1-6.5,14.9-10.2c-1,1.2-1.4,2.8-2,4.3
				c-2.7,7.3-7.4,13.9-13.3,18.9c-1.2,1-2.6,2-4.2,2.1c-1,0.1-2.2-0.6-1.9-1.5"/>
		</g>
		<g>
			<path fill="#3C6B33" d="M313.1,924.7c0.7-3.1,0.2-6.5-1.4-9.3s-4.3-5-7.3-5.9c-1-0.3-2-0.5-3.1-0.4c-2.9,0.2-5.2,2.6-7,4.9
				c3.6-2.2,8.9-1,11.1,2.6c1,1.6,1.4,3.6,2.2,5.4c0.8,1.8,2.3,3.5,4.2,3.6c0.4,0,0.9,0,1.2-0.3c0.3-0.3,0.5-0.8,0.2-1.2"/>
		</g>
		<path fill="#DEDF90" d="M316.1,889.7c1.9,0.2,3.8,0.4,5.7,0.5c1.3,0.1,1.3-2,0-2.1c-1.9-0.1-3.8-0.3-5.7-0.5
			C314.7,887.5,314.8,889.6,316.1,889.7L316.1,889.7z"/>
		<path fill="#DEDF90" d="M307.8,891.8c-0.5,1.1-0.9,2.3-1.3,3.4c-0.4,1.3,1.6,1.8,2,0.6s0.8-2.3,1.3-3.4
			C310.4,891.1,308.4,890.5,307.8,891.8L307.8,891.8z"/>
	</g>
	<g>
		<path fill="#50823D" d="M1399.9,912.1c2.9-9.9,2.4-20.6-1.6-30.1c-0.6-1.5-3-0.8-2.4,0.7c3.8,9.2,4.4,19.3,1.6,28.8
			C1396.9,913,1399.4,913.6,1399.9,912.1L1399.9,912.1z"/>
		<g>
			<path fill="#BE9321" d="M1393.8,878.5c0.1-0.5,0.1-1,0.2-1.4c0.9-1,2.8-0.8,3.5,0.4s0,2.9-1.3,3.3
				C1394.9,881,1393.8,879.9,1393.8,878.5"/>
		</g>
		<path fill="#DEDF90" d="M1396.5,874.9c0.7-2.1,1-4.2,1.1-6.4c0-1.3-2-1.3-2,0c0,2-0.4,3.9-1,5.9
			C1394.4,875.6,1396.3,876.1,1396.5,874.9L1396.5,874.9z"/>
		<path fill="#DEDF90" d="M1400.4,875.8c1.2-1.6,2.4-3.2,3.5-4.8c0.8-1-1-2-1.7-1c-1.2,1.6-2.4,3.2-3.5,4.8
			C1397.9,875.8,1399.5,876.8,1400.4,875.8L1400.4,875.8z"/>
		<path fill="#DEDF90" d="M1393,875.8c-0.7-1.9-1.7-3.4-3.3-4.6c-1-0.8-2.4,0.6-1.4,1.4c1.3,1,2.2,2.2,2.8,3.8
			C1391.5,877.5,1393.5,877,1393,875.8L1393,875.8z"/>
		<path fill="#DEDF90" d="M1390.8,879c-2,0.6-4,1.2-6.1,1.8c-1.2,0.4-0.7,2.3,0.5,1.9c2-0.6,4-1.2,6.1-1.8
			C1392.4,880.5,1391.9,878.6,1390.8,879L1390.8,879z"/>
		<g>
			<path fill="#50823D" d="M1399,912c1.1-2.6,2.2-5.1,3.4-7.6c0.9-1.9,1.9-3.9,3.2-5.5c3.6-4.4,9.6-6.2,14.1-9.7
				c-0.9,1.2-1.4,2.6-1.9,4c-2.6,6.9-7,13.2-12.7,17.9c-1.2,1-2.5,1.9-4,2c-0.9,0.1-2-0.6-1.8-1.5"/>
		</g>
		<g>
			<path fill="#50823D" d="M1397.5,913.2c0.7-3,0.2-6.2-1.3-8.9s-4.1-4.7-7-5.6c-0.9-0.3-1.9-0.5-2.9-0.4c-2.8,0.2-4.9,2.5-6.7,4.7
				c3.4-2.1,8.4-0.9,10.5,2.5c1,1.6,1.3,3.4,2.1,5.1c0.8,1.7,2.1,3.3,4,3.4c0.4,0,0.9,0,1.2-0.3c0.3-0.3,0.5-0.8,0.2-1.1"/>
		</g>
		<path fill="#DEDF90" d="M1400.4,880c1.8,0.2,3.6,0.4,5.4,0.5c1.3,0.1,1.3-1.9,0-2c-1.8-0.1-3.6-0.3-5.4-0.5
			C1399,877.9,1399,879.9,1400.4,880L1400.4,880z"/>
		<path fill="#DEDF90" d="M1392.5,881.9c-0.4,1.1-0.8,2.1-1.2,3.2c-0.4,1.2,1.5,1.7,1.9,0.5c0.4-1.1,0.8-2.2,1.2-3.2
			C1395,881.3,1393,880.8,1392.5,881.9L1392.5,881.9z"/>
	</g>
	<g>
		<path fill="#558640" d="M1132.1,1007.3c3,2.2,5.6,4.7,7.8,7.5c1,1.3,2.8-0.5,1.8-1.8c-2.4-3-5.2-5.7-8.4-7.9
			C1132.1,1004.1,1130.9,1006.3,1132.1,1007.3L1132.1,1007.3z"/>
		<path fill="#558640" d="M1144.6,1011.4c0,0,0-6.8,0-10.2s-3.4-3.4-3.4,0s0,6.8,0,10.2C1141.2,1014.8,1144.6,1014.8,1144.6,1011.4
			C1144.6,1011.4,1144.6,1014.8,1144.6,1011.4z"/>
		<path fill="#558640" d="M1146.6,1013.9c1.7-4.1,4.2-7.6,7.4-10.6c1.2-1.1-0.6-2.9-1.8-1.8c-3.6,3.3-6.2,7.2-8,11.7
			C1143.6,1014.8,1146,1015.4,1146.6,1013.9L1146.6,1013.9z"/>
		<path fill="#558640" d="M1146.3,1016.9c3.9-1.8,7.7-3.8,11.4-6c1.4-0.8,0.1-3-1.3-2.2c-3.7,2.2-7.5,4.2-11.4,6
			C1143.6,1015.4,1144.8,1017.6,1146.3,1016.9L1146.3,1016.9z"/>
	</g>
	<g>
		<path fill="#558640" d="M1537.5,893.3c4,2.9,7.4,6.3,10.5,10.1c1.4,1.7,3.8-0.7,2.4-2.4c-3.2-4.1-7-7.6-11.2-10.6
			C1537.2,889.1,1535.6,892,1537.5,893.3L1537.5,893.3z"/>
		<path fill="#558640" d="M1554.1,898.9c0,0,0-9.1,0-13.6s-4.5-4.5-4.5,0s0,9.1,0,13.6C1549.6,903.5,1554.1,903.5,1554.1,898.9
			C1554.1,898.9,1554.1,903.5,1554.1,898.9z"/>
		<path fill="#558640" d="M1556.8,902.3c2.2-5.4,5.6-10.2,9.9-14.2c1.6-1.5-0.8-3.9-2.4-2.4c-4.8,4.4-8.3,9.7-10.8,15.7
			C1552.6,903.4,1556.1,904.3,1556.8,902.3L1556.8,902.3z"/>
		<path fill="#558640" d="M1556.3,906.3c5.2-2.4,10.3-5.1,15.3-8.1c1.9-1.1,0.2-4.1-1.7-2.9c-5,2.9-10,5.6-15.3,8.1
			C1552.6,904.3,1554.2,907.2,1556.3,906.3L1556.3,906.3z"/>
	</g>
	<g>
		<g>
			<path fill="#3F6C33" d="M1099.3,875.1c-3.8,3.7-3.4,9.8-2.8,15s1.3,10.5,1.9,15.7c4.2-3.6,5.9-9.5,5.6-15
				S1101.6,880.1,1099.3,875.1"/>
		</g>
		<g>
			<path fill="#3F6C33" d="M1103.6,904.6c4.6-8.2,12.1-14.8,21-18c-3.1,3.8-5,8.4-8.1,12.1c-3.1,3.8-8,6.8-12.7,5.4"/>
		</g>
		<g>
			<path fill="#3F6C33" d="M1091.2,907c-4.4-3.7-6.3-10-4.8-15.5c2.7,4.2,4.7,8.8,5.9,13.7c0.1,0.6,0.2,1.4-0.4,1.6
				c-0.6,0.2-0.5-1.1-0.1-0.7"/>
		</g>
	</g>
	<g>
		<g>
			<path fill="#98B459" d="M1152.8,819.4c-2,2.6-1.2,6.4-0.3,9.6c0.9,3.2,1.8,6.4,2.6,9.6c2.3-2.6,2.8-6.4,2.1-9.8
				C1156.4,825.4,1154.6,822.3,1152.8,819.4"/>
		</g>
		<g>
			<path fill="#98B459" d="M1158.1,837.4c2.1-5.6,6.2-10.3,11.4-13.2c-1.6,2.6-2.4,5.7-3.9,8.3c-1.6,2.6-4.4,5-7.4,4.5"/>
		</g>
		<g>
			<path fill="#98B459" d="M1150.8,840.1c-3.1-1.9-4.9-5.6-4.4-9.2c2.1,2.4,3.7,5.1,4.9,8c0.1,0.3,0.2,0.8-0.1,1s-0.4-0.7-0.1-0.4"
				/>
		</g>
	</g>
	<g>
		<g>
			<path fill="#3F6D34" d="M675.6,935.9c-7,6.2-3.3,20.7,8.6,23.4c5.8,1.3,5.5,0.5,11.3-1c4.9-1.3,9.5-1.7,13.7-2.9
				c7-1.9,14.6-0.4,21.5-2.6c6.9-2.2,13.4-6.3,17.4-12.3c0.5-0.7,1-1.6,0.9-2.4c-0.2-1.4-1.7-2.2-3.1-2.7c-21.7-8-46-4.2-68.1,2.5"
				/>
		</g>
		<g>
			<path fill="#9EBE59" d="M748.5,939.5c0.5-3.4,3.6-5.4,5.7-7.7c2.1-2.3,3.3-5.1,3.9-8.2c0.6-3.2,0.7-6.4,1-9.6
				c0.2-1.8,0.4-3.6,0.8-5.4c0.2-0.9,0.4-1.8,0.6-2.7c0.2-1,0.5-2.1,1.3-2.7c0.5-0.3,0-1.2-0.5-0.8c-0.9,0.7-1.4,1.7-1.6,2.8
				c-0.4,1.4-0.6,2.8-0.9,4.2c-0.5,2.7-0.7,5.4-0.9,8.2s-0.4,5.6-1.3,8.3c-0.9,2.7-2.4,4.8-4.5,6.7c-2,1.9-4.1,3.8-4.6,6.7
				C747.5,939.9,748.4,940.1,748.5,939.5L748.5,939.5z"/>
			<g>
				<path fill="#5C8A43" d="M760.6,906.9c0.4-0.6,0.7-0.8,1.5-0.9c0.7-0.1,1.4,0.1,2.1,0.4c0.7,0.3,1.4,0.5,2.1,0.5
					c-0.5,0-1,0.2-1.4,0.4c-0.7,0.3-1.4,0.5-2,0.8c-0.4,0.2-0.8,0.3-1.2,0.3s-0.8-0.1-1.1-0.4C760.3,907.7,760.3,907.2,760.6,906.9"
					/>
			</g>
			<g>
				<path fill="#5C8A43" d="M760.6,913.3c0-0.7,0.1-1.5,0.7-1.8c0.3-0.2,0.6-0.2,1-0.2c1.6,0,3.2,0.5,4.7,0.1
					c-0.4,0.7-1,1.3-1.7,1.8c-0.7,0.6-1.5,1.1-2.4,1.3C762.1,914.5,760.8,914.2,760.6,913.3"/>
			</g>
			<g>
				<path fill="#5C8A43" d="M759,918.3c-0.1-0.7,0.5-1.3,1.2-1.5c0.7-0.1,1.4,0.1,2,0.4c2.2,1,4.1,2.8,6.5,2.9c-2,1.4-4.7,1.6-7,0.8
					C760.5,920.5,759.2,919.6,759,918.3"/>
			</g>
			<g>
				<path fill="#5C8A43" d="M757.9,926.4c-0.3-0.8,0.4-1.6,1.2-1.8s1.6,0,2.4,0.1c1.7,0.2,3.4,0.1,5.1-0.3c-0.2,0.6-0.7,1.1-1.2,1.5
					c-0.9,0.7-1.8,1.4-2.9,1.9c-1.1,0.4-1.6,0.6-2.7,0.2C759,927.7,758.2,927.5,757.9,926.4"/>
			</g>
			<g>
				<path fill="#5C8A43" d="M755.7,931.2c-0.4-0.6,0.1-1.4,0.7-1.7c0.6-0.3,1.4-0.2,2.1-0.1c2.3,0.4,4.6,1.2,7,1.3
					c-1.4,0.4-2.4,1.6-3.8,2.1c-1.1,0.4-2.2,0-3.3-0.1C757.3,932.7,756.2,932.3,755.7,931.2"/>
			</g>
			<g>
				<path fill="#5C8A43" d="M758.7,906.6c0.1-0.7,0-1.1-0.4-1.7c-0.4-0.6-1.1-0.9-1.8-1.2c-0.6-0.3-1.3-0.6-1.8-1.1
					c0.4,0.3,0.6,0.8,0.8,1.3c0.3,0.7,0.6,1.3,0.9,2c0.2,0.4,0.3,0.8,0.6,1.1s0.7,0.5,1.1,0.5C758.4,907.4,758.8,907,758.7,906.6"/>
			</g>
			<g>
				<path fill="#5C8A43" d="M756.8,914c0.5-0.5,0.9-1.1,0.7-1.8c-0.1-0.3-0.3-0.6-0.6-0.8c-1.1-1.1-2.6-1.9-3.4-3.3
					c-0.2,0.8-0.2,1.6-0.1,2.4c0.1,0.9,0.3,1.9,0.8,2.6C754.9,913.9,756,914.5,756.8,914"/>
			</g>
			<g>
				<path fill="#5C8A43" d="M757.2,918.9c0.6-0.4,0.6-1.3,0.2-1.9c-0.4-0.6-1.1-0.9-1.7-1.1c-2.3-0.8-4.9-0.9-6.7-2.5
					c0.4,2.4,2.2,4.4,4.4,5.5C754.6,919.4,756.1,919.7,757.2,918.9"/>
			</g>
			<g>
				<path fill="#5C8A43" d="M756.1,926.3c0.7-0.4,0.8-1.4,0.4-2.1c-0.4-0.7-1.1-1.1-1.7-1.6c-1.4-1-2.5-2.3-3.4-3.8
					c-0.3,0.6-0.2,1.3-0.2,1.9c0.1,1.1,0.3,2.3,0.7,3.4c0.4,1.1,0.8,1.6,1.8,2C754.3,926.4,755.1,926.7,756.1,926.3"/>
			</g>
			<g>
				<path fill="#5C8A43" d="M753.2,930.5c0.7-0.2,1-1,0.7-1.7c-0.2-0.7-0.8-1.1-1.4-1.5c-2-1.3-4.1-2.4-5.9-4
					c0.7,1.3,0.6,2.9,1.2,4.2c0.5,1,1.6,1.5,2.4,2.2C751,930.5,752.1,931,753.2,930.5"/>
			</g>
		</g>
		<g>
			<g>
				<path fill="#8D8877" d="M743.9,941.5c6.9-1.6,10.1-9,9.9-14.7c-0.1-6-0.3-12-0.4-18c-0.1-2.6-0.2-5.4-1.6-7.8
					c-2.2-3.7-7.2-5.9-12.1-7.4c-14.8-4.7-31.3-6.1-47.1-3.8c-4.8,0.7-9.8,1.8-13.5,4.3c-6.3,4.2-7.9,11.3-8.5,17.8
					c-0.9,9.6-0.6,19.3,1,28.8c0.3,2.1,0.8,4.3,2.7,5.8c1.8,1.4,4.4,1.8,6.9,2.1C702.4,951.1,725.6,946.1,743.9,941.5"/>
			</g>
			<g>
				<path fill="#9BBE58" d="M672.1,903.3c2.3-5.2,3.6-8.9,12.2-11.7c5.4-1.8,12.2-2.6,17.9-2.7c12.3-0.1,22.2,0.1,36.2,4.3
					c4.5,1.4,9.9,3.4,12.5,6.7c-7.1,4.1-15.2,5.7-23.4,5.5c-6.2-0.1-12.7-1.5-18.3,1c-3.6,1.6-6.8,4.8-10.8,4.6
					c-3.8-0.2-7.8-3.6-10.9-1.5c-2.2,1.5-2.6,4.8-6,4.8c-0.7,0-4-0.8-4.6-1C673.5,912.4,671.6,908.6,672.1,903.3L672.1,903.3z"/>
			</g>
		</g>
		<g>
			<path fill="#889B48" d="M735.2,918.5c0.2-1.2,1.9-1.5,2.9-0.9s1.4,1.9,1.6,3c0.2,1.1,0,2.5-0.9,3.1c-1,0.6-2.4,0.1-3-0.8
				C735,922,735.4,919.7,735.2,918.5"/>
		</g>
		<g>
			<path fill="#889B48" d="M693.2,934.9c0.1-0.5,0.8-0.7,1.2-0.4s0.6,0.8,0.7,1.3c0.1,0.5,0,1.1-0.4,1.3c-0.4,0.3-1,0-1.3-0.4
				C693.2,936.3,693.3,935.4,693.2,934.9"/>
		</g>
		<g>
			<path fill="#889B48" d="M723.2,914.1c0.7-1,3.2-2.5,4.3-2.1c0.6,0,1.3,1-0.2,2.5c-0.7,0.5-1.5,1.1-2.4,1.1
				C724.1,915.7,723.1,915,723.2,914.1"/>
		</g>
		<g>
			<path fill="#889B48" d="M687.8,942.9c-0.7-1.5-0.7-5.5,0.6-6.4c0.5-0.7,2.1-0.7,2.8,1.9c0.1,1.2,0.2,2.5-0.4,3.5
				C690.2,942.9,688.7,943.6,687.8,942.9"/>
		</g>
		<g>
			<path fill="#3F6C33" d="M737.9,944.3c2.3-5.9,6.8-10.9,12.4-13.8c-1.7,2.8-2.6,6-4.4,8.8c-1.7,2.8-4.8,5.2-8,4.7"/>
		</g>
		<g>
			<g>
				<path fill="#3F6C33" d="M712.5,935.9c-1.7,1.6-1.5,4.3-1.2,6.5c0.3,2.3,0.5,4.6,0.8,6.9c1.8-1.6,2.6-4.1,2.4-6.5
					C714.3,940.4,713.5,938.1,712.5,935.9"/>
			</g>
			<g>
				<path fill="#3F6C33" d="M714.4,948.7c2-3.6,5.3-6.4,9.1-7.9c-1.3,1.6-2.2,3.6-3.5,5.3c-1.3,1.6-3.5,2.9-5.5,2.4"/>
			</g>
			<g>
				<path fill="#3F6C33" d="M709.1,949.8c-1.9-1.6-2.8-4.4-2.1-6.8c1.2,1.8,2,3.8,2.6,6c0.1,0.2,0.1,0.6-0.2,0.7
					c-0.2,0.1-0.2-0.5,0-0.3"/>
			</g>
		</g>
	</g>
	<g>
		<g>
			<path fill="#3F6B33" d="M749,865.5c-0.9-5.9,1-12.2,5-16.6c2.3-2.6,5.4-4.5,7.4-7.3c0.8-1,1.4-2.2,2.3-3.1
				c0.7,4.8-0.4,9.9-2.5,14.2c-2.2,4.4-5.4,8.2-8.9,11.6c-1,1-2.3,2-3.6,1.7"/>
		</g>
		<g>
			<path fill="#3F6B33" d="M724.7,868.2c-8.8-6.1-15.4-15.4-18.2-25.8c1.7,1.7,4.4,1.3,6.8,1.7c2.9,0.5,5.5,2.3,7.4,4.7
				c1.9,2.3,3.1,5.1,4.1,7.9c1.4,3.8,2.4,8.1,0.6,11.7"/>
		</g>
		<g>
			<path fill="#3F6B33" d="M727.5,865.3c-1-10.7,1.9-21.7,8-30.5c-0.2,2.4,1.8,4.2,3,6.3c1.5,2.6,1.7,5.7,1.2,8.6
				c-0.5,2.9-1.9,5.6-3.4,8.2c-2,3.5-4.7,7-8.5,8"/>
		</g>
	</g>
	<g>
		<g>
			<path fill="#3F6B33" d="M1380.3,1043.8c-0.5-3.3,0.6-6.9,2.9-9.4c1.3-1.4,3-2.5,4.2-4.1c0.4-0.6,0.8-1.2,1.3-1.7
				c0.4,2.7-0.2,5.6-1.4,8.1c-1.2,2.5-3,4.6-5,6.6c-0.6,0.5-1.3,1.1-2,1"/>
		</g>
		<g>
			<path fill="#3F6B33" d="M1366.5,1045.3c-5-3.4-8.7-8.7-10.3-14.6c0.9,1,2.5,0.8,3.8,1c1.7,0.3,3.1,1.3,4.2,2.6
				c1,1.3,1.7,2.9,2.3,4.4c0.8,2.1,1.3,4.6,0.4,6.6"/>
		</g>
		<g>
			<path fill="#3F6B33" d="M1368,1043.7c-0.6-6,1.1-12.3,4.5-17.2c-0.1,1.3,1,2.4,1.7,3.6c0.9,1.4,1,3.2,0.7,4.9
				c-0.3,1.6-1.1,3.2-1.9,4.6c-1.1,2-2.6,4-4.8,4.5"/>
		</g>
	</g>
	<g>
		<path fill="#277A3B" d="M849.5,1019.7c-2.3-5.8-2.8-12.1-3.2-18.3c-0.5-6.4-0.6-12.8-0.5-19.2s0.8-12.8,1.1-19.2
			c0.3-6.1-0.4-12.2-2.2-18.1c-0.4-1.3-2.3-0.6-2,0.7c3.7,12.6,1.1,25.5,0.9,38.5c-0.1,6.3,0.1,12.5,0.6,18.7c0.5,5.9,1,12,3.2,17.6
			C848,1021.6,850,1020.9,849.5,1019.7L849.5,1019.7z"/>
		<path fill="#277A3B" d="M846.2,997c6.1-10.6,14.5-19.2,24.4-26.2c1.1-0.8-0.1-2.5-1.2-1.7c-10.3,7.3-18.8,16.1-25.1,27.1
			C843.7,997.3,845.6,998.2,846.2,997L846.2,997z"/>
		<path fill="#277A3B" d="M843.2,975.3c-5.7-6.9-11.8-13.9-20.8-16.4c-1.3-0.4-1.7,1.7-0.4,2.1c8.4,2.3,14.1,9.1,19.5,15.6
			C842.4,977.5,844.1,976.3,843.2,975.3L843.2,975.3z"/>
		<path fill="#277A3B" d="M851.4,990.6c2.1,0.7,4.3,0.8,6.4,0c1.3-0.5,0.5-2.4-0.7-2c-1.6,0.6-3.2,0.6-4.8,0.1
			C851,988.3,850.1,990.2,851.4,990.6L851.4,990.6z"/>
		<path fill="#277A3B" d="M848.2,1000.7c2.1-0.8,3.7-2.2,4.9-4.1c0.7-1.2-1.1-2.2-1.8-1c-0.8,1.4-2,2.5-3.6,3.1
			C846.4,999.1,847,1001.2,848.2,1000.7L848.2,1000.7z"/>
		<path fill="#277A3B" d="M855.7,984.8c1.9,0.5,3.8,0.9,5.7,1.4c1.3,0.3,1.7-1.8,0.4-2.1c-1.9-0.5-3.8-0.9-5.7-1.4
			C854.7,982.4,854.4,984.5,855.7,984.8L855.7,984.8z"/>
		<path fill="#277A3B" d="M860.7,980.3c1.6,0.6,3,1.5,4.2,2.8c1,1,2.3-0.7,1.3-1.6c-1.3-1.3-2.9-2.4-4.7-3
			C860.2,977.9,859.4,979.8,860.7,980.3L860.7,980.3z"/>
		<path fill="#277A3B" d="M864,977.6c1.8-0.2,3.6-0.3,5.3-0.5c1.3-0.1,1.2-2.2-0.2-2.1c-1.8,0.2-3.6,0.3-5.3,0.5
			C862.5,975.6,862.7,977.7,864,977.6L864,977.6z"/>
		<path fill="#277A3B" d="M869.2,973.3c1.5-0.4,2.9-0.8,4.4-1.2c1.3-0.3,0.6-2.3-0.7-2c-1.5,0.4-2.9,0.8-4.4,1.2
			C867.2,971.6,868,973.6,869.2,973.3L869.2,973.3z"/>
		<path fill="#277A3B" d="M865.2,971.2c0.5-1.9,1.5-3.5,3-4.8c1-0.9-0.2-2.6-1.2-1.7c-1.9,1.6-3.2,3.7-3.8,6.1
			C862.9,972.2,865,972.5,865.2,971.2L865.2,971.2z"/>
		<path fill="#277A3B" d="M870.7,968.9c0.4-1.1,1-2,1.9-2.9c1-1-0.7-2.3-1.6-1.3c-1,1-1.7,2.1-2.2,3.3
			C868.5,969.2,870.2,970.1,870.7,968.9L870.7,968.9z"/>
		<path fill="#277A3B" d="M859.2,977.1c0.1-2.5,1.1-4.7,2.9-6.4c1-0.9-0.6-2.3-1.6-1.3c-2.2,2.1-3.3,4.9-3.4,7.9
			C857.2,978.7,859.2,978.5,859.2,977.1L859.2,977.1z"/>
		<path fill="#277A3B" d="M854.7,982c-0.5-1.8,0.7-3.7,1.3-5.3c0.5-1.4,0.7-2.7,0.2-4.2c-0.4-1.3-2.4-0.6-2,0.7
			c0.6,1.8-0.6,3.7-1.2,5.3c-0.5,1.4-0.7,2.7-0.3,4.2C853.2,984,855.2,983.3,854.7,982L854.7,982z"/>
		<path fill="#277A3B" d="M851.1,987.5c-0.1-2.2-0.2-4.3-0.2-6.5c-0.1-1.4,0.2-3.1-0.7-4.3c-0.8-1.1-2.5,0.1-1.7,1.2
			s0.3,3.6,0.4,4.9c0.1,1.6,0.1,3.2,0.2,4.9C849,989,851.1,988.8,851.1,987.5L851.1,987.5z"/>
		<path fill="#277A3B" d="M848.4,956.7c0-1.6,1.5-2.6,2.6-3.5c0.9-0.8,1.7-1.6,2.2-2.7c0.6-1.2-1.3-2.1-1.9-0.9
			c-0.7,1.5-2.2,2.4-3.4,3.5c-1,1.1-1.6,2.3-1.6,3.8C846.2,958.3,848.4,958.1,848.4,956.7L848.4,956.7z"/>
		<path fill="#277A3B" d="M847,950.6c1.7-2.2,2.9-4.6,3.3-7.4c0.2-1.3-1.8-1.7-2.1-0.4c-0.4,2.4-1.4,4.5-2.9,6.4
			C844.6,950.3,846.2,951.7,847,950.6L847,950.6z"/>
		<path fill="#277A3B" d="M842.1,949.9c-1.6-1.1-3.3-2.1-4.9-3.1c-1.2-0.7-2.1,1.2-0.9,1.9c1.5,0.9,3,1.8,4.5,2.8
			C841.9,952.2,843.2,950.6,842.1,949.9L842.1,949.9z"/>
		<path fill="#277A3B" d="M844.7,958.4c-1.7-3.1-5-4.9-8.5-4.9c-1.3,0-1.2,2.1,0.2,2.1c2.8,0,5.3,1.6,6.6,4.1
			C843.7,960.8,845.4,959.6,844.7,958.4L844.7,958.4z"/>
		<path fill="#277A3B" d="M823.9,956.4c1.1,1.2,2,2.6,2.7,4.1c0.5,1.2,2.5,0.5,2-0.7c-0.7-1.7-1.7-3.3-2.9-4.6
			C824.6,954.2,823,955.4,823.9,956.4L823.9,956.4z"/>
		<path fill="#277A3B" d="M828.7,963.3c-2,0.6-4.1,1.3-6.1,2c-1.3,0.5-0.5,2.4,0.7,2c2-0.7,4-1.4,6.1-2
			C830.7,964.9,830.1,962.9,828.7,963.3L828.7,963.3z"/>
		<path fill="#277A3B" d="M835.1,965.3c-0.6-1.9-1.4-3.8-2.4-5.5c-0.7-1.2-2.4,0-1.7,1.2c0.9,1.6,1.6,3.3,2.2,5
			C833.6,967.4,835.5,966.6,835.1,965.3L835.1,965.3z"/>
		<path fill="#277A3B" d="M832.6,967.5c-1.9-0.3-3.8-0.2-5.7,0.2c-1.3,0.3-1.1,2.4,0.2,2.1c1.7-0.4,3.4-0.5,5.1-0.2
			C833.5,969.8,833.9,967.7,832.6,967.5L832.6,967.5z"/>
		<path fill="#277A3B" d="M832.2,974.2c1.7-0.2,3.4-0.6,5.1-1.1c1.3-0.4,0.6-2.3-0.7-2c-1.5,0.4-3,0.7-4.6,0.9
			C830.6,972.3,830.7,974.4,832.2,974.2L832.2,974.2z"/>
		<path fill="#277A3B" d="M839,969.5c-0.5-1.5-0.7-3-0.6-4.5c0.1-1.3-2-1.7-2.1-0.4c-0.1,1.9,0.1,3.8,0.7,5.6
			C837.4,971.6,839.4,970.8,839,969.5L839,969.5z"/>
		<path fill="#277A3B" d="M839.1,979.9c0.7,2.3,1.6,4.4,2.7,6.5c0.6,1.2,2.6,0.5,2-0.7c-1.1-2.1-2-4.3-2.7-6.5
			C840.6,977.9,838.7,978.6,839.1,979.9L839.1,979.9z"/>
		<path fill="#277A3B" d="M836.7,999.3c1.6-0.3,3.2-0.1,4.7,0.6c1.2,0.6,2.1-1.3,0.9-1.9c-1.8-0.8-3.8-1.1-5.7-0.8
			C835.2,997.5,835.4,999.6,836.7,999.3L836.7,999.3z"/>
		<path fill="#277A3B" d="M848.6,965.7c1.7-1.6,3-3.6,3.8-5.8c0.5-1.2-1.4-2.2-1.9-0.9c-0.8,2-2,3.8-3.5,5.3
			C846,965.3,847.6,966.6,848.6,965.7L848.6,965.7z"/>
		<path fill="#277A3B" d="M839.7,961.5c0.9,2,1.9,3.8,3.1,5.6c0.8,1.1,2.5-0.1,1.7-1.2c-1.1-1.6-2.1-3.3-2.9-5.1
			C841.1,959.5,839.1,960.2,839.7,961.5L839.7,961.5z"/>
		<path fill="#277A3B" d="M847.2,972.2c2-1.5,3.8-3.1,5.6-4.8c1-0.9-0.6-2.3-1.6-1.3c-1.7,1.6-3.4,3.1-5.2,4.5
			C844.9,971.3,846.1,973,847.2,972.2L847.2,972.2z"/>
	</g>
	<g>
		<g>
			<g>
				<path fill="#C3906E" d="M1437.1,1057.1c0.2,0,0.2-0.3,0-0.3C1436.9,1056.8,1437,1057.1,1437.1,1057.1L1437.1,1057.1z"/>
			</g>
		</g>
		<g>
			<g>
				<path fill="#B08263" d="M1473,1047.6c0.2,0,0.2-0.3,0-0.3C1472.8,1047.3,1472.9,1047.6,1473,1047.6L1473,1047.6z"/>
			</g>
		</g>
		<g>
			<path fill="#3F6D34" d="M1452.1,1009.6c-2.4,12,9.3,22.1,20.6,27.1c7.9,3.5,16.3,5.9,24.9,7.3c6.9,1.1,14.8,1.9,19,7.5
				c1.4,1.9,2.3,4.2,4.2,5.6c2.2,1.7,5.3,1.7,8.1,1.7c14.9-0.1,29.9,1.4,44.6,4.3c7.7,1.5,16.6,3.2,22.6-1.7
				c5.6-4.6,6.2-13.3,3.2-19.9s-8.7-11.4-14.4-15.8c-16.7-12.9-35.4-23.9-55.8-29.4c-20.4-5.4-43.1-4.8-61.9,4.7
				c-5.3,2.7-10.7,6.6-12,12.3"/>
		</g>
		<g>
			<path fill="#9EBE59" d="M1453,1008.7c-3.7-3.2-3.6-8.5-4.8-12.8c-1.1-4.3-3.6-7.9-6.8-11c-3.3-3.2-7.2-5.8-10.8-8.7
				c-2-1.6-4-3.3-5.9-5.1c-1-0.9-1.9-1.8-2.8-2.8c-1-1-2.1-2.2-2.2-3.7c0-0.8-1.4-0.9-1.3-0.1c0.1,1.7,1,2.9,2.1,4.1
				c1.4,1.5,2.9,3,4.4,4.3c2.9,2.7,6,5,9.1,7.4c3.2,2.4,6.4,4.9,9,8s3.9,6.6,4.6,10.6c0.7,3.8,1.4,7.9,4.5,10.6
				C1452.6,1010.2,1453.6,1009.3,1453,1008.7L1453,1008.7z"/>
			<g>
				<path fill="#5C8A43" d="M1423.3,968.9c-0.4-1-0.4-1.5,0.1-2.4s1.3-1.6,2.1-2.3c0.8-0.6,1.7-1.3,2.2-2.1c-0.4,0.6-0.5,1.3-0.7,2
					c-0.2,1-0.4,2.1-0.6,3.1c-0.1,0.6-0.2,1.2-0.5,1.7s-0.8,0.9-1.4,1C1424,969.9,1423.3,969.5,1423.3,968.9"/>
			</g>
			<g>
				<path fill="#5C8A43" d="M1431,973.8c-0.8-0.6-1.6-1.3-1.6-2.3c0-0.5,0.3-0.9,0.5-1.3c1.2-1.9,3.1-3.5,3.8-5.6
					c0.6,1,0.7,2.2,0.8,3.4c0.1,1.3,0.2,2.7-0.4,3.9C1433.5,973.1,1432.1,974.2,1431,973.8"/>
			</g>
			<g>
				<path fill="#5C8A43" d="M1435.6,979.6c-0.9-0.4-1.2-1.7-0.8-2.6s1.2-1.6,2.1-2.1c2.9-1.8,6.6-2.8,8.6-5.6c0.1,3.5-1.7,6.9-4.5,9
					C1439.5,979.5,1437.5,980.4,1435.6,979.6"/>
			</g>
			<g>
				<path fill="#5C8A43" d="M1444.6,987.3c-1.1-0.3-1.5-1.7-1.2-2.8s1.2-1.9,1.9-2.8c1.6-1.8,2.8-4,3.6-6.3c0.6,0.7,0.7,1.7,0.8,2.6
					c0.2,1.6,0.3,3.3,0,4.9c-0.3,1.6-0.6,2.4-1.9,3.4C1447,986.9,1446.1,987.7,1444.6,987.3"/>
			</g>
			<g>
				<path fill="#5C8A43" d="M1448.6,993.6c-1,0-1.7-1.2-1.5-2.2c0.1-1,0.8-1.8,1.5-2.5c2.3-2.5,5-4.6,7-7.3c-0.6,2,0.1,4.2-0.4,6.2
					c-0.4,1.5-1.7,2.6-2.7,3.8C1451.6,992.8,1450.1,993.9,1448.6,993.6"/>
			</g>
			<g>
				<path fill="#5C8A43" d="M1421.4,970.9c-0.8-0.7-1.3-0.9-2.3-0.8c-1,0.1-2,0.6-2.8,1.2c-0.9,0.5-1.8,1.1-2.8,1.4
					c0.7-0.2,1.4,0,2.1,0.1c1,0.2,2.1,0.3,3.1,0.5c0.6,0.1,1.2,0.2,1.7,0.1c0.6-0.1,1.1-0.4,1.4-0.9
					C1422.1,972,1421.9,971.2,1421.4,970.9"/>
			</g>
			<g>
				<path fill="#5C8A43" d="M1429,979c-0.2-0.9-0.7-2-1.6-2.3c-0.5-0.1-0.9-0.1-1.4,0c-2.2,0.5-4.3,1.7-6.6,1.6
					c0.7,0.9,1.8,1.5,2.9,2c1.2,0.6,2.5,1.1,3.8,1C1427.4,981.1,1428.9,980.3,1429,979"/>
			</g>
			<g>
				<path fill="#5C8A43" d="M1435,982.3c-0.1-1-1.1-1.7-2.1-1.7s-1.9,0.6-2.7,1.2c-2.7,2.1-4.9,5.2-8.2,6.1c3.2,1.3,7,0.8,10-1
					C1433.6,985.9,1435.1,984.2,1435,982.3"/>
			</g>
			<g>
				<path fill="#5C8A43" d="M1443,989.4c0.1-1.1-1.1-2-2.2-2.1s-2.2,0.4-3.3,0.8c-2.3,0.8-4.7,1.2-7.2,1.2c0.5,0.8,1.3,1.2,2.2,1.7
					c1.5,0.7,3,1.4,4.6,1.7s2.5,0.3,3.8-0.6C1441.8,991.6,1442.8,991,1443,989.4"/>
			</g>
			<g>
				<path fill="#5C8A43" d="M1446,996.2c0.3-0.9-0.5-2-1.5-2.2s-2,0.1-2.9,0.5c-3.1,1.3-6.1,3-9.3,4c2.1,0.2,3.9,1.5,6,1.8
					c1.6,0.2,3-0.7,4.5-1.2C1444.1,998.7,1445.6,997.8,1446,996.2"/>
			</g>
		</g>
		<g>
			<path fill="#8D8877" d="M1463.1,1022.3c-10.7-3.1-15.5-17.6-15.3-28.7c0.2-11.7,0.5-23.4,0.7-35.2c0.1-5.2,0.2-10.5,2.4-15.2
				c3.4-7.3,11.2-11.5,18.7-14.6c22.9-9.2,48.5-11.8,72.7-7.5c7.5,1.3,15.1,3.5,20.9,8.3c9.8,8.2,12.3,22.1,13.2,35
				c1.4,18.8,0.9,37.8-1.5,56.5c-0.5,4.1-1.3,8.5-4.2,11.4c-2.8,2.7-6.8,3.5-10.7,4.1C1527.2,1041.1,1491.6,1031.3,1463.1,1022.3"/>
		</g>
		<g>
			<path fill="#918F84" d="M1569.7,1041.7c-8-0.2-21.9,6.5-33.6,5.4c-7.4-0.7-13.5-6.3-16.8-13c-3.3-6.6-4.1-14.2-4.7-21.5
				c-0.3-3.6-0.5-7.2,0.3-10.7c1.6-6.5,6.8-11.6,12.8-14.7s12.6-4.3,19.2-5.6c8.1-1.5,16.3-3.1,24.5-2.1s16.4,4.9,20.6,12
				c4.8,8.2,3.3,18.6,0.4,27.7c-2.3,7.2-5.6,14.5-11.8,18.8C1577.6,1040.3,1573.7,1041.6,1569.7,1041.7"/>
		</g>
		<path fill="#727272" d="M1586.1,995.5c-2.2,2.8-5.5,4.2-8.8,5.3c-3.8,1.3-7.6,2.6-11.4,3.6c-7.6,2.1-15.7,3.3-23.5,1.3
			c-2.1-0.5-4.1-1.4-6.1-2.3c-1.5-0.7-3.4-1.4-5-0.4c-0.3,0.2,0,0.7,0.3,0.5c1.8-1.1,4,0.2,5.7,1s3.4,1.4,5.2,1.8
			c3.6,0.9,7.4,1.1,11.1,0.9c8.1-0.5,15.8-3.1,23.4-5.7c3.5-1.2,7.1-2.6,9.4-5.6C1586.7,995.6,1586.2,995.2,1586.1,995.5
			L1586.1,995.5z"/>
		<g>
			<path fill="#9ABD57" d="M1496.1,921.1c20.9-3.7,50.2-3.4,64.8,6.5c7.1,11.9-19.1,14-23.8,13c-2.2-0.4-4.1-1.9-6.3-2.5
				c-6.2-1.9-12.5,2.7-18.9,2.6c-4.7-0.1-9.4-7.5-14.1-6.8c-10.4,1.4-22.5-0.9-23.7-7.2C1477.1,925.7,1491.2,921.5,1496.1,921.1z"/>
		</g>
		<path fill="#727272" d="M1457.6,950.8c4.4,2.7,9.3,4.5,14.4,5.3c2.5,0.4,5.1,0.6,7.7,0.5c2.8-0.1,5.5-0.5,8.2-0.7
			c2.8-0.2,5.6-0.3,8.3,0.3c2.6,0.6,4.9,1.9,7.2,3.1c2.3,1.2,4.6,2.2,7.1,2.5c2.6,0.4,5.3,0.1,7.9-0.3c3.1-0.5,6.2-1.2,9.3-1.8
			c3.3-0.7,6.6-1.3,9.9-2c0.4-0.1,0.2-0.6-0.1-0.5c-5.6,1.1-11.2,2.3-16.9,3.3c-2.7,0.5-5.5,0.9-8.2,0.8c-2.8-0.1-5.3-0.9-7.8-2.1
			c-2.2-1.1-4.3-2.3-6.6-3.1c-2.5-0.8-5.1-1.1-7.7-1c-2.7,0.1-5.4,0.4-8.1,0.6c-2.6,0.2-5.2,0.2-7.8,0c-5.9-0.6-11.6-2.5-16.6-5.6
			C1457.6,950.2,1457.5,950.6,1457.6,950.8L1457.6,950.8z"/>
		<g>
			<path fill="#9ABD57" d="M1535.5,947.8c1.9-0.9,4.9,0.2,4.3,1.9s-3,2.2-4.5,1.2c-0.6-0.4-1.1-1-1.2-1.7
				C1534,948.5,1534.6,948.2,1535.5,947.8"/>
		</g>
		<g>
			<path fill="#8FAA4C" d="M1465.5,978.6c0.3-1.8,1.3-3,2.7-2.5c1.4,0.5,2.1,2.1,2.5,3.6c0.4,1.6,0.6,3.3,0.7,4.9
				c0,1.5-0.3,3.4-1.8,3.9c-1,0.4-2.2-0.1-2.9-1c-0.7-0.9-1-2-1.1-3.1C1465.1,982.5,1465.1,980.6,1465.5,978.6"/>
		</g>
		<g>
			<path fill="#8FAA4C" d="M1458.6,996.4c1-1.6,2.5-1.4,3.3-0.8s0.9,1.8,0.9,2.8c0.1,1.1,0,2.3-0.8,3.1c-1.1,0.9-2.9,0.2-3.5-1.1
				C1458,999.1,1458.1,997.6,1458.6,996.4"/>
		</g>
		<g>
			<path fill="#9ABD57" d="M1568.2,985.2c1.8,0.8,1.8,2.3,1.2,3.1c-0.6,0.8-1.6,1.1-2.6,1.3c-1.1,0.2-2.3,0.4-3.1-0.3
				c-1.1-0.9-0.6-2.8,0.6-3.6s2.7-0.7,4.1-0.5"/>
		</g>
		<g>
			<path fill="#8FAA4C" d="M1503.6,993.5c0.7-1.3,1.7-1.1,2.1-0.6c0.5,0.5,0.5,1.4,0.5,2.2c0,0.9,0,1.9-0.6,2.4
				c-0.7,0.7-1.8,0.1-2.2-0.9C1503.1,995.6,1503.2,994.4,1503.6,993.5"/>
		</g>
		<g>
			<path fill="#9ABD57" d="M1575.1,987.4c0.9-0.6,2-0.9,3.1-1.1c0.5-0.1,1-0.1,1.3,0.3c0.6,0.7-0.4,1.6-1.3,2
				c-0.5,0.2-0.9,0.4-1.4,0.6c-0.8,0.3-1.8,0.7-2.5,0.2C1573.6,988.8,1574.1,988,1575.1,987.4"/>
		</g>
		<g>
			<path fill="#3F6B33" d="M1471.6,1004.8c2.3,0.8,4.1,2.5,5.7,4.3c5.2,6.2,7,14.6,8.2,22.6c1.9-3.6,1.9-7.9,1.2-11.9
				c-0.6-3.9-1.9-7.8-4.5-10.8s-6.6-5-10.5-4.4"/>
		</g>
		<g>
			<path fill="#3F6B33" d="M1497.7,1033c1.5-5.6,5.1-10.3,8.6-14.9c1.6-2.2,3.3-4.3,4.9-6.5c1,3.8,0,7.9-2.1,11.3s-5,6-8.1,8.6
				c-1,0.8-2.3,1.7-3.5,1.3"/>
		</g>
		<g>
			<path fill="#3F6B33" d="M1479.4,1029c-5.3-3.6-9.2-9.2-10.8-15.4c1,1,2.6,0.8,4,1c1.7,0.3,3.3,1.4,4.4,2.8s1.8,3,2.4,4.7
				c0.8,2.3,1.4,4.8,0.4,7"/>
		</g>
		<g>
			<path fill="#3F6B33" d="M1559.1,1044c-0.4-2.8,0.5-5.8,2.4-7.9c1.1-1.2,2.5-2.1,3.5-3.5c0.4-0.5,0.7-1,1.1-1.5
				c0.4,2.3-0.2,4.7-1.2,6.8c-1,2.1-2.5,3.9-4.2,5.5c-0.5,0.5-1.1,0.9-1.7,0.8"/>
		</g>
		<g>
			<path fill="#3F6B33" d="M1552.7,1045.3c-2.1-2.1-3.4-5.1-3.6-8.1c0.4,0.6,1.1,0.6,1.8,0.8c0.8,0.3,1.4,0.9,1.8,1.7
				c0.4,0.7,0.6,1.6,0.7,2.4c0.2,1.1,0.2,2.3-0.4,3.3"/>
		</g>
	</g>
	<g>
		<path fill="#535929" d="M610.4,943c-5-7.3-7.6-16.1-9.3-24.7c-1.7-8.8-2.5-17.8-2.6-26.8c0-1,1.6-1,1.6,0
			c0.1,8.8,0.9,17.7,2.6,26.4c1.7,8.5,4.2,17.1,9.1,24.3C612.4,943,611,943.8,610.4,943L610.4,943z"/>
		<g>
			<path fill="#616D2F" d="M598.7,899.9c-0.7-1.1-1.6-2.2-2.6-3.1c-0.3-0.3-0.7-0.7-1.1-0.8c-0.4-0.2-1-0.2-1.4,0.1
				c-0.2,0.2-0.4,0.5-0.4,0.7c-0.2,0.7-0.1,1.6,0.4,2.2c0.4,0.5,1.1,0.7,1.7,1C596.3,900.4,597.7,900.6,598.7,899.9L598.7,899.9z"/>
		</g>
		<g>
			<path fill="#616D2F" d="M599.2,906c-0.8-1-1.8-2-2.9-2.9c-0.4-0.3-0.8-0.6-1.2-0.7c-0.5-0.1-1-0.1-1.3,0.3
				c-0.2,0.2-0.3,0.5-0.4,0.8c-0.2,0.8,0,1.6,0.6,2.1c0.5,0.5,1.1,0.6,1.7,0.8C596.9,906.7,598.3,906.8,599.2,906L599.2,906z"/>
		</g>
		<g>
			<path fill="#616D2F" d="M599.8,912.3c-0.9-0.8-1.9-1.5-3-2.1c-0.4-0.2-0.8-0.4-1.2-0.4s-0.9,0.1-1.1,0.4
				c-0.2,0.2-0.2,0.5-0.2,0.7c0,0.7,0.3,1.4,0.9,1.8c0.5,0.3,1.1,0.4,1.7,0.5C597.9,913.3,599.2,913.1,599.8,912.3L599.8,912.3z"/>
		</g>
		<g>
			<path fill="#616D2F" d="M600.7,898.7c0.7-1.1,1.6-2.2,2.6-3.1c0.3-0.3,0.7-0.6,1.2-0.8s1-0.1,1.3,0.2c0.2,0.2,0.4,0.5,0.4,0.7
				c0.2,0.7,0.1,1.6-0.4,2.2c-0.4,0.5-1.1,0.7-1.7,1C603.1,899.2,601.6,899.4,600.7,898.7L600.7,898.7z"/>
		</g>
		<g>
			<path fill="#616D2F" d="M601.1,905.7c0.8-1,1.8-2,2.9-2.8c0.4-0.3,0.8-0.6,1.2-0.7c0.5-0.1,1-0.1,1.3,0.3
				c0.2,0.2,0.3,0.5,0.4,0.8c0.2,0.8,0,1.6-0.6,2.1c-0.5,0.4-1.1,0.6-1.8,0.8C603.4,906.4,602,906.5,601.1,905.7L601.1,905.7z"/>
		</g>
		<g>
			<path fill="#616D2F" d="M602.3,912c0.7-1,1.6-1.9,2.4-2.7c0.3-0.3,0.7-0.6,1.1-0.7c0.4-0.1,0.9-0.1,1.2,0.2
				c0.2,0.2,0.3,0.4,0.4,0.7c0.2,0.7,0,1.4-0.4,2c-0.4,0.4-1,0.6-1.5,0.8C604.4,912.6,603.1,912.7,602.3,912L602.3,912z"/>
		</g>
		<g>
			<path fill="#616D2F" d="M603.3,919c0.5-1.1,1.2-2.1,2-3.1c0.3-0.3,0.6-0.7,0.9-0.8c0.4-0.2,0.9-0.2,1.2,0
				c0.2,0.1,0.4,0.4,0.5,0.6c0.3,0.6,0.3,1.4-0.1,2c-0.3,0.5-0.9,0.8-1.4,1C605.5,919.2,604.3,919.5,603.3,919L603.3,919z"/>
		</g>
		<g>
			<path fill="#616D2F" d="M605.2,925.3c0.5-1.1,1.2-2.1,2-3.1c0.3-0.3,0.6-0.7,0.9-0.8c0.3-0.1,0.9-0.2,1.2,0
				c0.2,0.1,0.4,0.4,0.5,0.6c0.3,0.6,0.3,1.4-0.1,2c-0.3,0.5-0.9,0.8-1.4,1C607.4,925.6,606.1,925.9,605.2,925.3L605.2,925.3z"/>
		</g>
		<g>
			<path fill="#616D2F" d="M607.2,932.9c0.5-1.1,1.2-2.1,2-3.1c0.3-0.3,0.6-0.7,0.9-0.8c0.3-0.1,0.9-0.2,1.2,0
				c0.2,0.1,0.4,0.4,0.5,0.6c0.3,0.6,0.3,1.4-0.1,2c-0.3,0.5-0.9,0.8-1.4,1C609.3,933.1,608.1,933.4,607.2,932.9L607.2,932.9z"/>
		</g>
		<g>
			<path fill="#616D2F" d="M601.2,919.7c-0.8-0.9-1.8-1.6-2.9-2.3c-0.4-0.2-0.7-0.4-1.2-0.5c-0.4-0.1-0.9,0-1.2,0.4
				c-0.2,0.2-0.2,0.5-0.3,0.7c-0.1,0.7,0.2,1.4,0.7,1.9c0.5,0.4,1.1,0.5,1.7,0.6C599.2,920.6,600.4,920.5,601.2,919.7L601.2,919.7z"
				/>
		</g>
		<g>
			<path fill="#616D2F" d="M602.2,926.9c-0.9-0.8-1.9-1.6-2.9-2.2c-0.4-0.2-0.8-0.4-1.2-0.5c-0.4,0-0.9,0.1-1.1,0.4
				c-0.2,0.2-0.2,0.5-0.2,0.7c0,0.7,0.2,1.4,0.8,1.8c0.5,0.3,1.1,0.4,1.7,0.5C600.2,927.9,601.5,927.7,602.2,926.9L602.2,926.9z"/>
		</g>
		<g>
			<path fill="#616D2F" d="M605.3,934.2c-1-0.7-2.3-1.3-3.5-1.8c-0.4-0.2-0.9-0.3-1.4-0.3s-1,0.2-1.2,0.6c-0.1,0.2-0.2,0.5-0.2,0.8
				c0,0.7,0.4,1.4,1.1,1.8c0.6,0.3,1.2,0.3,1.9,0.3C603.2,935.5,604.6,935.2,605.3,934.2L605.3,934.2z"/>
		</g>
	</g>
	<g>
		<path fill="#38833E" d="M1654.9,930.7c0.4-5.2,0.1-10.4-1-15.4c-1-5-3.2-10.1-2.8-15.3c0.7-9.7,9.9-17.6,6.7-27.8
			c-0.4-1.3-2.5-0.7-2.1,0.6c3.1,9.9-6.6,18.3-6.8,28c-0.1,4.8,1.6,9.3,2.7,13.9c1.2,5.3,1.5,10.7,1.2,16
			C1652.8,932,1654.9,932,1654.9,930.7L1654.9,930.7z"/>
		<g>
			<path fill="#36923C" d="M1658.3,881.1c-0.2-1.3,0.7-2.5,1.9-3.1c1.1-0.6,2.4-0.8,3.7-1c1.2-0.2,2.5-0.6,3.4-1.6
				C1665.9,879.2,1661.9,881.8,1658.3,881.1z"/>
		</g>
		<g>
			<path fill="#36923C" d="M1652.8,892.6c0.8-2.4,3.3-3.9,5.8-4.7c2.5-0.7,5.1-1,7.5-1.9c-1.4,2.2-3.3,4.1-5.5,5.4
				C1658.4,892.7,1655.3,893.3,1652.8,892.6z"/>
		</g>
		<g>
			<path fill="#36923C" d="M1650.7,890.6c0.7-1.1,0.3-2.6-0.5-3.6s-1.9-1.7-3-2.4c-1-0.7-2.1-1.6-2.5-2.8
				C1644.3,885.7,1646.8,889.7,1650.7,890.6z"/>
		</g>
		<g>
			<path fill="#36923C" d="M1649.8,907.4c0-2.6-1.8-4.8-3.9-6.4c-2.1-1.5-4.5-2.6-6.4-4.3c0.6,2.5,1.7,5,3.4,6.9
				C1644.7,905.5,1647.3,907.2,1649.8,907.4z"/>
		</g>
		<g>
			<path fill="#36923C" d="M1652.3,907.1c0.1-2.2,1.8-4.1,3.7-5.4c1.9-1.2,4-2.1,5.8-3.4c-0.6,2.2-1.7,4.3-3.3,5.9
				C1656.9,905.8,1654.7,907.1,1652.3,907.1z"/>
		</g>
		<g>
			<path fill="#36923C" d="M1650.9,916.2c-2-1.4-4.7-1.8-7-1.1c0.7-0.2,1.5,0.3,1.9,1c0.4,0.6,0.7,1.4,1.2,1.9
				c0.6,0.5,1.5,0.6,2.3,0.6s1.7-0.1,2.1-0.7C1651.8,917.5,1651.8,916.8,1650.9,916.2z"/>
		</g>
		<path fill="#75B6C2" d="M1657.9,860.1c1.5-2.3,3.1-4.6,4.6-6.9c-0.5-0.1-1.1-0.3-1.6-0.4c0,0.1,0,0.3,0,0.4
			c-0.1,1.1,1.6,1.1,1.7,0c0-0.1,0-0.3,0-0.4c0.1-0.9-1.2-1.1-1.6-0.4c-1.5,2.3-3.1,4.6-4.6,6.9
			C1655.8,860.1,1657.3,861,1657.9,860.1L1657.9,860.1z"/>
		<path fill="#75B6C2" d="M1657.9,861.1c2.3-1.3,4.8-3.1,6.2-5.4c0.6-0.9-0.9-1.8-1.5-0.9c-1.3,2-3.5,3.6-5.6,4.8
			C1656.2,860.2,1656.9,861.6,1657.9,861.1L1657.9,861.1z"/>
		<path fill="#75B6C2" d="M1658.8,861.5c2.1-0.6,4.3,0,6.4-0.7c0.9-0.3,0.7-1.6-0.2-1.7l0,0c-1.1-0.1-1.1,1.6,0,1.7l0,0
			c-0.1-0.6-0.2-1.1-0.2-1.7c-2.1,0.7-4.3,0.1-6.4,0.7C1657.3,860.2,1657.7,861.9,1658.8,861.5L1658.8,861.5z"/>
		<path fill="#75B6C2" d="M1658.3,862.2c1.2,0.2,2.2,1,3.3,1.3c1.7,0.4,3.7,0.3,5.5,0c1-0.2,0.7-1.7-0.2-1.7c-0.1,0-0.2,0-0.3,0
			c-1.1,0-1.1,1.7,0,1.7c0.1,0,0.2,0,0.3,0c-0.1-0.6-0.2-1.1-0.2-1.7c-1.6,0.3-3.6,0.3-5.2-0.2c-0.9-0.3-1.7-0.9-2.7-1.1
			C1657.7,860.3,1657.3,862,1658.3,862.2L1658.3,862.2z"/>
		<path fill="#75B6C2" d="M1657.8,862.7c3.3,1.2,6.3,3.3,9.7,4.3c1.1,0.3,1.5-1.3,0.5-1.6c-3.4-1-6.3-3.1-9.7-4.3
			C1657.3,860.7,1656.8,862.4,1657.8,862.7L1657.8,862.7z"/>
		<path fill="#75B6C2" d="M1657.4,863.5c0.8,0.7,1.3,1.8,1.9,2.7c1,1.7,1.9,3.5,2.8,5.2c0.4-0.3,0.9-0.7,1.3-1
			c-0.1-0.1-0.1-0.1-0.2-0.2c-0.7-0.9-1.9,0.4-1.2,1.2c0.1,0.1,0.1,0.1,0.2,0.2c0.6,0.8,1.8-0.2,1.3-1c-1-1.8-1.9-3.7-3-5.4
			c-0.6-0.9-1.2-2.1-2-2.8C1657.8,861.5,1656.7,862.7,1657.4,863.5L1657.4,863.5z"/>
		<path fill="#75B6C2" d="M1655.4,864.9c1.3,2.4,0.9,5.2,1.7,7.8c0.5-0.2,1.1-0.3,1.6-0.5c-0.1-0.2-0.2-0.4-0.3-0.7
			c-0.4-1-2.1-0.6-1.6,0.5c0.1,0.2,0.2,0.4,0.3,0.7c0.4,1,1.9,0.6,1.6-0.5c-0.8-2.7-0.4-5.7-1.8-8.2
			C1656.4,863.1,1654.9,863.9,1655.4,864.9L1655.4,864.9z"/>
		<path fill="#75B6C2" d="M1656.7,863.7c1.9,2.8,3.5,5.8,4.9,8.8c0.5,1,1.9,0.1,1.5-0.9c-1.4-3-3-6-4.9-8.8
			C1657.4,861.9,1655.9,862.8,1656.7,863.7L1656.7,863.7z"/>
		<path fill="#75B6C2" d="M1655.8,863.6c-0.6,3.3-0.9,6.6-1.2,9.8c-0.1,1.1,1.6,1.1,1.7,0c0.3-3.1,0.6-6.3,1.2-9.4
			C1657.4,863,1655.9,862.6,1655.8,863.6L1655.8,863.6z"/>
		<path fill="#75B6C2" d="M1654.7,863.7c-0.6,0.7-1.1,1.6-1.5,2.5c-1,2-1.9,4.1-2.7,6.1c0.4-0.1,0.9-0.1,1.3-0.2
			c-0.1-0.1-0.1-0.1-0.2-0.2c-0.7-0.9-1.9,0.4-1.2,1.2c0.1,0.1,0.1,0.1,0.2,0.2c0.3,0.4,1.1,0.3,1.3-0.2c0.8-1.9,1.6-3.7,2.5-5.6
			c0.4-0.9,0.8-2,1.5-2.7C1656.4,864.1,1655.3,862.9,1654.7,863.7L1654.7,863.7z"/>
		<path fill="#75B6C2" d="M1653.7,863.5c-0.9,0.8-1.9,1.5-2.7,2.5c-1.4,1.7-2.8,3.4-4.5,4.9c-0.8,0.7,0.4,1.9,1.2,1.2
			c1.5-1.3,2.9-2.8,4.1-4.4c0.9-1.2,2-2,3.1-3C1655.7,864,1654.4,862.8,1653.7,863.5L1653.7,863.5z"/>
		<path fill="#75B6C2" d="M1653.9,863c-3.7,0-7.3,0.2-11,0.4c-1.1,0.1-1.1,1.8,0,1.7c3.7-0.2,7.3-0.4,11-0.4
			C1654.9,864.7,1654.9,863,1653.9,863L1653.9,863z"/>
		<path fill="#75B6C2" d="M1653.8,862.4c-3,0.1-6.7-0.7-9.5-2.1c-1-0.5-1.8,1-0.9,1.5c3,1.5,7,2.4,10.3,2.3
			C1654.8,864.1,1654.8,862.4,1653.8,862.4L1653.8,862.4z"/>
		<path fill="#75B6C2" d="M1653.4,861.9c-1.7-1-3.4-2-5.2-3c-1.3-0.8-2.9-2.1-4.5-2.3c0.3,0.3,0.6,0.6,0.9,0.9v-0.1
			c-0.4,0.3-0.7,0.5-1.1,0.8l0,0c1.1,0.2,1.5-1.4,0.5-1.6l0,0c-0.6-0.1-1,0.3-1.1,0.8v0.1c0,0.5,0.4,0.8,0.9,0.9
			c0.5,0.1,1.4,0.8,1.8,1.1c0.8,0.5,1.6,0.9,2.5,1.4c1.5,0.9,3,1.7,4.5,2.6C1653.4,863.9,1654.3,862.5,1653.4,861.9L1653.4,861.9z"
			/>
		<path fill="#75B6C2" d="M1654.3,861.4c-1.6-1-2.9-2.3-4.3-3.4c-0.6-0.5-1.3-1.1-2-1.6s-1.7-0.9-2-1.7c-0.4-1-1.9-0.1-1.5,0.9
			c0.3,0.8,1,1.2,1.7,1.6c0.9,0.6,1.7,1.3,2.6,2c1.5,1.3,3,2.6,4.7,3.7C1654.4,863.5,1655.3,862,1654.3,861.4L1654.3,861.4z"/>
		<path fill="#75B6C2" d="M1655.2,860.1c-1.7-1.8-3.5-3.5-5.1-5.3c-0.7-0.8-1.9,0.4-1.2,1.2c1.7,1.8,3.5,3.5,5.1,5.3
			C1654.7,862.1,1655.8,860.9,1655.2,860.1L1655.2,860.1z"/>
		<path fill="#75B6C2" d="M1655.8,859.5c-2.1-2.7-4-5.6-6-8.3c-0.7-0.9-2.1,0-1.5,0.9c2.1,2.7,4,5.6,6,8.3
			C1654.9,861.3,1656.4,860.4,1655.8,859.5L1655.8,859.5z"/>
		<path fill="#75B6C2" d="M1656.4,859.4c-1.3-3.2-2.4-6.6-3.2-10c-0.3-1.1-1.9-0.6-1.6,0.5c0.8,3.4,1.9,6.8,3.2,10
			C1655.3,860.9,1656.9,860.4,1656.4,859.4L1656.4,859.4z"/>
		<path fill="#75B6C2" d="M1657.3,859.6c-0.1-2.5-0.1-5-0.2-7.5c0-1.1-1.7-1.1-1.7,0c0.1,2.5,0.1,5,0.2,7.5
			C1655.7,860.7,1657.3,860.7,1657.3,859.6L1657.3,859.6z"/>
		<path fill="#75B6C2" d="M1657.7,859.2c0-2.5,1.6-4.8,1.6-7.3c0-1.1-1.7-1.1-1.7,0c0,2.5-1.6,4.8-1.6,7.3
			C1655.9,860.3,1657.7,860.3,1657.7,859.2L1657.7,859.2z"/>
		<g>
			<path fill="#B5C77B" d="M1653.2,863.4c-0.2-0.3-0.2-0.7-0.2-1c0-1,0.2-1.9,0.8-2.7c0.6-0.8,1.5-1.3,2.5-1.1
				c0.4,0.1,0.8,0.3,1.1,0.5c0.4,0.2,0.8,0.5,1.1,0.9c0.8,0.9,0.9,2.2,0.4,3.3s-1.7,1.7-2.8,1.7C1655,865,1653.8,864.3,1653.2,863.4
				"/>
		</g>
	</g>
	<g>
		<path fill="#38833E" d="M988.9,1067.1c-0.4-5.4-0.1-10.9,1-16.2s3.3-10.6,2.9-16.1c-0.8-10.2-10.4-18.5-7-29.2
			c0.4-1.4,2.6-0.8,2.2,0.6c-3.3,10.4,6.9,19.2,7.1,29.4c0.1,5-1.7,9.8-2.8,14.6c-1.3,5.5-1.6,11.2-1.2,16.8
			C991.4,1068.5,989.1,1068.5,988.9,1067.1L988.9,1067.1z"/>
		<g>
			<path fill="#36923C" d="M985.7,1015.1c0.2-1.3-0.8-2.6-2-3.2s-2.5-0.8-3.8-1.1s-2.7-0.7-3.6-1.7
				C977.4,1013.2,981.6,1015.9,985.7,1015.1z"/>
		</g>
		<g>
			<path fill="#36923C" d="M991.4,1027.1c-0.9-2.6-3.5-4.1-6.1-4.9c-2.6-0.8-5.4-1-7.9-2c1.5,2.3,3.4,4.3,5.8,5.6
				C985.7,1027.1,988.8,1027.8,991.4,1027.1z"/>
		</g>
		<g>
			<path fill="#36923C" d="M993.6,1025.1c-0.7-1.1-0.3-2.7,0.5-3.7s2-1.7,3.1-2.5s2.2-1.7,2.6-2.9
				C1000.4,1020,997.6,1024.1,993.6,1025.1z"/>
		</g>
		<g>
			<path fill="#36923C" d="M994.4,1042.7c0-2.7,1.9-5.1,4.1-6.7s4.7-2.8,6.7-4.5c-0.6,2.7-1.7,5.2-3.6,7.3
				C999.9,1040.8,997.2,1042.5,994.4,1042.7z"/>
		</g>
		<g>
			<path fill="#36923C" d="M991.8,1042.4c-0.1-2.4-1.9-4.3-3.9-5.6c-2-1.3-4.2-2.2-6.1-3.6c0.6,2.3,1.8,4.5,3.5,6.1
				C986.9,1041,989.4,1042.3,991.8,1042.4z"/>
		</g>
		<g>
			<path fill="#36923C" d="M993.2,1051.9c2.1-1.4,4.9-1.9,7.3-1.2c-0.8-0.3-1.5,0.4-2,1s-0.7,1.5-1.3,2c-0.7,0.5-1.6,0.6-2.4,0.6
				c-0.8,0-1.8-0.1-2.2-0.8C992.4,1053.2,992.4,1052.5,993.2,1051.9z"/>
		</g>
		<path fill="#75B6C2" d="M987.7,992c-1.6-2.4-3.2-4.8-4.8-7.2c-0.6-0.8-2.2-0.6-2.1,0.6c0,0.1,0,0.3,0,0.4c0.2,1.4,2.4,1.4,2.3,0
			c0-0.1,0-0.3,0-0.4c-0.7,0.2-1.4,0.4-2.1,0.6c1.6,2.4,3.2,4.8,4.8,7.2C986.6,994.4,988.4,993.2,987.7,992L987.7,992z"/>
		<path fill="#75B6C2" d="M986.9,992.4c-2.1-1.2-4.5-2.9-5.8-5c-0.8-1.2-2.7-0.1-1.9,1.1c1.6,2.4,4.1,4.3,6.6,5.8
			C987.1,995,988.2,993.1,986.9,992.4L986.9,992.4z"/>
		<path fill="#75B6C2" d="M985.4,992.6c-2.2-0.6-4-0.2-7-0.8c0,0.7,0,1.5,0,2.2h0.3c1.4-0.3,1-2.5-0.4-2.2l0,0c-1.1,0.3-1,1.9,0,2.2
			c2.2,0.6,4.4,0.1,6.6,0.8C986.3,995.2,986.8,993.1,985.4,992.6L985.4,992.6z"/>
		<path fill="#75B6C2" d="M985.1,993.3c-1,0.2-1.9,0.8-2.9,1.1c-1.6,0.6-3.7,0.5-5.3,0.2c-0.1,0.7-0.2,1.5-0.3,2.2
			c0.1,0,0.2,0,0.3,0c1.5,0.1,1.5-2.2,0-2.3c-0.1,0-0.2,0-0.3,0c-1.2,0-1.6,2-0.3,2.2c1.9,0.3,4,0.4,5.9,0c1.2-0.3,2.3-1.1,3.5-1.3
			C987.1,995.2,986.4,993,985.1,993.3L985.1,993.3z"/>
		<path fill="#75B6C2" d="M985.4,993.9c-3.5,1.2-6.6,3.4-10.1,4.5c-1.4,0.4-0.8,2.6,0.6,2.2c3.6-1,6.7-3.2,10.1-4.5
			C987.4,995.6,986.9,993.4,985.4,993.9L985.4,993.9z"/>
		<path fill="#75B6C2" d="M984.9,995.2c-2.4,2.2-3.8,6-5.3,8.7c-0.6,1.1,0.9,2.4,1.8,1.4c0.1-0.1,0.1-0.1,0.2-0.2
			c0.9-1.1-0.7-2.7-1.6-1.6c-0.1,0.1-0.1,0.1-0.2,0.2c0.6,0.5,1.2,0.9,1.8,1.4c1.4-2.6,2.7-6.2,4.9-8.2
			C987.7,995.8,986.1,994.2,984.9,995.2L984.9,995.2z"/>
		<path fill="#75B6C2" d="M986.7,997.1c-1.5,2.7-1.1,5.8-1.9,8.7c-0.4,1.4,1.6,1.9,2.2,0.6c0.1-0.2,0.2-0.5,0.3-0.7
			c0.5-1.3-1.6-1.9-2.2-0.6c-0.1,0.2-0.2,0.5-0.3,0.7c0.7,0.2,1.5,0.4,2.2,0.6c0.7-2.7,0.3-5.7,1.7-8.1
			C989.4,996.9,987.4,995.8,986.7,997.1L986.7,997.1z"/>
		<path fill="#75B6C2" d="M985.6,995.8c-2,2.9-3.6,6.1-5.1,9.3c-0.6,1.3,1.3,2.5,1.9,1.1c1.5-3.2,3.1-6.3,5.1-9.3
			C988.3,995.8,986.4,994.6,985.6,995.8L985.6,995.8z"/>
		<path fill="#75B6C2" d="M986.4,997.3c0.6,3.2,0.9,6.5,1.2,9.8c0.1,1.4,2.4,1.4,2.3,0c-0.4-3.5-0.6-7-1.3-10.4
			C988.3,995.3,986.1,995.9,986.4,997.3L986.4,997.3z"/>
		<path fill="#75B6C2" d="M987.9,998.3c0.7,0.7,1.1,1.9,1.5,2.8c0.9,1.9,1.7,3.8,2.6,5.8c0.3,0.6,1.3,0.7,1.8,0.2
			c0.1-0.1,0.1-0.1,0.2-0.2c0.9-1.1-0.7-2.7-1.6-1.6c-0.1,0.1-0.1,0.1-0.2,0.2c0.6,0.1,1.2,0.2,1.8,0.2c-0.9-2.1-1.8-4.3-2.9-6.4
			c-0.5-0.9-0.9-1.9-1.6-2.6C988.7,995.6,987.1,997.2,987.9,998.3L987.9,998.3z"/>
		<path fill="#75B6C2" d="M989.1,998c1.1,1,2.2,1.8,3.1,2.9c1.3,1.7,2.8,3.3,4.4,4.8c1.1,1,2.7-0.6,1.6-1.6
			c-1.7-1.6-3.2-3.3-4.7-5.1c-0.8-1-1.9-1.8-2.9-2.6C989.6,995.5,987.9,997.1,989.1,998L989.1,998z"/>
		<path fill="#75B6C2" d="M990.2,998.1c3.9,0,7.7,0.2,11.6,0.4c1.5,0.1,1.4-2.2,0-2.3c-3.8-0.2-7.7-0.5-11.6-0.4
			C988.7,995.9,988.7,998.2,990.2,998.1L990.2,998.1z"/>
		<path fill="#75B6C2" d="M990.3,997.5c3.6,0.1,7.7-0.9,10.9-2.5c1.3-0.6,0.2-2.6-1.1-1.9c-2.8,1.4-6.7,2.2-9.8,2.2
			C988.9,995.2,988.9,997.5,990.3,997.5L990.3,997.5z"/>
		<path fill="#75B6C2" d="M991.7,996.7c1.6-0.9,3.1-1.8,4.7-2.7c0.8-0.5,1.6-0.9,2.4-1.4c0.5-0.3,1.5-1.2,2-1.2
			c0.6-0.1,1.2-0.5,1.1-1.1v-0.1c-0.1-0.8-0.7-1.3-1.4-1.1l0,0c-1.4,0.3-0.8,2.5,0.6,2.2l0,0c-0.5-0.4-1-0.7-1.4-1.1v0.1
			c0.4-0.4,0.8-0.8,1.1-1.1c-1.7,0.2-3.4,1.7-4.8,2.5c-1.8,1-3.6,2.1-5.4,3.1C989.3,995.5,990.4,997.4,991.7,996.7L991.7,996.7z"/>
		<path fill="#75B6C2" d="M990.7,996.2c1.8-1.2,3.4-2.6,5-3.9c1.3-1.1,3.7-2.2,4.4-3.8c0.6-1.3-1.4-2.5-1.9-1.1
			c-0.4,0.8-1.4,1.2-2.1,1.8c-0.7,0.5-1.3,1.1-2,1.6c-1.5,1.2-2.9,2.5-4.5,3.6C988.4,995,989.4,997,990.7,996.2L990.7,996.2z"/>
		<path fill="#75B6C2" d="M990.4,994.5c1.7-1.9,3.7-3.7,5.4-5.6c1-1.1-0.6-2.7-1.6-1.6c-1.7,1.9-3.7,3.7-5.4,5.6
			C987.8,994,989.4,995.6,990.4,994.5L990.4,994.5z"/>
		<path fill="#75B6C2" d="M989.9,993.5c2.2-2.9,4.1-5.8,6.3-8.7c0.9-1.2-1.1-2.3-1.9-1.1c-2.2,2.9-4.1,5.8-6.3,8.7
			C987.2,993.5,989.1,994.6,989.9,993.5L989.9,993.5z"/>
		<path fill="#75B6C2" d="M989.4,992.9c1.4-3.4,2.5-7,3.4-10.5c0.3-1.4-1.8-2-2.2-0.6c-0.9,3.6-2,7.1-3.4,10.5
			C986.6,993.6,988.8,994.2,989.4,992.9L989.4,992.9z"/>
		<path fill="#75B6C2" d="M988.7,992.6c0.1-2.6,0.1-5.2,0.2-7.8c0-1.5-2.2-1.5-2.3,0c-0.1,2.6-0.1,5.2-0.2,7.8
			C986.4,994,988.6,994,988.7,992.6L988.7,992.6z"/>
		<path fill="#75B6C2" d="M988.3,992.1c-0.1-2.6-1.7-5-1.7-7.6c0-1.5-2.3-1.5-2.3,0c0.1,2.6,1.7,5,1.7,7.6
			C985.9,993.6,988.3,993.6,988.3,992.1L988.3,992.1z"/>
		<g>
			<path fill="#B5C77B" d="M990.9,996.5c0.2-0.3,0.2-0.7,0.2-1c0-1-0.2-2-0.8-2.8s-1.6-1.4-2.6-1.2c-0.4,0.1-0.8,0.3-1.2,0.5
				c-0.4,0.3-0.8,0.5-1.2,0.9c-0.8,0.9-1,2.3-0.4,3.4s1.8,1.8,3,1.8C989.1,998.1,990.4,997.4,990.9,996.5"/>
		</g>
	</g>
	<g>
		<g>
			<path fill="#3F6D34" d="M990.9,942.2c7.1-2.3,14,3.6,19.1,9c5.7,6.1,11.4,12.1,17,18.2c1.4,1.5,2.8,3.1,3.2,5.1
				c0.7,3.8-2.8,7.3-6.6,8c-3.8,0.7-7.6-0.7-11.2-2.1c-11.1-4.3-22.6-9-34.6-8.3c-4.9,0.3-9.7,1.5-14.5,2
				c-10.7,1.2-21.6-0.6-32.1-3.1c-6-1.4-17.4-3.7-19.7-9.5c-2.7-6.9,7.3-14.3,12.5-19.6c7.2-7.3,14.8-14.5,24.1-18.8
				s20.5-5.5,29.7-0.9c7.5,3.8,12.6,10.8,17.5,17.6"/>
		</g>
		<g>
			<path fill="#EBE9C5" d="M919.6,935.4c10.9-38.4,15.1-61.1,12.6-100.9c-0.3-4-0.6-8.1-2.3-11.7c-2-4.5-5.9-7.9-9.6-11.1
				c-11.3-9.6-23.3-19.5-29.6-32.7c-0.8-1.8,0.8-3.8,2.7-3.3c12.5,2.9,24.5,7.8,35.4,14.7c1.5,1,3.5-0.1,3.6-1.9l5.4-113.3
				c1-21.2,2-42.6-1.1-63.6c-2.7-18.2-8.6-36.3-19.3-51.2c-1.5-2,0.8-4.6,3-3.5c5.5,2.8,10.4,7,14.1,12c1.1,1.5,3.5,1.3,4.2-0.5
				c7.9-19.7,18.5-38.5,31.3-55.4c1.5-2,4.6-0.7,4.3,1.7c-3.3,24.6-5.3,49.4-6,74.1c-0.1,2.2,2.6,3.3,4.1,1.7l5-5
				c1.9-1.9,4.9,0.2,3.9,2.6c-7.8,18.1-9.4,39.2-8.9,59.2c0.7,23.5,3.9,47.1,1.8,70.4c-0.2,2.2,2.4,3.5,4,2
				c7.3-7.1,16.4-11.9,29.6-15.8c2.2-0.7,4,1.8,2.6,3.7c-12.4,17.1-13.5,22.4-26.3,36.5c-2.1,2.3-5.6,4.5-7.1,7.2
				c-1.3,2.2-1.6,4.9-1.9,7.5c-1.2,12.1-2.5,24.2-3.7,36.4c-2.9,28-5.6,57.4,4.9,83.5c9.5,23.7,29.5,44.3,32.4,69
				c0.5,4.1-2.3,8-6.4,8.8c-3.8,0.7-7.6,0.7-10.8-1.1c-10.4-6-26-5.5-35.3,2.2c-12.8,10.8-14.8,0.9-28.2,3.7
				C896.9,968,913.6,949.9,919.6,935.4"/>
		</g>
		<path fill="#A8A29C" d="M988.1,947.3c-11.2-12.6-22.8-25.7-29.5-41.5c-7.3-16.9-6.9-35.5-4.5-53.4c2.5-18.5,6.6-36.9,6.5-55.6
			c-0.1-19.4-3.6-38.7-4-58.1c-0.4-16.9,1.4-34.5,9.4-49.7c1-1.8,2-3.6,3.1-5.3c0.3-0.5-0.4-0.9-0.7-0.4
			c-9.3,14.2-12.4,31.4-12.7,48.3c-0.4,19.4,3.1,38.7,3.9,58c0.4,9.7,0,19.3-1.2,29c-1.2,9.4-2.9,18.8-4.3,28.1
			c-2.7,17.8-4.2,36.4,1.6,53.8c5.5,16.2,16.4,29.7,27.5,42.5c1.4,1.6,2.9,3.2,4.3,4.9C987.8,948.3,988.4,947.7,988.1,947.3
			L988.1,947.3z"/>
		<path fill="#A8A29C" d="M961.9,952.4c-12.6-14.2-18.7-32.9-21.1-51.5c-2.5-19.3-1-38.9,1.3-58.1c2.4-19.6,5.8-39.1,7.1-58.8
			c0.7-9.8,0.8-19.7,0.1-29.5c-0.7-10.5-2.2-20.9-2.5-31.3c-0.3-9.7,0.7-19.4,3.8-28.7c2.8-8.6,7.1-16.8,12.7-23.9
			c1.4-1.7,2.8-3.4,4.3-5c0.4-0.4-0.2-1-0.6-0.6c-12.3,13.2-19.7,30.5-20.9,48.6c-0.7,10.6,0.5,21.3,1.5,31.9
			c1,10.3,1.5,20.6,1.1,30.9c-0.8,20.1-4.1,40-6.7,59.9c-2.6,19.7-4.7,39.7-2.8,59.5c1.7,18.5,6.8,37.4,18,52.5c1.3,1.7,2.6,3.4,4,5
			C961.7,953.5,962.3,952.9,961.9,952.4L961.9,952.4z"/>
		<path fill="#A8A29C" d="M966.7,872.8c1,10.3,5.8,19.5,11.4,28c5.9,8.8,12.6,17,18,26.1c3,5.1,5.5,10.5,7,16.2
			c0.1,0.5,1,0.3,0.8-0.2c-2.7-10.1-8.4-19-14.4-27.4c-6-8.5-12.6-16.7-17.2-26.1c-2.5-5.2-4.3-10.8-4.9-16.6
			C967.5,872.3,966.7,872.3,966.7,872.8L966.7,872.8z"/>
		<path fill="#A8A29C" d="M969.9,773.3c-2.4-9.1-3.9-19.1-1.1-28.3c1.3-4.5,3.7-8.5,7-11.8c3.1-3.2,6.9-5.8,10.7-8.2
			c4.3-2.7,8.7-5.1,12.8-8.1c0.4-0.3,0-1.1-0.4-0.7c-7.4,5.3-16,9.1-22.7,15.4c-3.3,3.2-5.9,7-7.5,11.3c-1.6,4.5-2.2,9.4-2.1,14.1
			c0.1,5.6,1.2,11.1,2.6,16.5C969.2,774,970,773.8,969.9,773.3L969.9,773.3z"/>
		<path fill="#A8A29C" d="M914.6,788.3c8.9,6,14,17,12.9,27.6c-0.1,0.5,0.8,0.5,0.9,0c0.9-8.5-2.1-17.2-7.8-23.6
			c-1.6-1.8-3.5-3.4-5.5-4.8C914.6,787.3,914.1,788,914.6,788.3L914.6,788.3z"/>
		<path fill="#A8A29C" d="M942,683.8c4.6-8.7,7.9-18.2,10-27.8c2.1-9.8,3.2-19.7,3.7-29.7c0.5-10.1,0.4-20.3,0.3-30.4
			c-0.1-9.3-0.3-18.6,0.9-27.9c1.2-8.8,3.8-17.6,9.1-24.7c0.7-0.9,1.4-1.8,2.2-2.7c0.4-0.4-0.2-1-0.6-0.6c-5.9,6.6-9.2,15-10.8,23.6
			c-1.7,8.9-1.8,18-1.7,27.1c0.1,10.1,0.3,20.3,0,30.4c-0.3,10.2-1.1,20.4-3,30.4c-1.8,9.9-4.7,19.6-9.1,28.6
			c-0.5,1.1-1.1,2.2-1.7,3.3C941,683.8,941.7,684.2,942,683.8L942,683.8z"/>
		<g>
			<path fill="#8E8E8E" d="M943.9,587.7c0-1-0.1-2,0.5-2.8s1.9-1.3,2.9-0.7c1.1,0.6,1.2,1.9,1.1,2.9c-0.1,1.1-0.5,2.4-1.6,2.9
				C945.7,590.4,943.8,588.7,943.9,587.7L943.9,587.7z"/>
		</g>
		<g>
			<path fill="#8E8E8E" d="M964,726.8c-0.5-2.7-1-5.5-0.7-8.3s1.9-5.3,3.5-4.8c1.7,0.6,2.5,3.9,2.8,6.8c0.4,3.2,0.5,6.9-0.7,9.5
				s-4.2,2.3-4.6-1"/>
		</g>
		<g>
			<path fill="#8E8E8E" d="M935,808.8c-0.6-2.8-0.6-5.7,0.2-8.3c0.4-1.4,1.3-3,3.6-2.7c1.9,0.3,3.3,1.7,3.4,3.3l0.3,7.8
				c0.1,1.5-0.6,3-2.1,3.9C937.7,814.3,935.8,812,935,808.8"/>
		</g>
	</g>
</g>
</svg>
