<?xml version="1.0" encoding="utf-8"?>
<!-- Generator: Adobe Illustrator 18.0.0, SVG Export Plug-In . SVG Version: 6.00 Build 0)  -->
<!DOCTYPE svg PUBLIC "-//W3C//DTD SVG 1.1//EN" "http://www.w3.org/Graphics/SVG/1.1/DTD/svg11.dtd">
<svg version="1.1" id="图层_1" xmlns="http://www.w3.org/2000/svg" xmlns:xlink="http://www.w3.org/1999/xlink" x="0px" y="0px"
	 viewBox="0 0 1920 1080" enable-background="new 0 0 1920 1080" xml:space="preserve" width="1920px" height="1080px">
<path fill="#939393" d="M1910.6,651.4c-17.6,8.4-69.4-9.5-87.2-27.9c-2.1-2.2-11.6-4.2-15.9-3.1l-55.5,32c-0.4,0.2-0.9,0.5-1.3,0.8
	c-5.8,4.6-53.5,40.2-74.4,1.4c-0.7-1.2-1.5-2.3-2.6-3c-12.2-7.9-90.3-52-195.6,41.9c-2.1,1.9-4.9,2.4-7.3,1.2l-165-77.1
	c-1.1-0.5-2.1-1.4-2.9-2.4c-6.2-8.2-41.8-41.5-155.7,63.6c-2.1,1.9-4.8,2.4-7.2,1.4l-67.7-29.4c-0.9-0.4-1.7-0.9-2.4-1.7
	c-6.8-6.9-50-42.1-141.6,67.6c-2.3,2.8-5.9,3.5-8.8,1.7L732.5,604.1c-0.5-0.3-1-0.6-1.6-0.7c-6.2-1.9-41.3-7.6-93.5,76.7
	c-2,3.3-5.5,4.6-8.7,3.2L558.7,653c-0.3-0.1-0.6-0.3-0.9-0.5c-3.3-2.8-29.8-21.4-70.3,69c-33.6,75-3.1,33.6,12.2,11.3
	c3.6-5.3,1.6-13.4-3.8-15.2L399,683.7c-0.5-0.2-1-0.5-1.4-0.9c-3.2-3.1-19.5-14.4-41.3,42.6c-2.3,6.1-8.9,7.3-12.6,2.4L288,654.3
	c-0.8-1.1-1.8-1.9-2.9-2.4c-11.6-5.3-78.4-34-116.4-2.5c-2.4,2-5.4,2.3-8,0.7l-50.2-31.8c-1.6-1-3.5-1.3-5.2-0.8
	c-13,3.6-68.9,21.2-103,63.2c-1.4,1.8-2.2,4.2-2.2,6.6L0,1125c0,5.2,3.5,9.5,7.7,9.5h1904.5c4.3,0,7.7-4.2,7.7-9.5V664.3
	C1919.9,657.7,1921.5,646.2,1910.6,651.4z"/>
</svg>
