<?xml version="1.0" encoding="utf-8"?>
<!-- Generator: Adobe Illustrator 18.1.1, SVG Export Plug-In . SVG Version: 6.00 Build 0)  -->
<svg version="1.1" xmlns="http://www.w3.org/2000/svg" xmlns:xlink="http://www.w3.org/1999/xlink" x="0px" y="0px"
	 viewBox="0 0 1200 600" enable-background="new 0 0 1200 600" xml:space="preserve">
<g id="图层_2" display="none">
	<rect x="900" y="300" display="inline" fill="#C4A9AD" width="300" height="300"/>
	<rect x="600" y="300" display="inline" fill="#C4A9AD" width="300" height="300"/>
	<rect x="300" y="300" display="inline" fill="#C4A9AD" width="300" height="300"/>
	<rect y="300" display="inline" fill="#C4A9AD" width="300" height="300"/>
	<rect x="900" y="0" display="inline" fill="#C4A9AD" width="300" height="300"/>
	<rect x="600" y="0" display="inline" fill="#C4A9AD" width="300" height="300"/>
	<rect y="0" display="inline" fill="#C4A9AD" width="300" height="300"/>
	<rect x="300" y="0" display="inline" fill="#C4A9AD" width="300" height="300"/>
</g>
<g id="图层_3">
</g>
<g id="图层_1">
	<g>
		<path fill="#EB7CA0" d="M1106.5,467.5H994.5c-3.8,0-6.9-3.1-6.9-6.9V398c0-3.8,3.1-6.9,6.9-6.9h111.9c3.8,0,6.9,3.1,6.9,6.9v62.6
			C1113.3,464.4,1110.2,467.5,1106.5,467.5z"/>
		<path fill="#FFFFFF" d="M987.7,413.3c0,0,12.3,16.9,23.3,0c11-16.9,24.6,0,24.6,0s13.9,18.6,26.2,0c13.3-20.1,26.4,0.6,26.4,0.6
			s13,17.9,25.2-0.5v42.4H987.6L987.7,413.3z"/>
		<path fill="#EB7CA0" d="M1135.8,526.8H964.2c-2.7,0-5-2.2-5-5v-66.4c0-2.7,2.2-5,5-5h171.7c2.7,0,5,2.2,5,5v66.4
			C1140.8,524.6,1138.6,526.8,1135.8,526.8z"/>
		<path fill="#FFFFFF" d="M959.2,474.7c0,0,17.7,24.3,33.6,0c15.9-24.3,35.6,0,35.6,0s20.1,26.7,37.8,0c19.2-29,38.2,0.8,38.2,0.8
			s18.8,25.8,36.4-0.7v52H959.2V474.7z"/>
		<path fill="#82BEE8" d="M1143.5,544.8H956.5c-2.2,0-3.9-1.8-3.9-3.9v-13.3c0-2.2,1.8-3.9,3.9-3.9h186.9c2.2,0,3.9,1.8,3.9,3.9
			v13.3C1147.4,543,1145.6,544.8,1143.5,544.8z"/>
		<path fill="#82BEE8" d="M1057.1,355.7c-3.9,0.9-8.6,4.6-10.3,8.2c-2.6,5.5-2,11.1,0.6,15.4c0.2,0.3,0.6,0.3,0.9,0.1
			c0.7-0.8,1.4-1.6,2.1-2.5c0.2-0.3,0.3-0.6,0.1-0.9c-1.5-3.2-1.5-7.1,0.6-10.8c1.3-2.4,3.6-4.2,6.3-5c10.3-3,18.7,7.4,13.7,16.8
			c-1.3,2.4-3.5,4.3-6.1,5.1c-2.9,0.9-5.7,0.7-8.1-0.2c-0.2-0.1-0.4,0-0.6,0.2c-0.7,0.9-1.4,1.9-2.1,2.9c-0.1,0.2-0.1,0.5,0.2,0.6
			c3.5,1.6,7.7,2.1,12.2,0.5c3.7-1.3,6.9-4,8.6-7.6C1081,365.9,1070.5,352.7,1057.1,355.7z"/>
		<path fill="#EB7CA0" d="M1026.8,368.4c0.6-3.9,3.9-8.9,7.4-10.9c5.3-3,10.9-2.8,15.4-0.5c0.3,0.2,0.4,0.6,0.1,0.9
			c-0.8,0.8-1.5,1.5-2.3,2.3c-0.2,0.2-0.6,0.3-0.9,0.2c-3.3-1.2-7.1-1-10.8,1.3c-2.3,1.5-3.9,3.9-4.5,6.6
			c-2.2,10.5,8.7,18.1,17.8,12.4c2.3-1.5,4-3.8,4.6-6.5c0.7-3,0.3-5.8-0.8-8.1c-0.1-0.2-0.1-0.4,0.1-0.6c0.9-0.8,1.8-1.5,2.8-2.3
			c0.2-0.1,0.5-0.1,0.6,0.1c1.9,3.4,2.6,7.5,1.4,12.2c-1,3.8-3.5,7.2-7,9.1C1038.8,391.5,1024.9,381.9,1026.8,368.4z"/>
	</g>
	<g>
		<g>
			<rect x="654.9" y="397.7" fill="#EFBA4D" width="14.4" height="123"/>
			<rect x="654.9" y="387.6" fill="#40220F" width="14.4" height="11.6"/>
			<polygon fill="#B28247" points="654.9,520.6 669.3,520.6 662.1,530.8 			"/>
			<polygon fill="#40220F" points="660.1,527.9 664.1,527.9 662.1,530.8 			"/>
		</g>
		<rect x="702.7" y="364.9" fill="#EFBA73" width="142.4" height="170.2"/>
		<rect x="702.7" y="364.9" fill="#F9F3D4" width="142.4" height="32.8"/>
		<line fill="#E8A646" stroke="#B18A6B" stroke-width="0.25" stroke-miterlimit="10" x1="702.9" y1="415.7" x2="844.4" y2="415.7"/>
		<line fill="#E8A646" stroke="#B18A6B" stroke-width="0.25" stroke-miterlimit="10" x1="703.2" y1="433.3" x2="844.6" y2="433.3"/>
		<line fill="#E8A646" stroke="#B18A6B" stroke-width="0.25" stroke-miterlimit="10" x1="702.9" y1="450.9" x2="844.4" y2="450.9"/>
		<line fill="#E8A646" stroke="#B18A6B" stroke-width="0.25" stroke-miterlimit="10" x1="703.2" y1="467.4" x2="844.6" y2="467.4"/>
		<line fill="#E8A646" stroke="#B18A6B" stroke-width="0.25" stroke-miterlimit="10" x1="702.9" y1="483.4" x2="844.4" y2="483.4"/>
		<line fill="#E8A646" stroke="#B18A6B" stroke-width="0.25" stroke-miterlimit="10" x1="703.2" y1="500.7" x2="844.6" y2="500.7"/>
		<line fill="#E8A646" stroke="#B18A6B" stroke-width="0.25" stroke-miterlimit="10" x1="703.2" y1="517.7" x2="844.6" y2="517.7"/>
		<line fill="#E8A646" stroke="#B18A6B" stroke-width="0.25" stroke-miterlimit="10" x1="723.6" y1="397.7" x2="723.6" y2="535.1"/>
	</g>
	<g>
		<polygon fill="#908187" points="327.8,516.1 399.7,384.5 472.6,516.1 		"/>
		<polygon fill="#9F979C" points="358.7,516.1 446.1,384 534.4,516.1 		"/>
		<path fill="#FFFFFF" d="M421.3,421.4l10.8-6.1c0.1-0.1,0.2,0,0.3,0l7.2,6.4c0.1,0.1,0.2,0.1,0.3,0l11-11.3c0.1-0.1,0.2-0.1,0.3,0
			l20.6,12.5c0.2,0.1,0.5-0.1,0.3-0.3L446.5,384c-0.1-0.1-0.3-0.1-0.4,0L421,421C420.8,421.2,421.1,421.5,421.3,421.4z"/>
		<polygon fill="#B7B7B7" points="438.6,516.1 504.6,408.9 572.2,516.1 		"/>
	</g>
	<g>
		<g>
			<path fill="#F4C21F" d="M199.4,461.9c0,0-0.4,0-0.9,0c-0.5,0-0.9,0-0.9,0s0.4,0,0.9,0C198.9,461.9,199.4,461.9,199.4,461.9z"/>
			<polygon fill="#54A3DB" points="237.8,522.4 159.6,522.4 146.6,484.7 250.9,484.7 			"/>
			<polygon fill="#93C059" points="163.4,482.1 198.7,429.5 234.1,482.1 			"/>
			<polygon fill="#C85045" points="198.7,411.8 172.8,411.8 179,420.6 172.8,429.5 198.7,429.5 			"/>
			<g>
				<g>
					<path fill="#FFFFFF" d="M208.4,498.9c0,5.3-4.3,9.7-9.7,9.7c-5.3,0-9.7-4.3-9.7-9.7c0-5.3,4.3-9.7,9.7-9.7
						C204.1,489.2,208.4,493.6,208.4,498.9z"/>
					<path fill="#F08940" d="M202.2,498.9c0,1.9-1.5,3.4-3.4,3.4c-1.9,0-3.4-1.5-3.4-3.4c0-1.9,1.5-3.4,3.4-3.4
						C200.6,495.5,202.2,497,202.2,498.9z"/>
				</g>
				<g>
					<g>
						<path fill="#FFFFFF" d="M236,498.9c0,5.3-4.3,9.7-9.7,9.7c-5.3,0-9.7-4.3-9.7-9.7c0-5.3,4.3-9.7,9.7-9.7
							C231.7,489.2,236,493.6,236,498.9z"/>
						<path fill="#F08940" d="M229.8,498.9c0,1.9-1.5,3.4-3.4,3.4c-1.9,0-3.4-1.5-3.4-3.4c0-1.9,1.5-3.4,3.4-3.4
							C228.2,495.5,229.8,497,229.8,498.9z"/>
					</g>
					<g>
						<path fill="#FFFFFF" d="M180.8,498.9c0,5.3-4.3,9.7-9.7,9.7c-5.3,0-9.7-4.3-9.7-9.7c0-5.3,4.3-9.7,9.7-9.7
							C176.5,489.2,180.8,493.6,180.8,498.9z"/>
						<path fill="#F08940" d="M174.5,498.9c0,1.9-1.5,3.4-3.4,3.4c-1.9,0-3.4-1.5-3.4-3.4c0-1.9,1.5-3.4,3.4-3.4
							C173,495.5,174.5,497,174.5,498.9z"/>
					</g>
				</g>
			</g>
		</g>
		<path fill="#82BEE8" d="M122.2,516.6c0,15.5-12.6,28.1-28.1,28.1H77.2c-15.5,0-28.1-12.6-28.1-28.1V418
			c0-15.5,12.6-28.1,28.1-28.1h16.9c15.5,0,28.1,12.6,28.1,28.1V516.6z"/>
		<path fill="#FFFFFF" d="M93.7,491.4c0,4.4-3.6,8-8,8l0,0c-4.4,0-8-3.6-8-8v-69.1c0-4.4,3.6-8,8-8l0,0c4.4,0,8,3.6,8,8V491.4z"/>
		<path fill="#F4AD80" d="M85.6,371.8c4.6,0,8.3-3.7,8.3-8.3c0-4.6-3.7-8.3-8.3-8.3c-4.6,0-8.2,3.7-8.2,8.3
			C77.4,368.1,81.1,371.8,85.6,371.8z M97.2,374.3H74.1c-3.6,0-6.6,3-6.6,6.6c0,3.6,3,6.6,6.6,6.6h23.1c3.6,0,6.6-3,6.6-6.6
			C103.8,377.3,100.8,374.3,97.2,374.3z"/>
	</g>
	<g>
		<g>
			<path fill="#C6C6C6" d="M1025.4,222.8h-63.2c-5.3,0-9.6-4.3-9.6-9.6V125c0-5.3,4.3-9.6,9.6-9.6h63.2c5.3,0,9.6,4.3,9.6,9.6v88.2
				C1035,218.5,1030.7,222.8,1025.4,222.8z"/>
			<path fill="#F2D044" d="M1016.7,216h-45.3c-7,0-12.7-5.7-12.7-12.7v-69.6c0-7,5.7-12.7,12.7-12.7h45.3c7,0,12.7,5.7,12.7,12.7
				v69.6C1029.3,210.3,1023.7,216,1016.7,216z"/>
			<path fill="#F0B64C" d="M977.8,209h-8.1c-1.2,0-2.3-1-2.3-2.3v-82.4c0-1.2,1-2.3,2.3-2.3h8.1c1.2,0,2.3,1,2.3,2.3v82.4
				C980,208,979,209,977.8,209z"/>
			<path fill="#F0B64C" d="M998.1,209H990c-1.2,0-2.3-1-2.3-2.3v-82.4c0-1.2,1-2.3,2.3-2.3h8.1c1.2,0,2.3,1,2.3,2.3v82.4
				C1000.4,208,999.3,209,998.1,209z"/>
			<path fill="#F0B64C" d="M1018.8,209h-8.1c-1.2,0-2.3-1-2.3-2.3v-82.4c0-1.2,1-2.3,2.3-2.3h8.1c1.2,0,2.3,1,2.3,2.3v82.4
				C1021.1,208,1020,209,1018.8,209z"/>
			<path fill="#FAF1B1" d="M1049.7,105c-11.5-19.2-27.9-5-27.9-5s8-15.3-11.2-19.5c-11.3-2.5-17.9,11.2-17.9,11.2
				s-0.1-15.4-16.8-14.6c-2,0.1-3.6,0.4-5,0.9c-8.7,3.1-6.8,12.8-6.8,12.8s-13.7-6.3-23.7,8.6c-3.4,5.1-9.1,21.6,8,30.3
				c12.8,6.5,25.7-8.7,25.7-8.7c-0.5,8.4,7.2,12.3,11.8,11.1c2.3-0.6,5.6-4.5,7.9-6.8c-6.2,13.3-0.8,27.5,4.9,26
				c7.6-2,8.7-13,8.7-13s8.2,6.9,12.6,0.4c1-1.5,1.4-3.8,1.1-6.4c8.6,1.7,16.5-2.2,21.8-7.8C1048.8,118.5,1052.7,110,1049.7,105z"/>
		</g>
		<g>
			<path fill="#C6C6C6" d="M1141.6,222.9h-63.2c-5.3,0-9.6-4.3-9.6-9.6v-88.2c0-5.3,4.3-9.6,9.6-9.6h63.2c5.3,0,9.6,4.3,9.6,9.6
				v88.2C1151.2,218.6,1146.9,222.9,1141.6,222.9z"/>
			<path fill="#F2D044" d="M1132.9,216.1h-45.3c-7,0-12.7-5.7-12.7-12.7v-80.1c0-7,5.7-12.7,12.7-12.7h45.3c7,0,12.7,5.7,12.7,12.7
				v80.1C1145.6,210.4,1139.9,216.1,1132.9,216.1z"/>
			<path fill="#F0B64C" d="M1094,209.1h-8.1c-1.2,0-2.3-1-2.3-2.3v-82.4c0-1.2,1-2.3,2.3-2.3h8.1c1.2,0,2.3,1,2.3,2.3v82.4
				C1096.3,208.1,1095.3,209.1,1094,209.1z"/>
			<path fill="#F0B64C" d="M1114.3,209.1h-8.1c-1.2,0-2.3-1-2.3-2.3v-82.4c0-1.2,1-2.3,2.3-2.3h8.1c1.2,0,2.3,1,2.3,2.3v82.4
				C1116.6,208.1,1115.6,209.1,1114.3,209.1z"/>
			<path fill="#F0B64C" d="M1135,209.1h-8.1c-1.2,0-2.3-1-2.3-2.3v-82.4c0-1.2,1-2.3,2.3-2.3h8.1c1.2,0,2.3,1,2.3,2.3v82.4
				C1137.3,208.1,1136.3,209.1,1135,209.1z"/>
			<path fill="#FAF1B1" d="M1161.4,98.2c-14.4-17.2-28.3-0.6-28.3-0.6s5.6-16.4-14.1-17.6c-11.6-0.7-15.9,13.8-15.9,13.8
				s-2.5-15.2-18.8-11.8c-1.9,0.4-3.5,1-4.8,1.7c-5,1.3-11.6,7.3-11.6,7.3s-5.3,4.8-8.7,12c-2.7,5.5-4.7,25,13.5,31
				c10.8,3.6,16.6-8.6,18.5-13.7c0.1,0,0.1,0,0.2,0c-0.9,7.9,7.7,14.3,11.7,12.6c2.2-0.9,4.4-3.3,6.4-6c2.8,8.1,4.9,16.6,10.1,14.2
				c4.5-2.1,6.6-6.5,6.6-6.5s8,8.6,11.3,1.5c0.8-1.6,0.8-4,0.1-6.5c8.8,0.3,15.9-4.7,20.4-11C1162.6,111.7,1165.2,102.7,1161.4,98.2
				z"/>
		</g>
	</g>
	<g>
		<path fill="#D98235" d="M663.8,179.7c0,0,12-4.8,8.5-28.8s14-41.6,14-41.6s21.1-27.9,59.8-21.9c0,0,39.9,8.5,39.9,40.8
			c0,0,6.8,17.1,39.9,21.1c33.1,4,12.3,23.4,12.3,23.4s-32.2,45-110.9,21.4"/>
		<path fill="#D98235" d="M767.5,195.1c-12.1,8.3-20.5,20.9-27,36.2l-78.1-47.9l21.7-24.5L767.5,195.1z"/>
		<path fill="#6A3906" d="M750.7,134c-0.3,0-0.6-0.1-0.9-0.3c-0.7-0.5-0.9-1.4-0.4-2.1c0.2-0.3,5.6-8,13.5-9.1
			c4-0.6,7.9,0.7,11.6,3.6c0.7,0.5,0.8,1.5,0.2,2.2c-0.5,0.7-1.5,0.8-2.2,0.2c-3-2.4-6-3.4-9.2-3c-6.5,0.9-11.3,7.7-11.4,7.8
			C751.7,133.7,751.2,134,750.7,134z"/>
		<path fill="#D98235" d="M700.6,120.7c0,0-12.7-50,28.5-83.7c0,0,20.9,14.5,14.5,56.9"/>
		<path fill="#FEFEFC" d="M716.5,110.2c0,0-2.1-35.2,5.5-54.9c2-5.4,5.5-10.5,8.5-14.2c0,0,12.8,17.4,8.3,54.8L716.5,110.2"/>
		<ellipse fill="#6A3906" cx="768.8" cy="135.8" rx="3.5" ry="4.1"/>
		<ellipse fill="#6A3906" cx="842.2" cy="160.1" rx="6.5" ry="6.6"/>
		<path fill="#E8A646" d="M746.1,238.3c0,0,8.9,4.4,9.7,13.9c0,0,2.3,8.5-5.5,10.5c0,0-10.8,2.8-11.6-8.1
			C738.7,254.6,736.4,244.3,746.1,238.3z"/>
		<path fill="#82BEE8" d="M651.4,192.4c0,0-2.3-11.7,12.5-13.7l83.2,54.4c0,0,2,12.3-11.4,12.8L651.4,192.4z"/>
	</g>
	<g>
		<path fill="#DD7698" d="M199.7,46.2L199.7,46.2L199.7,46.2l-5.5,5.5c-0.4,0.4-1.1,0.4-1.5,0c-0.4-0.4-0.4-1.1,0-1.5l3.5-3.5
			l-0.1-0.1c-1.5-1.4-3.2-2.4-5-2.9c-1.7-0.4-3.4-0.4-5.2,0.2c-1.6,0.5-3,1.4-4.2,2.5c-1.2,1.2-2.1,2.6-2.6,4.1
			c-0.5,1.7-0.6,3.4-0.1,5c0.4,1.7,1.4,3.3,2.8,4.7l15.9,15.9l15.8-15.8l0.1-0.1c1.4-1.4,2.4-3,2.8-4.7c0.4-1.6,0.4-3.2-0.2-5
			c-0.5-1.6-1.4-3-2.6-4.1c-1.2-1.2-2.6-2.1-4.2-2.6c-1.8-0.6-3.6-0.6-5.3-0.2C202.5,44.2,201,45.1,199.7,46.2L199.7,46.2z"/>
		<path fill="#BAD8E1" d="M144.4,171.9L79.8,92.3c-2.5-3-2-7.5,1-10c1.4-1.1,2.9-1.6,4.5-1.6h129.3c3.9,0,7.1,3.2,7.1,7
			c0,1.9-0.8,3.6-2,4.9L155.5,172c-0.3,0.5-0.8,0.9-1.2,1.2v69.1h22.8c3.9,0,7,3.2,7,7.1c0,3.9-3.2,7.1-7,7.1h-53.5
			c-4,0-7.1-3.2-7.1-7.1c0-3.9,3.1-7.1,7.1-7.1h22.1v-69.1l-0.2-0.1C145.1,172.7,144.7,172.3,144.4,171.9L144.4,171.9z"/>
		<polygon fill="#D95857" points="99.8,105.6 149.7,166.9 199.5,105.6 		"/>
		<path fill="#94B667" d="M158,133L158,133c-4.5,0-8,3.6-8,8c0,4.4,3.6,8,8,8c4.4,0,7.9-3.6,7.9-8C166,136.7,162.5,133,158,133
			L158,133z"/>
	</g>
	<g>
		<path fill="#EF9563" d="M543.3,57.2l6.5,6.5c1.6,1.5,1.3,2.4,1.3,4.4l-33.4,33l-64.6,64.7l0.3,0.1c2.9,1,10.7,5.2,13.9,3.7
			c3.1-1.6,6.6-1.6,9.7-0.1c0.2,0.1,0.6,0.3,0.8,0.6h0.1c1.2,0.7,2.2,1.7,2.9,2.8c2.6,3.2,2.9,8.4,2.2,12.3
			c-0.5,2.5-1.3,4.7-2.6,6.6l-0.3,0.4c-3.6,5.3-9,8.3-13.8,10.9l-2.6,1.4c-7.4,4.2-9.5,9.7-11.7,15.5c-7.9,20.2-23.6,35.5-47.9,31.1
			c-24.1-4.4-50.2-30.4-54.5-54.5c-3.7-19.9,7.7-37.5,24.9-45.8c5-2.4,10.3-4,15.9-4.7c1.6-0.2,4.1-1.7,6.5-3.6
			c2.7-2.3,5.1-4.8,5.9-6.7c2.7-6,7.3-14.4,14-20.1c5.4-4.6,12-7.6,20-6.8c4.3,0.3,7.5,4.1,7.2,8.4c-0.2,1.6-0.8,3.1-1.8,4.3v0.1
			c-2.4,2.9-3.4,5.6-3.5,7.8c0,0.9,0.2,1.7,0.6,2.4v0.1c0.3,0.6,0.7,1.2,1.2,1.6l4.7,4.7l54.7-54.6l-4.5-6.3c0-2.2,0.8-4,2.3-5.5
			l20.9-20.9c1.4-1.5,3.4-2.3,5.4-2.3h0.2h7c2.4,0,4.5,1.1,6,2.8L543.3,57.2L543.3,57.2z"/>
		<path fill="#FFFFFF" d="M538.7,62.1l-0.1-0.1l0,0l-6.9-6.8h-0.8l-22.3,22.4l1.2,1.9l0.9,1.6c0,2-0.3,5-1.8,6.5l-60,60l0,0
			c-1.4,1.4-3.4,2.3-5.6,2.3c-4.8-0.1-9.2-1.8-12.7-4.6c-2.3-1.8-4.2-4.4-5.4-7.2c-0.8-2.1-1.6-4.2-1.7-6.7
			c-2.7,3.4-4.8,7.4-6.2,10.7c-1.8,4.1-5.9,8.9-10.5,12.5c-4.4,3.5-9.5,6.3-14.1,6.8c-3.9,0.6-7.7,1.7-11.2,3.3
			c-10.9,5.3-18.8,16.2-16.4,29c3.3,17.6,24.3,38.7,42,41.9c16.4,3,25.5-8.2,30.6-21.3c3.2-8.5,6.3-16.6,18.5-23.6h0.1
			c2.8-1.5,5.5-2.8,8-4.6c-4.4,0.3-8.8-0.3-12.5-1.8c-10.5-4.2-15.8-15.6-6.7-24.7l67.9-68c1.4-1.4,27.7-27.6,27.7-27.6L538.7,62.1z
			"/>
		<path fill="#CE5D46" d="M406,180.2L406,180.2c-1.8-1.8-1.8-4.7,0-6.6c1.8-1.8,4.8-1.8,6.6,0l15.8,15.6c1.8,1.8,1.8,4.9,0,6.7
			c-1.9,1.8-4.8,1.8-6.7,0L406,180.2L406,180.2z"/>
		<circle fill="#CE5D46" cx="521.8" cy="55.5" r="2.4"/>
		<circle fill="#CE5D46" cx="514" cy="63.3" r="2.4"/>
		<circle fill="#CE5D46" cx="506" cy="71.3" r="2.4"/>
	</g>
</g>
</svg>
