<?xml version="1.0" encoding="utf-8"?>
<!-- Generator: Adobe Illustrator 18.0.0, SVG Export Plug-In . SVG Version: 6.00 Build 0)  -->
<!DOCTYPE svg PUBLIC "-//W3C//DTD SVG 1.1//EN" "http://www.w3.org/Graphics/SVG/1.1/DTD/svg11.dtd">
<svg version="1.1" xmlns="http://www.w3.org/2000/svg" xmlns:xlink="http://www.w3.org/1999/xlink" x="0px" y="0px"
	 viewBox="0 0 3200 3200" enable-background="new 0 0 3200 3200" xml:space="preserve" width="3200px" height="3200px">
<g id="图层_1">
</g>
<g id="图层_3">
</g>
<g id="图层_2">
	<g>
		<path fill="#EA7C9F" d="M212.9,174.8H110.4c-3.8,0-6.9-3.1-6.9-6.9v-56.8c0-3.8,3.1-6.9,6.9-6.9h102.4c3.8,0,6.9,3.1,6.9,6.9V168
			C219.7,171.8,216.6,174.8,212.9,174.8z"/>
		<path fill="#FFFFFF" d="M103.6,124.8c0,0,11.3,15.6,21.5,0s22.8,0,22.8,0s12.8,17.2,24.2,0c12.3-18.6,24.4,0.5,24.4,0.5
			s12,16.5,23.3-0.5v39.2H103.5L103.6,124.8z"/>
		<path fill="#EA7C9F" d="M240.2,229.7H82.2c-2.7,0-5-2.2-5-5v-60.6c0-2.7,2.2-5,5-5h157.9c2.7,0,5,2.2,5,5v60.6
			C245.1,227.5,242.9,229.7,240.2,229.7z"/>
		<path fill="#FFFFFF" d="M77.2,181.5c0,0,16.3,22.4,31,0s32.9,0,32.9,0s18.5,24.7,35,0c17.8-26.8,35.3,0.8,35.3,0.8
			s17.4,23.8,33.7-0.7v48.1H77.2V181.5z"/>
		<path fill="#80BDE7" d="M247.3,246.3H75.1c-2.2,0-3.9-1.8-3.9-3.9v-11.7c0-2.2,1.8-3.9,3.9-3.9h172.2c2.2,0,3.9,1.8,3.9,3.9v11.7
			C251.2,244.5,249.4,246.3,247.3,246.3z"/>
		<path fill="#80BDE7" d="M167.7,71.5c-3.6,0.8-7.9,4.2-9.5,7.5c-2.4,5.1-1.9,10.2,0.5,14.2c0.2,0.3,0.6,0.3,0.8,0.1
			c0.7-0.8,1.3-1.5,2-2.3c0.2-0.2,0.2-0.6,0.1-0.9c-1.3-2.9-1.4-6.5,0.5-10c1.2-2.2,3.3-3.9,5.8-4.6c9.5-2.7,17.3,6.8,12.6,15.6
			c-1.2,2.2-3.2,3.9-5.7,4.7c-2.7,0.9-5.3,0.7-7.5-0.2c-0.2-0.1-0.4,0-0.5,0.1c-0.7,0.9-1.3,1.8-1.9,2.7c-0.1,0.2,0,0.4,0.1,0.5
			c3.2,1.5,7.1,1.9,11.3,0.5c3.5-1.2,6.4-3.7,8-7C189.9,81,180.1,68.8,167.7,71.5z"/>
		<path fill="#EA7C9F" d="M139.8,83.3c0.5-3.6,3.6-8.2,6.8-10c4.9-2.8,10.1-2.6,14.2-0.5c0.3,0.2,0.4,0.6,0.1,0.8
			c-0.7,0.7-1.4,1.4-2.1,2.1c-0.2,0.2-0.6,0.3-0.9,0.2c-3-1.1-6.6-1-9.9,1.2c-2.1,1.4-3.6,3.6-4.2,6.1c-2.1,9.7,8,16.8,16.4,11.5
			c2.1-1.3,3.7-3.5,4.3-6c0.7-2.8,0.3-5.3-0.7-7.5c-0.1-0.2,0-0.4,0.1-0.5c0.8-0.7,1.7-1.4,2.6-2.1c0.2-0.1,0.4-0.1,0.5,0.1
			c1.7,3.1,2.4,6.9,1.3,11.3c-1,3.5-3.3,6.6-6.5,8.4C150.8,104.7,137.9,95.8,139.8,83.3z"/>
	</g>
	<g>
		<g>
			<rect x="397.8" y="113.3" fill="#EFB94D" width="12.1" height="103.5"/>
			<rect x="397.8" y="104.8" fill="#40210F" width="12.1" height="9.8"/>
			<polygon fill="#B28146" points="397.8,216.8 409.9,216.8 403.9,225.3 			"/>
			<polygon fill="#40210F" points="402.2,223 405.6,223 403.9,225.3 			"/>
		</g>
		<rect x="438" y="85.8" fill="#EFBA73" width="119.8" height="143.2"/>
		<rect x="438" y="85.8" fill="#F9F3D3" width="119.8" height="27.6"/>
		<g>
			<line fill="#E8A646" x1="438.2" y1="128.5" x2="557.2" y2="128.5"/>
			<rect x="438.2" y="128.2" fill="#B0886B" width="119" height="0.7"/>
		</g>
		<g>
			<line fill="#E8A646" x1="438.5" y1="143.4" x2="557.4" y2="143.4"/>
			<rect x="438.4" y="143" fill="#B0886B" width="119" height="0.7"/>
		</g>
		<g>
			<line fill="#E8A646" x1="438.2" y1="158.1" x2="557.2" y2="158.1"/>
			<rect x="438.2" y="157.8" fill="#B0886B" width="119" height="0.7"/>
		</g>
		<g>
			<line fill="#E8A646" x1="438.5" y1="172" x2="557.4" y2="172"/>
			<rect x="438.4" y="171.7" fill="#B0886B" width="119" height="0.7"/>
		</g>
		<g>
			<line fill="#E8A646" x1="438.2" y1="185.5" x2="557.2" y2="185.5"/>
			<rect x="438.2" y="185.1" fill="#B0886B" width="119" height="0.7"/>
		</g>
		<g>
			<line fill="#E8A646" x1="438.5" y1="200" x2="557.4" y2="200"/>
			<rect x="438.4" y="199.7" fill="#B0886B" width="119" height="0.7"/>
		</g>
		<g>
			<line fill="#E8A646" x1="438.5" y1="214.3" x2="557.4" y2="214.3"/>
			<rect x="438.4" y="214" fill="#B0886B" width="119" height="0.7"/>
		</g>
		<g>
			<line fill="#E8A646" x1="455.6" y1="113.4" x2="455.6" y2="229"/>
			<rect x="455.2" y="113.4" fill="#B0886B" width="0.7" height="115.6"/>
		</g>
	</g>
	<g>
		<polygon fill="#504043" points="677.8,541.2 748.4,411.8 819.9,541.2 		"/>
		<polygon fill="#75676E" points="708,541.2 794,411.4 880.6,541.2 		"/>
		<path fill="#FFFFFF" d="M769.5,448.1l10.6-6c0.1,0,0.2,0,0.3,0l7.1,6.3c0.1,0.1,0.2,0.1,0.3,0l10.8-11.1c0.1-0.1,0.2-0.1,0.3,0
			l20.2,12.3c0.2,0.1,0.5-0.1,0.3-0.3l-25.2-37.9c-0.1-0.1-0.3-0.1-0.4,0l-24.7,36.4C769.1,448,769.3,448.2,769.5,448.1z"/>
		<polygon fill="#8E8086" points="786.5,541.2 851.4,435.8 917.8,541.2 		"/>
	</g>
	<g>
		<g>
			<path fill="#F3C11D" d="M210.6,485.7c0,0-0.4,0-0.8,0c-0.4,0-0.8,0-0.8,0s0.4,0,0.8,0C210.2,485.7,210.6,485.7,210.6,485.7z"/>
			<polygon fill="#53A2DA" points="244.5,539.1 175.6,539.1 164.1,505.8 256,505.8 			"/>
			<polygon fill="#91BE58" points="178.9,503.5 210.1,457.2 241.2,503.5 			"/>
			<polygon fill="#C64F45" points="210,441.6 187.2,441.6 192.7,449.4 187.2,457.2 210,457.2 			"/>
			<g>
				<g>
					<path fill="#FFFFFF" d="M218.6,518.3c0,4.7-3.8,8.5-8.5,8.5c-4.7,0-8.5-3.8-8.5-8.5c0-4.7,3.8-8.5,8.5-8.5
						C214.8,509.8,218.6,513.6,218.6,518.3z"/>
					<path fill="#EF8740" d="M213.1,518.3c0,1.7-1.4,3-3,3c-1.7,0-3-1.3-3-3c0-1.7,1.4-3,3-3C211.7,515.3,213.1,516.7,213.1,518.3z"
						/>
				</g>
				<g>
					<g>
						<path fill="#FFFFFF" d="M242.9,518.3c0,4.7-3.8,8.5-8.5,8.5c-4.7,0-8.5-3.8-8.5-8.5c0-4.7,3.8-8.5,8.5-8.5
							C239.1,509.8,242.9,513.6,242.9,518.3z"/>
						<path fill="#EF8740" d="M237.4,518.3c0,1.7-1.3,3-3,3c-1.7,0-3-1.3-3-3c0-1.7,1.4-3,3-3C236.1,515.3,237.4,516.7,237.4,518.3z
							"/>
					</g>
					<g>
						<path fill="#FFFFFF" d="M194.2,518.3c0,4.7-3.8,8.5-8.5,8.5c-4.7,0-8.5-3.8-8.5-8.5c0-4.7,3.8-8.5,8.5-8.5
							C190.4,509.8,194.2,513.6,194.2,518.3z"/>
						<path fill="#EF8740" d="M188.8,518.3c0,1.7-1.4,3-3,3c-1.7,0-3-1.3-3-3c0-1.7,1.4-3,3-3C187.4,515.3,188.8,516.7,188.8,518.3z
							"/>
					</g>
				</g>
			</g>
		</g>
		<path fill="#80BDE7" d="M140.3,533.9c0,13.7-11.1,24.7-24.7,24.7h-14.9c-13.7,0-24.7-11.1-24.7-24.7v-86.8
			c0-13.7,11.1-24.7,24.7-24.7h14.9c13.7,0,24.7,11.1,24.7,24.7V533.9z"/>
		<path fill="#FFFFFF" d="M115.3,511.7c0,3.9-3.2,7.1-7.1,7.1l0,0c-3.9,0-7.1-3.2-7.1-7.1v-60.9c0-3.9,3.2-7.1,7.1-7.1l0,0
			c3.9,0,7.1,3.2,7.1,7.1V511.7z"/>
		<path fill="#F3AC80" d="M108.2,406.4c4,0,7.3-3.3,7.3-7.3c0-4-3.3-7.3-7.3-7.3c-4,0-7.3,3.3-7.3,7.3
			C100.9,403.1,104.2,406.4,108.2,406.4z M118.3,408.6H98c-3.2,0-5.8,2.6-5.8,5.8c0,3.2,2.6,5.8,5.8,5.8h20.4c3.2,0,5.8-2.6,5.8-5.8
			C124.2,411.2,121.6,408.6,118.3,408.6z"/>
	</g>
	<g>
		<g>
			<path fill="#C6C5C5" d="M454.4,543h-53.6c-5.3,0-9.6-4.3-9.6-9.6v-75.7c0-5.3,4.3-9.6,9.6-9.6h53.6c5.3,0,9.6,4.3,9.6,9.6v75.7
				C464.1,538.7,459.7,543,454.4,543z"/>
			<path fill="#F1CF44" d="M446.4,537h-37c-7,0-12.7-5.7-12.7-12.7v-58.6c0-7,5.7-12.7,12.7-12.7h37c7,0,12.7,5.7,12.7,12.7v58.6
				C459.1,531.3,453.4,537,446.4,537z"/>
			<path fill="#F0B54C" d="M413.2,530.9h-6.6c-1.2,0-2.3-1-2.3-2.3v-72.3c0-1.2,1-2.3,2.3-2.3h6.6c1.2,0,2.3,1,2.3,2.3v72.3
				C415.5,529.8,414.5,530.9,413.2,530.9z"/>
			<path fill="#F0B54C" d="M431.2,530.9h-6.6c-1.2,0-2.3-1-2.3-2.3v-72.3c0-1.2,1-2.3,2.3-2.3h6.6c1.2,0,2.3,1,2.3,2.3v72.3
				C433.5,529.8,432.4,530.9,431.2,530.9z"/>
			<path fill="#F0B54C" d="M449.5,530.9h-6.6c-1.2,0-2.3-1-2.3-2.3v-72.3c0-1.2,1-2.3,2.3-2.3h6.6c1.2,0,2.3,1,2.3,2.3v72.3
				C451.8,529.8,450.7,530.9,449.5,530.9z"/>
			<path fill="#F9F1B1" d="M477,438.9c-10.2-17-24.7-4.4-24.7-4.4s7.1-13.5-9.9-17.3c-10-2.2-15.8,9.9-15.8,9.9s-0.1-13.6-14.8-12.9
				c-1.7,0.1-3.2,0.4-4.4,0.8c-7.7,2.7-6,11.3-6,11.3s-12.1-5.6-20.9,7.6c-3,4.5-8,19.1,7.1,26.8c11.3,5.8,22.7-7.7,22.7-7.7
				c-0.4,7.4,6.3,10.9,10.4,9.8c2-0.5,4.9-4,6.9-6c-5.4,11.8-0.7,24.3,4.4,23c6.7-1.7,7.7-11.5,7.7-11.5s7.2,6.1,11.1,0.4
				c0.9-1.3,1.2-3.4,1-5.7c7.6,1.5,14.5-1.9,19.3-6.9C476.3,450.9,479.7,443.4,477,438.9z"/>
		</g>
		<g>
			<path fill="#C6C5C5" d="M557.1,543.1h-53.6c-5.3,0-9.6-4.3-9.6-9.6v-75.7c0-5.3,4.3-9.6,9.6-9.6h53.6c5.3,0,9.6,4.3,9.6,9.6v75.7
				C566.7,538.8,562.4,543.1,557.1,543.1z"/>
			<path fill="#F1CF44" d="M549.1,537.1h-37c-7,0-12.7-5.7-12.7-12.7v-67.8c0-7,5.7-12.7,12.7-12.7h37c7,0,12.7,5.7,12.7,12.7v67.8
				C561.7,531.4,556.1,537.1,549.1,537.1z"/>
			<path fill="#F0B54C" d="M515.9,531h-6.6c-1.2,0-2.3-1-2.3-2.3v-72.3c0-1.2,1-2.3,2.3-2.3h6.6c1.2,0,2.3,1,2.3,2.3v72.3
				C518.2,529.9,517.2,531,515.9,531z"/>
			<path fill="#F0B54C" d="M533.9,531h-6.6c-1.2,0-2.3-1-2.3-2.3v-72.3c0-1.2,1-2.3,2.3-2.3h6.6c1.2,0,2.3,1,2.3,2.3v72.3
				C536.1,529.9,535.1,531,533.9,531z"/>
			<path fill="#F0B54C" d="M552.2,531h-6.6c-1.2,0-2.3-1-2.3-2.3v-72.3c0-1.2,1-2.3,2.3-2.3h6.6c1.2,0,2.3,1,2.3,2.3v72.3
				C554.4,529.9,553.4,531,552.2,531z"/>
			<path fill="#F9F1B1" d="M575.7,433c-12.7-15.2-25-0.5-25-0.5s4.9-14.5-12.4-15.5c-10.2-0.6-14.1,12.2-14.1,12.2
				s-2.2-13.4-16.6-10.4c-1.7,0.3-3.1,0.9-4.2,1.5c-4.4,1.2-10.3,6.4-10.3,6.4s-4.7,4.3-7.7,10.6c-2.4,4.9-4.2,22.1,11.9,27.4
				c9.6,3.2,14.6-7.6,16.3-12.1c0.1,0,0.1,0,0.2,0c-0.8,6.9,6.8,12.7,10.4,11.1c1.9-0.8,3.9-3,5.6-5.3c2.5,7.2,4.4,14.6,8.9,12.5
				c4-1.8,5.8-5.7,5.8-5.7s7,7.6,10,1.3c0.7-1.4,0.7-3.5,0.1-5.8c7.7,0.3,14.1-4.1,18-9.7C576.8,444.9,579.1,437,575.7,433z"/>
		</g>
	</g>
	<g>
		<path fill="#D98135" d="M725.2,182.4c0,0,10.9-4.4,7.8-26.3s12.7-37.9,12.7-37.9s19.2-25.5,54.6-20c0,0,36.4,7.8,36.4,37.2
			c0,0,6.2,15.6,36.4,19.2s11.2,21.3,11.2,21.3s-29.4,41.1-101.1,19.5"/>
		<path fill="#D98135" d="M819.7,196.4c-11.1,7.6-18.7,19.1-24.6,33l-71.2-43.7l19.8-22.3L819.7,196.4z"/>
		<path fill="#6A3906" d="M804.4,140.6c-0.3,0-0.6-0.1-0.8-0.3c-0.6-0.4-0.8-1.3-0.4-2c0.2-0.3,5.1-7.3,12.3-8.3
			c3.7-0.5,7.2,0.6,10.5,3.3c0.6,0.5,0.7,1.4,0.2,2c-0.5,0.6-1.4,0.7-2,0.2c-2.7-2.2-5.5-3.1-8.4-2.7c-6,0.8-10.3,7-10.4,7.1
			C805.3,140.4,804.9,140.6,804.4,140.6z"/>
		<path fill="#D98135" d="M758.7,128.6c0,0-11.6-45.6,26-76.4c0,0,19,13.2,13.2,51.9"/>
		<path fill="#FFFDFC" d="M773.2,118.9c0,0-1.9-32.1,5-50.1c1.8-4.9,5-9.6,7.7-13c0,0,11.7,15.8,7.6,49.9L773.2,118.9"/>
		<ellipse fill="#6A3906" cx="820.9" cy="142.3" rx="3.2" ry="3.7"/>
		<ellipse fill="#6A3906" cx="887.9" cy="164.5" rx="5.9" ry="6"/>
		<path fill="#F9BB3D" d="M801.6,238.2c0,0,8.1,4,8.9,12.6c0,0,2.1,7.8-5,9.6c0,0-9.8,2.5-10.5-7.4
			C794.9,253,792.7,243.6,801.6,238.2z"/>
		<path fill="#80BDE7" d="M713.9,193.9c0,0-2.1-10.7,11.4-12.5l75.9,49.6c0,0,1.8,11.2-10.4,11.7L713.9,193.9z"/>
	</g>
	<g>
		<path fill="#FFFFFF" d="M211.8,1119.9c-7.9-1.5-4.1-5.8-4.1-5.8s7.7-12.8-1.6-22.1c-11.6-11.5-39.4,1.6-39.4,1.6
			c-10.7,3.4-7.8-1.5-6.4-9.7c0-9.7-3.4-26-31.8-16.2c-28.4,9.9-52.6,44-52.6,44C59,1134.5,61.3,1152,61.3,1152
			c4.4,38.6,45.5,49,77.4,51.4c33.6,2.5,78.8-11.9,92.5-41.2C244.8,1132.9,219.8,1121.4,211.8,1119.9z M141.2,1192.5
			c-33.3,1.7-60.3-14.9-60.4-37.1c-0.1-22.3,26.8-40.3,60.1-41.9c33.4-1.7,60.4,11.9,60.5,34.2
			C201.4,1169.8,174.5,1190.8,141.2,1192.5z"/>
		<path fill="#FFFFFF" d="M260.2,1102.1c0.2-0.6,0.3-1.3,0.3-1.9c0.4-3,0.7-6,0.7-9c-0.2-33.1-27.2-59.9-60.3-59.7
			c-4.6,0-8.3,3.8-8.3,8.3c0,4.6,3.7,8.3,8.3,8.3c23.9-0.1,43.5,19.3,43.6,43.2c0,2.7-0.2,5.3-0.7,7.9l0.1,0c0,0.3-0.1,0.6-0.1,0.9
			c0,4.6,3.7,8.3,8.3,8.3C256.1,1108.4,259.3,1105.7,260.2,1102.1L260.2,1102.1C260.2,1102.1,260.2,1102.1,260.2,1102.1z"/>
		<path fill="#FFFFFF" d="M234.2,1094.4c0.1-1,0.2-2.1,0.2-3.1c-0.1-18.3-15.1-33.2-33.4-33.1c-3.8,0-6.9,3.1-6.9,6.9
			c0,3.8,3.1,6.9,6.9,6.9c10.7,0,19.4,8.6,19.5,19.3c0,0.8,0,1.7-0.1,2.5l0.2,0c0,0.3-0.2,0.5-0.2,0.8c0,3.8,3.1,6.9,6.9,6.9
			c3.5,0,6.2-2.7,6.7-6l0.1,0c0-0.2,0-0.4,0-0.5c0-0.1,0.1-0.3,0.1-0.4C234.3,1094.5,234.2,1094.5,234.2,1094.4z"/>
		<path fill="#FFFFFF" d="M127.3,1129.1c-33.5,4.1-30.2,34.7-30.2,34.7s0.4,10.7,9.8,15.7c19.7,10.5,39.8,4,50-9.2
			C167,1157.1,160.9,1125,127.3,1129.1z M119.1,1173.2c-6.3,0.8-11.3-2.8-11.3-8.1c0-5.2,4.4-10.7,10.7-11.4
			c7.2-0.7,11.9,3.4,11.9,8.6C130.3,1167.6,125.3,1172.4,119.1,1173.2z"/>
	</g>
	<g>
		<path fill="#D65537" d="M532.7,796.3c-7.9-1.5-4.1-5.8-4.1-5.8s7.7-12.8-1.6-22.1c-11.6-11.5-39.4,1.6-39.4,1.6
			c-10.7,3.4-7.8-1.5-6.4-9.7c0-9.7-3.4-26-31.8-16.2c-28.4,9.9-52.6,44-52.6,44c-16.9,22.7-14.5,40.2-14.5,40.2
			c4.4,38.6,45.5,49,77.4,51.4c33.6,2.5,78.8-11.9,92.5-41.2C565.7,809.3,540.7,797.9,532.7,796.3z M462.1,868.9
			c-33.3,1.7-60.3-14.9-60.4-37.1c-0.1-22.3,26.8-40.3,60.1-41.9c33.4-1.7,60.4,11.9,60.5,34.2C522.3,846.2,495.4,867.2,462.1,868.9
			z"/>
		<path fill="#D65537" d="M581.2,778.5c0.2-0.6,0.3-1.3,0.3-1.9c0.4-3,0.7-6,0.7-9c-0.2-33.1-27.2-59.9-60.3-59.7
			c-4.6,0-8.3,3.8-8.3,8.3s3.7,8.3,8.3,8.3c23.9-0.1,43.5,19.3,43.6,43.2c0,2.7-0.2,5.3-0.7,7.9l0.1,0c0,0.3-0.1,0.6-0.1,0.9
			c0,4.6,3.7,8.3,8.3,8.3C577.1,784.8,580.3,782.1,581.2,778.5L581.2,778.5C581.2,778.5,581.2,778.5,581.2,778.5z"/>
		<path fill="#D65537" d="M555.2,770.8c0.1-1,0.2-2.1,0.2-3.1c-0.1-18.3-15.1-33.2-33.4-33.1c-3.8,0-6.9,3.1-6.9,6.9
			c0,3.8,3.1,6.9,6.9,6.9c10.7,0,19.4,8.6,19.5,19.3c0,0.8,0,1.7-0.1,2.5l0.2,0c0,0.3-0.2,0.5-0.2,0.8c0,3.8,3.1,6.9,6.9,6.9
			c3.5,0,6.2-2.7,6.7-6l0.1,0c0-0.2,0-0.4,0-0.5c0-0.1,0.1-0.3,0.1-0.4C555.2,770.9,555.2,770.9,555.2,770.8z"/>
		<path fill="#D65537" d="M448.3,805.5c-33.5,4.1-30.2,34.7-30.2,34.7s0.4,10.7,9.8,15.7c19.7,10.5,39.8,4,50-9.2
			C488,833.5,481.8,801.4,448.3,805.5z M440,849.6c-6.3,0.8-11.3-2.8-11.3-8.1c0-5.2,4.4-10.7,10.7-11.4c7.2-0.7,11.9,3.4,11.9,8.6
			C451.3,844,446.2,848.9,440,849.6z"/>
	</g>
	<path fill="#D65537" d="M132.5,714.4C93,714.6,61,741.5,61.2,774.6c0.1,19.4,11.2,36.6,28.3,47.4c0.2,0.1,0.7,0.4,0.7,0.4
		l-6.8,21.7l25.8-13.3c0,0,0.8,0.2,1.2,0.3c7.1,2,14.7,3,22.7,2.9c1.6,0,3.2-0.1,4.8-0.2c-1.5-4.5-2.3-9.3-2.3-14.3
		c-0.1-30.2,28.9-54.8,64.9-54.9c1,0,2,0,3,0.1C198,736.1,168.3,714.3,132.5,714.4z M107.8,763.5c-5.6,0-10.1-4.3-10.1-9.7
		c0-5.4,4.5-9.7,10-9.8c5.6,0,10.1,4.3,10.1,9.7C117.8,759.1,113.3,763.5,107.8,763.5z M157.6,763.3c-5.6,0-10.1-4.3-10.1-9.7
		c0-5.4,4.4-9.7,10-9.8c5.5,0,10.1,4.3,10.1,9.7S163.1,763.2,157.6,763.3z"/>
	<path fill="#D65537" d="M261.2,819.7c-0.1-27.9-27.3-50.4-60.7-50.3c-33.4,0.2-60.4,22.9-60.2,50.8c0.1,27.9,27.3,50.4,60.7,50.3
		c6.7,0,13.1-1,19.1-2.7c0.3-0.1,1-0.3,1-0.3l21.9,11l-5.9-18.3c0,0,0.4-0.2,0.6-0.4C252,850.7,261.3,836.1,261.2,819.7z
		 M179.7,810.9c-4.7,0-8.5-3.6-8.5-8.2c0-4.5,3.8-8.2,8.5-8.2c4.7,0,8.5,3.6,8.5,8.2C188.1,807.2,184.4,810.9,179.7,810.9z
		 M221.7,810.7c-4.7,0-8.5-3.6-8.5-8.2c0-4.5,3.8-8.2,8.4-8.2c4.7,0,8.5,3.6,8.5,8.2C230.2,807,226.4,810.7,221.7,810.7z"/>
	<g>
		<path fill="#D65537" d="M489.5,1136.8c-1.7,27.9,45.3,29.2,63.4,22.7c9.1-3.3,25.5-11.6,28.4-22.1c3-10.7-5.2-18-14.5-21
			c-3.4-1.1-4.9,4.3-1.5,5.4c26.9,8.5,0.1,25-6.3,28.5c-6.8,3.7-13.2,6.1-21.2,6.3c-13.1,0.3-43.9,0.4-42.7-19.8
			C495.3,1133.2,489.7,1133.3,489.5,1136.8L489.5,1136.8z"/>
		<path fill="#D65537" d="M521.6,1109.1c9.8,17.3,41.8,21.8,51.8,2.5c9.9-19-9.2-32.6-26.6-25.9c0.9,1.6,1.8,3.1,2.7,4.7
			c5.7-5,12.8-17.4,5.8-24.7c-6.6-6.8-23.2-1.7-30,2c1.3,1.3,2.5,2.5,3.8,3.8c15.7-22.1-16.7-34.9-29.3-15c-1.9,3,2.9,5.8,4.8,2.8
			c10.3-16.3,29.5-4.5,19.7,9.3c-1.7,2.4,1.5,5.1,3.8,3.8c4.2-2.3,11.7-5.1,16.5-4c11.7,2.6,7.3,12.3,0.9,17.9
			c-2,1.8,0.1,5.7,2.7,4.7c5-1.9,10.9-3.3,16-0.4c8.3,4.8,6.9,18.2,0.1,23.6c-10.6,8.5-31.7,3-38-8
			C524.6,1103.2,519.8,1106,521.6,1109.1L521.6,1109.1z"/>
		<path fill="#D65537" d="M479.2,1084.7c14.8-4.8,35.8-18.1,20-34.3c-13.7-14-34.2-1.6-35.5,15.5c1.8-0.2,3.6-0.5,5.5-0.7
			c-6-14.4-24.3-16.1-31.5-1.5c-1.6,3.2,3.2,6,4.8,2.8c4.1-8.4,16.9-10.5,21.3,0.1c1.2,2.8,5.2,2.6,5.5-0.7
			c0.6-8.2,6.5-15.7,15.4-15.8c4.8,0,11.7,3.1,13.1,8c3.5,12.2-10.9,18.2-20.1,21.2C474.4,1080.5,475.8,1085.8,479.2,1084.7
			L479.2,1084.7z"/>
		<path fill="#D65537" d="M455.6,1083.4c-3.6-8.6-9.3-18.1-19.1-20.3c-9.2-2.1-18.4,3.2-23.4,10.7c-5.3,7.8-6.8,19.4-0.5,27.2
			c5.4,6.6,14.5,8.5,21.9,4.3c3.1-1.8,0.3-6.6-2.8-4.8c-7.1,4-15.4-0.7-17.2-8.2c-1.9-7.7,2.1-16.1,8.3-20.6
			c13.3-9.6,23.2,3,28.1,14.5C452.2,1089.5,457,1086.6,455.6,1083.4L455.6,1083.4z"/>
		<path fill="#D65537" d="M405.7,1086c-16,4.2-22.3,20-13.6,34.1c0.3-1.3,0.7-2.5,1-3.8c-18.3,11.4-12.6,35.7,6.8,42.3
			c20.3,6.9,48,1.2,48.7-23.6c0.1-3.6-5.5-3.6-5.6,0c-0.4,16.2-15.7,21.1-29.7,20.2c-5.7-0.3-12.2-1.1-17-4.3
			c-10.8-7.1-12.4-22.2-0.3-29.8c1.3-0.8,1.8-2.5,1-3.8c-6-9.7-0.8-22.9,10.3-25.9C410.7,1090.5,409.2,1085.1,405.7,1086L405.7,1086
			z"/>
		<path fill="#D65537" d="M524.1,1080.4c-3.8,16.8-21.6,15.3-35.4,14c-3.6-0.3-3.5,5.2,0,5.6c16.7,1.6,36.4,1.5,40.8-18.1
			C530.3,1078.4,524.9,1076.9,524.1,1080.4L524.1,1080.4z"/>
		<path fill="#D65537" d="M520.7,1153.5c5.2-16.4-1.4-34.2-15.9-43.4c-3-1.9-5.8,2.9-2.8,4.8c12.5,7.9,17.8,23,13.4,37.1
			C514.2,1155.4,519.6,1156.9,520.7,1153.5L520.7,1153.5z"/>
		<path fill="#D65537" d="M559.6,1147.5c-5.6-8.4-14.4-13.5-24.5-14.2c-3.6-0.2-3.6,5.3,0,5.6c8.1,0.5,15.2,4.7,19.7,11.4
			C556.8,1153.2,561.6,1150.5,559.6,1147.5L559.6,1147.5z"/>
		<path fill="#D65537" d="M467.6,1082.8c-8,9.2-8,22.7,0.1,31.8c2.4,2.7,6.3-1.3,3.9-3.9c-6-6.8-6-17.1-0.1-24
			C473.9,1084.1,470,1080.1,467.6,1082.8L467.6,1082.8z"/>
		<path fill="#D65537" d="M464.3,1193.1h-24.1c-0.8,0-1.5-0.3-2-0.9c-0.5-0.6-0.8-1.3-0.8-2.1c0.1-1,1.1-24.9-25.5-29.3
			c-1.5-0.3-2.5-1.7-2.3-3.2c0.2-1.5,1.5-2.6,3.2-2.3c25.6,4.2,29.5,24.5,30,32.2h18c-6.7-31.6-2.8-45.3-2.6-45.9
			c2.1-11.8,1-21.1-3.3-27.3c-4-5.7-9.4-6.7-9.7-6.7c-1.5-0.3-2.5-1.7-2.3-3.2c0.2-1.5,1.6-2.5,3.2-2.3c0.3,0,7.8,1.3,13.3,8.9
			c5.3,7.5,6.8,18.2,4.3,32c-0.1,0.4-4,14.4,3.4,46.7c0.2,0.8,0,1.7-0.5,2.4C466,1192.7,465.2,1193.1,464.3,1193.1z"/>
		<path fill="#D65537" d="M486.7,1126.4c-5.6-1.3-10.9,0.1-15.9,2.5c-2.2,1.1-4.3,2.5-6,4.4c-1.6,1.7-2.1,4-3.4,5.7
			c1.3,0,2.6,0,3.9,0c-0.1-0.1-0.1-0.1-0.2-0.2c0,1.3,0,2.6,0,3.9c0.1-0.1,0.1-0.1,0.2-0.2c2.6-2.5-1.4-6.5-3.9-3.9
			c-0.1,0.1-0.1,0.1-0.2,0.2c-1.1,1.1-1,2.8,0,3.9c0.1,0.1,0.1,0.1,0.2,0.2c0.9,1.1,3.1,1.1,3.9,0c2.3-2.9,3-6.1,6.5-8.2
			c3.9-2.4,8.9-4,13.4-2.9C488.7,1132.5,490.2,1127.2,486.7,1126.4L486.7,1126.4z"/>
		<path fill="#D65537" d="M493.1,1149.2c-4.8,6.9-17.2,11.3-23.3,3c-2.1-2.9-6.9-0.1-4.8,2.8c8.6,11.8,25.6,7.7,32.9-3
			C499.9,1149.1,495.1,1146.3,493.1,1149.2L493.1,1149.2z"/>
		<path fill="#D65537" d="M425.3,1138c-3.5-10-13-16.7-23.6-16.3c-3.6,0.1-3.6,5.7,0,5.6c8.1-0.3,15.5,4.5,18.2,12.2
			C421.1,1142.8,426.5,1141.3,425.3,1138L425.3,1138z"/>
	</g>
	<g>
		<path fill="#D65537" d="M853.7,1199.8H738.1c-1.6,0-2.9-1.3-2.9-2.9v-156.7c0-1.6,1.3-2.9,2.9-2.9h94.1c1.6,0,2.9,1.3,2.9,2.9
			s-1.3,2.9-2.9,2.9h-91.2v151h109.9v-26.6c0-1.6,1.3-2.9,2.9-2.9c1.6,0,2.9,1.3,2.9,2.9v29.4
			C856.5,1198.5,855.3,1199.8,853.7,1199.8z"/>
		<path fill="#D65537" d="M853.7,1095.5c-1.6,0-2.9-1.3-2.9-2.9v-52.3c0-1.6,1.3-2.9,2.9-2.9c1.6,0,2.9,1.3,2.9,2.9v52.3
			C856.5,1094.2,855.3,1095.5,853.7,1095.5z"/>
		<path fill="#D65537" d="M833.2,1160.5c-0.7,0-1.5-0.3-2-0.8l-15.7-15.7c-1.1-1.1-1.1-2.8-0.1-4l52.3-56.1c1.1-1.1,2.9-1.2,4-0.2
			l22.6,20.5c1.2,1,1.3,2.8,0.2,4l-16.4,18.8c-1,1.2-2.8,1.3-4,0.3l-15-12.7c-1.2-1-1.4-2.8-0.4-4c1-1.2,2.8-1.4,4-0.3l12.9,10.9
			l12.7-14.6l-18.4-16.7l-48.5,52l13.8,13.8c1.1,1.1,1.1,2.9,0,4C834.6,1160.2,833.9,1160.5,833.2,1160.5z"/>
		<path fill="#D65537" d="M812.6,1174.8c-0.7,0-1.4-0.3-1.9-0.7c-0.7-0.6-1-1.5-0.9-2.4l2.4-28.1c0.1-1.6,1.5-2.7,3.1-2.6
			c1.6,0.1,2.7,1.5,2.6,3.1l-2.1,24.3l21.3-4.2l30.3-33.2c1.1-1.2,2.9-1.2,4-0.2c1.2,1.1,1.2,2.9,0.2,4l-30.9,33.9
			c-0.4,0.5-1,0.8-1.6,0.9l-26,5.1C813,1174.8,812.8,1174.8,812.6,1174.8z"/>
		<path fill="#D65537" d="M829.5,1069.3H761c-1.6,0-2.9-1.3-2.9-2.9s1.3-2.9,2.9-2.9h68.5c1.6,0,2.9,1.3,2.9,2.9
			S831.1,1069.3,829.5,1069.3z"/>
		<path fill="#D65537" d="M829.5,1091.6H761c-1.6,0-2.9-1.3-2.9-2.9c0-1.6,1.3-2.9,2.9-2.9h68.5c1.6,0,2.9,1.3,2.9,2.9
			C832.3,1090.4,831.1,1091.6,829.5,1091.6z"/>
		<path fill="#D65537" d="M829.5,1113.2H761c-1.6,0-2.9-1.3-2.9-2.9c0-1.6,1.3-2.9,2.9-2.9h68.5c1.6,0,2.9,1.3,2.9,2.9
			C832.3,1111.9,831.1,1113.2,829.5,1113.2z"/>
		<path fill="#D65537" d="M817.4,1135H761c-1.6,0-2.9-1.3-2.9-2.9c0-1.6,1.3-2.9,2.9-2.9h56.4c1.6,0,2.9,1.3,2.9,2.9
			C820.3,1133.7,819,1135,817.4,1135z"/>
		<path fill="#D65537" d="M807.2,1157.1H761c-1.6,0-2.9-1.3-2.9-2.9c0-1.6,1.3-2.9,2.9-2.9h46.2c1.6,0,2.9,1.3,2.9,2.9
			C810,1155.8,808.7,1157.1,807.2,1157.1z"/>
		<path fill="#D65537" d="M807.2,1179.1H761c-1.6,0-2.9-1.3-2.9-2.9s1.3-2.9,2.9-2.9h46.2c1.6,0,2.9,1.3,2.9,2.9
			S808.7,1179.1,807.2,1179.1z"/>
	</g>
	<path fill="#D65537" d="M472.4,1491.1c-0.8,0-1.5-0.3-2.1-0.8l-30.2-27.2l-34.6,27.3c-1,0.8-2.5,0.9-3.6,0.2
		c-1.1-0.7-1.7-2-1.4-3.3l8-38.1l-30.2-26.5c-1-0.9-1.3-2.3-0.9-3.5c0.5-1.2,1.6-2,3-2h38.6l15.3-32.3c0.5-1.1,1.6-1.8,2.9-1.8l0,0
		c1.2,0,2.3,0.7,2.9,1.8l14.6,31.1l32.5,0.6c2.4-6.4,10.8-23.7,28.5-23.1c12.6,0.5,20.1,8.9,23.9,16.8c2.6-5.2,6.9-11.3,13.5-14
		c6.7-2.8,14.2-1.6,22.4,3.4c7,4.7,17.6,17.7,8.2,33.9c-0.3,0.4-21.7,34.1-42.3,56.6c-0.6,0.6-1.4,1-2.2,1c-0.9,0-1.7-0.3-2.3-0.9
		l-30.3-28.9c-1.3-1.2-1.3-3.2-0.1-4.5c1.2-1.3,3.2-1.3,4.5-0.1l27.9,26.7c19.5-22,39.2-52.9,39.4-53.2c8.7-15.1-5.6-24.9-6.2-25.3
		c-6.3-3.8-11.9-4.8-16.5-2.9c-9.4,3.9-13,18.2-13,18.3c-0.4,1.4-1.8,2.5-3.2,2.4c-1.5,0-2.7-1.1-3-2.6c-0.1-0.8-3.7-19.7-20.9-20.4
		c-16.3-0.8-22.9,20.6-23,20.8c-0.4,1.4-1.5,2.2-3.1,2.3l-36.7-0.6c-1.2,0-2.3-0.7-2.8-1.8l-12.6-26.8l-13.2,28.1
		c-0.5,1.1-1.6,1.8-2.9,1.8h-32.2l25.3,22.2c0.9,0.8,1.2,1.9,1,3l-6.6,31.4l29.9-23.5c1.2-0.9,2.9-0.9,4.1,0.1l24.8,22.3l-6.8-30.3
		c-0.4-1.7,0.7-3.4,2.4-3.8c1.7-0.4,3.4,0.7,3.8,2.4l9,40c0.3,1.3-0.3,2.7-1.5,3.4C473.5,1491,472.9,1491.1,472.4,1491.1z"/>
	<path fill="#D65537" d="M238.8,1512.7H113.3c-1.8,0-3.2-1.4-3.2-3.2v-68.1c0-1.8,1.4-3.2,3.2-3.2h56.5v-52.2H71.6v52.2h16.3
		c1.8,0,3.2,1.4,3.2,3.2s-1.4,3.2-3.2,3.2H68.4c-1.8,0-3.2-1.4-3.2-3.2v-58.7c0-1.8,1.4-3.2,3.2-3.2h104.5c1.8,0,3.2,1.4,3.2,3.2
		v58.7c0,1.8-1.4,3.2-3.2,3.2h-56.5v61.7h119.1v-63.4h-43.5c-1.8,0-3.2-1.4-3.2-3.2v-37.5c0-1.8,1.4-3.2,3.2-3.2h46.7v-19.1h-36.9
		c-1.8,0-3.2-1.4-3.2-3.2c0-1.8,1.4-3.2,3.2-3.2H242c1.8,0,3.2,1.4,3.2,3.2v25.5c0,1.8-1.4,3.2-3.2,3.2h-46.7v31.1h43.5
		c1.8,0,3.2,1.4,3.2,3.2v69.8C242,1511.3,240.6,1512.7,238.8,1512.7z"/>
	<g>
		<path fill="#FFFFFF" d="M809.3,1456.4c-1.7,27.9,45.3,29.2,63.4,22.7c9.1-3.3,25.5-11.6,28.4-22.1c3-10.7-5.2-18-14.5-21
			c-3.4-1.1-4.9,4.3-1.5,5.4c26.9,8.5,0.1,25-6.3,28.5c-6.8,3.7-13.2,6.1-21.2,6.3c-13.1,0.3-43.9,0.4-42.7-19.8
			C815.1,1452.8,809.5,1452.8,809.3,1456.4L809.3,1456.4z"/>
		<path fill="#FFFFFF" d="M841.3,1428.7c9.8,17.3,41.8,21.8,51.8,2.5c9.9-19-9.2-32.6-26.6-25.9c0.9,1.6,1.8,3.1,2.7,4.7
			c5.7-5,12.8-17.4,5.8-24.7c-6.6-6.8-23.2-1.7-30,2c1.3,1.3,2.5,2.5,3.8,3.8c15.7-22.1-16.7-34.9-29.3-15c-1.9,3,2.9,5.8,4.8,2.8
			c10.3-16.3,29.5-4.5,19.7,9.3c-1.7,2.4,1.5,5.1,3.8,3.8c4.2-2.3,11.7-5.1,16.5-4c11.7,2.6,7.3,12.3,0.9,17.9
			c-2,1.8,0.1,5.7,2.7,4.7c5-1.9,10.9-3.3,16-0.4c8.3,4.8,6.9,18.2,0.1,23.6c-10.6,8.5-31.7,3-38-8
			C844.4,1422.7,839.6,1425.5,841.3,1428.7L841.3,1428.7z"/>
		<path fill="#FFFFFF" d="M799,1404.3c14.8-4.8,35.8-18.1,20-34.3c-13.7-14-34.2-1.6-35.5,15.5c1.8-0.2,3.6-0.5,5.5-0.7
			c-6-14.4-24.3-16.1-31.5-1.5c-1.6,3.2,3.2,6,4.8,2.8c4.1-8.4,16.9-10.5,21.3,0.1c1.2,2.8,5.2,2.6,5.5-0.7
			c0.6-8.2,6.5-15.7,15.4-15.8c4.8,0,11.7,3.1,13.1,8c3.5,12.2-10.9,18.2-20.1,21.2C794.1,1400,795.6,1405.4,799,1404.3L799,1404.3z
			"/>
		<path fill="#FFFFFF" d="M775.4,1402.9c-3.6-8.6-9.3-18.1-19.1-20.3c-9.2-2.1-18.4,3.2-23.4,10.7c-5.3,7.8-6.8,19.4-0.5,27.2
			c5.4,6.6,14.5,8.5,21.9,4.3c3.1-1.8,0.3-6.6-2.8-4.8c-7.1,4-15.4-0.7-17.2-8.2c-1.9-7.7,2.1-16.1,8.3-20.6
			c13.3-9.6,23.2,3,28.1,14.5C772,1409,776.8,1406.2,775.4,1402.9L775.4,1402.9z"/>
		<path fill="#FFFFFF" d="M725.5,1405.6c-16,4.2-22.3,20-13.6,34.1c0.3-1.3,0.7-2.5,1-3.8c-18.3,11.4-12.6,35.7,6.8,42.3
			c20.3,6.9,48,1.2,48.7-23.6c0.1-3.6-5.5-3.6-5.6,0c-0.4,16.2-15.7,21.1-29.7,20.2c-5.7-0.3-12.2-1.1-17-4.3
			c-10.8-7.1-12.4-22.2-0.3-29.8c1.3-0.8,1.8-2.5,1-3.8c-6-9.7-0.8-22.9,10.3-25.9C730.4,1410,728.9,1404.7,725.5,1405.6
			L725.5,1405.6z"/>
		<path fill="#FFFFFF" d="M843.9,1399.9c-3.8,16.8-21.6,15.3-35.4,14c-3.6-0.3-3.5,5.2,0,5.6c16.7,1.6,36.4,1.5,40.8-18.1
			C850,1397.9,844.7,1396.4,843.9,1399.9L843.9,1399.9z"/>
		<path fill="#FFFFFF" d="M840.4,1473c5.2-16.4-1.4-34.2-15.9-43.4c-3-1.9-5.8,2.9-2.8,4.8c12.5,7.9,17.8,23,13.4,37.1
			C834,1475,839.3,1476.4,840.4,1473L840.4,1473z"/>
		<path fill="#FFFFFF" d="M879.4,1467c-5.6-8.4-14.4-13.5-24.5-14.2c-3.6-0.2-3.6,5.3,0,5.6c8.1,0.5,15.2,4.7,19.7,11.4
			C876.6,1472.8,881.4,1470,879.4,1467L879.4,1467z"/>
		<path fill="#FFFFFF" d="M787.4,1402.4c-8,9.2-8,22.7,0.1,31.8c2.4,2.7,6.3-1.3,3.9-3.9c-6-6.8-6-17.1-0.1-24
			C793.7,1403.6,789.7,1399.6,787.4,1402.4L787.4,1402.4z"/>
		<path fill="#FFFFFF" d="M784.1,1512.6h-24.1c-0.8,0-1.5-0.3-2-0.9c-0.5-0.6-0.8-1.3-0.8-2.1c0.1-1,1.1-24.9-25.5-29.3
			c-1.5-0.3-2.5-1.7-2.3-3.2c0.2-1.5,1.5-2.6,3.2-2.3c25.6,4.2,29.5,24.5,30,32.2h18c-6.7-31.6-2.8-45.3-2.6-45.9
			c2.1-11.8,1-21.1-3.3-27.3c-4-5.7-9.4-6.7-9.7-6.7c-1.5-0.3-2.5-1.7-2.3-3.2c0.2-1.5,1.6-2.5,3.2-2.3c0.3,0,7.8,1.3,13.3,8.9
			c5.3,7.5,6.8,18.2,4.3,32c-0.1,0.4-4,14.4,3.4,46.7c0.2,0.8,0,1.7-0.5,2.4S784.9,1512.6,784.1,1512.6z"/>
		<path fill="#FFFFFF" d="M806.5,1445.9c-5.6-1.3-10.9,0.1-15.9,2.5c-2.2,1.1-4.3,2.5-6,4.4c-1.6,1.7-2.1,4-3.4,5.7
			c1.3,0,2.6,0,3.9,0c-0.1-0.1-0.1-0.1-0.2-0.2c0,1.3,0,2.6,0,3.9c0.1-0.1,0.1-0.1,0.2-0.2c2.6-2.5-1.4-6.5-3.9-3.9
			c-0.1,0.1-0.1,0.1-0.2,0.2c-1.1,1.1-1,2.8,0,3.9c0.1,0.1,0.1,0.1,0.2,0.2c0.9,1.1,3.1,1.1,3.9,0c2.3-2.9,3-6.1,6.5-8.2
			c3.9-2.4,8.9-4,13.4-2.9C808.5,1452.1,810,1446.7,806.5,1445.9L806.5,1445.9z"/>
		<path fill="#FFFFFF" d="M812.8,1468.7c-4.8,6.9-17.2,11.3-23.3,3c-2.1-2.9-6.9-0.1-4.8,2.8c8.6,11.8,25.6,7.7,32.9-3
			C819.7,1468.6,814.9,1465.8,812.8,1468.7L812.8,1468.7z"/>
		<path fill="#FFFFFF" d="M745,1457.5c-3.5-10-13-16.7-23.6-16.3c-3.6,0.1-3.6,5.7,0,5.6c8.1-0.3,15.5,4.5,18.2,12.2
			C740.8,1462.3,746.2,1460.9,745,1457.5L745,1457.5z"/>
	</g>
	<g>
		<path fill="#FFFFFF" d="M204.5,1849H74.4c-1.8,0-3.2-1.4-3.2-3.2v-176.3c0-1.8,1.4-3.2,3.2-3.2h105.8c1.8,0,3.2,1.4,3.2,3.2
			s-1.4,3.2-3.2,3.2H77.6v169.8h123.6v-29.9c0-1.8,1.4-3.2,3.2-3.2s3.2,1.4,3.2,3.2v33.1C207.7,1847.5,206.3,1849,204.5,1849z"/>
		<path fill="#FFFFFF" d="M204.5,1731.6c-1.8,0-3.2-1.4-3.2-3.2v-58.9c0-1.8,1.4-3.2,3.2-3.2s3.2,1.4,3.2,3.2v58.9
			C207.7,1730.1,206.3,1731.6,204.5,1731.6z"/>
		<path fill="#FFFFFF" d="M181.4,1804.7c-0.8,0-1.6-0.3-2.3-0.9l-17.7-17.7c-1.2-1.2-1.3-3.2-0.1-4.5l58.9-63.1
			c1.2-1.3,3.2-1.4,4.5-0.2l25.4,23.1c1.3,1.2,1.4,3.2,0.3,4.5l-18.5,21.2c-1.2,1.3-3.2,1.5-4.5,0.3l-16.9-14.2
			c-1.4-1.1-1.5-3.2-0.4-4.5c1.1-1.4,3.2-1.5,4.5-0.4l14.5,12.2l14.3-16.4l-20.7-18.8l-54.6,58.5l15.5,15.5c1.3,1.3,1.3,3.3,0,4.5
			C183,1804.4,182.2,1804.7,181.4,1804.7z"/>
		<path fill="#FFFFFF" d="M158.3,1820.9c-0.8,0-1.5-0.3-2.1-0.8c-0.8-0.7-1.1-1.7-1.1-2.7l2.7-31.6c0.2-1.8,1.7-3.1,3.5-2.9
			c1.8,0.2,3.1,1.7,2.9,3.5l-2.3,27.3l24-4.7l34.1-37.3c1.2-1.3,3.2-1.4,4.5-0.2c1.3,1.2,1.4,3.2,0.2,4.5l-34.8,38.1
			c-0.5,0.5-1.1,0.9-1.8,1l-29.2,5.8C158.7,1820.8,158.5,1820.9,158.3,1820.9z"/>
		<path fill="#FFFFFF" d="M177.3,1702.1h-77.1c-1.8,0-3.2-1.4-3.2-3.2c0-1.8,1.4-3.2,3.2-3.2h77.1c1.8,0,3.2,1.4,3.2,3.2
			C180.5,1700.7,179,1702.1,177.3,1702.1z"/>
		<path fill="#FFFFFF" d="M177.3,1727.3h-77.1c-1.8,0-3.2-1.4-3.2-3.2s1.4-3.2,3.2-3.2h77.1c1.8,0,3.2,1.4,3.2,3.2
			S179,1727.3,177.3,1727.3z"/>
		<path fill="#FFFFFF" d="M177.3,1751.5h-77.1c-1.8,0-3.2-1.4-3.2-3.2s1.4-3.2,3.2-3.2h77.1c1.8,0,3.2,1.4,3.2,3.2
			S179,1751.5,177.3,1751.5z"/>
		<path fill="#FFFFFF" d="M163.7,1776h-63.5c-1.8,0-3.2-1.4-3.2-3.2s1.4-3.2,3.2-3.2h63.5c1.8,0,3.2,1.4,3.2,3.2
			S165.5,1776,163.7,1776z"/>
		<path fill="#FFFFFF" d="M152.1,1800.9h-52c-1.8,0-3.2-1.4-3.2-3.2s1.4-3.2,3.2-3.2h52c1.8,0,3.2,1.4,3.2,3.2
			S153.9,1800.9,152.1,1800.9z"/>
		<path fill="#FFFFFF" d="M152.1,1825.7h-52c-1.8,0-3.2-1.4-3.2-3.2c0-1.8,1.4-3.2,3.2-3.2h52c1.8,0,3.2,1.4,3.2,3.2
			C155.4,1824.2,153.9,1825.7,152.1,1825.7z"/>
	</g>
	<path fill="#FFFFFF" d="M471.1,1806.5c-0.7,0-1.4-0.3-2-0.8l-28.8-25.9l-33,26c-1,0.8-2.4,0.9-3.5,0.2c-1.1-0.7-1.6-1.9-1.4-3.2
		l7.6-36.3l-28.7-25.2c-0.9-0.8-1.3-2.2-0.8-3.3c0.4-1.2,1.6-2,2.8-2H420l14.5-30.8c0.5-1.1,1.6-1.7,2.7-1.7l0,0
		c1.2,0,2.2,0.7,2.7,1.7l13.9,29.6l30.9,0.5c2.3-6.1,10.3-22.6,27.2-22c12,0.5,19.1,8.5,22.8,16c2.5-4.9,6.5-10.7,12.8-13.4
		c6.3-2.6,13.5-1.5,21.3,3.2c6.7,4.5,16.7,16.9,7.8,32.3c-0.3,0.4-20.7,32.5-40.3,53.9c-0.5,0.6-1.3,1-2.1,1c-0.8,0-1.6-0.3-2.2-0.8
		l-28.8-27.5c-1.2-1.1-1.2-3.1-0.1-4.3c1.1-1.2,3.1-1.2,4.3-0.1l26.6,25.4c18.6-21,37.3-50.4,37.5-50.7c8.3-14.4-5.3-23.7-5.9-24.1
		c-6-3.6-11.3-4.6-15.8-2.7c-9,3.7-12.4,17.3-12.4,17.5c-0.3,1.4-1.7,2.4-3,2.3c-1.4,0-2.6-1.1-2.9-2.5c-0.1-0.8-3.6-18.8-19.9-19.5
		c-15.6-0.8-21.8,19.6-21.9,19.8c-0.4,1.3-1.5,2.1-2.9,2.2l-35-0.6c-1.1,0-2.2-0.7-2.7-1.7l-12-25.5l-12.6,26.7
		c-0.5,1.1-1.6,1.7-2.7,1.7h-30.7l24.1,21.1c0.8,0.7,1.2,1.8,1,2.9L410,1796l28.5-22.4c1.2-0.9,2.8-0.9,3.9,0.1L466,1795l-6.5-28.8
		c-0.4-1.6,0.7-3.2,2.3-3.6c1.6-0.4,3.2,0.7,3.6,2.3l8.6,38c0.3,1.3-0.3,2.6-1.4,3.3C472.1,1806.4,471.6,1806.5,471.1,1806.5z"/>
	<path fill="#FFFFFF" d="M884.6,1825.7H759.1c-1.8,0-3.2-1.4-3.2-3.2v-68.1c0-1.8,1.4-3.2,3.2-3.2h56.5v-52.2h-98.1v52.2h16.3
		c1.8,0,3.2,1.4,3.2,3.2s-1.4,3.2-3.2,3.2h-19.5c-1.8,0-3.2-1.4-3.2-3.2v-58.7c0-1.8,1.4-3.2,3.2-3.2h104.5c1.8,0,3.2,1.4,3.2,3.2
		v58.7c0,1.8-1.4,3.2-3.2,3.2h-56.5v61.7h119.1v-63.4h-43.5c-1.8,0-3.2-1.4-3.2-3.2v-37.5c0-1.8,1.4-3.2,3.2-3.2h46.7v-19.1h-36.9
		c-1.8,0-3.2-1.4-3.2-3.2s1.4-3.2,3.2-3.2h40.2c1.8,0,3.2,1.4,3.2,3.2v25.5c0,1.8-1.4,3.2-3.2,3.2h-46.7v31.1h43.5
		c1.8,0,3.2,1.4,3.2,3.2v69.8C887.8,1824.3,886.4,1825.7,884.6,1825.7z"/>
	<path fill="#FFFFFF" d="M902,818.3c-0.1-27.9-27.3-50.4-60.7-50.3c-33.4,0.2-60.4,22.9-60.2,50.8c0.1,27.9,27.3,50.4,60.7,50.3
		c6.7,0,13.1-1,19.1-2.7c0.3-0.1,1-0.3,1-0.3l21.9,11l-5.9-18.3c0,0,0.4-0.2,0.6-0.4C892.8,849.3,902.1,834.7,902,818.3z
		 M820.5,809.5c-4.7,0-8.5-3.6-8.5-8.2c0-4.5,3.8-8.2,8.5-8.2c4.7,0,8.5,3.6,8.5,8.2C829,805.8,825.2,809.5,820.5,809.5z
		 M862.5,809.3c-4.7,0-8.5-3.6-8.5-8.2c0-4.5,3.8-8.2,8.4-8.2c4.7,0,8.5,3.6,8.5,8.2C871,805.6,867.2,809.3,862.5,809.3z"/>
	<path fill="#FFFFFF" d="M773.3,713c-39.5,0.2-71.4,27.1-71.3,60.2c0.1,19.4,11.2,36.6,28.3,47.4c0.2,0.1,0.7,0.4,0.7,0.4l-6.8,21.7
		l25.8-13.3c0,0,0.8,0.2,1.2,0.3c7.1,2,14.7,3,22.7,2.9c1.6,0,3.2-0.1,4.8-0.2c-1.5-4.5-2.3-9.3-2.3-14.3
		c-0.1-30.2,28.9-54.8,64.9-54.9c1,0,2,0,3,0.1C838.8,734.6,809.1,712.8,773.3,713z M748.6,762c-5.6,0-10.1-4.3-10.1-9.7
		s4.5-9.7,10-9.8c5.6,0,10.1,4.3,10.1,9.7S754.2,762,748.6,762z M798.4,761.8c-5.6,0-10.1-4.3-10.1-9.7s4.4-9.7,10-9.8
		c5.5,0,10.1,4.3,10.1,9.7C808.4,757.4,804,761.8,798.4,761.8z"/>
	<g>
		<path fill="#D65537" d="M480,1270c-82.7,0-150-67.3-150-150s67.3-150,150-150s150,67.3,150,150S562.7,1270,480,1270z M480,976
			c-79.4,0-144,64.6-144,144c0,79.4,64.6,144,144,144s144-64.6,144-144C624,1040.6,559.4,976,480,976z"/>
	</g>
	<g>
		<path fill="#D65537" d="M800,1270c-82.7,0-150-67.3-150-150s67.3-150,150-150s150,67.3,150,150S882.7,1270,800,1270z M800,976
			c-79.4,0-144,64.6-144,144c0,79.4,64.6,144,144,144s144-64.6,144-144C944,1040.6,879.4,976,800,976z"/>
	</g>
	<g>
		<path fill="#D65537" d="M480,1590c-82.7,0-150-67.3-150-150s67.3-150,150-150s150,67.3,150,150S562.7,1590,480,1590z M480,1296
			c-79.4,0-144,64.6-144,144c0,79.4,64.6,144,144,144s144-64.6,144-144C624,1360.6,559.4,1296,480,1296z"/>
	</g>
	<g>
		<path fill="#D65537" d="M160,1590c-82.7,0-150-67.3-150-150s67.3-150,150-150s150,67.3,150,150S242.7,1590,160,1590z M160,1296
			c-79.4,0-144,64.6-144,144c0,79.4,64.6,144,144,144s144-64.6,144-144C304,1360.6,239.4,1296,160,1296z"/>
	</g>
</g>
</svg>
