<?xml version="1.0" encoding="utf-8"?>
<!-- Generator: Adobe Illustrator 18.0.0, SVG Export Plug-In . SVG Version: 6.00 Build 0)  -->
<!DOCTYPE svg PUBLIC "-//W3C//DTD SVG 1.1//EN" "http://www.w3.org/Graphics/SVG/1.1/DTD/svg11.dtd">
<svg version="1.1" xmlns="http://www.w3.org/2000/svg" xmlns:xlink="http://www.w3.org/1999/xlink" x="0px" y="0px" width="175px"
	 height="358px" viewBox="0 0 175 358" enable-background="new 0 0 175 358" xml:space="preserve">
<g id="图层_2">
	<path fill="#FFFFFF" d="M156.2,358H18.8C8.5,358,0,349.5,0,339.2V18.8C0,8.5,8.5,0,18.8,0h137.3C166.5,0,175,8.5,175,18.8v320.3
		C175,349.5,166.5,358,156.2,358z"/>
	<rect x="9.1" y="47.9" fill="#393A3A" width="156.7" height="268.7"/>
</g>
<g id="图层_1">
	<rect x="14.6" y="107" fill="#4F4F4F" width="145.8" height="160"/>
	<rect x="24.3" y="97" fill="#FCFBF0" width="126.4" height="180"/>
	<path fill="#757474" d="M99,33.5H76c-1.3,0-2.4-1.1-2.4-2.4v-0.6c0-1.3,1.1-2.4,2.4-2.4h23c1.3,0,2.4,1.1,2.4,2.4v0.6
		C101.4,32.4,100.3,33.5,99,33.5z M76,29.6c-0.5,0-0.9,0.4-0.9,0.9v0.6c0,0.5,0.4,0.9,0.9,0.9h23c0.5,0,0.9-0.4,0.9-0.9v-0.6
		c0-0.5-0.4-0.9-0.9-0.9H76z"/>
	<path fill="#757474" d="M87.5,24.1c-2.1,0-3.9-1.7-3.9-3.7s1.7-3.7,3.9-3.7s3.9,1.7,3.9,3.7S89.6,24.1,87.5,24.1z M87.5,18
		c-1.4,0-2.6,1.1-2.6,2.5s1.2,2.5,2.6,2.5s2.6-1.1,2.6-2.5S88.9,18,87.5,18z"/>
	<path fill="#757474" d="M87.5,349.5c-7.1,0-12.8-5.5-12.8-12.3s5.7-12.3,12.8-12.3c7.1,0,12.8,5.5,12.8,12.3S94.6,349.5,87.5,349.5
		z M87.5,326.9c-5.9,0-10.8,4.6-10.8,10.3s4.8,10.3,10.8,10.3s10.8-4.6,10.8-10.3S93.4,326.9,87.5,326.9z"/>
	<circle fill="#FFFFFF" cx="12.5" cy="53.7" r="1.3"/>
	<circle fill="#FFFFFF" cx="15.9" cy="53.7" r="1.3"/>
	<circle fill="#FFFFFF" cx="19.3" cy="53.7" r="1.3"/>
	<path fill="#FFFFFF" d="M22.8,55.1c-0.8,0-1.4-0.6-1.4-1.4s0.6-1.4,1.4-1.4s1.4,0.6,1.4,1.4S23.6,55.1,22.8,55.1z M22.8,52.5
		c-0.7,0-1.2,0.5-1.2,1.2s0.5,1.2,1.2,1.2s1.2-0.5,1.2-1.2S23.5,52.5,22.8,52.5z"/>
	<path fill="#FFFFFF" d="M26.3,55.1c-0.8,0-1.4-0.6-1.4-1.4s0.6-1.4,1.4-1.4s1.4,0.6,1.4,1.4S27.1,55.1,26.3,55.1z M26.3,52.5
		c-0.7,0-1.2,0.5-1.2,1.2s0.5,1.2,1.2,1.2s1.2-0.5,1.2-1.2S26.9,52.5,26.3,52.5z"/>
	<g>
		<path fill="#FFFFFF" d="M32.5,54l0.6,0.6c0.3-0.3,0.8-0.6,1.3-0.6c0.5,0,1,0.2,1.3,0.6l0.6-0.6c-0.5-0.5-1.1-0.8-1.9-0.8
			C33.6,53.2,32.9,53.6,32.5,54z"/>
		<path fill="#FFFFFF" d="M34.3,55c-0.3,0-0.5,0.1-0.6,0.3l0.6,0.6l0.6-0.6C34.8,55.1,34.6,55,34.3,55z"/>
		<path fill="#FFFFFF" d="M34.3,51.4c-1.2,0-2.3,0.5-3.1,1.3c0,0,0,0,0,0l0.6,0.6c0.6-0.7,1.5-1.1,2.5-1.1c1,0,1.9,0.4,2.5,1.1
			l0.6-0.6c0,0,0,0,0,0C36.7,51.9,35.5,51.4,34.3,51.4z"/>
	</g>
	<text transform="matrix(1 0 0 1 78.4998 56.2212)" fill="#FFFFFF" font-family="'YouYuan'" font-size="6">八音盒</text>
	<path fill="#FFFFFF" d="M160.4,52.6h-8.2v2.7h8.2V52.6"/>
	<path fill="#FFFFFF" d="M161.9,52.9h-0.4v-1c0-0.2-0.2-0.3-0.3-0.3h-9.6c-0.2,0-0.3,0.2-0.3,0.3V56c0,0.2,0.2,0.3,0.3,0.3h9.6
		c0.2,0,0.3-0.2,0.3-0.3v-1h0.4c0.2,0,0.3-0.1,0.3-0.3v-1.5C162.2,53,162,52.9,161.9,52.9z M161,55.9h-9.4V52h9.4V55.9z"/>
</g>
<g id="图层_3">
</g>
</svg>
