<?xml version="1.0" encoding="utf-8"?>
<!-- Generator: Adobe Illustrator 18.0.0, SVG Export Plug-In . SVG Version: 6.00 Build 0)  -->
<!DOCTYPE svg PUBLIC "-//W3C//DTD SVG 1.1//EN" "http://www.w3.org/Graphics/SVG/1.1/DTD/svg11.dtd">
<svg version="1.1" id="图层_1" xmlns="http://www.w3.org/2000/svg" xmlns:xlink="http://www.w3.org/1999/xlink" x="0px" y="0px"
	 width="800px" height="400px" viewBox="0 0 800 400" enable-background="new 0 0 800 400" xml:space="preserve">
<g>
	<g>
		<g>
			<path fill="#C4C4C1" d="M522.5,255.5c-5,0-8.1-5.5-5.4-9.7c0.5-0.9,1.2-1.6,2.1-2.3c2.2-1.7,5.1-2.4,7.9-2.2
				c2.6,0.2,4.9-1.3,6.1-3.6c0.3-0.6,0.6-1.1,0.9-1.5c1.1-1.6,2.5-3,4.2-4c5.5-3.3,10.9-3.1,16.3-0.7c2.2,1,4.9,0.6,6.7-1
				c2.7-2.5,6.5-3.9,10.2-4.5c4.7-0.7,9.5-0.2,13.9,1.4c3,1.1,5.5,3,7.5,5.6c0.8,1,1.3,2.1,1.7,3.2c0.9,2.6,3.5,4.2,6.3,4.2
				c2.5-0.1,4.9,0.7,6.9,2.2c1.3,1,2.3,2.4,3,4c1.9,4.2-1.2,8.9-5.8,8.9L522.5,255.5L522.5,255.5z"/>
		</g>
	</g>
	<g>
		<g>
			<path fill="#FFFFFF" d="M522.5,254.5c-5,0-8.1-5.5-5.4-9.7c0.5-0.9,1.2-1.6,2.1-2.3c2.2-1.7,5.1-2.4,7.9-2.2
				c2.6,0.2,4.9-1.3,6.1-3.6c0.3-0.6,0.6-1.1,0.9-1.5c1.1-1.6,2.5-3,4.2-4c5.5-3.3,10.9-3.1,16.3-0.7c2.2,1,4.9,0.6,6.7-1
				c2.7-2.5,6.5-3.9,10.2-4.5c4.7-0.7,9.5-0.2,13.9,1.4c3,1.1,5.5,3,7.5,5.6c0.8,1,1.3,2.1,1.7,3.2c0.9,2.6,3.5,4.2,6.3,4.2
				c2.5-0.1,4.9,0.7,6.9,2.2c1.3,1,2.3,2.4,3,4c1.9,4.2-1.2,8.9-5.8,8.9L522.5,254.5L522.5,254.5z"/>
		</g>
	</g>
</g>
<g>
	<g>
		<path fill="#C4C4C1" d="M755.1,132.1c4.1,0,7.1-3.8,6.2-7.7c-0.7-3-2-5.3-5.2-7.3c-4.4-2.8-9.1-2.6-13.8-0.7
			c-2,0.8-4.3,0.5-6.1-0.7c-5.1-3.6-13.5-5.6-19.2-4.1c-4.3,1.2-7.3,2.5-10,4.6c-2.2,1.7-5.3,1.6-7.6,0c-8.7-6.2-22.2-5-30.1,0.9
			c-2.2,1.6-3.8,3.2-5.1,4.9c-3.2,4.1-0.2,10.2,5.1,10.2L755.1,132.1z"/>
	</g>
	<g>
		<path fill="#FFFFFF" d="M755.1,131c4.1,0,7.1-3.8,6.2-7.7c-0.7-3-2-5.3-5.2-7.3c-4.4-2.8-9.1-2.6-13.8-0.7c-2,0.8-4.3,0.5-6.1-0.7
			c-5.1-3.6-13.5-5.6-19.2-4.1c-4.3,1.2-7.3,2.5-10,4.6c-2.2,1.7-5.3,1.6-7.6,0c-8.7-6.2-22.2-5-30.1,0.9c-2.2,1.6-3.8,3.2-5.1,4.9
			c-3.2,4.1-0.2,10.2,5.1,10.2L755.1,131z"/>
	</g>
</g>
<g>
	<path fill="#C4C4C1" d="M285.7,309.6h-72.6c-3.5,0-6.1-3.3-5.2-6.8c0.9-3.4,3.1-7.1,8.6-8c2.2-0.4,3.9-2.1,4.3-4.3
		c0.4-2.4,1.8-5.4,5.6-7.6c0,0,8.3-5.3,16.7-0.2c2.4,1.4,5.6,0.5,6.9-1.9c2.1-3.9,7.1-7.5,18.3-4.5c0,0,10.5,2.9,10.7,12.6
		c0.1,2.2,1.5,4.1,3.6,4.7c3.2,1,7.4,3.2,8.9,8.2C292.7,305.7,289.8,309.6,285.7,309.6z"/>
	<path fill="#FFFFFF" d="M285.7,308.8h-72.6c-3.5,0-6.1-3.3-5.2-6.8c0.9-3.4,3.1-7.1,8.6-8c2.2-0.4,3.9-2.1,4.3-4.3
		c0.4-2.4,1.8-5.4,5.6-7.6c0,0,8.3-5.3,16.7-0.2c2.4,1.4,5.6,0.5,6.9-1.9c2.1-3.9,7.1-7.5,18.3-4.5c0,0,10.5,2.9,10.7,12.6
		c0.1,2.2,1.5,4.1,3.6,4.7c3.2,1,7.4,3.2,8.9,8.2C292.7,304.8,289.8,308.8,285.7,308.8z"/>
</g>
<g>
	<path fill="#C4C4C1" d="M136.4,134.8H45.3c-4.4,0-7.7-4.2-6.6-8.5c1.1-4.3,3.9-8.9,10.8-10c2.8-0.5,4.9-2.6,5.4-5.4
		c0.5-3,2.2-6.7,7-9.6c0,0,10.4-6.6,21-0.3c3,1.8,7,0.7,8.7-2.4c2.7-4.9,8.9-9.5,22.9-5.6c0,0,13.1,3.7,13.5,15.8
		c0.1,2.7,1.9,5.1,4.5,5.9c4,1.3,9.3,4.1,11.1,10.3C145.2,129.8,141.5,134.8,136.4,134.8z"/>
	<path fill="#FFFFFF" d="M136.4,133.7H45.3c-4.4,0-7.7-4.2-6.6-8.5c1.1-4.3,3.9-8.9,10.8-10c2.8-0.5,4.9-2.6,5.4-5.4
		c0.5-3,2.2-6.7,7-9.6c0,0,10.4-6.6,21-0.3c3,1.8,7,0.7,8.7-2.4c2.7-4.9,8.9-9.5,22.9-5.6c0,0,13.1,3.7,13.5,15.8
		c0.1,2.7,1.9,5.1,4.5,5.9c4,1.3,9.3,4.1,11.1,10.3C145.2,128.8,141.5,133.7,136.4,133.7z"/>
</g>
</svg>
