<?xml version="1.0" encoding="utf-8"?>
<!-- Generator: Adobe Illustrator 18.0.0, SVG Export Plug-In . SVG Version: 6.00 Build 0)  -->
<!DOCTYPE svg PUBLIC "-//W3C//DTD SVG 1.1//EN" "http://www.w3.org/Graphics/SVG/1.1/DTD/svg11.dtd">
<svg version="1.1" id="图层_1" xmlns="http://www.w3.org/2000/svg" xmlns:xlink="http://www.w3.org/1999/xlink" x="0px" y="0px"
	 width="320px" height="124.9px" viewBox="0 0 320 124.9" enable-background="new 0 0 320 124.9" xml:space="preserve">
<path fill="#D75637" stroke="#CB5436" stroke-width="0.25" stroke-miterlimit="10" d="M131.6,34.2c1.5-1.9,2.6-1.7,3.3,0.6
	c-1.9,21.9-8.9,39.6-21.2,57.1c-2.6,1.1-3.5,0.4-2.8-2.2C122.8,72.2,129.7,55.1,131.6,34.2z M154.2,33.1c0.7-1.9,1.9-2,3.3-0.6
	c4.8,24.1,7.2,41.1,19.1,57.1c0.7,2.6-0.2,3.3-2.8,2.2C162,76.3,159.4,58.7,154.2,33.1z"/>
<path fill="#D75637" stroke="#CB5436" stroke-width="0.25" stroke-miterlimit="10" d="M245.8,51.2c1.9,1.1,1.9,2.2,0,3.3H184
	c-1.5-1.1-1.5-2.2,0-3.3h17.8c-1.5-5.2-2.8-8.5-3.9-10c0-2.2,0.9-2.8,2.8-1.7c1.9,3,3.3,6.9,4.5,11.7h18.4c2.2-4.5,3.9-8.4,5-11.7
	c1.9-1.5,3-1.1,3.3,1.1c-1.1,3-2.6,6.5-4.5,10.6H245.8z M243,36.7h-56.8c-1.9-1.1-1.9-2.2,0-3.3h26.8c-0.4-1.5-1.1-3.3-2.2-5.6
	c0-1.9,0.9-2.4,2.8-1.7c1.5,2.2,2.6,4.6,3.3,7.2H243C244.9,34.5,244.9,35.6,243,36.7z M196.8,59h35.7c4.1,0.4,5.9,2.2,5.6,5.6v21.2
	c0.4,4.1-1.7,5.9-6.1,5.6h-35.1c-3.7,0.4-5.6-1.7-5.6-6.1V65.7C191.2,61.2,193.1,59,196.8,59z M231.3,62.3h-33.4
	c-2.2,0-3.3,1.1-3.3,3.3v6.7h40.1v-6.7C235,63.4,233.9,62.3,231.3,62.3z M234.7,75.7h-40.1v8.9c0,2.6,1.1,3.7,3.3,3.3h33.4
	c2.6,0.4,3.7-0.7,3.3-3.3V75.7z"/>
<path fill="#D75637" stroke="#CB5436" stroke-width="0.25" stroke-miterlimit="10" d="M266.4,69.6h40.1c4.5,0,6.5,1.9,6.1,5.6v13.4
	h6.1c1.5,1.1,1.5,2.2,0,3.3h-64.1c-1.5-1.1-1.5-2.2,0-3.3h5.6V76.3C260.3,71.8,262.3,69.6,266.4,69.6z M299.9,29.5
	c8.5,7.4,7.6,12,17.2,16.1c1.1,1.9,0.6,2.8-1.7,2.8c-9.3-3.7-8.1-8.4-16.7-15.8c-1.1-1.5-22.3-1.6-23.8-0.1
	c-7.8,7.1-7.3,11.4-18,14.8c-1.9-0.7-2-1.9-0.6-3.3c10-3,9.3-7,17.5-14.5C277.1,28.1,297.5,28.3,299.9,29.5z M269.8,49.5h34.6
	c4.5,0,6.5,1.9,6.1,5.6v4.5c0.4,4.1-1.7,5.9-6.1,5.6h-34.6c-4.1,0.4-6.1-1.5-6.1-5.6v-3.3C263.7,51.7,265.7,49.5,269.8,49.5z
	 M277,72.9h-10c-2.2,0-3.3,1.1-3.3,3.3v12.3H277V72.9z M303.8,52.9h-33.4c-2.2,0-3.3,1.1-3.3,3.3V59c0,2.2,1.1,3.2,3.3,2.8h33.4
	c2.6,0.4,3.7-0.6,3.3-2.8v-3.3C307.5,53.8,306.4,52.9,303.8,52.9z M271.7,44.5c-0.6-0.8-0.6-2.3,0-3.3h30.7c0.6,1.2,0.6,2.4,0,3.3
	H271.7z M292.6,72.9h-12.3v15.6h12.3V72.9z M306,72.9h-10v15.6h13.4V75.7C309.7,73.9,308.6,72.9,306,72.9z"/>
<g>
	<path fill="#D75637" d="M33.6,29.6C33.6,29.6,33.6,29.6,33.6,29.6c-2.7,0-4.6-0.3-4.8-0.4l-3.2-0.6V10.6c-0.1-2.8,0.8-5.2,2.6-7
		C31.3,0.2,36.4,0,37.2,0c5.6-0.1,8.9,2,10.7,3.8c3.6,3.6,3.8,8.4,3.9,9.3c0.2,4.7-1.1,8.6-3.9,11.5C43.9,28.7,37.9,29.6,33.6,29.6z
		 M33.3,21.8c0.1,0,0.2,0,0.3,0h0c2.3,0,6.5-0.3,8.7-2.7c1.3-1.3,1.8-3.2,1.7-5.8l0-0.2c0-1.6-0.8-5.6-6.6-5.4l-0.1,0
		c-0.8,0-2.8,0.3-3.6,1.2c-0.1,0.1-0.4,0.5-0.4,1.4l0,0.1V21.8z"/>
	<path fill="#D75637" d="M51.6,124.9c-5.2,0-8.4-2.1-10.1-3.8c-3.6-3.6-3.8-8.3-3.9-9.3c-0.2-4.7,1.1-8.6,3.9-11.5
		c4-4.2,10-5,14.3-5c2.7,0,4.6,0.3,4.8,0.4l3.2,0.6v18.1c0.1,2.8-0.8,5.2-2.6,7c-3.2,3.3-8.3,3.5-9.1,3.6
		C52,124.9,51.8,124.9,51.6,124.9z M55.9,103.1c-2.3,0-6.5,0.3-8.7,2.7c-1.3,1.3-1.8,3.2-1.7,5.8l0,0.2c0,1.6,0.8,5.6,6.6,5.4l0.1,0
		c0.8,0,2.8-0.3,3.6-1.2c0.1-0.1,0.4-0.5,0.4-1.4l0-0.1v-11.3C56.1,103.1,56,103.1,55.9,103.1z"/>
	<path fill="#D75637" d="M23.9,101.2H5.8c-3.3,0-5.9-2.6-5.9-5.9V28.2c0-3.3,2.6-5.9,5.9-5.9h21.5c3.3,0,5.9,2.6,5.9,5.9v41.5
		c0,1.1-0.9,2-2,2h-3.7c-1.1,0-2-0.9-2-2V32.1c0-1.1-0.9-2-2-2H9.7c-1.1,0-2,0.9-2,2v59.4c0,1.1,0.9,2,2,2h14.2c1.1,0,2,0.9,2,2v3.7
		C25.9,100.3,25,101.2,23.9,101.2z"/>
	<path fill="#D75637" d="M82.4,102.1H61.8c-3.1,0-5.7-2.5-5.7-5.7V56.2C56,52.7,57.5,46,64.5,42.7l1.9-0.9c0.9-0.4,2,0,2.4,0.8
		l1.8,3.8c0.4,0.9,0,2-0.8,2.4l-1.9,0.9c-4,1.9-4,5.8-3.9,6.2c0,0.1,0,0.1,0,0.2v36.4c0,1,0.8,1.8,1.8,1.8h12.8c1,0,1.8-0.8,1.8-1.8
		V31c0-1-0.8-1.8-1.8-1.8h-16c-1,0-1.8-0.8-1.8-1.8v-4.2c0-1,0.8-1.8,1.8-1.8h19.8c3.1,0,5.7,2.5,5.7,5.7v69.3
		C88.1,99.5,85.5,102.1,82.4,102.1z"/>
</g>
</svg>
