<?xml version="1.0" encoding="utf-8"?>
<!-- Generator: Adobe Illustrator 18.0.0, SVG Export Plug-In . SVG Version: 6.00 Build 0)  -->
<!DOCTYPE svg PUBLIC "-//W3C//DTD SVG 1.1//EN" "http://www.w3.org/Graphics/SVG/1.1/DTD/svg11.dtd">
<svg version="1.1" id="图层_1" xmlns="http://www.w3.org/2000/svg" xmlns:xlink="http://www.w3.org/1999/xlink" x="0px" y="0px"
	 width="640px" height="640px" viewBox="0 0 640 640" enable-background="new 0 0 640 640" xml:space="preserve">
<g>
	<path fill="#CB5537" d="M266.5,151.5C266.5,151.5,266.5,151.5,266.5,151.5c-13.7,0-23.6-1.7-24.7-1.9l-16.4-2.9V54.3
		c-0.4-14.1,4.2-26.6,13.3-36C255.2,1.1,280.9,0.1,285.3,0c28.6-0.7,45.5,10.2,54.7,19.4c18.4,18.4,19.7,42.8,19.8,47.5
		c1,24.3-5.7,44-19.8,58.8C319.4,147,288.7,151.5,266.5,151.5z M265,111.8c0.5,0,0.9,0,1.4,0h0c11.8,0,33.4-1.8,44.8-13.6
		c6.5-6.8,9.3-16.5,8.8-29.9l0-0.9c-0.2-8.3-3.9-28.5-33.8-27.6l-0.6,0c-4.1,0.1-14.2,1.6-18.5,6.1c-0.7,0.7-2.3,2.4-2.1,7.4l0,0.7
		V111.8z"/>
	<path fill="#CB5537" d="M359.1,640c-26.8,0-42.9-10.5-51.7-19.4c-18.4-18.4-19.7-42.8-19.8-47.5c-1-24.3,5.7-44,19.8-58.8
		c20.5-21.4,51.2-25.9,73.4-25.9c13.7,0,23.6,1.7,24.7,1.9l16.4,2.9v92.5c0.4,14.1-4.2,26.6-13.3,36c-16.6,17.1-42.3,18.2-46.6,18.2
		C361,640,360.1,640,359.1,640z M380.8,528.2c-11.8,0-33.4,1.8-44.8,13.6c-6.5,6.8-9.3,16.5-8.8,29.9l0,0.9
		c0.2,8.3,4,28.6,33.8,27.6l0.6,0c4.1-0.1,14.2-1.6,18.5-6.1c0.7-0.7,2.3-2.4,2.1-7.4l0-0.7v-57.8
		C381.8,528.2,381.3,528.2,380.8,528.2z"/>
	<path fill="#CB5537" d="M217,518.4h-92.5c-16.7,0-30.2-13.5-30.2-30.2V144.3c0-16.7,13.5-30.2,30.2-30.2h110.2
		c16.7,0,30.2,13.5,30.2,30.2v212.3c0,5.7-4.6,10.3-10.3,10.3h-19.1c-5.7,0-10.3-4.6-10.3-10.3V164.2c0-5.7-4.6-10.3-10.3-10.3
		h-70.5c-5.7,0-10.3,4.6-10.3,10.3v304.1c0,5.7,4.6,10.3,10.3,10.3H217c5.7,0,10.3,4.6,10.3,10.3v19.1
		C227.3,513.7,222.7,518.4,217,518.4z"/>
	<path fill="#CB5537" d="M516.7,522.8H411.4c-16,0-29-13-29-29V288.1c-1-18.1,6.9-52.3,42.8-69.4l9.6-4.6c4.6-2.2,10.1-0.2,12.2,4.3
		l9.2,19.3c2.2,4.6,0.2,10.1-4.3,12.2l-9.6,4.6c-20.5,9.8-20.3,29.5-20.2,31.7c0,0.5,0,0.7,0,1.1v186.4c0,5.1,4.1,9.2,9.2,9.2h65.6
		c5.1,0,9.2-4.1,9.2-9.2V158.7c0-5.1-4.1-9.2-9.2-9.2H415c-5.1,0-9.2-4.1-9.2-9.2v-21.3c0-5.1,4.1-9.2,9.2-9.2h101.6
		c16,0,29,13,29,29v354.9C545.7,509.8,532.7,522.8,516.7,522.8z"/>
</g>
</svg>
